<svg id="Capa_2_copia" data-name="Capa 2 copia" xmlns="http://www.w3.org/2000/svg" viewBox="0 0 1125 2436">
  <title>sMesa de trabajo 1</title>
  <rect x="-21.5" y="-14.5" width="1164" height="2463" fill="#fff" stroke="#cbcbcb" stroke-miterlimit="10"/>
  <g>
    <path d="M.5-.5v790s346-234,552-213,393,48,573-35V-.5Z" fill="#3f3d56"/>
    <path d="M45.3,207.9a67.73,67.73,0,0,1,67.6-64.2q3.06,0,6.1.3a90,90,0,0,1,122.94-32.64l.06,0a88.87,88.87,0,0,1,32.5,32.5c1.7-.1,3.4-.2,5.1-.2a67.65,67.65,0,0,1,67.6,64.2" fill="#fff"/>
    <path d="M59.4,202.7A67.73,67.73,0,0,1,127,138.5q3.06,0,6.1.3A90,90,0,0,1,256,106.16l.06,0a88.87,88.87,0,0,1,32.5,32.5c1.7-.1,3.4-.2,5.1-.2a67.65,67.65,0,0,1,67.6,64.2" fill="none" stroke="#3f3d56" stroke-miterlimit="10"/>
    <path d="M169.4,483.4c6.1-118,103.7-211.9,223.3-211.9,6.8,0,13.5.4,20.1,1C495.2,130.7,677,82.5,818.9,165A297,297,0,0,1,926.3,272.3c5.6-.4,11.2-.7,17-.7,119.6,0,217.2,93.8,223.3,211.9" fill="#fff"/>
    <path d="M216,466.2c6.1-118,103.7-211.9,223.2-211.9,6.8,0,13.5.4,20.1,1,82.4-141.8,264.2-190,406-107.5A296.65,296.65,0,0,1,972.7,255c5.6-.4,11.3-.7,17-.7,119.5,0,217.2,93.8,223.3,211.9" fill="none" stroke="#3f3d56" stroke-miterlimit="10"/>
    <path d="M-205.3,732.1A106.46,106.46,0,0,1-99,631.2c3.2,0,6.4.2,9.6.5a141.42,141.42,0,0,1,193.3-51.26l.1.06a140.67,140.67,0,0,1,51.1,51.1q4.05-.3,8.1-.3A106.4,106.4,0,0,1,269.5,732.2" fill="#fff"/>
    <path d="M-183.1,723.9A106.55,106.55,0,0,1-76.8,623c3.2,0,6.4.2,9.6.5a141.42,141.42,0,0,1,244.5-.1q4-.3,8.1-.3A106.4,106.4,0,0,1,291.7,724" fill="none" stroke="#3f3d56" stroke-miterlimit="10"/>
  </g>
  <ellipse cx="545.23" cy="2427.55" rx="581" ry="22.99" fill="#3f3d56"/>
  <ellipse cx="582.44" cy="2433.95" rx="591.96" ry="23.42" opacity="0.1" style="isolation: isolate"/>
  <ellipse cx="584.99" cy="2433.95" rx="591.96" ry="23.42" fill="#3f3d56"/>
  <path d="M294.23,2418.38l.59.39.11.08,4.53,3,10.58,1.79,9.3-.64s2.68-5.61-1.53-5.48a8.82,8.82,0,0,1-3.84-1.1c.74.58,1.36,1.2,1.42,1.74.17,1.42-6.88,4-6.88,4l-10-2.6s-1.69-.48-4-1.08l-.22-.06Z" opacity="0.1" style="isolation: isolate"/>
  <path d="M290.36,2415.85l4.41,2.92c6.58-1.18,12.59-3.05,13.3-6a.38.38,0,0,0,0-.15c-1.4-1.07-2.33-1.9-2.33-1.9Z" opacity="0.1" style="isolation: isolate"/>
  <path d="M277.32,2420.65a148,148,0,0,0,17.34-1.86,85.8,85.8,0,0,0-10.43-2.17C280,2416.16,277.77,2419.81,277.32,2420.65Z" opacity="0.1" style="isolation: isolate"/>
  <path d="M193.18,2408.2s-8,1.27-12.29,0S193.18,2408.2,193.18,2408.2Z" opacity="0.1" style="isolation: isolate"/>
  <path d="M295.69,866.46c-3,12.52-6.77,15.49-10.34,14.64s-5.6-5.22-2.61-17.73,13.43-27.58,13.43-27.58S298.67,854,295.69,866.46Z" fill="#ccc"/>
  <path d="M287.69,1084.46c-3,12.52-6.77,15.49-10.34,14.64s-5.6-5.22-2.61-17.73,13.43-27.58,13.43-27.58S290.67,1072,287.69,1084.46Z" fill="#ccc"/>
  <path d="M300.77,995.34c-1.83,7.63-4.13,9.45-6.31,8.93s-3.42-3.18-1.59-10.82,8.19-16.83,8.19-16.83S302.59,987.7,300.77,995.34Z" fill="#ccc"/>
  <path d="M243.77,1032.34c-1.83,7.63-4.13,9.45-6.31,8.93s-3.42-3.18-1.59-10.82,8.19-16.83,8.19-16.83S245.59,1024.7,243.77,1032.34Z" fill="#ccc"/>
  <path d="M662.69,671.46c-3,12.52-6.77,15.49-10.34,14.64s-5.6-5.22-2.61-17.73,13.43-27.58,13.43-27.58S665.67,659,662.69,671.46Z" fill="#ccc"/>
  <path d="M675.77,582.34c-1.83,7.63-4.13,9.45-6.31,8.93s-3.42-3.18-1.59-10.82,8.19-16.83,8.19-16.83S677.59,574.7,675.77,582.34Z" fill="#ccc"/>
  <path d="M618.77,619.34c-1.83,7.63-4.13,9.45-6.31,8.93s-3.42-3.18-1.59-10.82,8.19-16.83,8.19-16.83S620.59,611.7,618.77,619.34Z" fill="#ccc"/>
  <path d="M504.69,1063.46c-3,12.52-6.77,15.49-10.34,14.64s-5.6-5.22-2.61-17.73,13.43-27.58,13.43-27.58S507.67,1051,504.69,1063.46Z" fill="#ccc"/>
  <path d="M517.77,974.34c-1.83,7.63-4.13,9.45-6.31,8.93s-3.42-3.18-1.59-10.82,8.19-16.83,8.19-16.83S519.59,966.7,517.77,974.34Z" fill="#ccc"/>
  <path d="M460.77,1011.34c-1.83,7.63-4.13,9.45-6.31,8.93s-3.42-3.18-1.59-10.82,8.19-16.83,8.19-16.83S462.59,1003.7,460.77,1011.34Z" fill="#ccc"/>
  <path d="M445.69,690.46c-3,12.52-6.77,15.49-10.34,14.64s-5.6-5.22-2.61-17.73,13.43-27.58,13.43-27.58S448.67,678,445.69,690.46Z" fill="#ccc"/>
  <path d="M437.69,908.46c-3,12.52-6.77,15.49-10.34,14.64s-5.6-5.22-2.61-17.73,13.43-27.58,13.43-27.58S440.67,896,437.69,908.46Z" fill="#ccc"/>
  <path d="M450.77,819.34c-1.83,7.63-4.13,9.45-6.31,8.93s-3.42-3.18-1.59-10.82,8.19-16.83,8.19-16.83S452.59,811.7,450.77,819.34Z" fill="#ccc"/>
  <path d="M393.77,856.34c-1.83,7.63-4.13,9.45-6.31,8.93s-3.42-3.18-1.59-10.82,8.19-16.83,8.19-16.83S395.59,848.7,393.77,856.34Z" fill="#ccc"/>
  <path d="M598.69,699.46c-3,12.52-6.77,15.49-10.34,14.64s-5.6-5.22-2.61-17.73,13.43-27.58,13.43-27.58S601.67,687,598.69,699.46Z" fill="#ccc"/>
  <path d="M590.69,917.46c-3,12.52-6.77,15.49-10.34,14.64s-5.6-5.22-2.61-17.73,13.43-27.58,13.43-27.58S593.67,905,590.69,917.46Z" fill="#ccc"/>
  <path d="M603.77,828.34c-1.83,7.63-4.13,9.45-6.31,8.93s-3.42-3.18-1.59-10.82,8.19-16.83,8.19-16.83S605.59,820.7,603.77,828.34Z" fill="#ccc"/>
  <path d="M740.69,741.46c-3,12.52-6.77,15.49-10.34,14.64s-5.6-5.22-2.61-17.73,13.43-27.58,13.43-27.58S743.67,729,740.69,741.46Z" fill="#ccc"/>
  <path d="M696.77,689.34c-1.83,7.63-4.13,9.45-6.31,8.93s-3.42-3.18-1.59-10.82,8.19-16.83,8.19-16.83S698.59,681.7,696.77,689.34Z" fill="#ccc"/>
  <path d="M811.69,682.46c-3,12.52-6.77,15.49-10.34,14.64s-5.6-5.22-2.61-17.73,13.43-27.58,13.43-27.58S814.67,670,811.69,682.46Z" fill="#ccc"/>
  <path d="M803.69,900.46c-3,12.52-6.77,15.49-10.34,14.64s-5.6-5.22-2.61-17.73,13.43-27.58,13.43-27.58S806.67,888,803.69,900.46Z" fill="#ccc"/>
  <path d="M816.77,811.34c-1.83,7.63-4.13,9.45-6.31,8.93s-3.42-3.18-1.59-10.82,8.19-16.83,8.19-16.83S818.59,803.7,816.77,811.34Z" fill="#ccc"/>
  <path d="M953.69,724.46c-3,12.52-6.77,15.49-10.34,14.64s-5.6-5.22-2.61-17.73,13.43-27.58,13.43-27.58S956.67,712,953.69,724.46Z" fill="#ccc"/>
  <path d="M909.77,672.34c-1.83,7.63-4.13,9.45-6.31,8.93s-3.42-3.18-1.59-10.82,8.19-16.83,8.19-16.83S911.59,664.7,909.77,672.34Z" fill="#ccc"/>
  <path d="M894.69,825.46c-3,12.52-6.77,15.49-10.34,14.64s-5.6-5.22-2.61-17.73,13.43-27.58,13.43-27.58S897.67,813,894.69,825.46Z" fill="#ccc"/>
  <path d="M886.69,1043.46c-3,12.52-6.77,15.49-10.34,14.64s-5.6-5.22-2.61-17.73,13.43-27.58,13.43-27.58S889.67,1031,886.69,1043.46Z" fill="#ccc"/>
  <path d="M899.77,954.34c-1.83,7.63-4.13,9.45-6.31,8.93s-3.42-3.18-1.59-10.82,8.19-16.83,8.19-16.83S901.59,946.7,899.77,954.34Z" fill="#ccc"/>
  <path d="M1036.69,867.46c-3,12.52-6.77,15.49-10.34,14.64s-5.6-5.22-2.61-17.73,13.43-27.58,13.43-27.58S1039.67,855,1036.69,867.46Z" fill="#ccc"/>
  <path d="M992.77,815.34c-1.83,7.63-4.13,9.45-6.31,8.93s-3.42-3.18-1.59-10.82,8.19-16.83,8.19-16.83S994.59,807.7,992.77,815.34Z" fill="#ccc"/>
  <path d="M60,308.56c-2,8.48-4.58,10.49-7,9.92s-3.79-3.54-1.77-12,9.09-18.68,9.09-18.68S62.05,300.09,60,308.56Z" fill="#ccc"/>
  <path d="M54.61,456.2c-2,8.47-4.58,10.49-7,9.91s-3.79-3.53-1.77-12,9.1-18.68,9.1-18.68S56.63,447.72,54.61,456.2Z" fill="#ccc"/>
  <path d="M63.47,395.84c-1.24,5.17-2.8,6.4-4.27,6.05s-2.32-2.16-1.08-7.33,5.55-11.4,5.55-11.4S64.7,390.67,63.47,395.84Z" fill="#ccc"/>
  <path d="M24.87,420.9c-1.24,5.17-2.8,6.4-4.28,6s-2.31-2.15-1.07-7.32,5.55-11.4,5.55-11.4S26.1,415.73,24.87,420.9Z" fill="#ccc"/>
  <path d="M72,789.76c-2,8.47-4.58,10.49-7,9.91s-3.79-3.53-1.77-12S72.31,769,72.31,769,74,781.28,72,789.76Z" fill="#ccc"/>
  <path d="M80.85,729.4c-1.24,5.17-2.8,6.4-4.28,6.05s-2.31-2.16-1.07-7.33S81,716.73,81,716.73,82.08,724.23,80.85,729.4Z" fill="#ccc"/>
  <path d="M42.24,754.46c-1.23,5.17-2.79,6.4-4.27,6s-2.31-2.16-1.08-7.33,5.55-11.4,5.55-11.4S43.48,749.29,42.24,754.46Z" fill="#ccc"/>
  <path d="M1018,632.59c-2,8.47-4.58,10.49-7,9.91s-3.79-3.53-1.77-12,9.09-18.68,9.09-18.68S1020,624.12,1018,632.59Z" fill="#ccc"/>
  <path d="M1026.87,572.23c-1.23,5.17-2.79,6.4-4.27,6s-2.31-2.15-1.07-7.33,5.54-11.39,5.54-11.39S1028.11,567.06,1026.87,572.23Z" fill="#ccc"/>
  <path d="M171.82,406.67c-1.23,5.18-2.79,6.41-4.27,6.05s-2.31-2.15-1.08-7.32S172,394,172,394,173.05,401.5,171.82,406.67Z" fill="#ccc"/>
  <path d="M345.7,589c-2,8.47-4.58,10.49-7,9.91s-3.79-3.53-1.76-12S346,568.23,346,568.23,347.73,580.53,345.7,589Z" fill="#ccc"/>
  <path d="M156.19,337c-2,8.47-4.58,10.49-7,9.91s-3.79-3.53-1.77-12,9.1-18.68,9.1-18.68S158.21,328.53,156.19,337Z" fill="#ccc"/>
  <path d="M165.05,276.65c-1.24,5.17-2.8,6.4-4.27,6.05s-2.32-2.16-1.08-7.33S165.25,264,165.25,264,166.28,271.48,165.05,276.65Z" fill="#ccc"/>
  <path d="M126.45,301.71c-1.24,5.17-2.8,6.4-4.27,6.05s-2.32-2.16-1.08-7.33,5.55-11.4,5.55-11.4S127.68,296.54,126.45,301.71Z" fill="#ccc"/>
  <path d="M449.32,595.1c-2,8.47-4.58,10.49-7,9.91s-3.79-3.53-1.77-12,9.09-18.68,9.09-18.68S451.34,586.62,449.32,595.1Z" fill="#ccc"/>
  <path d="M23.23,956.35c-2,8.47-4.58,10.49-7,9.91s-3.79-3.53-1.77-12,9.1-18.68,9.1-18.68S25.25,947.88,23.23,956.35Z" fill="#ccc"/>
  <path d="M452.76,682.37c-1.24,5.17-2.8,6.4-4.28,6s-2.31-2.16-1.07-7.33S453,669.7,453,669.7,454,677.2,452.76,682.37Z" fill="#ccc"/>
  <path d="M124.81,837.16c-2,8.48-4.58,10.49-7,9.91s-3.79-3.53-1.77-12,9.1-18.68,9.1-18.68S126.83,828.69,124.81,837.16Z" fill="#ccc"/>
  <path d="M95.07,801.86c-1.24,5.17-2.8,6.4-4.28,6s-2.31-2.16-1.07-7.33,5.55-11.39,5.55-11.39S96.3,796.69,95.07,801.86Z" fill="#ccc"/>
  <path d="M172.89,797.21c-2,8.47-4.58,10.49-7,9.91s-3.79-3.53-1.77-12,9.1-18.68,9.1-18.68S174.92,788.73,172.89,797.21Z" fill="#ccc"/>
  <path d="M167.47,944.84c-2,8.47-4.58,10.49-7,9.91s-3.79-3.53-1.76-12,9.09-18.67,9.09-18.67S169.5,936.36,167.47,944.84Z" fill="#ccc"/>
  <path d="M176.33,884.48c-1.23,5.17-2.79,6.4-4.27,6s-2.31-2.16-1.08-7.33,5.55-11.39,5.55-11.39S177.57,879.31,176.33,884.48Z" fill="#ccc"/>
  <path d="M269.06,825.65c-2,8.47-4.58,10.49-7,9.91s-3.79-3.53-1.76-12,9.09-18.68,9.09-18.68S271.08,817.18,269.06,825.65Z" fill="#ccc"/>
  <path d="M239.31,790.35c-1.23,5.17-2.79,6.4-4.27,6s-2.31-2.16-1.08-7.33,5.55-11.4,5.55-11.4S240.55,785.18,239.31,790.35Z" fill="#ccc"/>
  <path d="M229.1,894.05c-2,8.47-4.58,10.49-7,9.91s-3.79-3.53-1.77-12,9.1-18.68,9.1-18.68S231.12,885.57,229.1,894.05Z" fill="#ccc"/>
  <path d="M223.68,1041.68c-2,8.47-4.58,10.49-7,9.91s-3.79-3.53-1.76-12,9.09-18.68,9.09-18.68S225.71,1033.21,223.68,1041.68Z" fill="#ccc"/>
  <path d="M232.54,981.32c-1.23,5.17-2.79,6.4-4.27,6s-2.31-2.15-1.08-7.33,5.55-11.39,5.55-11.39S233.77,976.15,232.54,981.32Z" fill="#ccc"/>
  <path d="M325.26,922.49c-2,8.47-4.58,10.49-7,9.91s-3.79-3.53-1.76-12,9.09-18.68,9.09-18.68S327.29,914,325.26,922.49Z" fill="#ccc"/>
  <path d="M295.52,887.19c-1.23,5.17-2.79,6.4-4.27,6s-2.31-2.16-1.08-7.33,5.55-11.4,5.55-11.4S296.75,882,295.52,887.19Z" fill="#ccc"/>
  <path d="M158.67,1132.47c-4.3,18-9.74,22.32-14.89,21.09S135.72,1146,140,1128s19.34-39.73,19.34-39.73S163,1114.45,158.67,1132.47Z" fill="#ccc"/>
  <path d="M147.15,1446.49c-4.3,18-9.74,22.32-14.89,21.09s-8.06-7.52-3.76-25.54,19.35-39.73,19.35-39.73S151.45,1428.47,147.15,1446.49Z" fill="#ccc"/>
  <path d="M166,1318.11c-2.63,11-5.94,13.62-9.09,12.87s-4.91-4.59-2.29-15.59,11.81-24.24,11.81-24.24S168.62,1307.11,166,1318.11Z" fill="#ccc"/>
  <path d="M83.88,1371.41c-2.62,11-5.94,13.61-9.08,12.86s-4.92-4.58-2.29-15.58,11.8-24.24,11.8-24.24S86.51,1360.41,83.88,1371.41Z" fill="#ccc"/>
  <path d="M459.73,1416.25c-4.3,18-9.74,22.31-14.89,21.08s-8.06-7.51-3.76-25.54,19.35-39.73,19.35-39.73S464,1398.22,459.73,1416.25Z" fill="#ccc"/>
  <path d="M478.57,1287.86c-2.62,11-5.94,13.62-9.08,12.87s-4.92-4.59-2.3-15.58S479,1260.9,479,1260.9,481.2,1276.86,478.57,1287.86Z" fill="#ccc"/>
  <path d="M396.47,1341.16c-2.63,11-6,13.62-9.09,12.86s-4.92-4.58-2.29-15.58,11.8-24.24,11.8-24.24S399.09,1330.16,396.47,1341.16Z" fill="#ccc"/>
  <path d="M363.22,1193c-4.3,18-9.74,22.32-14.89,21.09s-8.06-7.52-3.76-25.54,19.35-39.73,19.35-39.73S367.52,1175,363.22,1193Z" fill="#ccc"/>
  <path d="M382.06,1064.59c-2.63,11-5.94,13.62-9.09,12.87s-4.91-4.59-2.29-15.59,11.81-24.24,11.81-24.24S384.69,1053.59,382.06,1064.59Z" fill="#ccc"/>
  <path d="M300,1117.89c-2.62,11-5.94,13.61-9.08,12.86s-4.92-4.58-2.29-15.58,11.8-24.24,11.8-24.24S302.58,1106.89,300,1117.89Z" fill="#ccc"/>
  <path d="M583.61,1205.94c-4.3,18-9.74,22.31-14.89,21.08s-8.06-7.51-3.76-25.54,19.35-39.73,19.35-39.73S587.92,1187.91,583.61,1205.94Z" fill="#ccc"/>
  <path d="M602.45,1077.55c-2.62,11-5.94,13.62-9.08,12.87s-4.92-4.59-2.3-15.58,11.81-24.25,11.81-24.25S605.08,1066.56,602.45,1077.55Z" fill="#ccc"/>
  <path d="M1034.82,610.08c-2.91,12.2-6.59,15.11-10.08,14.28s-5.46-5.09-2.55-17.3,13.1-26.9,13.1-26.9S1037.74,597.87,1034.82,610.08Z" fill="#ccc"/>
  <path d="M1027,822.74c-2.92,12.2-6.6,15.11-10.09,14.27s-5.46-5.08-2.54-17.29,13.1-26.91,13.1-26.91S1029.93,810.53,1027,822.74Z" fill="#ccc"/>
  <path d="M1039.78,735.79c-1.78,7.45-4,9.22-6.16,8.72s-3.33-3.11-1.55-10.56,8-16.41,8-16.41S1041.56,728.35,1039.78,735.79Z" fill="#ccc"/>
  <path d="M120.31,1073.68c-2.91,12.21-6.59,15.11-10.08,14.28s-5.46-5.09-2.55-17.29,13.1-26.91,13.1-26.91S123.23,1061.48,120.31,1073.68Z" fill="#ccc"/>
  <path d="M77.47,1022.83c-1.78,7.45-4,9.22-6.15,8.72S68,1028.44,69.76,1021s8-16.41,8-16.41S79.25,1015.39,77.47,1022.83Z" fill="#ccc"/>
  <path d="M62.76,1172.21c-2.92,12.2-6.6,15.11-10.08,14.28s-5.46-5.09-2.55-17.3,13.1-26.9,13.1-26.9S65.67,1160,62.76,1172.21Z" fill="#ccc"/>
  <path d="M55,1384.87c-2.92,12.2-6.6,15.11-10.09,14.27s-5.46-5.08-2.54-17.29,13.1-26.91,13.1-26.91S57.87,1372.66,55,1384.87Z" fill="#ccc"/>
  <path d="M67.71,1297.92c-1.77,7.45-4,9.22-6.15,8.72s-3.33-3.11-1.55-10.56,8-16.41,8-16.41S69.49,1290.48,67.71,1297.92Z" fill="#ccc"/>
  <path d="M201.28,1213.18c-2.92,12.2-6.6,15.11-10.08,14.28s-5.46-5.09-2.55-17.3,13.1-26.9,13.1-26.9S204.19,1201,201.28,1213.18Z" fill="#ccc"/>
  <path d="M158.44,1162.33c-1.78,7.45-4,9.22-6.16,8.71s-3.33-3.1-1.55-10.55,8-16.42,8-16.42S160.21,1154.88,158.44,1162.33Z" fill="#ccc"/>
  <path d="M691.5,1032.72c-1.82,7.64-4.12,9.46-6.31,8.93s-3.41-3.18-1.59-10.81,8.2-16.83,8.2-16.83S693.32,1025.09,691.5,1032.72Z" fill="#ccc"/>
  <path d="M895.42,1100.85c-3,12.51-6.76,15.49-10.33,14.64s-5.6-5.22-2.61-17.73,13.43-27.58,13.43-27.58S898.41,1088.34,895.42,1100.85Z" fill="#ccc"/>
  <path d="M908.5,1011.72c-1.82,7.64-4.12,9.46-6.31,8.93s-3.41-3.18-1.59-10.81S908.8,993,908.8,993,910.32,1004.09,908.5,1011.72Z" fill="#ccc"/>
  <path d="M851.5,1048.72c-1.82,7.64-4.12,9.46-6.31,8.93s-3.41-3.18-1.59-10.81,8.2-16.83,8.2-16.83S853.32,1041.09,851.5,1048.72Z" fill="#ccc"/>
  <path d="M981.42,954.85c-3,12.51-6.76,15.49-10.34,14.64s-5.59-5.22-2.6-17.73,13.43-27.58,13.43-27.58S984.41,942.34,981.42,954.85Z" fill="#ccc"/>
  <path d="M716,959.88c-2,8.47-4.58,10.49-7,9.91s-3.79-3.53-1.77-12,9.1-18.68,9.1-18.68S718,951.4,716,959.88Z" fill="#ccc"/>
  <path d="M850.47,1453.63c-4.31,18-9.74,22.31-14.89,21.08s-8.06-7.51-3.76-25.53,19.34-39.73,19.34-39.73S854.77,1435.61,850.47,1453.63Z" fill="#ccc"/>
  <path d="M869.31,1325.25c-2.63,11-5.95,13.61-9.09,12.86s-4.92-4.58-2.29-15.58,11.8-24.24,11.8-24.24S871.93,1314.25,869.31,1325.25Z" fill="#ccc"/>
  <path d="M787.2,1378.55c-2.62,11-5.94,13.61-9.08,12.86s-4.92-4.58-2.3-15.58,11.81-24.25,11.81-24.25S789.83,1367.55,787.2,1378.55Z" fill="#ccc"/>
  <path d="M754,1230.36c-4.31,18-9.74,22.31-14.89,21.08s-8.07-7.51-3.76-25.53,19.34-39.74,19.34-39.74S758.26,1212.34,754,1230.36Z" fill="#ccc"/>
  <path d="M772.8,1102c-2.63,11-5.95,13.61-9.09,12.86s-4.92-4.58-2.29-15.58,11.8-24.25,11.8-24.25S775.42,1091,772.8,1102Z" fill="#ccc"/>
  <path d="M690.69,1155.27c-2.63,11-5.94,13.62-9.09,12.87s-4.91-4.59-2.29-15.58,11.81-24.25,11.81-24.25S693.32,1144.28,690.69,1155.27Z" fill="#ccc"/>
  <path d="M974.35,1243.32c-4.31,18-9.74,22.32-14.89,21.09s-8.06-7.52-3.76-25.54S975,1199.14,975,1199.14,978.65,1225.3,974.35,1243.32Z" fill="#ccc"/>
  <path d="M993.19,1114.94c-2.63,11-6,13.62-9.09,12.87s-4.92-4.59-2.29-15.59,11.8-24.24,11.8-24.24S995.81,1103.94,993.19,1114.94Z" fill="#ccc"/>
  <polygon points="833.39 2136.07 826.27 2143.1 835.73 2167.77 848.92 2140.42 870.52 2016.25 837.29 2015.32 833.39 2136.07" fill="none" stroke="#9f616a" stroke-miterlimit="10" stroke-width="2"/>
  <polygon points="779.24 2395.96 761.24 2395.96 747.24 2236.96 782.24 2236.96 779.24 2395.96" fill="none" stroke="#9f616a" stroke-miterlimit="10" stroke-width="2"/>
  <polygon points="847.24 2395.96 829.24 2395.96 815.24 2236.96 850.24 2236.96 847.24 2395.96" fill="none" stroke="#9f616a" stroke-miterlimit="10" stroke-width="2"/>
  <path d="M833.3,2416.7l-26.28-.14a10.62,10.62,0,0,1-5.19-13.21h0a10.6,10.6,0,0,1,8.19-6.73l5-.83,4.33-5.51a8.21,8.21,0,0,1,10.76-2c4.14,2.64,9.9,3.52,17,2.93l5.52,13.48c1.09,7.3-3.9,12.11-11.19,13.26h0A13.4,13.4,0,0,1,833.3,2416.7Z" fill="#2f2e41"/>
  <path d="M765.3,2416.7l-26.28-.14a10.62,10.62,0,0,1-5.19-13.21h0a10.6,10.6,0,0,1,8.19-6.73l5-.83,4.81-6.12a7.46,7.46,0,0,1,10-1.55c4.17,2.76,10,3.69,17.26,3.09l5.52,13.48c1.09,7.3-3.9,12.11-11.19,13.26h0A13.4,13.4,0,0,1,765.3,2416.7Z" fill="#2f2e41"/>
  <circle cx="784.24" cy="1903.96" r="27" fill="none" stroke="#9f616a" stroke-miterlimit="10" stroke-width="2"/>
  <path d="M823.24,1956l-44,3c.15-14.24,1.51-21.06-2-28.93l12.1,1.25c1-.17,19-7,19.09-6C809,1936.29,813.64,1941.53,823.24,1956Z" fill="none" stroke="#9f616a" stroke-miterlimit="10" stroke-width="2"/>
  <path d="M850.24,2151l-113-9c15.08-50.26,10.36-116.08-5-165.42A28.48,28.48,0,0,1,750.53,1950l28.71-11,36,4,30.35,15.17a27.72,27.72,0,0,1,15.32,25.31C849.5,2029.08,848.13,2087.75,850.24,2151Z" fill="#d0cde1"/>
  <path d="M765.24,2028l-51-9,4.39-34a42.18,42.18,0,0,1,30.84-35.34l9.77-2.64Z" fill="#d0cde1"/>
  <polygon points="735.24 2140.96 741.24 2148.96 732.24 2173.96 719.24 2142.96 716.24 2016.96 749.24 2020.96 735.24 2140.96" fill="none" stroke="#9f616a" stroke-miterlimit="10" stroke-width="2"/>
  <path d="M821.24,2030l51-9-4.39-34A42.19,42.19,0,0,0,837,1951.6l-9.76-2.64Z" fill="#d0cde1"/>
  <path d="M853.24,2242l-41.84,2-12.16-59-14.77,55-44.23,1-8.84-71.07a41.08,41.08,0,0,1,8.84-30.93h0l110,5Z" fill="#2f2e41"/>
  <path d="M786.74,1933.46l20.19-3.83,12-20.52a27.28,27.28,0,0,0-3.19-31.95h0a27.27,27.27,0,0,0-24.21-8.83l-26.17,3.73a17.29,17.29,0,0,0-14.66,19.55l0,.12,17.62,3Z" fill="#2f2e41"/>
</svg>
