<svg xmlns="http://www.w3.org/2000/svg" xmlns:xlink="http://www.w3.org/1999/xlink" viewBox="0 0 1125 2436">
  <defs>
    <clipPath id="clip-path">
      <rect x="1" width="1124" height="2436" fill="none"/>
    </clipPath>
  </defs>
  <title>Mesa de trabajo 1</title>
  <g id="login_copia_3" data-name="login copia 3" opacity="0.1">
    <g>
      <g opacity="0.54">
        <g clip-path="url(#clip-path)">
          <ellipse cx="232" cy="389.4" rx="330" ry="328.38" fill="#1d1d1b"/>
          <ellipse cx="246" cy="378.17" rx="188" ry="187.08" fill="#1d1d1b"/>
          <ellipse cx="963" cy="2221.06" rx="330" ry="328.38" fill="#1d1d1b"/>
          <ellipse cx="963" cy="2221.06" rx="188" ry="187.08" fill="#1d1d1b"/>
          <g>
            <path d="M26.36,2057.71c-.5-.8-1-1.59-1.51-2.39C25.35,2056.11,25.87,2056.92,26.36,2057.71Z" fill="#1d1d1b"/>
            <polygon points="50.06 2105.77 951.84 1791.61 50.06 2105.77 50.06 2105.77" fill="#1d1d1b"/>
            <path d="M1434.57,1414.17c-46.08-100.46-306.63-179.32-485.45-139.11,0,0-343.2-183.36-500.52-193.29L-702.83,1478.24c-13.45,18.46-22.59,42.55-28.26,70.71L414.14,1160.11c150,7.67,475.63,174.56,475.63,174.56,171-39.13,470.79,2.7,513.76,95.55l64.19,190.88,30-10.35Z" fill="#1d1d1b"/>
            <path d="M40.84,2084.08a237.8,237.8,0,0,0-13.15-24.23C33.14,2068.83,37.46,2077.07,40.84,2084.08Z" fill="#1d1d1b"/>
            <path d="M889.77,1334.67s-325.62-166.89-475.63-174.56L-731.09,1549l-.7.24c-25.76,78.75-.64,233.09,34.33,377.74,37.27,154.21,85.7,297.33,95.63,326.19,1.19,3.45,1.85,5.34,1.85,5.34,28.47,51.72,160.32,9.6,160.32,9.6l89.79-31.71s-61.75-187,129.31-252.75c138.91-47,211.68,19.85,245.41,71.72.53.8,1,1.59,1.51,2.39s.89,1.42,1.33,2.14a237.8,237.8,0,0,1,13.15,24.23,178.72,178.72,0,0,1,8.76,21.85l.46-.16,901.78-314.16S891.54,1594,1065.73,1533c222.79-76.71,273.6,132.29,273.6,132.29l128.39-44.21h0l-64.19-190.88C1360.56,1337.37,1060.81,1295.54,889.77,1334.67Z" fill="#1d1d1b"/>
          </g>
          <g>
            <g>
              <g>
                <g id="rojo">
                  <polygon points="643.94 915.44 1732.25 -130.09 1982.95 -146.68 755.57 1032.46 643.94 915.44" fill="#1d1d1b"/>
                  <path d="M1981.62-146.09l-1226,1177.84L644.65,915.45,1732.47-129.61l249.15-16.48m2.67-1.18L1732-130.58l-1088.8,1046,112.31,117.75L1984.29-147.27Z" fill="#1d1d1b"/>
                </g>
                <g>
                  <polygon points="497.89 763.04 1406.51 -108.54 1730.7 -129.99 642.53 915.41 754.45 1032.74 178.88 1070.83 497.89 763.04" fill="#1d1d1b"/>
                  <path d="M1729.37-129.4,642.54,914.7l-.71.69.68.72,110.84,116.2-573.13,37.93,318-306.84,908.28-871.25.21-.2,322.65-21.35m2.67-1.18L1406.29-109l-.47.45L497.54,762.68l-320,308.73h0l578-38.24L643.24,915.42,1732-130.58Z" fill="#1d1d1b"/>
                </g>
                <g>
                  <polygon points="239.92 493.32 289.87 545.69 201.66 1047.46 178.2 1070.1 239.92 493.32" fill="#1d1d1b"/>
                  <path d="M240.3,494.45l49,51.4L201.2,1047.21l-22.36,21.57L240.3,494.45m-.77-2.25-62,579.21,320-308.73-295.42,285,88.29-502.18L239.53,492.2Z" fill="#1d1d1b"/>
                </g>
                <g>
                  <path d="M290.73,546.59l63.39,66.46a.49.49,0,0,0,.35.15h0a.52.52,0,0,0,.35-.14L1083.72-87.18,1405-108.43,497.2,762.32l-294.32,284Z" fill="#1d1d1b"/>
                  <path d="M1403.62-107.84,496.85,762,203.64,1044.85l87.41-497.2,62.71,65.74a1,1,0,0,0,.7.31h0a1,1,0,0,0,.69-.28L1083.93-86.69l319.69-21.15m2.67-1.18L1083.5-87.66l-729,700.36-64.07-67.17-88.29,502.18,295.42-285,908.28-871.25.47-.45Z" fill="#1d1d1b"/>
                </g>
              </g>
              <g>
                <g id="rojo-2" data-name="rojo">
                  <polygon points="644.94 914.44 1733.25 -131.09 1983.95 -147.68 756.57 1031.46 644.94 914.44" fill="#1d1d1b"/>
                  <path d="M1982.62-147.09l-1226,1177.84L645.65,914.45,1733.47-130.61l249.15-16.48m2.67-1.18L1733-131.58l-1088.8,1046,112.31,117.75L1985.29-148.27Z" fill="#1d1d1b"/>
                </g>
                <g>
                  <polygon points="498.89 762.04 1407.51 -109.54 1731.7 -130.99 643.53 914.41 755.45 1031.74 179.88 1069.83 498.89 762.04" fill="#1d1d1b"/>
                  <path d="M1730.37-130.4,643.54,913.7l-.71.69.68.72,110.84,116.2-573.13,37.93,318-306.84,908.28-871.25.21-.2,322.65-21.35m2.67-1.18L1407.29-110l-.47.45L498.54,761.68l-320,308.73h0l578-38.24L644.24,914.42,1733-131.58Z" fill="#1d1d1b"/>
                </g>
                <g>
                  <polygon points="240.92 492.32 290.87 544.69 202.66 1046.46 179.2 1069.1 240.92 492.32" fill="#1d1d1b"/>
                  <path d="M241.3,493.45l49,51.4L202.2,1046.21l-22.36,21.57L241.3,493.45m-.77-2.25-62,579.21,320-308.73-295.42,285,88.29-502.18L240.53,491.2Z" fill="#1d1d1b"/>
                </g>
                <g>
                  <path d="M291.73,545.59l63.39,66.46a.49.49,0,0,0,.35.15h0a.52.52,0,0,0,.35-.14L1084.72-88.18,1406-109.43,498.2,761.32l-294.32,284Z" fill="#1d1d1b"/>
                  <path d="M1404.62-108.84,497.85,761,204.64,1043.85l87.41-497.2,62.71,65.74a1,1,0,0,0,.7.31h0a1,1,0,0,0,.69-.28L1084.93-87.69l319.69-21.15m2.67-1.18L1084.5-88.66l-729,700.36-64.07-67.17-88.29,502.18,295.42-285,908.28-871.25.47-.45Z" fill="#1d1d1b"/>
                </g>
              </g>
            </g>
            <g>
              <g id="rojo-3" data-name="rojo">
                <polygon points="644.94 914.44 1733.25 -131.09 1983.95 -147.68 756.57 1031.46 644.94 914.44" fill="#1d1d1b"/>
                <path d="M1982.62-147.09l-1226,1177.84L645.65,914.45,1733.47-130.61l249.15-16.48m2.67-1.18L1733-131.58l-1088.8,1046,112.31,117.75L1985.29-148.27Z" fill="#1d1d1b"/>
              </g>
              <g>
                <polygon points="498.89 762.04 1407.51 -109.54 1731.7 -130.99 643.53 914.41 755.45 1031.74 179.88 1069.83 498.89 762.04" fill="#1d1d1b"/>
                <path d="M1730.37-130.4,643.54,913.7l-.71.69.68.72,110.84,116.2-573.13,37.93,318-306.84,908.28-871.25.21-.2,322.65-21.35m2.67-1.18L1407.29-110l-.47.45L498.54,761.68l-320,308.73h0l578-38.24L644.24,914.42,1733-131.58Z" fill="#1d1d1b"/>
              </g>
              <g>
                <polygon points="240.92 492.32 290.87 544.69 202.66 1046.46 179.2 1069.1 240.92 492.32" fill="#1d1d1b"/>
                <path d="M241.3,493.45l49,51.4L202.2,1046.21l-22.36,21.57L241.3,493.45m-.77-2.25-62,579.21,320-308.73-295.42,285,88.29-502.18L240.53,491.2Z" fill="#1d1d1b"/>
              </g>
              <g>
                <path d="M291.73,545.59l63.39,66.46a.49.49,0,0,0,.35.15h0a.52.52,0,0,0,.35-.14L1084.72-88.18,1406-109.43,498.2,761.32l-294.32,284Z" fill="#1d1d1b"/>
                <path d="M1404.62-108.84,497.85,761,204.64,1043.85l87.41-497.2,62.71,65.74a1,1,0,0,0,.7.31h0a1,1,0,0,0,.69-.28L1084.93-87.69l319.69-21.15m2.67-1.18L1084.5-88.66l-729,700.36-64.07-67.17-88.29,502.18,295.42-285,908.28-871.25.47-.45Z" fill="#1d1d1b"/>
              </g>
            </g>
            <g>
              <g id="rojo-4" data-name="rojo">
                <polygon points="644.94 914.44 1733.25 -131.09 1983.95 -147.68 756.57 1031.46 644.94 914.44" fill="#1d1d1b"/>
                <path d="M1982.62-147.09l-1226,1177.84L645.65,914.45,1733.47-130.61l249.15-16.48m2.67-1.18L1733-131.58l-1088.8,1046,112.31,117.75L1985.29-148.27Z" fill="#1d1d1b"/>
              </g>
              <g>
                <polygon points="498.89 762.04 1407.51 -109.54 1731.7 -130.99 643.53 914.41 755.45 1031.74 179.88 1069.83 498.89 762.04" fill="#1d1d1b"/>
                <path d="M1730.37-130.4,643.54,913.7l-.71.69.68.72,110.84,116.2-573.13,37.93,318-306.84,908.28-871.25.21-.2,322.65-21.35m2.67-1.18L1407.29-110l-.47.45L498.54,761.68l-320,308.73h0l578-38.24L644.24,914.42,1733-131.58Z" fill="#1d1d1b"/>
              </g>
              <g>
                <polygon points="240.92 492.32 290.87 544.69 202.66 1046.46 179.2 1069.1 240.92 492.32" fill="#1d1d1b"/>
                <path d="M241.3,493.45l49,51.4L202.2,1046.21l-22.36,21.57L241.3,493.45m-.77-2.25-62,579.21,320-308.73-295.42,285,88.29-502.18L240.53,491.2Z" fill="#1d1d1b"/>
              </g>
              <g>
                <path d="M291.73,545.59l63.39,66.46a.49.49,0,0,0,.35.15h0a.52.52,0,0,0,.35-.14L1084.72-88.18,1406-109.43,498.2,761.32l-294.32,284Z" fill="#1d1d1b"/>
                <path d="M1404.62-108.84,497.85,761,204.64,1043.85l87.41-497.2,62.71,65.74a1,1,0,0,0,.7.31h0a1,1,0,0,0,.69-.28L1084.93-87.69l319.69-21.15m2.67-1.18L1084.5-88.66l-729,700.36-64.07-67.17-88.29,502.18,295.42-285,908.28-871.25.47-.45Z" fill="#1d1d1b"/>
              </g>
            </g>
          </g>
          <path d="M1078,857.26c-182.25,0-330,147-330,328.39S895.75,1514,1078,1514s330-147,330-328.38S1260.25,857.26,1078,857.26Zm0,515.47c-103.83,0-188-83.76-188-187.08s84.17-187.08,188-187.08,188,83.76,188,187.08S1181.83,1372.73,1078,1372.73Z" fill="#1d1d1b"/>
          <path d="M140.43,1688c-182.26,0-330,147-330,328.38s147.74,328.39,330,328.39,330-147,330-328.39S322.68,1688,140.43,1688Zm0,515.46c-103.83,0-188-83.76-188-187.08s84.17-187.08,188-187.08,188,83.76,188,187.08S244.26,2203.46,140.43,2203.46Z" fill="#1d1d1b"/>
        </g>
      </g>
      <g clip-path="url(#clip-path)">
        <ellipse cx="232" cy="389.4" rx="330" ry="328.38" fill="#1d1d1b"/>
        <ellipse cx="246" cy="378.17" rx="188" ry="187.08" fill="#fff"/>
        <ellipse cx="963" cy="2221.06" rx="330" ry="328.38" fill="#1d1d1b"/>
        <ellipse cx="963" cy="2221.06" rx="188" ry="187.08" fill="#fff"/>
        <g>
          <path d="M26.36,2057.71c-.5-.8-1-1.59-1.51-2.39C25.35,2056.11,25.87,2056.92,26.36,2057.71Z" fill="#fd1400"/>
          <polygon points="50.06 2105.77 951.84 1791.61 50.06 2105.77 50.06 2105.77" fill="#fd1400"/>
          <path d="M1434.57,1414.17c-46.08-100.46-306.63-179.32-485.45-139.11,0,0-343.2-183.36-500.52-193.29L-702.83,1478.24c-13.45,18.46-22.59,42.55-28.26,70.71L414.14,1160.11c150,7.67,475.63,174.56,475.63,174.56,171-39.13,470.79,2.7,513.76,95.55l64.19,190.88,30-10.35Z" fill="#fd1400"/>
          <path d="M40.84,2084.08a237.8,237.8,0,0,0-13.15-24.23C33.14,2068.83,37.46,2077.07,40.84,2084.08Z" fill="#fd1400"/>
          <path d="M889.77,1334.67s-325.62-166.89-475.63-174.56L-731.09,1549l-.7.24c-25.76,78.75-.64,233.09,34.33,377.74,37.27,154.21,85.7,297.33,95.63,326.19,1.19,3.45,1.85,5.34,1.85,5.34,28.47,51.72,160.32,9.6,160.32,9.6l89.79-31.71s-61.75-187,129.31-252.75c138.91-47,211.68,19.85,245.41,71.72.53.8,1,1.59,1.51,2.39s.89,1.42,1.33,2.14a237.8,237.8,0,0,1,13.15,24.23,178.72,178.72,0,0,1,8.76,21.85l.46-.16,901.78-314.16S891.54,1594,1065.73,1533c222.79-76.71,273.6,132.29,273.6,132.29l128.39-44.21h0l-64.19-190.88C1360.56,1337.37,1060.81,1295.54,889.77,1334.67Z" fill="#cc1400"/>
        </g>
        <g>
          <g>
            <g>
              <g id="rojo-5" data-name="rojo">
                <polygon points="643.94 915.44 1732.25 -130.09 1982.95 -146.68 755.57 1032.46 643.94 915.44" fill="#1d1d1b"/>
                <path d="M1981.62-146.09l-1226,1177.84L644.65,915.45,1732.47-129.61l249.15-16.48m2.67-1.18L1732-130.58l-1088.8,1046,112.31,117.75L1984.29-147.27Z" fill="#1d1d1b"/>
              </g>
              <g>
                <polygon points="497.89 763.04 1406.51 -108.54 1730.7 -129.99 642.53 915.41 754.45 1032.74 178.88 1070.83 497.89 763.04" fill="#1d1d1b"/>
                <path d="M1729.37-129.4,642.54,914.7l-.71.69.68.72,110.84,116.2-573.13,37.93,318-306.84,908.28-871.25.21-.2,322.65-21.35m2.67-1.18L1406.29-109l-.47.45L497.54,762.68l-320,308.73h0l578-38.24L643.24,915.42,1732-130.58Z" fill="#1d1d1b"/>
              </g>
              <g>
                <polygon points="239.92 493.32 289.87 545.69 201.66 1047.46 178.2 1070.1 239.92 493.32" fill="#1d1d1b"/>
                <path d="M240.3,494.45l49,51.4L201.2,1047.21l-22.36,21.57L240.3,494.45m-.77-2.25-62,579.21,320-308.73-295.42,285,88.29-502.18L239.53,492.2Z" fill="#1d1d1b"/>
              </g>
              <g>
                <path d="M290.73,546.59l63.39,66.46a.49.49,0,0,0,.35.15h0a.52.52,0,0,0,.35-.14L1083.72-87.18,1405-108.43,497.2,762.32l-294.32,284Z" fill="#1d1d1b"/>
                <path d="M1403.62-107.84,496.85,762,203.64,1044.85l87.41-497.2,62.71,65.74a1,1,0,0,0,.7.31h0a1,1,0,0,0,.69-.28L1083.93-86.69l319.69-21.15m2.67-1.18L1083.5-87.66l-729,700.36-64.07-67.17-88.29,502.18,295.42-285,908.28-871.25.47-.45Z" fill="#1d1d1b"/>
              </g>
            </g>
            <g>
              <g id="rojo-6" data-name="rojo">
                <polygon points="644.94 914.44 1733.25 -131.09 1983.95 -147.68 756.57 1031.46 644.94 914.44" fill="#1d1d1b"/>
                <path d="M1982.62-147.09l-1226,1177.84L645.65,914.45,1733.47-130.61l249.15-16.48m2.67-1.18L1733-131.58l-1088.8,1046,112.31,117.75L1985.29-148.27Z" fill="#1d1d1b"/>
              </g>
              <g>
                <polygon points="498.89 762.04 1407.51 -109.54 1731.7 -130.99 643.53 914.41 755.45 1031.74 179.88 1069.83 498.89 762.04" fill="#1d1d1b"/>
                <path d="M1730.37-130.4,643.54,913.7l-.71.69.68.72,110.84,116.2-573.13,37.93,318-306.84,908.28-871.25.21-.2,322.65-21.35m2.67-1.18L1407.29-110l-.47.45L498.54,761.68l-320,308.73h0l578-38.24L644.24,914.42,1733-131.58Z" fill="#1d1d1b"/>
              </g>
              <g>
                <polygon points="240.92 492.32 290.87 544.69 202.66 1046.46 179.2 1069.1 240.92 492.32" fill="#1d1d1b"/>
                <path d="M241.3,493.45l49,51.4L202.2,1046.21l-22.36,21.57L241.3,493.45m-.77-2.25-62,579.21,320-308.73-295.42,285,88.29-502.18L240.53,491.2Z" fill="#1d1d1b"/>
              </g>
              <g>
                <path d="M291.73,545.59l63.39,66.46a.49.49,0,0,0,.35.15h0a.52.52,0,0,0,.35-.14L1084.72-88.18,1406-109.43,498.2,761.32l-294.32,284Z" fill="#1d1d1b"/>
                <path d="M1404.62-108.84,497.85,761,204.64,1043.85l87.41-497.2,62.71,65.74a1,1,0,0,0,.7.31h0a1,1,0,0,0,.69-.28L1084.93-87.69l319.69-21.15m2.67-1.18L1084.5-88.66l-729,700.36-64.07-67.17-88.29,502.18,295.42-285,908.28-871.25.47-.45Z" fill="#1d1d1b"/>
              </g>
            </g>
          </g>
          <g>
            <g id="rojo-7" data-name="rojo">
              <polygon points="644.94 914.44 1733.25 -131.09 1983.95 -147.68 756.57 1031.46 644.94 914.44" fill="#b31400"/>
              <path d="M1982.62-147.09l-1226,1177.84L645.65,914.45,1733.47-130.61l249.15-16.48m2.67-1.18L1733-131.58l-1088.8,1046,112.31,117.75L1985.29-148.27Z" fill="#b31400"/>
            </g>
            <g>
              <polygon points="498.89 762.04 1407.51 -109.54 1731.7 -130.99 643.53 914.41 755.45 1031.74 179.88 1069.83 498.89 762.04" fill="#fff"/>
              <path d="M1730.37-130.4,643.54,913.7l-.71.69.68.72,110.84,116.2-573.13,37.93,318-306.84,908.28-871.25.21-.2,322.65-21.35m2.67-1.18L1407.29-110l-.47.45L498.54,761.68l-320,308.73h0l578-38.24L644.24,914.42,1733-131.58Z" fill="#fff"/>
            </g>
            <g>
              <polygon points="240.92 492.32 290.87 544.69 202.66 1046.46 179.2 1069.1 240.92 492.32" fill="#0cc"/>
              <path d="M241.3,493.45l49,51.4L202.2,1046.21l-22.36,21.57L241.3,493.45m-.77-2.25-62,579.21,320-308.73-295.42,285,88.29-502.18L240.53,491.2Z" fill="#0cc"/>
            </g>
            <g>
              <path d="M291.73,545.59l63.39,66.46a.49.49,0,0,0,.35.15h0a.52.52,0,0,0,.35-.14L1084.72-88.18,1406-109.43,498.2,761.32l-294.32,284Z" fill="#0cc"/>
              <path d="M1404.62-108.84,497.85,761,204.64,1043.85l87.41-497.2,62.71,65.74a1,1,0,0,0,.7.31h0a1,1,0,0,0,.69-.28L1084.93-87.69l319.69-21.15m2.67-1.18L1084.5-88.66l-729,700.36-64.07-67.17-88.29,502.18,295.42-285,908.28-871.25.47-.45Z" fill="#0cc"/>
            </g>
          </g>
        </g>
        <path d="M1078,857.26c-182.25,0-330,147-330,328.39S895.75,1514,1078,1514s330-147,330-328.38S1260.25,857.26,1078,857.26Zm0,515.47c-103.83,0-188-83.76-188-187.08s84.17-187.08,188-187.08,188,83.76,188,187.08S1181.83,1372.73,1078,1372.73Z" fill="#1d1d1d"/>
        <path d="M140.43,1688c-182.26,0-330,147-330,328.38s147.74,328.39,330,328.39,330-147,330-328.39S322.68,1688,140.43,1688Zm0,515.46c-103.83,0-188-83.76-188-187.08s84.17-187.08,188-187.08,188,83.76,188,187.08S244.26,2203.46,140.43,2203.46Z" fill="#1d1d1d"/>
      </g>
    </g>
  </g>
</svg>
