<svg id="login" xmlns="http://www.w3.org/2000/svg" viewBox="0 0 1125 2436">
  <title>Mesa de trabajo 1</title>
  <rect x="-21.5" y="-14.5" width="1164" height="2463" fill="#fff" stroke="#cbcbcb" stroke-miterlimit="10"/>
  <circle cx="1024.34" cy="1881.62" r="47.5" fill="#d0cde1" stroke="#000" stroke-miterlimit="10"/>
  <path d="M846.32,2006.75l-37.21-73.07,37.33,64,.34-26.16-25.58-52.82,25.67,45.91.61-47-27.8-42.28,27.89,34.88,2-85.86v0l-.32,109,30.7-44.1-30.61,53.34,1.21,52.58.13-1.39,35.39-46.52-35.43,51.45.15,6.57.06.11,0,.53,1.61,69.61q-3.48.14-7,.12l.07-5.42-32.29-53.3,32.36,48.12Z" fill="#3f3d56"/>
  <path d="M672.93,2048.5l-37.22-73.07,37.33,64,.34-26.16-25.57-52.82,25.67,45.91.6-47L646.28,1917l27.9,34.88,2-85.86v0l-.32,109,30.69-44.1L676,1984.2l1.22,52.59.12-1.39,35.4-46.53-35.44,51.45.15,6.57.06.11,0,.54,1.6,69.6q-3.46.14-7,.12l.06-5.42-32.29-53.3,32.36,48.12Z" fill="#cbcbcb"/>
  <path d="M995.55,1995.35l-37.22-73.07,37.33,64,.34-26.16-25.57-52.82,25.67,45.91.61-47-27.81-42.28,27.9,34.88,2-85.86v0l-.32,109,30.69-44.1-30.6,53.34,1.21,52.58.12-1.39,35.4-46.52-35.44,51.45.16,6.57.05.11,0,.53,1.61,69.61q-3.48.14-7,.11l.07-5.41-32.3-53.3,32.36,48.12Z" fill="#3f3d56"/>
  <path d="M354.89,2246.45a598.16,598.16,0,0,1,68.05-43.39c66.1-36.47,147.38-67.66,239.79-91.82q9.53-2.49,19.21-4.88,20.58-5.1,41.82-9.7l10.53-2.25q29.57-6.22,60.32-11.48l1.25-.21q7.21-1.24,14.5-2.41c97-15.77,202.19-24.44,312.06-24.58h2.73v379.9h-888C237.15,2366.75,280,2302.16,354.89,2246.45Z" fill="#d0cde1"/>
  <path d="M531.33,2289.79c37.84-28.14,86.29-53.34,143-74.59q9.43-3.55,19.2-6.93l2.74-1q12.42-4.26,25.32-8.31,21.79-6.81,44.83-12.87,16.49-4.37,33.55-8.3,5.49-1.29,11-2.49,12.57-2.81,25.44-5.35c87.72-17.48,185.54-27.24,288.69-27.24v292.88H440.56C440.56,2382.53,473.59,2332.73,531.33,2289.79Z" fill="#5a5a5a"/>
  <path d="M513.38,2420.43l1.7.81A183,183,0,0,1,536,2387.69l-1.48-1.15A186.18,186.18,0,0,0,513.38,2420.43Zm48.2-63.27,1.28,1.36a338.64,338.64,0,0,1,28.92-24l1.7-1.26-1.11-1.51-1.71,1.28A338.94,338.94,0,0,0,561.58,2357.16Zm64-47.51,1,1.6c10.91-6.59,22.61-13.06,34.78-19.25l-.85-1.67C648.31,2296.54,636.56,2303.05,625.61,2309.65Zm71-36.29.74,1.72c11.81-5.14,24.23-10.16,36.88-14.9l-.65-1.75c-12.69,4.75-25.13,9.78-37,14.93Zm74.61-28.08.57,1.78q5-1.61,10-3.19c9.15-2.85,18.6-5.66,28.1-8.32l-.51-1.8c-9.52,2.66-19,5.47-28.16,8.34q-5,1.57-10,3.19Zm88.46-24.38c-3.93.9-7.87,1.83-11.73,2.77l.44,1.81c3.86-.92,7.8-1.86,11.72-2.77,3.71-.86,7.41-1.7,11-2.48,5.34-1.18,10.77-2.35,16.12-3.46l-.37-1.83c-5.37,1.11-10.8,2.27-16.15,3.46-3.59.79-7.3,1.63-11,2.5ZM926,2207.47l.33,1.84c12.88-2.25,26.11-4.37,39.31-6.27l-.27-1.86C952.15,2203.1,938.91,2205.22,926,2207.47Zm78.9-11.44.21,1.86c13-1.52,26.37-2.88,39.61-4.07l-.16-1.86C1031.31,2193.15,1018,2194.51,1004.9,2196Zm79.41-7.1.12,1.88c13.13-.84,26.51-1.51,39.76-2l-.06-1.87c-13.28.51-26.67,1.18-39.82,2Z" fill="#fff"/>
  <path d="M709.67,2333.59c82.68-61.49,237.79-102.89,415.48-102.89v204.93h-479C646.15,2398.48,669.27,2363.63,709.67,2333.59Z" fill="#d0cde1"/>
  <path d="M354.89,2246.45l176.44,43.34,178.34,43.8,415.48,102h-888C237.15,2366.75,280,2302.16,354.89,2246.45Z" opacity="0.2" style="isolation: isolate"/>
  <polygon points="462.14 2207.22 456.15 2207.22 453.29 2184.1 462.14 2184.1 462.14 2207.22" fill="#fff" stroke="#000" stroke-miterlimit="10"/>
  <path d="M463.67,2213H444.34v-.24a7.52,7.52,0,0,1,7.52-7.52h11.81Z" fill="#2f2e41"/>
  <polygon points="515.11 2202.81 509.32 2204.36 500.57 2182.77 509.11 2180.47 515.11 2202.81" fill="#fff" stroke="#000" stroke-miterlimit="10"/>
  <path d="M518.09,2208l-18.67,5-.06-.24a7.53,7.53,0,0,1,5.31-9.22h0l11.41-3.06Z" fill="#2f2e41"/>
  <path d="M437.17,2100c-3.46,4.46,7.43,41.59,7.93,42.08s-.5,3.47-.5,3.47a2.4,2.4,0,0,0,.5,1.48c.49.5,0,1,0,2s0,1,1,3a7.92,7.92,0,0,1,.49,4.46L453,2194a2.47,2.47,0,0,0-1.49,2.48c0,2,9.9,3,13.37,2.47s-2.48-44.55-2.48-44.55,0-11.39,1-12.38,0-1,0-3-1.48-4.95-1-6.43,1-22.77,1-22.77,11.39,21.28,11.39,24.25,3.46,7.92,3.46,7.92L501,2188.51s-1.49,3,0,5.44,7.92.5,14.35-2-2.47-6.43-2.47-6.43L499.06,2146a24.74,24.74,0,0,1,.49-4.45c.5-2.48-1.49-1.49-3-2.48s-1-1,0-3-1.49-6.43-1.49-6.43L488.66,2093S440.64,2095.52,437.17,2100Z" fill="#2f2e41"/>
  <circle cx="453.12" cy="1997.87" r="12.87" fill="#fff" stroke="#000" stroke-miterlimit="10"/>
  <path d="M448.34,2014.66s-17.56,8-19,12,9.37,40.63,9.37,40.63.66,15.42-1.32,21.36-1.65,6.86-1.65,6.86V2100c0,2.48,15.84.5,23.76-2s28.22-2,30.2-2.47-3.31-6.86-3.31-6.86c6.93-.49,0-15,0-15s-.71-46.95-2.69-53.39-20.31-7.61-20.31-7.61l-9.33,3.16Z" fill="#5a5a5a"/>
  <path d="M468.72,1994.48a12.52,12.52,0,0,0-1.76-9.33,13.92,13.92,0,0,0-9.43-6.13,18.32,18.32,0,0,0-11,1.87c-2.05,1-4.28,2.36-6.43,1.62l.64,1.13-1.6,0,.58,1.33-1.53.22,1.18.7a27.19,27.19,0,0,0-3.14,9.07,6.3,6.3,0,0,0,.28,3.79c.58,1.13,2.07,1.79,3,1,.6-.49.8-1.35,1.22-2s1.39-1.14,1.89-.54l1.29-2.58,1,.85a26.75,26.75,0,0,1,8.48-5,2.8,2.8,0,0,1,2.46-.07c1.15.74,1,2.63,1.78,3.79,1.3,1.89,4.5,1.11,5.73,3a8.6,8.6,0,0,1,.73,2.44c.22.82.75,1.69,1.54,1.74C467.34,1999.66,468,1997.26,468.72,1994.48Z" fill="#2f2e41"/>
  <path d="M499.78,2096.69a5.43,5.43,0,0,1-1.45-7.54,5.33,5.33,0,0,1,.61-.74l-8.66-17.25,10,1.18,6.69,16.2a5.46,5.46,0,0,1-7.15,8.15Z" fill="#fff" stroke="#000" stroke-miterlimit="10"/>
  <path d="M492.65,2084.31l-10.09-32.66-11.51-25a7.66,7.66,0,0,1,3.75-10.17,8,8,0,0,1,1.74-.56h0a7.7,7.7,0,0,1,8.69,5l21,59.94a2.44,2.44,0,0,1-1.49,3.1l-.3.08-9,1.91a2.22,2.22,0,0,1-.51.06A2.42,2.42,0,0,1,492.65,2084.31Z" fill="#5a5a5a"/>
  <path d="M430.31,2108a5.43,5.43,0,0,0-.23-7.67,6.16,6.16,0,0,0-.75-.6L434,2081l-9.46,3.33-3,17.26a5.46,5.46,0,0,0,8.76,6.4Z" fill="#fff" stroke="#000" stroke-miterlimit="10"/>
  <path d="M432.68,2096.51a2.22,2.22,0,0,1-.51.06l-9.17.09a2.44,2.44,0,0,1-2.46-2.4,3,3,0,0,1,0-.31l7.42-63.08a7.71,7.71,0,0,1,7.4-6.77h0a7.67,7.67,0,0,1,7.87,7.45,8,8,0,0,1-.17,1.83l-5.79,26.88-2.73,34.08A2.39,2.39,0,0,1,432.68,2096.51Z" fill="#5a5a5a"/>
  <path d="M.5-.5v790s346-234,552-213,393,48,573-35V-.5Z" fill="#d0cde1"/>
  <path d="M45.25,207.9a67.73,67.73,0,0,1,67.64-64.19c2.06,0,4.09.11,6.11.29a90,90,0,0,1,155.57-.08c1.69-.13,3.4-.21,5.13-.21a67.75,67.75,0,0,1,67.65,64.19" fill="#fff"/>
  <path d="M59.36,202.69A67.73,67.73,0,0,1,127,138.5c2.06,0,4.09.1,6.1.28a90,90,0,0,1,155.57-.07c1.7-.13,3.41-.21,5.14-.21a67.73,67.73,0,0,1,67.64,64.19" fill="none" stroke="#3f3d56" stroke-miterlimit="10"/>
  <path d="M169.41,483.36c6.08-118,103.7-211.87,223.25-211.87,6.79,0,13.5.35,20.14.95C495.24,130.62,677,82.47,818.86,164.91A297,297,0,0,1,926.24,272.19c5.6-.42,11.24-.7,17-.7,119.55,0,217.17,93.84,223.25,211.87" fill="#fff"/>
  <path d="M216,466.16c6.07-118,103.7-211.87,223.24-211.87,6.8,0,13.51.36,20.15,1,82.43-141.82,264.23-190,406-107.53A297,297,0,0,1,972.8,255c5.61-.42,11.25-.71,17-.71,119.55,0,217.18,93.84,223.25,211.87" fill="none" stroke="#3f3d56" stroke-miterlimit="10"/>
  <path d="M-205.28,732.06A106.5,106.5,0,0,1-98.94,631.14c3.24,0,6.43.17,9.6.45a141.48,141.48,0,0,1,244.56-.11c2.67-.2,5.35-.34,8.07-.34A106.48,106.48,0,0,1,269.63,732.06" fill="#fff"/>
  <path d="M-183.1,723.87A106.5,106.5,0,0,1-76.76,623c3.24,0,6.43.17,9.59.45a141.49,141.49,0,0,1,244.57-.11c2.67-.2,5.35-.34,8.07-.34A106.49,106.49,0,0,1,291.81,723.87" fill="none" stroke="#3f3d56" stroke-miterlimit="10"/>
  <circle cx="987.57" cy="1829.26" r="47.5" fill="#d0cde1" stroke="#000" stroke-miterlimit="10"/>
  <circle cx="661.7" cy="1846.38" r="73.38" fill="#d0cde1" stroke="#cbcbcb" stroke-miterlimit="10"/>
  <circle cx="818.51" cy="1905.32" r="28.32" fill="#d0cde1" stroke="#000" stroke-miterlimit="10"/>
  <circle cx="908.54" cy="1767.29" r="31.29" fill="#d0cde1" stroke="#000" stroke-miterlimit="10"/>
  <circle cx="841.56" cy="1834.27" r="90.27" fill="#d0cde1" stroke="#000" stroke-miterlimit="10"/>
  <circle cx="606.57" cy="1871.26" r="31.29" fill="#d0cde1" stroke="#cbcbcb" stroke-miterlimit="10"/>
</svg>
