<?xml version="1.0" encoding="utf-8"?>
<!-- Generator: Adobe Illustrator 23.0.5, SVG Export Plug-In . SVG Version: 6.00 Build 0)  -->
<svg version="1.1" xmlns="http://www.w3.org/2000/svg" xmlns:xlink="http://www.w3.org/1999/xlink" x="0px" y="0px"
	 viewBox="0 0 1125 2436" style="enable-background:new 0 0 1125 2436;" xml:space="preserve">
<style type="text/css">
	.st0{fill:#FFFFFF;stroke:#CBCBCB;stroke-miterlimit:10;}
	.st1{fill:#D0CDE1;stroke:#000000;stroke-miterlimit:10;}
	.st2{fill:#3F3D56;}
	.st3{fill:#CBCBCB;}
	.st4{fill:#D0CDE1;}
	.st5{fill:#5A5A5A;}
	.st6{fill:#FFFFFF;}
	.st7{opacity:0.2;enable-background:new    ;}
	.st8{fill:#FFFFFF;stroke:#000000;stroke-miterlimit:10;}
	.st9{fill:#2F2E41;}
	.st10{fill:none;stroke:#3F3D56;stroke-miterlimit:10;}
	.st11{fill:#D0CDE1;stroke:#CBCBCB;stroke-miterlimit:10;}
	.st12{display:none;}
	.st13{display:inline;fill:#1A1A1A;}
	.st14{display:inline;fill:#D0CDE1;}
	.st15{display:inline;fill:#A4A4A7;}
	.st16{display:inline;fill:#CFCCE0;}
	.st17{display:inline;}
	.st18{fill:#A4A4A7;}
	.st19{fill:#A4A4A7;stroke:#000000;stroke-width:0.25;stroke-miterlimit:10;}
	.st20{fill:#D0CDE1;stroke:#000000;stroke-width:0.25;stroke-miterlimit:10;}
	.st21{opacity:0.1;fill:#F2F2F2;enable-background:new    ;}
	.st22{display:inline;opacity:0.1;fill:#F2F2F2;enable-background:new    ;}
	.st23{display:inline;fill:#3F3D56;}
	.st24{display:inline;fill:#FF6584;}
	.st25{display:inline;opacity:0.1;enable-background:new    ;}
</style>
<g id="login">
	<title>Mesa de trabajo 1</title>
	<rect x="-21.5" y="-14.5" class="st0" width="1164" height="2463"/>
	<circle class="st1" cx="1024.3" cy="1881.6" r="47.5"/>
	<path class="st2" d="M846.3,2006.8l-37.2-73.1l37.3,64l0.3-26.2l-25.6-52.8l25.7,45.9l0.6-47l-27.8-42.3l27.9,34.9l2-85.9l0,0
		l-0.3,109l30.7-44.1l-30.6,53.3l1.2,52.6l0.1-1.4l35.4-46.5l-35.4,51.4l0.2,6.6l0.1,0.1v0.5l1.6,69.6c-2.3,0.1-4.7,0.1-7,0.1
		l0.1-5.4l-32.3-53.3l32.4,48.1L846.3,2006.8z"/>
	<path class="st3" d="M672.9,2048.5l-37.2-73.1l37.3,64l0.3-26.2l-25.6-52.8l25.7,45.9l0.6-47l-27.8-42.4l27.9,34.9l2-85.9l0,0
		l-0.3,109l30.7-44.1l-30.6,53.3l1.2,52.6l0.1-1.4l35.4-46.5l-35.4,51.4l0.2,6.6l0.1,0.1v0.5l1.6,69.6c-2.3,0.1-4.6,0.1-7,0.1
		l0.1-5.4l-32.3-53.3l32.4,48.1L672.9,2048.5z"/>
	<path class="st2" d="M995.5,1995.3l-37.2-73.1l37.3,64l0.3-26.2l-25.6-52.8l25.7,45.9l0.6-47l-27.8-42.3l27.9,34.9l2-85.9l0,0
		l-0.3,109l30.7-44.1l-30.6,53.3l1.2,52.6l0.1-1.4l35.4-46.5l-35.4,51.4l0.2,6.6l0,0.1v0.5l1.6,69.6c-2.3,0.1-4.7,0.1-7,0.1l0.1-5.4
		l-32.3-53.3l32.4,48.1L995.5,1995.3z"/>
	<path class="st4" d="M354.9,2246.4c21.7-16,44.4-30.5,68-43.4c66.1-36.5,147.4-67.7,239.8-91.8c6.4-1.7,12.8-3.3,19.2-4.9
		c13.7-3.4,27.7-6.6,41.8-9.7l10.5-2.3c19.7-4.1,39.8-8,60.3-11.5l1.3-0.2c4.8-0.8,9.6-1.6,14.5-2.4c97-15.8,202.2-24.4,312.1-24.6
		h2.7v379.9h-888C237.1,2366.8,280,2302.2,354.9,2246.4z"/>
	<path class="st5" d="M531.3,2289.8c37.8-28.1,86.3-53.3,143-74.6c6.3-2.4,12.7-4.7,19.2-6.9l2.7-1c8.3-2.8,16.7-5.6,25.3-8.3
		c14.5-4.5,29.5-8.8,44.8-12.9c11-2.9,22.2-5.7,33.5-8.3c3.7-0.9,7.3-1.7,11-2.5c8.4-1.9,16.9-3.7,25.4-5.4
		c87.7-17.5,185.5-27.2,288.7-27.2v292.9H440.6C440.6,2382.5,473.6,2332.7,531.3,2289.8z"/>
	<path class="st6" d="M513.4,2420.4l1.7,0.8c5.7-11.9,12.8-23.2,20.9-33.6l-1.5-1.1C526.3,2397,519.2,2408.4,513.4,2420.4z
		 M561.6,2357.2l1.3,1.4c9.2-8.5,18.8-16.5,28.9-24l1.7-1.3l-1.1-1.5l-1.7,1.3C580.5,2340.5,570.8,2348.6,561.6,2357.2z
		 M625.6,2309.6l1,1.6c10.9-6.6,22.6-13.1,34.8-19.3l-0.8-1.7C648.3,2296.5,636.6,2303.1,625.6,2309.6L625.6,2309.6z M696.6,2273.4
		l0.7,1.7c11.8-5.1,24.2-10.2,36.9-14.9l-0.7-1.8C720.9,2263.2,708.4,2268.2,696.6,2273.4L696.6,2273.4z M771.2,2245.3l0.6,1.8
		c3.3-1.1,6.7-2.1,10-3.2c9.2-2.9,18.6-5.7,28.1-8.3l-0.5-1.8c-9.5,2.7-19,5.5-28.2,8.3C777.9,2243.1,774.5,2244.2,771.2,2245.3z
		 M859.7,2220.9c-3.9,0.9-7.9,1.8-11.7,2.8l0.4,1.8c3.9-0.9,7.8-1.9,11.7-2.8c3.7-0.9,7.4-1.7,11-2.5c5.3-1.2,10.8-2.4,16.1-3.5
		l-0.4-1.8c-5.4,1.1-10.8,2.3-16.2,3.5C867.1,2219.2,863.4,2220,859.7,2220.9L859.7,2220.9z M926,2207.5l0.3,1.8
		c12.9-2.3,26.1-4.4,39.3-6.3l-0.3-1.9C952.2,2203.1,938.9,2205.2,926,2207.5z M1004.9,2196l0.2,1.9c13-1.5,26.4-2.9,39.6-4.1
		l-0.2-1.9C1031.3,2193.1,1018,2194.5,1004.9,2196L1004.9,2196z M1084.3,2188.9l0.1,1.9c13.1-0.8,26.5-1.5,39.8-2l-0.1-1.9
		C1110.8,2187.4,1097.5,2188.1,1084.3,2188.9L1084.3,2188.9z"/>
	<path class="st4" d="M709.7,2333.6c82.7-61.5,237.8-102.9,415.5-102.9v204.9h-479C646.2,2398.5,669.3,2363.6,709.7,2333.6z"/>
	<path class="st7" d="M354.9,2246.4l176.4,43.3l178.3,43.8l415.5,102h-888C237.1,2366.8,280,2302.2,354.9,2246.4z"/>
	<polygon class="st8" points="462.1,2207.2 456.1,2207.2 453.3,2184.1 462.1,2184.1 	"/>
	<path class="st9" d="M463.7,2213h-19.3v-0.2c0-4.2,3.4-7.5,7.5-7.5l0,0h11.8L463.7,2213z"/>
	<polygon class="st8" points="515.1,2202.8 509.3,2204.4 500.6,2182.8 509.1,2180.5 	"/>
	<path class="st9" d="M518.1,2208l-18.7,5l-0.1-0.2c-1.1-4,1.3-8.1,5.3-9.2l0,0l11.4-3.1L518.1,2208z"/>
	<path class="st9" d="M437.2,2100c-3.5,4.5,7.4,41.6,7.9,42.1s-0.5,3.5-0.5,3.5c0,0.5,0.2,1.1,0.5,1.5c0.5,0.5,0,1,0,2s0,1,1,3
		c0.6,1.4,0.8,3,0.5,4.5l6.4,37.5c-1,0.4-1.6,1.4-1.5,2.5c0,2,9.9,3,13.4,2.5s-2.5-44.6-2.5-44.6s0-11.4,1-12.4s0-1,0-3
		s-1.5-4.9-1-6.4s1-22.8,1-22.8s11.4,21.3,11.4,24.3s3.5,7.9,3.5,7.9l22.8,46.5c0,0-1.5,3,0,5.4s7.9,0.5,14.3-2
		c6.4-2.5-2.5-6.4-2.5-6.4l-13.8-39.5c0-1.5,0.2-3,0.5-4.4c0.5-2.5-1.5-1.5-3-2.5s-1-1,0-3s-1.5-6.4-1.5-6.4l-6.4-36.6
		C488.7,2093,440.6,2095.5,437.2,2100z"/>
	<circle class="st8" cx="453.1" cy="1997.9" r="12.9"/>
	<path class="st5" d="M448.3,2014.7c0,0-17.6,8-19,12s9.4,40.6,9.4,40.6s0.7,15.4-1.3,21.4s-1.6,6.9-1.6,6.9v4.5
		c0,2.5,15.8,0.5,23.8-2s28.2-2,30.2-2.5s-3.3-6.9-3.3-6.9c6.9-0.5,0-15,0-15s-0.7-46.9-2.7-53.4s-20.3-7.6-20.3-7.6l-9.3,3.2
		L448.3,2014.7z"/>
	<path class="st9" d="M468.7,1994.5c0.7-3.2,0-6.6-1.8-9.3c-2.1-3.3-5.6-5.5-9.4-6.1c-3.8-0.5-7.6,0.1-11,1.9c-2,1-4.3,2.4-6.4,1.6
		l0.6,1.1h-1.6l0.6,1.3l-1.5,0.2l1.2,0.7c-1.6,2.8-2.6,5.9-3.1,9.1c-0.3,1.3-0.2,2.6,0.3,3.8c0.6,1.1,2.1,1.8,3,1
		c0.6-0.5,0.8-1.3,1.2-2s1.4-1.1,1.9-0.5l1.3-2.6l1,0.8c2.5-2.2,5.4-3.9,8.5-5c0.8-0.4,1.7-0.4,2.5-0.1c1.1,0.7,1,2.6,1.8,3.8
		c1.3,1.9,4.5,1.1,5.7,3c0.4,0.8,0.6,1.6,0.7,2.4c0.2,0.8,0.8,1.7,1.5,1.7C467.3,1999.7,468,1997.3,468.7,1994.5z"/>
	<path class="st8" d="M499.8,2096.7c-2.5-1.7-3.1-5.1-1.5-7.5c0.2-0.3,0.4-0.5,0.6-0.7l-8.7-17.3l10,1.2l6.7,16.2
		c2,2.2,1.8,5.7-0.4,7.7C504.7,2097.9,501.9,2098.1,499.8,2096.7L499.8,2096.7z"/>
	<path class="st5" d="M492.6,2084.3l-10.1-32.7l-11.5-25c-1.8-3.8-0.1-8.4,3.7-10.2c0,0,0,0,0,0c0.6-0.3,1.1-0.4,1.7-0.6l0,0
		c3.7-0.7,7.4,1.4,8.7,5l21,59.9c0.4,1.3-0.2,2.7-1.5,3.1l-0.3,0.1l-9,1.9c-0.2,0-0.3,0.1-0.5,0.1
		C493.9,2086,493,2085.3,492.6,2084.3z"/>
	<path class="st8" d="M430.3,2108c2.1-2.2,1.9-5.6-0.2-7.7c-0.2-0.2-0.5-0.4-0.8-0.6l4.7-18.7l-9.5,3.3l-3,17.3
		c-1.5,2.6-0.6,6,2,7.4C425.8,2110.3,428.6,2109.9,430.3,2108L430.3,2108z"/>
	<path class="st5" d="M432.7,2096.5c-0.2,0-0.3,0.1-0.5,0.1l-9.2,0.1c-1.3,0-2.4-1.1-2.5-2.4c0-0.1,0-0.2,0-0.3l7.4-63.1
		c0.5-3.8,3.6-6.6,7.4-6.8l0,0c4.2-0.1,7.8,3.2,7.9,7.4c0,0.6,0,1.2-0.2,1.8l-5.8,26.9l-2.7,34.1
		C434.5,2095.4,433.7,2096.3,432.7,2096.5z"/>
	<path class="st4" d="M0.5-0.5v790c0,0,346-234,552-213s393,48,573-35v-542H0.5z"/>
	<path class="st6" d="M45.3,207.9c1.9-36,31.6-64.2,67.6-64.2c2.1,0,4.1,0.1,6.1,0.3c25-43,80.1-57.6,123-32.6
		c13.5,7.8,24.7,19,32.5,32.5c1.7-0.1,3.4-0.2,5.1-0.2c36,0,65.8,28.2,67.6,64.2"/>
	<path class="st10" d="M59.4,202.7c1.9-36,31.6-64.2,67.6-64.2c2.1,0,4.1,0.1,6.1,0.3c25-43,80.1-57.6,123-32.6
		c13.5,7.8,24.7,19,32.5,32.5c1.7-0.1,3.4-0.2,5.1-0.2c36,0,65.8,28.2,67.6,64.2"/>
	<path class="st6" d="M169.4,483.4c6.1-118,103.7-211.9,223.3-211.9c6.8,0,13.5,0.4,20.1,1c82.4-141.8,264.2-190,406.1-107.5
		c44.5,25.9,81.5,62.8,107.4,107.3c5.6-0.4,11.2-0.7,17-0.7c119.6,0,217.2,93.8,223.3,211.9"/>
	<path class="st10" d="M216,466.2c6.1-118,103.7-211.9,223.2-211.9c6.8,0,13.5,0.4,20.1,1c82.4-141.8,264.2-190,406-107.5
		c44.5,25.8,81.5,62.8,107.4,107.2c5.6-0.4,11.3-0.7,17-0.7c119.5,0,217.2,93.8,223.3,211.9"/>
	<path class="st6" d="M-205.3,732.1c3-56.6,49.7-100.9,106.3-100.9c3.2,0,6.4,0.2,9.6,0.5c39.3-67.6,125.9-90.5,193.4-51.2
		c21.2,12.3,38.8,29.9,51.1,51.1c2.7-0.2,5.4-0.3,8.1-0.3c56.6,0,103.4,44.3,106.3,100.9"/>
	<path class="st10" d="M-183.1,723.9c3-56.5,49.7-100.9,106.3-100.9c3.2,0,6.4,0.2,9.6,0.5c39.3-67.6,125.9-90.5,193.4-51.2
		c21.2,12.3,38.8,29.9,51.1,51.1c2.7-0.2,5.4-0.3,8.1-0.3c56.6,0,103.4,44.3,106.3,100.9"/>
	
		<ellipse transform="matrix(0.1602 -0.9871 0.9871 0.1602 -976.2607 2511.0632)" class="st1" cx="987.6" cy="1829.3" rx="47.5" ry="47.5"/>
	<circle class="st11" cx="661.7" cy="1846.4" r="73.4"/>
	<circle class="st1" cx="818.5" cy="1905.3" r="28.3"/>
	<circle class="st1" cx="908.5" cy="1767.3" r="31.3"/>
	<circle class="st1" cx="841.6" cy="1834.3" r="90.3"/>
	<circle class="st11" cx="606.6" cy="1871.3" r="31.3"/>
</g>
<g id="login_copia" class="st12">
	<title>Mesa de trabajo 1</title>
	<title>Mesa de trabajo 1</title>
	<rect x="-0.4" y="-2.3" class="st13" width="1149.2" height="2463.3"/>
	<path class="st14" d="M548.2,1577.1c114,152,439.4,596.2,504.6,869.9h-653c32.1-140.4-189-703-223-757c0,0-134-272-122-413
		c6-94,9-351,323-536c124-74,701-280,762-303l9,161.3c0,0-465.2,129.6-608.2,268.6C280.5,1122.9,407.2,1362.1,548.2,1577.1z"/>
	<circle class="st14" cx="71.5" cy="318.7" r="6.5"/>
	<circle class="st14" cx="828.8" cy="89" r="2.9"/>
	<circle class="st14" cx="689.3" cy="233.8" r="2.9"/>
	<polygon class="st14" points="83.3,374.2 81.9,374.2 81.9,372.7 81.1,372.7 81.1,374.2 79.7,374.2 79.7,374.9 81.1,374.9 
		81.1,376.4 81.9,376.4 81.9,374.9 83.3,374.9 	"/>
	<polygon class="st14" points="650.7,57.9 649.3,57.9 649.3,56.4 648.6,56.4 648.6,57.9 647.1,57.9 647.1,58.6 648.6,58.6 
		648.6,60.1 649.3,60.1 649.3,58.6 650.7,58.6 	"/>
	<polygon class="st14" points="165.8,285.3 164.3,285.3 164.3,283.8 163.6,283.8 163.6,285.3 162.1,285.3 162.1,286 163.6,286 
		163.6,287.5 164.3,287.5 164.3,286 165.8,286 	"/>
	<polygon class="st14" points="67.8,207.3 66.4,207.3 66.4,205.8 65.6,205.8 65.6,207.3 64.2,207.3 64.2,208 65.6,208 65.6,209.4 
		66.4,209.4 66.4,208 67.8,208 	"/>
	<polygon class="st14" points="381.5,240.3 380,240.3 380,238.8 379.3,238.8 379.3,240.3 377.8,240.3 377.8,241 379.3,241 
		379.3,242.4 380,242.4 380,241 381.5,241 	"/>
	<polygon class="st14" points="152.9,408.6 151.4,408.6 151.4,407.2 150.7,407.2 150.7,408.6 149.2,408.6 149.2,409.3 150.7,409.3 
		150.7,410.8 151.4,410.8 151.4,409.3 152.9,409.3 	"/>
	<polygon class="st14" points="817.8,194.1 816.3,194.1 816.3,192.7 815.6,192.7 815.6,194.1 814.2,194.1 814.2,194.8 815.6,194.8 
		815.6,196.3 816.3,196.3 816.3,194.8 817.8,194.8 	"/>
	<polygon class="st14" points="350.6,307.6 349.2,307.6 349.2,306.2 348.5,306.2 348.5,307.6 347,307.6 347,308.4 348.5,308.4 
		348.5,309.8 349.2,309.8 349.2,308.4 350.6,308.4 	"/>
	<polygon class="st14" points="819.9,21.3 818.5,21.3 818.5,19.9 817.8,19.9 817.8,21.3 816.3,21.3 816.3,22.1 817.8,22.1 
		817.8,23.5 818.5,23.5 818.5,22.1 819.9,22.1 	"/>
	<polygon class="st14" points="44.2,94 42.7,94 42.7,92.5 42,92.5 42,94 40.5,94 40.5,94.7 42,94.7 42,96.2 42.7,96.2 42.7,94.7 
		44.2,94.7 	"/>
	<polygon class="st14" points="374.3,152.8 372.9,152.8 372.9,151.3 372.1,151.3 372.1,152.8 370.7,152.8 370.7,153.5 372.1,153.5 
		372.1,155 372.9,155 372.9,153.5 374.3,153.5 	"/>
	<polygon class="st14" points="537.9,293.2 536.4,293.2 536.4,291.7 535.7,291.7 535.7,293.2 534.2,293.2 534.2,293.9 535.7,293.9 
		535.7,295.4 536.4,295.4 536.4,293.9 537.9,293.9 	"/>
	<polygon class="st14" points="184.4,471.7 183,471.7 183,470.2 182.2,470.2 182.2,471.7 180.8,471.7 180.8,472.4 182.2,472.4 
		182.2,473.9 183,473.9 183,472.4 184.4,472.4 	"/>
	<path class="st14" d="M347.9,2320.5c2.2,76.8-42.6,104.9-98.9,106.6c-1.3,0-2.6,0.1-3.9,0.1c-2.6,0-5.2,0-7.8-0.1
		c-50.9-2.1-91.2-29.1-93.3-100.6c-2.2-73.9,89.6-169.9,96.5-177l0,0l0.4-0.4C240.8,2149,345.6,2243.7,347.9,2320.5z"/>
	<path class="st15" d="M236.2,2417.7l28.9-43l-28.8,47.6l0.1,4.8c-2.1,0-4.2,0-6.3-0.1l1.4-62.1v-0.5v-0.1l0.1-5.9l-31.6-45.9
		l31.6,41.5l0.1,1.2l1.1-46.9l-27.3-47.6l27.4,39.4l-0.3-97.2l0,0l1.8,76.6l24.9-31.1l-24.8,37.7l0.6,42l22.9-41l-22.8,47.1
		l0.3,23.3l33.3-57l-33.2,65.2L236.2,2417.7z"/>
	<circle class="st16" cx="544.1" cy="94.8" r="5.8"/>
	<circle class="st16" cx="303.7" cy="183.3" r="5.8"/>
	
		<ellipse transform="matrix(0.9999 -1.020248e-02 1.020248e-02 0.9999 -0.9613 1.1563)" class="st16" cx="112.9" cy="94.8" rx="5.8" ry="5.8"/>
	<g class="st17">
		<path class="st18" d="M942.9,1627l40-83.4l-40,92.5l0.1,9.4c-2.9,0-5.8-0.1-8.7-0.2l2-120.8l-0.1-0.9l0.1-0.2l0.2-11.4l-43.8-89.2
			l43.7,80.7l0.1,2.4l1.5-91.2l-37.8-92.6l38,76.5l-0.4-189.1v-0.6v0.6l2.5,149l34.5-60.5l-34.4,73.4l0.7,81.6l31.8-79.6l-31.6,91.6
			l0.4,45.4l46.2-110.9l-46,126.8L942.9,1627z"/>
		<path class="st4" d="M1029.3,1347c1.8,89.1-35.2,121.8-81.9,123.7c-1.1,0-2.1,0.1-3.3,0.1c-2.1,0-4.3,0-6.4-0.2
			c-42.1-2.5-75.5-33.8-77.2-116.7c-1.8-85.8,74.1-197.3,79.8-205.5l0,0l0.3-0.5C940.7,1147.9,1027.5,1257.8,1029.3,1347z"/>
	</g>
	<g class="st17">
		<path class="st18" d="M544.7,1512.5l66.5-98.8l-66.4,109.5l0.1,11.2c-4.8,0-9.7-0.1-14.5-0.2l3.3-143l-0.1-1.1l0.1-0.2l0.4-13.5
			l-72.8-105.7l72.7,95.6l0.2,2.8l2.5-108l-62.8-109.6L537,1242l-0.6-223.9v-0.7v0.7l4.2,176.4l57.3-71.7l-57.1,86.9l1.2,96.6
			l52.8-94.3l-52.5,108.5l0.7,53.8l76.7-131.3l-76.5,150.1L544.7,1512.5z"/>
		<path class="st4" d="M688.3,1180.9c3.1,105.6-58.5,144.2-136,146.4c-1.8,0-3.6,0.1-5.4,0.1c-3.6,0-7.1,0-10.7-0.2
			c-70-2.9-125.4-40-128.3-138.2c-2.9-101.6,123.1-233.6,132.6-243.4l0,0l0.5-0.6C541.2,945.2,685.3,1075.3,688.3,1180.9z"/>
	</g>
	<g class="st17">
		<path class="st18" d="M777.1,1543.9l40-83.4l-40,92.5l0.1,9.4c-2.9,0-5.8-0.1-8.7-0.2l2-120.8l-0.1-0.9l0.1-0.2l0.2-11.4
			l-43.8-89.2l43.7,80.7l0.1,2.4l1.5-91.2l-37.8-92.6l38,76.5l-0.4-189.1v-0.6v0.6l2.5,149l34.5-60.5l-34.4,73.4l0.7,81.6l31.8-79.6
			l-31.6,91.6l0.4,45.4l46.2-110.9l-46,126.8L777.1,1543.9z"/>
		<path class="st4" d="M863.5,1263.8c1.8,89.1-35.2,121.8-81.9,123.7c-1.1,0-2.1,0.1-3.3,0.1c-2.1,0-4.3,0-6.4-0.2
			c-42.1-2.5-75.5-33.8-77.2-116.7c-1.8-85.8,74.1-197.3,79.8-205.5l0,0l0.3-0.5C774.9,1064.8,861.7,1174.7,863.5,1263.8z"/>
	</g>
	<g class="st17">
		<path class="st19" d="M1060.4,1690.1l32.3-71.3l-32.2,78.9l0.1,8.1c-2.4,0-4.7,0-7-0.2l1.6-103l-0.1-0.8l0.1-0.1l0.1-9.8
			l-35.3-76.1l35.3,68.9l0.1,2l1.2-77.9l-30.5-78.9l30.6,65.3l-0.4-161.3v-0.5v0.5l2,127.1l27.8-51.7l-27.7,62.6l0.6,69.6l25.6-68
			l-25.5,78.2l0.4,38.7l37.2-94.7l-37.1,108.2L1060.4,1690.1z"/>
		<path class="st20" d="M1130.1,1451.2c1.5,76.1-28.4,104-66,105.6c-0.9,0-1.7,0.1-2.6,0.1c-1.7,0-3.5,0-5.1-0.1
			c-33.9-2.1-60.8-28.9-62.2-99.6c-1.4-73.2,59.7-168.3,64.3-175.4l0,0l0.3-0.4C1058.7,1281.3,1128.6,1375.1,1130.1,1451.2z"/>
	</g>
	<circle class="st16" cx="60" cy="189.1" r="5.8"/>
	
		<ellipse transform="matrix(0.1602 -0.9871 0.9871 0.1602 262.7921 512.3329)" class="st16" cx="432.5" cy="101.7" rx="12.6" ry="12.7"/>
	
		<ellipse transform="matrix(9.089773e-03 -1 1 9.089773e-03 -139.7912 389.7324)" class="st16" cx="126.8" cy="265.4" rx="12.6" ry="12.6"/>
	<circle class="st16" cx="334.8" cy="47.6" r="12.6"/>
	<path class="st14" d="M170.8,2382.3c1.4,46.6-25.9,63.6-60,64.6c-0.8,0-1.6,0-2.4,0c-1.6,0-3.2,0-4.7-0.1
		c-30.9-1.3-55.3-17.7-56.6-61c-1.3-44.8,54.3-103.1,58.5-107.4l0,0l0.2-0.3C105.8,2278.2,169.4,2335.7,170.8,2382.3z"/>
	<path class="st15" d="M972.9,447v2.4v2.5c-1.1,0-2.2,0-3.3,0l0.7-32.4v-0.3l0,0l0.1-3v-2.3l0.1,0.6l0.6-24.5l-14.2-24.6l14.3,20.5
		l-0.1-50.8l0,0l1,39.9l13-16.2l-12.9,19.7l0.3,21.9l11.9-21.4l-12,24.6l0.2,12.2L990,386l-17.3,34L972.9,447z"/>
	<path class="st14" d="M1005.4,372c0.7,23.9-13.3,32.7-30.8,33.2h-1.2c-0.8,0-1.6,0-2.4,0c-15.8-0.7-28.4-9.1-29-31.3
		c-0.7-23,27.9-52.9,30-55.1l0,0l0.1-0.1C972.2,318.6,1004.7,348.1,1005.4,372z"/>
	<path class="st14" d="M1128.1,405c0.7,23.9-13.3,32.7-30.8,33.2h-1.2c-0.8,0-1.6,0-2.4,0c-15.8-0.7-28.4-9.1-29-31.3
		c-0.7-23,27.9-52.9,30-55.1l0,0l0.1-0.1C1094.8,351.7,1127.4,381.1,1128.1,405z"/>
	<g class="st17">
		<path class="st19" d="M645.9,1664.8l54.2-80.5l-54.1,89.2l0.1,9.1c-3.9,0-7.9-0.1-11.8-0.2l2.7-116.5l-0.1-0.9l0.1-0.2l0.3-11
			l-59.3-86.1l59.2,77.9l0.2,2.3l2-88l-51.2-89.3l51.4,73.8l-0.5-182.4v-0.6v0.6l3.4,143.7l46.7-58.4l-46.5,70.8l1,78.7l43-76.8
			l-42.8,88.4l0.6,43.8l62.5-107l-62.3,122.3L645.9,1664.8z"/>
		<path class="st20" d="M762.9,1394.6c2.5,86-47.7,117.5-110.8,119.3c-1.5,0-2.9,0.1-4.4,0.1c-2.9,0-5.8,0-8.7-0.2
			c-57-2.4-102.2-32.6-104.5-112.6c-2.4-82.8,100.3-190.3,108-198.3l0,0l0.4-0.5C643,1202.6,760.4,1308.6,762.9,1394.6z"/>
	</g>
	<g class="st17">
		<path class="st19" d="M833.9,1920.9l76.5-113.8l-76.3,126l0.2,12.8c-5.6,0-11.1-0.1-16.6-0.3l3.8-164.6l-0.1-1.3l0.1-0.3l0.4-15.6
			l-83.8-121.6l83.7,110l0.3,3.3l2.9-124.3l-72.4-126.1l72.6,104.3l-0.9-257.4v-0.8v0.8l4.8,203l66-82.5l-65.7,100l1.4,111.2
			l60.7-108.5L831,1700l0.8,61.8l88.3-151.2l-88,172.8L833.9,1920.9z"/>
		<path class="st20" d="M999.2,1539.3c3.5,121.5-67.4,166-156.5,168.6c-2.1,0.1-4.1,0.1-6.2,0.1c-4.1,0-8.2-0.1-12.3-0.2
			c-80.5-3.3-144.3-46.1-147.6-159.1c-3.4-116.9,141.7-268.8,152.6-280l0,0l0.6-0.6C829.8,1268.1,995.6,1417.9,999.2,1539.3z"/>
	</g>
	<circle class="st16" cx="34.9" cy="47.6" r="72.6"/>
	<polygon class="st21" points="44.2,-37 -57.5,51.4 801.8,904 1289.8,923.8 	"/>
	<path class="st22" d="M1001.2,847.1c1.6-0.1,2.8-1.5,2.7-3s-1.2-2.6-2.7-2.7h-23.6c1.6,3.2,0.3,7-2.9,8.6l0,0
		c0,1.6,1.3,2.9,2.9,2.9l0,0h23.7c1.6,0,2.9-1.3,2.9-2.9S1002.8,847.1,1001.2,847.1L1001.2,847.1z"/>
	<path class="st23" d="M903.3,841.2c0-6.7,9.4-8.2,20.9-8.2s20.6,1.5,20.8,8.2c0.4,15.7-9.1,11.7-20.6,11.7S903.4,854.9,903.3,841.2
		"/>
	<path class="st23" d="M971.9,847.4c-0.2-0.1-0.4-0.2-0.6-0.2c-1-0.2-2.1-0.4-3.1-0.7s-2-0.8-2.8-1.5c-0.3-0.3-0.6-0.6-1-0.9
		c-0.4-0.3-0.9-0.3-1.3-0.1l-0.1,0.1l-0.4-0.3l-2.3-1.5l0,0c0-0.1,0-0.2,0-0.4c-0.1-0.4-0.4-0.7-0.8-1c1,0,2-0.1,3-0.2
		c0.9,0,1.9-0.3,2.5-1c0.1-0.1,0.2-0.3,0.2-0.4c0-0.3-0.3-0.5-0.6-0.6c-0.4-0.2-0.8-0.3-1.2-0.3c-0.3,0-0.6-0.1-0.8-0.2
		c-0.2-0.1-0.5-0.2-0.7-0.3l-1.5-0.8c-0.2-0.1-0.4-0.2-0.6-0.4c-0.3-0.3-0.4-0.6-0.6-0.9s-1.2-0.5-1.3-0.1c0,0.2,0.2,0.4,0.2,0.6
		c-0.3-0.2-0.7-0.4-1-0.6c0,0,0-0.1,0.1-0.1c-1.6-1.3-2.9-3-3.8-4.9h0.4c0.2,0,0.5,0,0.7-0.2s0.3-0.4,0.3-0.6c0-0.2-0.1-0.5-0.2-0.7
		c-0.2-0.6-0.6-1.2-1-1.8c-0.4-0.4-0.9-0.7-1.4-1h-0.1c0-0.1-0.1-0.2-0.1-0.3c-0.3-0.7-0.7-1.3-1.1-1.9c-0.6-1-1-2.2-1.3-3.3
		c-0.1-0.7-0.4-1.3-0.8-1.9c-0.8-0.8-2.1-0.8-3.2-0.7l-1.9,0.3l0,0c-0.1-0.1-0.1-0.3-0.2-0.5c0-0.1,0-0.3,0.1-0.4
		c0.1-0.3,0-0.7-0.3-0.9l-0.1-0.1c0.1-0.2,0.1-0.3,0.2-0.5c0.1-0.1,0.2-0.3,0.2-0.5c0.1-0.4,0.2-0.8,0.2-1.3
		c-0.1-0.9-0.2-1.9-0.1-2.8c0-0.2-0.1-0.5-0.3-0.7l-0.1-0.1c0.2-0.3,0.4-0.5,0.7-0.7c0.5-0.4,1-0.7,1.6-1c0.2-0.1,0.3-0.1,0.5-0.2
		c0.2,0,0.4,0.1,0.6,0.1c2.5,0,4.5-2,4.5-4.4l0,0c0-0.6-0.1-1.1-0.3-1.7c0.4-0.1,0.8-0.4,1-0.7c0.2-0.4,0.4-0.8,0.4-1.2
		c0.1-0.3,0-0.7-0.2-1c-0.2-0.2-0.4-0.3-0.6-0.4c-0.3-0.2-0.5-0.4-0.7-0.7c-0.1-0.2-0.2-0.4-0.3-0.7c-0.4-0.8-1.2-1.4-2.1-1.4
		c-0.4,0.1-0.8,0.1-1.2,0.3c-1.4,0.3-2.9-0.5-4.2,0.1c-0.3,0.2-0.6,0.4-0.9,0.6c-0.4,0.3-0.7,0.6-1.1,1c-0.3,0.2-0.5,0.6-0.6,0.9
		c-0.2,0.7,0.2,1.4,0,2c-0.1,0.2-0.2,0.4-0.3,0.5c-0.3,0.4,0,2.1,0,2.6c0,0.3,0,0.5,0.2,0.7l0.1,0.1c-2.2,0.8-4.3,1.7-6.4,2.7
		c-2.5,1.2-4.5,3.1-5.9,5.5c-0.4,0.7-0.6,1.4-0.9,2.1c-0.4,0.9-0.9,1.8-1.5,2.7c-0.6,1.1-1.3,2.2-2,3.2c-0.4,0.5-0.8,1.1-1.2,1.7
		c0,0.1,0,0.2,0,0.3c0,0.1,0,0.2,0,0.2c-0.1,0.1-0.2,0.1-0.3,0.2l0,0c-0.2,0.5-0.3,1.1-0.4,1.6c-0.3,0.8-0.5,1.7-0.7,2.6
		c-0.2,0.3-0.2,0.7,0.1,1l0,0c0.1,0.1,0.3,0.1,0.5,0.1c0.8,0.3,1.5,0.7,2.2,1.1c0,0,0,0.1,0,0.2c0,1.1,0.6,2.2,1.6,2.7
		s2.1,0.8,3.2,0.9c0.4,0,0.9,0.1,1.3,0.1c0.6,0.3,1.3,0.6,2,0.8c0.2,0,0.3,0.1,0.5,0.1c0.4,0,0.8-0.2,1.1-0.6
		c3.7,0.2,7.5,0.1,11.2-0.2c1-0.2,2.1-0.1,3,0.5c0.8,0.7,1,1.8,1.6,2.7c0.4,0.5,0.9,1,1.5,1.4c1.1,1.1,2,2.4,2.8,3.7s2,2.4,3.4,3.1
		c0.3-0.4,0.6-0.7,1-0.9l0.3-0.2c0.1,0.2,0.3,0.5,0.5,0.7l0.4,0.5l0,0c-0.2,0-0.3,0.3-0.3,0.5c-0.1,0.8-0.2,1.5-0.3,2.3
		c0,0.1,0,0.3,0,0.4c0.1,0.2,0.2,0.3,0.4,0.3c0.7,0.3,1.4,0.5,2.2,0.6c0.4,0,0.8,0,1.2,0c0.6,0.1,1.3,0.2,1.9,0.4
		c1.7,0.4,3.4,0.5,5.1,0.4c0.3,0,0.7-0.1,1-0.2c0.4-0.2,0.7-0.5,1-0.8c0.4-0.3,0.6-0.8,0.8-1.2C972.5,848.1,972.3,847.6,971.9,847.4
		z"/>
	<path class="st14" d="M944.3,797.1c0.2,0,0.3-0.1,0.5-0.1c-0.5-0.1-1.1,0-1.6,0.2C943.6,797.2,943.9,797.2,944.3,797.1z"/>
	<path class="st14" d="M947.6,798.3c0.1,0.2,0.2,0.4,0.3,0.7c0.2,0.3,0.4,0.5,0.7,0.7c0.2,0.1,0.4,0.2,0.6,0.4
		c0.2,0.3,0.3,0.7,0.2,1c0,0.4-0.2,0.9-0.4,1.2c-0.2,0.4-0.6,0.6-1,0.7c0.9,2.2-0.1,4.8-2.3,5.8c-0.8,0.3-1.6,0.4-2.5,0.3
		c-0.1,0.1-0.3,0.2-0.5,0.2c-0.6,0.3-1.1,0.6-1.6,1c-0.3,0.2-0.5,0.4-0.7,0.7h0.2c0.1,0.2,0.2,0.4,0.3,0.7c-0.1,0.9,0,1.9,0.1,2.8
		c0,0.4-0.1,0.8-0.2,1.3c0,0.2,0,0.3-0.2,0.5c-0.1,0.2-0.1,0.3-0.2,0.5l0.1,0.1c0.2,0.2,0.3,0.6,0.3,0.9c0,0.1-0.1,0.3-0.1,0.4
		c0,0.2,0.1,0.3,0.2,0.5l0,0l1.9-0.3l1-0.1c0-0.1,0-0.1,0-0.2c0-0.1,0-0.3,0.1-0.4c0.1-0.3,0-0.7-0.3-0.9l-0.1-0.1
		c0.1-0.2,0.1-0.3,0.2-0.5c0.1-0.1,0.2-0.3,0.2-0.5c0.1-0.4,0.2-0.8,0.2-1.3c-0.1-0.9-0.2-1.9-0.1-2.8c0-0.2-0.1-0.5-0.3-0.7
		l-0.1,0.1c0.2-0.3,0.4-0.5,0.7-0.7c0.5-0.4,1-0.7,1.6-1c0.2-0.1,0.3-0.1,0.5-0.2c0.2,0,0.4,0.1,0.6,0.1c2.5,0,4.5-2,4.5-4.4l0,0
		c0-0.6-0.1-1.1-0.3-1.7c0.4-0.1,0.8-0.4,1-0.7c0.2-0.4,0.4-0.8,0.4-1.2c0.1-0.3,0-0.7-0.2-1c-0.2-0.2-0.4-0.3-0.6-0.4
		c-0.3-0.2-0.5-0.4-0.7-0.7c-0.1-0.2-0.2-0.4-0.3-0.7c-0.4-0.8-1.2-1.4-2.1-1.4c-0.4,0.1-0.8,0.1-1.2,0.3c-0.2,0-0.5,0-0.7,0
		C947.1,797.4,947.4,797.8,947.6,798.3z"/>
	<path class="st14" d="M971.9,847.4c-0.2-0.1-0.4-0.2-0.6-0.2c-1-0.2-2.1-0.4-3.1-0.7s-2-0.8-2.8-1.5c-0.3-0.3-0.6-0.6-1-0.9
		c-0.4-0.3-0.9-0.3-1.3-0.1l-0.1,0.1l-0.4-0.3l-2.3-1.5l0,0c0-0.1,0-0.2,0-0.4c-0.1-0.4-0.4-0.7-0.8-1c1,0,2-0.1,3-0.2
		c0.9,0,1.9-0.3,2.5-1c0.1-0.1,0.2-0.3,0.2-0.4c0-0.3-0.3-0.5-0.6-0.6c-0.4-0.2-0.8-0.3-1.2-0.3c-0.3,0-0.6-0.1-0.8-0.2
		c-0.2-0.1-0.5-0.2-0.7-0.3l-1.5-0.8c-0.2-0.1-0.4-0.2-0.6-0.4c-0.3-0.3-0.4-0.6-0.6-0.9s-1.2-0.5-1.3-0.1c0,0.2,0.2,0.4,0.2,0.6
		c-0.3-0.2-0.7-0.4-1-0.6c0,0,0-0.1,0.1-0.1c-1.6-1.3-2.9-3-3.8-4.9h0.4c0.2,0,0.5,0,0.7-0.2s0.3-0.4,0.3-0.6c0-0.2-0.1-0.5-0.2-0.7
		c-0.2-0.6-0.6-1.2-1-1.8c-0.4-0.4-0.9-0.7-1.4-1h-0.1c0-0.1-0.1-0.2-0.1-0.3c-0.3-0.7-0.7-1.3-1.1-1.9c-0.6-1-1-2.2-1.3-3.3
		c-0.1-0.7-0.4-1.3-0.8-1.9c-0.8-0.8-2.1-0.8-3.2-0.7l-0.8,0.1c0.4,0.1,0.7,0.3,1,0.6c0.4,0.6,0.6,1.2,0.7,1.9
		c0.3,1.1,0.7,2.2,1.2,3.3c0.4,0.6,0.8,1.2,1.1,1.9c0,0.1,0.1,0.2,0.1,0.3h0.1c0.5,0.3,1,0.6,1.4,1c0.4,0.5,0.8,1.1,1,1.8
		c0.1,0.2,0.2,0.4,0.2,0.7c0,0.2-0.1,0.5-0.3,0.6s-0.5,0.2-0.7,0.2h-0.4c0.8,1.9,2.1,3.6,3.8,4.9c0,0,0,0.1-0.1,0.1
		c0.3,0.2,0.7,0.4,1,0.6c0-0.2-0.2-0.4-0.2-0.6c0.1-0.5,1.1-0.2,1.3,0.1s0.4,0.6,0.6,0.9c0.2,0.2,0.4,0.3,0.6,0.4l1.5,0.8
		c0.2,0.1,0.5,0.2,0.7,0.3c0.3,0.1,0.6,0.1,0.8,0.2c0.4,0.1,0.8,0.2,1.2,0.3c0.3,0.1,0.6,0.3,0.6,0.6c0,0.2-0.1,0.3-0.2,0.4
		c-0.7,0.7-1.6,1-2.5,1c-1,0.1-2,0.2-3,0.2c0.4,0.2,0.6,0.6,0.8,1c0,0.1,0,0.2,0,0.4l0,0l2.3,1.5l0.4,0.3l0.1-0.1
		c0.4-0.2,0.9-0.2,1.3,0.1c0.4,0.3,0.7,0.6,1,0.9c0.8,0.7,1.7,1.3,2.8,1.5c1,0.3,2.1,0.5,3.1,0.7c0.2,0,0.4,0.1,0.6,0.2
		c0.4,0.3,0.6,0.8,0.5,1.3c-0.2,0.5-0.4,0.9-0.8,1.2c-0.3,0.3-0.6,0.6-1,0.8c-0.2,0.1-0.5,0.1-0.8,0.2c0.9,0.1,1.8,0.1,2.7,0
		c0.3,0,0.7-0.1,1-0.2c0.4-0.2,0.7-0.5,1-0.8c0.4-0.3,0.6-0.8,0.8-1.2C972.4,848.1,972.3,847.7,971.9,847.4z"/>
	<path class="st24" d="M955.3,844.9l0.2,0.1L955.3,844.9L955.3,844.9z"/>
	<path class="st14" d="M1000,836.5c0,10.6-4.7,7.7-10.5,7.7s-10.6,2.9-10.6-7.7s10.6-30.7,10.6-30.7S1000,826,1000,836.5z"/>
	<path class="st25" d="M994.2,840.6c0,4.8-2.2,3.5-4.8,3.5s-4.8,1.3-4.8-3.5c0-4.8,4.8-14,4.8-14S994.2,835.8,994.2,840.6z"/>
	<path class="st14" d="M1002.6,808.2c0,0,2.2-2.2,2.2-4.5"/>
	<path class="st14" d="M980.2,789.2c0,0-0.9-3-2.9-4.1"/>
	<path class="st14" d="M958.2,748.2c0,0-0.9-3-2.9-4.1"/>
	<path class="st14" d="M984.2,803.2c0,0-0.9-3-2.9-4.1"/>
	<path class="st14" d="M981.2,754.2c0,0-0.9-3-2.9-4.1"/>
	<path class="st14" d="M975.2,772.2c0,0-0.9-3-2.9-4.1"/>
	<path class="st14" d="M1000.6,839.2c0,0,2.2-2.2,2.2-4.5"/>
	<path class="st14" d="M1004.6,822.2c0,0,2.2-2.2,2.2-4.5"/>
	
		<rect x="952.7" y="823.5" transform="matrix(0.9487 -0.3161 0.3161 0.9487 -210.9888 347.3958)" class="st14" width="25.3" height="1"/>
	<path class="st14" d="M975.5,820.3c0.9,3.5-0.6,2.7-2,3s-1.1,1.6-3-1.9c-1.3-2.4,0.6-2.7,2-3C973.9,818.1,974.9,817.9,975.5,820.3z
		"/>
	<path class="st23" d="M858.4,862c2,7.5,8.9,12.1,8.9,12.1s3.6-7.5,1.6-14.9c-2-7.4-8.9-12.1-8.9-12.1S856.4,854.6,858.4,862z"/>
	<path class="st23" d="M861.4,860.4c5.5,5.4,6.2,13.7,6.2,13.7s-8.3-0.5-13.8-5.8s-6.2-13.7-6.2-13.7S855.8,855,861.4,860.4z"/>
	<path class="st23" d="M964.5,874.3c-5.3,5.6-5.7,13.9-5.7,13.9s8.3-0.8,13.6-6.4c5.3-5.6,5.7-13.9,5.7-13.9
		S969.8,868.7,964.5,874.3z"/>
	<path class="st23" d="M967.4,876c-1.7,7.5-8.4,12.4-8.4,12.4s-3.9-7.3-2.2-14.8s8.4-12.4,8.4-12.4S969.1,868.4,967.4,876z"/>
	<g class="st17">
		<path class="st19" d="M1003.3,2127.9l64.8-96.4l-64.6,106.7l0.2,10.8c-4.7,0-9.4-0.1-14.1-0.3l3.2-139.4l-0.1-1.1l0.1-0.3
			l0.3-13.2l-71-103l70.9,93.2l0.3,2.8l2.5-105.3l-61.3-106.8l61.5,88.3l-0.8-218v-0.7v0.7l4.1,171.9l55.9-69.9l-55.6,84.7l1.2,94.2
			l51.4-91.9l-51.2,105.7l0.7,52.3l74.8-128l-74.5,146.3L1003.3,2127.9z"/>
		<path class="st20" d="M1143.3,1804.8c3,102.9-57.1,140.6-132.5,142.8c-1.8,0.1-3.5,0.1-5.3,0.1c-3.5,0-6.9-0.1-10.4-0.2
			c-68.2-2.8-122.2-39-125-134.7c-2.9-99,120-227.6,129.2-237.1l0,0l0.5-0.5C999.9,1575.1,1140.3,1702,1143.3,1804.8z"/>
	</g>
	<g class="st17">
		<path class="st18" d="M740.1,556.9v2.4v2.5c-0.7,0-1.3,0-2,0l0.4-32.4v-0.3l0,0l0.1-3v-2.3l0.1,0.6l0.4-24.5l-8.6-24.6l8.7,20.5
			l-0.1-50.8l0,0l0.6,39.9l7.9-16.2l-7.8,19.7l0.2,21.9l7.2-21.4l-7.3,24.6l0.1,12.2l10.6-29.8l-10.5,34L740.1,556.9z"/>
		<path class="st4" d="M759.9,481.9c0.4,23.9-8.1,32.7-18.7,33.2h-0.7c-0.5,0-1,0-1.5,0c-9.6-0.7-17.3-9.1-17.6-31.3
			c-0.4-23,17-52.9,18.2-55.1l0,0l0.1-0.1C739.7,428.5,759.5,458,759.9,481.9z"/>
	</g>
	<path class="st15" d="M914.1,490.3v2.4v2.5c-1.1,0-2.2,0-3.3,0l0.7-32.4v-0.3l0,0l0.1-3v-2.3l0.1,0.6l0.6-24.5l-14.2-24.6
		l14.3,20.5l-0.1-50.8l0,0l1,39.9l13-16.2l-12.9,19.7l0.3,21.9l11.9-21.4l-12,24.6l0.2,12.2l17.4-29.8l-17.3,34L914.1,490.3z"/>
	<path class="st14" d="M946.6,415.3c0.7,23.9-13.3,32.7-30.8,33.2h-1.2c-0.8,0-1.6,0-2.4,0c-15.8-0.7-28.4-9.1-29-31.3
		c-0.7-23,27.9-52.9,30-55.1l0,0l0.1-0.1C913.4,361.9,945.9,391.4,946.6,415.3z"/>
	<g class="st17">
		<path class="st18" d="M778.7,490.3v2.4v2.5c-0.7,0-1.3,0-2,0l0.4-32.4v-0.3l0,0l0.1-3v-2.3l0.1,0.6l0.4-24.5l-8.6-24.6l8.7,20.5
			l-0.1-50.8l0,0l0.6,39.9l7.9-16.2l-7.8,19.7l0.2,21.9l7.2-21.4l-7.3,24.6l0.1,12.2l10.6-29.8l-10.5,34L778.7,490.3z"/>
		<path class="st4" d="M798.5,415.3c0.4,23.9-8.1,32.7-18.7,33.2H779c-0.5,0-1,0-1.5,0c-9.6-0.7-17.3-9.1-17.6-31.3
			c-0.4-23,17-52.9,18.2-55.1l0,0l0.1-0.1C778.3,361.9,798,391.4,798.5,415.3z"/>
	</g>
	<g class="st17">
		<path class="st18" d="M817.3,523.3v2.4v2.5c-0.7,0-1.3,0-2,0l0.4-32.4v-0.3l0,0l0.1-3v-2.3l0.1,0.6l0.4-24.5l-8.6-24.6l8.7,20.5
			l-0.1-50.8l0,0l0.6,39.9l7.9-16.2l-7.8,19.7l0.2,21.9l7.2-21.4l-7.3,24.6l0.1,12.2l10.6-29.8l-10.5,34L817.3,523.3z"/>
		<path class="st4" d="M837,448.3c0.4,23.9-8.1,32.7-18.7,33.2h-0.7c-0.5,0-1,0-1.5,0c-9.6-0.7-17.3-9.1-17.6-31.3
			c-0.4-23,17-52.9,18.2-55.1l0,0l0.1-0.1C816.8,394.9,836.6,424.4,837,448.3z"/>
	</g>
	<g class="st17">
		<path class="st18" d="M870.1,495.1v4.1v4.2c-1.1,0-2.3,0-3.4,0l0.7-54.8V448l0,0l0.1-5.1v-3.9l0.1,1l0.6-41.4L853.6,357l14.7,34.7
			l-0.1-85.9l0,0l1,67.5l13.4-27.4l-13.3,33.3l0.3,37.1l12.2-36.2l-12.3,41.6l0.2,20.6l17.9-50.4l-17.8,57.5L870.1,495.1z"/>
		<path class="st4" d="M903.5,368.2c0.7,40.4-13.7,55.3-31.7,56.2h-1.2c-0.8,0-1.6,0-2.5,0c-16.2-1.2-29.2-15.4-29.8-53
			c-0.7-38.9,28.7-89.5,30.8-93.2l0,0l0.1-0.2C869.3,277.8,902.8,327.7,903.5,368.2z"/>
	</g>
	<g class="st17">
		<path class="st18" d="M1036.5,443.6v4.1v4.2c-1.1,0-2.3,0-3.4,0l0.7-54.8v-0.5l0,0l0.1-5.1v-3.9l0.1,1l0.6-41.4l-14.6-41.6
			l14.7,34.7l-0.1-85.9l0,0l1,67.5l13.4-27.4l-13.3,33.3l0.3,37.1l12.2-36.2l-12.3,41.6l0.2,20.6l17.9-50.4l-17.8,57.5L1036.5,443.6
			z"/>
		<path class="st4" d="M1070,316.7c0.7,40.4-13.7,55.3-31.7,56.2h-1.2c-0.8,0-1.6,0-2.5,0c-16.2-1.2-29.2-15.4-29.8-53
			c-0.7-38.9,28.7-89.5,30.8-93.2l0,0l0.1-0.2C1035.8,226.4,1069.2,276.3,1070,316.7z"/>
	</g>
</g>
</svg>
