<svg id="Capa_1" data-name="Capa 1" xmlns="http://www.w3.org/2000/svg" viewBox="0 0 1125 2436">
  <title>Mesa de trabajo 1</title>
  <g id="login">
    <rect x="-21.5" y="-14.5" width="1164" height="2463" fill="#fff" stroke="#cbcbcb" stroke-miterlimit="10"/>
    <circle cx="1024.3" cy="1881.6" r="47.5" fill="#d0cde1" stroke="#000" stroke-miterlimit="10"/>
    <path d="M846.3,2006.8l-37.2-73.1,37.3,64,.3-26.2-25.6-52.8,25.7,45.9.6-47-27.8-42.3,27.9,34.9,2-85.9h0l-.3,109,30.7-44.1-30.6,53.3,1.2,52.6.1-1.4,35.4-46.5-35.4,51.4.2,6.6.1.1v.5l1.6,69.6c-2.3.1-4.7.1-7,.1l.1-5.4-32.3-53.3,32.4,48.1Z" fill="#3f3d56"/>
    <path d="M672.9,2048.5l-37.2-73.1,37.3,64,.3-26.2-25.6-52.8,25.7,45.9.6-47-27.8-42.4,27.9,34.9,2-85.9h0l-.3,109,30.7-44.1-30.6,53.3,1.2,52.6.1-1.4,35.4-46.5-35.4,51.4.2,6.6.1.1v.5l1.6,69.6c-2.3.1-4.6.1-7,.1l.1-5.4-32.3-53.3,32.4,48.1Z" fill="#cbcbcb"/>
    <path d="M995.5,1995.3l-37.2-73.1,37.3,64,.3-26.2-25.6-52.8,25.7,45.9.6-47-27.8-42.3,27.9,34.9,2-85.9h0l-.3,109,30.7-44.1L998.5,1931l1.2,52.6.1-1.4,35.4-46.5-35.4,51.4.2,6.6v.6l1.6,69.6c-2.3.1-4.7.1-7,.1l.1-5.4-32.3-53.3,32.4,48.1Z" fill="#3f3d56"/>
    <path d="M354.9,2246.4a597.38,597.38,0,0,1,68-43.4c66.1-36.5,147.4-67.7,239.8-91.8,6.4-1.7,12.8-3.3,19.2-4.9,13.7-3.4,27.7-6.6,41.8-9.7l10.5-2.3c19.7-4.1,39.8-8,60.3-11.5l1.3-.2c4.8-.8,9.6-1.6,14.5-2.4,97-15.8,202.2-24.4,312.1-24.6h2.7v379.9h-888C237.1,2366.8,280,2302.2,354.9,2246.4Z" fill="#d0cde1"/>
    <path d="M531.3,2289.8c37.8-28.1,86.3-53.3,143-74.6q9.45-3.6,19.2-6.9l2.7-1c8.3-2.8,16.7-5.6,25.3-8.3,14.5-4.5,29.5-8.8,44.8-12.9,11-2.9,22.2-5.7,33.5-8.3,3.7-.9,7.3-1.7,11-2.5,8.4-1.9,16.9-3.7,25.4-5.4,87.7-17.5,185.5-27.2,288.7-27.2v292.9H440.6C440.6,2382.5,473.6,2332.7,531.3,2289.8Z" fill="#5a5a5a"/>
    <path d="M513.4,2420.4l1.7.8a184.94,184.94,0,0,1,20.9-33.6l-1.5-1.1A188.32,188.32,0,0,0,513.4,2420.4Zm48.2-63.2,1.3,1.4a350.18,350.18,0,0,1,28.9-24l1.7-1.3-1.1-1.5-1.7,1.3A304.94,304.94,0,0,0,561.6,2357.2Zm64-47.6,1,1.6c10.9-6.6,22.6-13.1,34.8-19.3l-.8-1.7c-12.3,6.3-24,12.9-35,19.4Zm71-36.2.7,1.7c11.8-5.1,24.2-10.2,36.9-14.9l-.7-1.8c-12.6,4.8-25.1,9.8-36.9,15Zm74.6-28.1.6,1.8c3.3-1.1,6.7-2.1,10-3.2,9.2-2.9,18.6-5.7,28.1-8.3l-.5-1.8c-9.5,2.7-19,5.5-28.2,8.3C777.9,2243.1,774.5,2244.2,771.2,2245.3Zm88.5-24.4c-3.9.9-7.9,1.8-11.7,2.8l.4,1.8c3.9-.9,7.8-1.9,11.7-2.8,3.7-.9,7.4-1.7,11-2.5,5.3-1.2,10.8-2.4,16.1-3.5l-.4-1.8c-5.4,1.1-10.8,2.3-16.2,3.5-3.5.8-7.2,1.6-10.9,2.5Zm66.3-13.4.3,1.8c12.9-2.3,26.1-4.4,39.3-6.3l-.3-1.9C952.2,2203.1,938.9,2205.2,926,2207.5Zm78.9-11.5.2,1.9c13-1.5,26.4-2.9,39.6-4.1l-.2-1.9c-13.2,1.2-26.5,2.6-39.6,4.1Zm79.4-7.1.1,1.9c13.1-.8,26.5-1.5,39.8-2l-.1-1.9c-13.3.5-26.6,1.2-39.8,2Z" fill="#fff"/>
    <path d="M709.7,2333.6c82.7-61.5,237.8-102.9,415.5-102.9v204.9h-479C646.2,2398.5,669.3,2363.6,709.7,2333.6Z" fill="#d0cde1"/>
    <path d="M354.9,2246.4l176.4,43.3,178.3,43.8,415.5,102h-888C237.1,2366.8,280,2302.2,354.9,2246.4Z" opacity="0.2" style="isolation: isolate"/>
    <polygon points="462.1 2207.2 456.1 2207.2 453.3 2184.1 462.1 2184.1 462.1 2207.2" fill="#fff" stroke="#000" stroke-miterlimit="10"/>
    <path d="M463.7,2213H444.4v-.2a7.49,7.49,0,0,1,7.5-7.5h11.8Z" fill="#2f2e41"/>
    <polygon points="515.1 2202.8 509.3 2204.4 500.6 2182.8 509.1 2180.5 515.1 2202.8" fill="#fff" stroke="#000" stroke-miterlimit="10"/>
    <path d="M518.1,2208l-18.7,5-.1-.2a7.51,7.51,0,0,1,5.3-9.2h0l11.4-3.1Z" fill="#2f2e41"/>
    <path d="M437.2,2100c-3.5,4.5,7.4,41.6,7.9,42.1s-.5,3.5-.5,3.5a2.69,2.69,0,0,0,.5,1.5c.5.5,0,1,0,2s0,1,1,3a7.72,7.72,0,0,1,.5,4.5l6.4,37.5a2.42,2.42,0,0,0-1.5,2.5c0,2,9.9,3,13.4,2.5s-2.5-44.6-2.5-44.6,0-11.4,1-12.4,0-1,0-3-1.5-4.9-1-6.4,1-22.8,1-22.8,11.4,21.3,11.4,24.3,3.5,7.9,3.5,7.9l22.8,46.5s-1.5,3,0,5.4,7.9.5,14.3-2-2.5-6.4-2.5-6.4l-13.8-39.5a21.18,21.18,0,0,1,.5-4.4c.5-2.5-1.5-1.5-3-2.5s-1-1,0-3-1.5-6.4-1.5-6.4l-6.4-36.6C488.7,2093,440.6,2095.5,437.2,2100Z" fill="#2f2e41"/>
    <circle cx="453.1" cy="1997.9" r="12.9" fill="#fff" stroke="#000" stroke-miterlimit="10"/>
    <path d="M448.3,2014.7s-17.6,8-19,12,9.4,40.6,9.4,40.6.7,15.4-1.3,21.4-1.6,6.9-1.6,6.9v4.5c0,2.5,15.8.5,23.8-2s28.2-2,30.2-2.5-3.3-6.9-3.3-6.9c6.9-.5,0-15,0-15s-.7-46.9-2.7-53.4-20.3-7.6-20.3-7.6l-9.3,3.2Z" fill="#5a5a5a"/>
    <path d="M468.7,1994.5a12.21,12.21,0,0,0-1.8-9.3,13.72,13.72,0,0,0-9.4-6.1,18.23,18.23,0,0,0-11,1.9c-2,1-4.3,2.4-6.4,1.6l.6,1.1h-1.6l.6,1.3-1.5.2,1.2.7a26.54,26.54,0,0,0-3.1,9.1,6.16,6.16,0,0,0,.3,3.8c.6,1.1,2.1,1.8,3,1a6.66,6.66,0,0,0,1.2-2c.4-.7,1.4-1.1,1.9-.5l1.3-2.6,1,.8a26.12,26.12,0,0,1,8.5-5,3.11,3.11,0,0,1,2.5-.1c1.1.7,1,2.6,1.8,3.8,1.3,1.9,4.5,1.1,5.7,3a7.28,7.28,0,0,1,.7,2.4c.2.8.8,1.7,1.5,1.7C467.3,1999.7,468,1997.3,468.7,1994.5Z" fill="#2f2e41"/>
    <path d="M499.8,2096.7a5.47,5.47,0,0,1-1.5-7.5,4.35,4.35,0,0,1,.6-.7l-8.7-17.3,10,1.2,6.7,16.2a5.42,5.42,0,0,1-7.1,8.1Z" fill="#fff" stroke="#000" stroke-miterlimit="10"/>
    <path d="M492.6,2084.3l-10.1-32.7-11.5-25a7.71,7.71,0,0,1,3.7-10.2h0a11.5,11.5,0,0,1,1.7-.6h0a7.74,7.74,0,0,1,8.7,5l21,59.9a2.42,2.42,0,0,1-1.5,3.1l-.3.1-9,1.9c-.2,0-.3.1-.5.1A2.3,2.3,0,0,1,492.6,2084.3Z" fill="#5a5a5a"/>
    <path d="M430.3,2108a5.33,5.33,0,0,0-1-8.3L434,2081l-9.5,3.3-3,17.3a5.39,5.39,0,0,0,2,7.4,5.45,5.45,0,0,0,6.8-1Z" fill="#fff" stroke="#000" stroke-miterlimit="10"/>
    <path d="M432.7,2096.5c-.2,0-.3.1-.5.1l-9.2.1a2.59,2.59,0,0,1-2.5-2.4v-.3l7.4-63.1a7.81,7.81,0,0,1,7.4-6.8h0a7.69,7.69,0,0,1,7.9,7.4,5.54,5.54,0,0,1-.2,1.8l-5.8,26.9-2.7,34.1A2.26,2.26,0,0,1,432.7,2096.5Z" fill="#5a5a5a"/>
    <path d="M.5-.5v790s346-234,552-213,393,48,573-35V-.5Z" fill="#d0cde1"/>
    <path d="M45.3,207.9a67.72,67.72,0,0,1,67.6-64.2,60.78,60.78,0,0,1,6.1.3,89.94,89.94,0,0,1,123-32.6,88.87,88.87,0,0,1,32.5,32.5c1.7-.1,3.4-.2,5.1-.2a67.66,67.66,0,0,1,67.6,64.2" fill="#fff"/>
    <path d="M59.4,202.7A67.72,67.72,0,0,1,127,138.5a60.78,60.78,0,0,1,6.1.3,89.94,89.94,0,0,1,123-32.6,88.87,88.87,0,0,1,32.5,32.5c1.7-.1,3.4-.2,5.1-.2a67.66,67.66,0,0,1,67.6,64.2" fill="none" stroke="#3f3d56" stroke-miterlimit="10"/>
    <path d="M169.4,483.4c6.1-118,103.7-211.9,223.3-211.9,6.8,0,13.5.4,20.1,1C495.2,130.7,677,82.5,818.9,165A297,297,0,0,1,926.3,272.3c5.6-.4,11.2-.7,17-.7,119.6,0,217.2,93.8,223.3,211.9" fill="#fff"/>
    <path d="M216,466.2c6.1-118,103.7-211.9,223.2-211.9,6.8,0,13.5.4,20.1,1,82.4-141.8,264.2-190,406-107.5A296.73,296.73,0,0,1,972.7,255c5.6-.4,11.3-.7,17-.7,119.5,0,217.2,93.8,223.3,211.9" fill="none" stroke="#3f3d56" stroke-miterlimit="10"/>
    <path d="M-205.3,732.1A106.47,106.47,0,0,1-99,631.2c3.2,0,6.4.2,9.6.5A141.41,141.41,0,0,1,104,580.5a140.67,140.67,0,0,1,51.1,51.1q4.05-.3,8.1-.3A106.4,106.4,0,0,1,269.5,732.2" fill="#fff"/>
    <path d="M-183.1,723.9A106.54,106.54,0,0,1-76.8,623c3.2,0,6.4.2,9.6.5a141.41,141.41,0,0,1,244.5-.1q4-.3,8.1-.3A106.4,106.4,0,0,1,291.7,724" fill="none" stroke="#3f3d56" stroke-miterlimit="10"/>
    <circle cx="987.7" cy="1829.3" r="47.5" transform="translate(-976.19 2511.22) rotate(-80.78)" fill="#d0cde1" stroke="#000" stroke-miterlimit="10"/>
    <circle cx="661.7" cy="1846.4" r="73.4" fill="#d0cde1" stroke="#cbcbcb" stroke-miterlimit="10"/>
    <circle cx="818.5" cy="1905.3" r="28.3" fill="#d0cde1" stroke="#000" stroke-miterlimit="10"/>
    <circle cx="908.5" cy="1767.3" r="31.3" fill="#d0cde1" stroke="#000" stroke-miterlimit="10"/>
    <circle cx="841.6" cy="1834.3" r="90.3" fill="#d0cde1" stroke="#000" stroke-miterlimit="10"/>
    <circle cx="606.6" cy="1871.3" r="31.3" fill="#d0cde1" stroke="#cbcbcb" stroke-miterlimit="10"/>
  </g>
</svg>
