<svg id="login_copia_2" data-name="login copia 2" xmlns="http://www.w3.org/2000/svg" viewBox="0 0 1125 2436">
  <title>Mesa de trabajo 1</title>
  <rect x="-21.5" y="-14.5" width="1164" height="2463" fill="#fff" stroke="#cbcbcb" stroke-miterlimit="10"/>
  <path d="M.5-.5v790s346-234,552-213,393,48,573-35V-.5Z" fill="#d0cde1"/>
  <path d="M45.25,207.9a67.73,67.73,0,0,1,67.64-64.19c2.06,0,4.09.11,6.11.29a90,90,0,0,1,155.57-.08c1.69-.13,3.4-.21,5.13-.21a67.75,67.75,0,0,1,67.65,64.19" fill="#fff"/>
  <path d="M59.36,202.69A67.73,67.73,0,0,1,127,138.5c2.06,0,4.09.1,6.1.28a90,90,0,0,1,155.57-.07c1.7-.13,3.41-.21,5.14-.21a67.73,67.73,0,0,1,67.64,64.19" fill="none" stroke="#3f3d56" stroke-miterlimit="10"/>
  <path d="M169.41,483.36c6.08-118,103.7-211.87,223.25-211.87,6.79,0,13.5.35,20.14.95C495.24,130.62,677,82.47,818.86,164.91A297,297,0,0,1,926.24,272.19c5.6-.42,11.24-.7,17-.7,119.55,0,217.17,93.84,223.25,211.87" fill="#fff"/>
  <path d="M216,466.16c6.07-118,103.7-211.87,223.24-211.87,6.8,0,13.51.36,20.15,1,82.43-141.82,264.23-190,406-107.53A297,297,0,0,1,972.8,255c5.61-.42,11.25-.71,17-.71,119.55,0,217.18,93.84,223.25,211.87" fill="none" stroke="#3f3d56" stroke-miterlimit="10"/>
  <path d="M-205.28,732.06A106.5,106.5,0,0,1-98.94,631.14c3.24,0,6.43.17,9.6.45a141.48,141.48,0,0,1,244.56-.11c2.67-.2,5.35-.34,8.07-.34A106.48,106.48,0,0,1,269.63,732.06" fill="#fff"/>
  <path d="M-183.1,723.87A106.5,106.5,0,0,1-76.76,623c3.24,0,6.43.17,9.59.45a141.49,141.49,0,0,1,244.57-.11c2.67-.2,5.35-.34,8.07-.34A106.49,106.49,0,0,1,291.81,723.87" fill="none" stroke="#3f3d56" stroke-miterlimit="10"/>
  <g id="b95fdd39-fb5a-4a72-9890-fbc16aea09e3">
    <g id="fe98ab94-e9cb-45d5-93d2-a323ca3f1bc1">
      <path id="af195c9f-bb19-4a02-bf73-25c746785d44-656" d="M545,2199a10.82,10.82,0,0,1-19.58-8.86l-41.81-85.89,20-12.14,36.11,91.24.41.17.4.18.4.2.39.22A10.83,10.83,0,0,1,545,2199Z" fill="#fff" stroke="#000" stroke-miterlimit="10"/>
      <path id="b7be7d01-601a-466d-ae41-9577dbbca8ac-657" d="M491.57,2137.38l29.7-7.62s-1-2.19-2.55-5.82-3.77-8.7-6.25-14.45-5.23-12.17-7.91-18.52-5.3-12.63-7.5-18.07-4.7-8.7-7.2-10.52a9.91,9.91,0,0,0-7.29-1.93,14.11,14.11,0,0,0-5.63,2.14,15.14,15.14,0,0,0-2.26,1.72l-6.89,12.52Z" fill="#ccc"/>
      <path id="b3095e15-ab7d-4e65-96a4-41698fa4f221-658" d="M462.05,2368.72l18.18-.07-5.86,47.49-12.32.07Z" fill="#fff" stroke="#000" stroke-miterlimit="10"/>
      <path id="a302ec2b-66fd-4123-9cb3-cd16e4233762-659" d="M458.91,2428.16l39.69-.21v-.5a15.51,15.51,0,0,0-.3-3,15.19,15.19,0,0,0-2.29-5.51,15.43,15.43,0,0,0-4.29-4.27,15,15,0,0,0-5.52-2.27,16.3,16.3,0,0,0-3-.28h0l-24.25.12Z" fill="#2f2e41"/>
      <path id="aeeb1cd5-fa3a-4274-bafd-7f40084de8d2-660" d="M520.25,2368.5l18.13-.07-5.85,47.43-12.28.06Z" fill="#fff" stroke="#000" stroke-miterlimit="10"/>
      <path id="ba1e98ed-d8f2-43c1-be39-19244e87f429-661" d="M517.12,2427.85l39.58-.21v-.5a15.41,15.41,0,0,0-.3-3,15,15,0,0,0-2.28-5.51,15.63,15.63,0,0,0-4.28-4.26,15.13,15.13,0,0,0-5.51-2.26,15.39,15.39,0,0,0-3-.28h0l-24.18.12Z" fill="#2f2e41"/>
      <path id="a155f794-21b2-443d-9e35-67d51870e068-662" d="M521,2174.38l30.48,113.73-11.16,109-24.7.68,5.38-98.44-30.81-49.13-6.69,148.24-22.41-1.58-12.46-127.46a144.5,144.5,0,0,1-9.25-31,137.83,137.83,0,0,1-2.19-25.32,117.59,117.59,0,0,1,1.31-17.08c.3-2.1.72-4.19,1.23-6.26l9.09-9.21Z" fill="#2f2e41"/>
      <path id="fa92fe00-8265-4df9-92a2-5e4b8684f88d-663" d="M480.64,2193.4c5.13,0,9.94-.16,14.3-.49a107.54,107.54,0,0,0,13.27-1.74,47.76,47.76,0,0,0,10.82-3.41,17.38,17.38,0,0,0,7-5.54l.21-.3-8.33-54.21-9-61a16.63,16.63,0,0,0-16.95-14.2l-28.14.86a15.78,15.78,0,0,0-15.28,16.24l0,.48,3.69,60.62-13.62,59.8,1,.14c.39,0,1.88.25,4.23.51,3.06.34,6.18.65,9.29.92,4.39.38,8.68.68,12.76.89C471.1,2193.27,476.06,2193.4,480.64,2193.4Z" fill="#d0cde1"/>
      <path id="a02ac6ff-2f2c-46ae-a320-a92bb579f594-664" d="M496.25,2041.78h0a4.5,4.5,0,0,0,4.49-4.5V2012.2a33.53,33.53,0,0,0-2.65-13.08,34,34,0,0,0-17.9-18,33.54,33.54,0,0,0-46.76,30.77V2037a4.47,4.47,0,0,0,.36,1.76,4.55,4.55,0,0,0,2.41,2.41,4.44,4.44,0,0,0,1.76.37l58.26.22Z" fill="#2f2e41"/>
      <path id="a9c6a018-88fd-40d4-8b44-5495c2df83a6-665" d="M451.92,2003.6a24.72,24.72,0,0,0,28.59,35.61,24.41,24.41,0,0,0,14.71-11.78,24.73,24.73,0,0,0-28.58-35.6,24.4,24.4,0,0,0-14.71,11.77Z" fill="#fff" stroke="#000" stroke-miterlimit="10"/>
      <path id="a5ddc204-0839-488c-806a-2c44d9da4652-666" d="M508.72,2014.24a26.33,26.33,0,0,0-2.09-10.35,27,27,0,0,0-14.15-14.22,26.49,26.49,0,0,0-10.35-2.14l-5,0H477A26.48,26.48,0,0,0,450.49,2014v.5l10.62,0,3.62-10.12.73,10.14,5.48,0,1.83-5.1.36,5.11,35.59.16Z" fill="#2f2e41"/>
      <path id="b53d3ad0-d874-44f4-8830-ebcf508c0715-667" d="M551.48,2067a11.67,11.67,0,0,1,4.48,2.2,11.28,11.28,0,0,1,2.6,2.91,11.84,11.84,0,0,1,1.71,7.39,11.53,11.53,0,0,1-16.39,9.28,11.94,11.94,0,0,1-1.21-.67l-.3-.2-.29-.2-.29-.22-.28-.22-58.6,20.86a8.85,8.85,0,0,1-10.13-3.17l-13.9-19.23,16.8-11.31,8.81,10,53.64-10.67c0-.14.12-.28.18-.42s.13-.27.2-.41.14-.27.21-.4.16-.28.24-.4a11.49,11.49,0,0,1,12.52-5.13Z" fill="#fff" stroke="#000" stroke-miterlimit="10"/>
      <path id="ea3ff0db-56f9-49fe-a255-68dfaf7efedd-668" d="M483.55,2078.12c-1.75-2.19-4.2-5-6.69-7.85s-5-5.61-6.93-7.7-3.19-3.47-3.19-3.47a13.81,13.81,0,0,0-25.08,10.19,13.52,13.52,0,0,0,2.06,5.05s1.91,2.5,4.8,6.23,6.74,8.71,10.64,13.65,7.83,9.86,10.86,13.49,5.16,6,5.46,5.77L486.06,2082C486.36,2081.84,485.3,2080.31,483.55,2078.12Z" fill="#d0cde1"/>
      <path id="a9611ebe-3bd3-473e-9d8d-437c05f39574-669" d="M477.27,2041a4.54,4.54,0,0,1-.78,3.54,4.46,4.46,0,0,1-3.65,1.85h-.4l-.2,0-.2,0-3.77-.69-5.19-11.09v10.16l-17.14-3.09v-43.11l28.73.14-.71.82a19.75,19.75,0,0,0-4.47,9.72,32,32,0,0,0,.21,11,57.57,57.57,0,0,0,3.05,10.7,86.29,86.29,0,0,0,4.09,9A4.45,4.45,0,0,1,477.27,2041Z" fill="#2f2e41"/>
    </g>
    <path id="b86d4de9-0cff-4c8a-ba1d-90db5f791b61-670" d="M1110.63,2430.26H371.47v-2.1h740.25Z" fill="#cacaca"/>
    <path id="a91d7220-8c5a-4469-a964-f9fb6eeff2ab-671" d="M914.71,1886.33h-3.9v-107a61.92,61.92,0,0,0-61.92-61.92H622.24a61.91,61.91,0,0,0-61.91,61.92v586.88a61.91,61.91,0,0,0,61.91,61.92H848.89a61.92,61.92,0,0,0,61.92-61.92V1962.48h3.9Z" fill="#3f3d56"/>
    <path id="bf5182e6-9a46-4ce3-a6bb-8e5b95c0b95d-672" d="M898.18,1775.21v595.18a47,47,0,0,1-46.94,47H619.94a47,47,0,0,1-47-47V1775.21a47,47,0,0,1,47-47H648A22.34,22.34,0,0,0,668.65,1759H800.52a22.34,22.34,0,0,0,20.66-30.74h30.05a47,47,0,0,1,46.95,46.94Z" fill="#fff"/>
    <path id="befb231b-3654-4dfe-ba25-bde2f69c3c75-673" d="M738.05,2013.32a99.29,99.29,0,0,1-99.33-99.26V1914c0-.2,0-.42,0-.63.3-54.4,44.86-98.7,99.32-98.7a99.34,99.34,0,1,1,0,198.67h0Zm0-196.59a97.45,97.45,0,0,0-97.23,96.68c0,.22,0,.4,0,.57a97.26,97.26,0,1,0,97.27-97.25h0Z" fill="#ccc"/>
    <path id="fe627b68-f6c4-4b39-818a-896f79516f98-674" d="M840.78,2117.76H635.24a3.82,3.82,0,0,1-3.81-3.81v-51a3.82,3.82,0,0,1,3.81-3.81H840.78a3.81,3.81,0,0,1,3.8,3.81v51a3.8,3.8,0,0,1-3.8,3.81Zm-205.54-57.07A2.29,2.29,0,0,0,633,2063v51a2.3,2.3,0,0,0,2.29,2.29H840.78a2.28,2.28,0,0,0,2.28-2.29v-51a2.28,2.28,0,0,0-2.28-2.28Z" fill="#e6e6e6"/>
    <circle id="efff077a-6dff-49bd-9bfe-dfa54dc61d00" cx="661.88" cy="2088.46" r="15.99" fill="#ccc"/>
    <path id="e513cc1a-fc4f-42ad-8a97-aa208a4af049-675" d="M698.8,2077.8a2.67,2.67,0,0,0,0,5.33H824.41a2.66,2.66,0,0,0,.2-5.32H698.8Z" fill="#e6e6e6"/>
    <path id="bb8a7882-db95-48e4-aaaf-3489ee3aa336-676" d="M698.8,2093.79a2.67,2.67,0,0,0,0,5.33H824.41a2.67,2.67,0,0,0,.2-5.33H698.8Z" fill="#e6e6e6"/>
    <path id="af101daf-449f-4d16-aa98-172f4a8df39f-677" d="M840.78,2203H635.24a3.82,3.82,0,0,1-3.81-3.81v-51a3.82,3.82,0,0,1,3.81-3.81H840.78a3.81,3.81,0,0,1,3.8,3.81v51A3.81,3.81,0,0,1,840.78,2203Zm-205.54-57.08a2.31,2.31,0,0,0-2.29,2.29v51a2.3,2.3,0,0,0,2.29,2.29H840.78a2.29,2.29,0,0,0,2.28-2.29v-51a2.29,2.29,0,0,0-2.28-2.29Z" fill="#e6e6e6"/>
    <circle id="a7593987-c694-475c-8cff-40adb8bae00c" cx="661.88" cy="2173.72" r="15.99" fill="#ccc"/>
    <path id="ad8313dd-202d-4f4d-8eaf-20c5dd40192b-678" d="M698.8,2163.06a2.67,2.67,0,0,0,0,5.33H824.41a2.67,2.67,0,0,0,.08-5.33Z" fill="#e6e6e6"/>
    <path id="bde7542a-4575-40bb-a917-747fdde14d1d-679" d="M698.8,2179.05a2.67,2.67,0,0,0,0,5.33H824.41a2.67,2.67,0,0,0,.08-5.33Z" fill="#e6e6e6"/>
    <path id="a41ae643-d6fa-4218-bc02-a84cd2f042d5-680" d="M840.78,2288.28H635.24a3.82,3.82,0,0,1-3.81-3.81v-51a3.82,3.82,0,0,1,3.81-3.81H840.78a3.81,3.81,0,0,1,3.8,3.81v51a3.81,3.81,0,0,1-3.8,3.81ZM635.24,2231.2a2.3,2.3,0,0,0-2.29,2.29v51a2.31,2.31,0,0,0,2.29,2.29H840.78a2.29,2.29,0,0,0,2.28-2.29v-51a2.29,2.29,0,0,0-2.28-2.29Z" fill="#e6e6e6"/>
    <circle id="eb2f5380-5bf4-43e0-97aa-e300553d76c9" cx="661.88" cy="2258.98" r="15.99" fill="#ccc"/>
    <path id="ef612e73-fc19-47d8-a2d1-12e834e71e5a-681" d="M698.8,2248.32a2.67,2.67,0,0,0,0,5.33H824.41a2.67,2.67,0,0,0,.2-5.33H698.8Z" fill="#e6e6e6"/>
    <path id="ad1dc7cf-bcbc-43ff-98c3-5442d39a009f-682" d="M698.8,2264.31a2.67,2.67,0,0,0,0,5.33H824.41a2.67,2.67,0,0,0,.2-5.33H698.8Z" fill="#e6e6e6"/>
    <path id="b33d3e33-77f1-4447-818b-aa04c3ab1cfa-683" d="M614.84,2149.92h37.9c2.37-17.49-2.86-33.82,0-45.47h-37.9Q604.15,2127.18,614.84,2149.92Z" fill="#d0cde1"/>
    <path id="abd26155-66b6-4810-8bdf-9fb8037578d3-684" d="M860.85,2237.66H823c1.42-17.48,6-33.81,0-45.47h37.89Q871.56,2214.93,860.85,2237.66Z" fill="#d0cde1"/>
    <path id="aae68d36-acd6-4520-9385-77d0caf729f0-685" d="M790.76,2325.77H752.87c1.42-17.49,6-33.82,0-45.48h37.89Q801.46,2303,790.76,2325.77Z" fill="#d0cde1"/>
    <path id="b809e61f-e113-4687-852e-0d1aa1d72eef-686" d="M788.82,1999.66a94.2,94.2,0,0,1-102.6-3.19,38.67,38.67,0,0,1,34.9-22.07h31.46a38.62,38.62,0,0,1,36.24,25.26Z" fill="#d0cde1"/>
    <g id="b4b23dfd-a70a-4bfa-a0ec-e0b9fbca8bb1">
      <path id="f2763f3e-78f9-4b43-a903-a3fe53ad4a45-687" d="M695.14,1908.46c4.76-15.16,15.58-29.07,30.54-34.2s41.07-.33,48.13,13.9c10.17,20.5,5.6,45.62.21,67.88q-4.23-.22-8.5-.37l-4-13.42v13.29c-22.21-.69-45.34-.26-68.48.18C690.94,1940,690.38,1923.62,695.14,1908.46Z" fill="#2f2e41"/>
      <circle id="eecf4506-21ab-40dd-8b32-4db21377c650" cx="727.74" cy="1923.2" r="34.07" fill="#fff" stroke="#000" stroke-miterlimit="10"/>
      <path id="bb1dea60-cbdf-449a-8984-6a3a37f92790-688" d="M705.52,1882.16a40.31,40.31,0,0,1,61.29,35.18c-17.94.82-36.79,1-55.89,1.08l-4.52-11.06-2.66,11.06-17.5,0A41.15,41.15,0,0,1,705.52,1882.16Z" fill="#2f2e41"/>
    </g>
    <path id="a34394a5-3b6f-4dbd-b680-62200c75c4a0-689" d="M1045.76,2398.09a106.31,106.31,0,0,1-5,29.4c-.07.23-.14.44-.22.66H1022q0-.3.06-.66c1.24-14.21,8.36-100.71-.16-115.5C1022.68,2313.19,1047.19,2352.93,1045.76,2398.09Z" fill="#f0f0f0"/>
    <path id="a4311caa-1619-4625-9a30-9ee577173a6d-690" d="M1042.78,2426.78c-.32.46-.66.92-1,1.38h-29.08c.22-.4.47-.86.77-1.38,4.8-8.68,19-34.6,32.23-61.49,14.19-28.89,27.21-58.87,26.11-69.73C1072.14,2298,1082,2372.63,1042.78,2426.78Z" fill="#f0f0f0"/>
  </g>
</svg>
