<svg id="login_copia" data-name="login copia" xmlns="http://www.w3.org/2000/svg" viewBox="0 0 1125 2436">
  <title>Mesa de trabajo 1</title>
  <rect x="-21.5" y="-14.5" width="1164" height="2463" fill="#fff" stroke="#cbcbcb" stroke-miterlimit="10"/>
  <path d="M.5-.5v790s346-234,552-213,393,48,573-35V-.5Z" fill="#d0cde1"/>
  <path d="M45.25,207.9a67.73,67.73,0,0,1,67.64-64.19c2.06,0,4.09.11,6.11.29a90,90,0,0,1,155.57-.08c1.69-.13,3.4-.21,5.13-.21a67.75,67.75,0,0,1,67.65,64.19" fill="#fff"/>
  <path d="M59.36,202.69A67.73,67.73,0,0,1,127,138.5c2.06,0,4.09.1,6.1.28a90,90,0,0,1,155.57-.07c1.7-.13,3.41-.21,5.14-.21a67.73,67.73,0,0,1,67.64,64.19" fill="none" stroke="#3f3d56" stroke-miterlimit="10"/>
  <path d="M169.41,483.36c6.08-118,103.7-211.87,223.25-211.87,6.79,0,13.5.35,20.14.95C495.24,130.62,677,82.47,818.86,164.91A297,297,0,0,1,926.24,272.19c5.6-.42,11.24-.7,17-.7,119.55,0,217.17,93.84,223.25,211.87" fill="#fff"/>
  <path d="M216,466.16c6.07-118,103.7-211.87,223.24-211.87,6.8,0,13.51.36,20.15,1,82.43-141.82,264.23-190,406-107.53A297,297,0,0,1,972.8,255c5.61-.42,11.25-.71,17-.71,119.55,0,217.18,93.84,223.25,211.87" fill="none" stroke="#3f3d56" stroke-miterlimit="10"/>
  <path d="M-205.28,732.06A106.5,106.5,0,0,1-98.94,631.14c3.24,0,6.43.17,9.6.45a141.48,141.48,0,0,1,244.56-.11c2.67-.2,5.35-.34,8.07-.34A106.48,106.48,0,0,1,269.63,732.06" fill="#fff"/>
  <path d="M-183.1,723.87A106.5,106.5,0,0,1-76.76,623c3.24,0,6.43.17,9.59.45a141.49,141.49,0,0,1,244.57-.11c2.67-.2,5.35-.34,8.07-.34A106.49,106.49,0,0,1,291.81,723.87" fill="none" stroke="#3f3d56" stroke-miterlimit="10"/>
  <path d="M870.87,1941.55c-6.31,13.07-17.92,22.8-30.08,30.72a189.53,189.53,0,0,1-41.3,20.18c-2,.7-4,1.37-6,2H707c-.56-.64-1.1-1.31-1.62-2-5.43-7.18-8.34-16.27-7.25-25.18,1.43-11.68,10.3-22.42,21.81-24.91s24.63,4.39,28.12,15.63c1.93-21.67,4.15-44.25,15.67-62.71,10.43-16.71,28.51-28.67,48.09-30.81a60.65,60.65,0,0,1,33.48,6.13c1,.48,1.89,1,2.81,1.5a56,56,0,0,1,16.14,13.77C876.43,1901.33,879.42,1923.8,870.87,1941.55Z" fill="#f2f2f2"/>
  <path d="M848.08,1872.1a1.49,1.49,0,0,1-.62,1.37,317.13,317.13,0,0,0-90.35,119c-.3.66-.59,1.33-.87,2h-4c.28-.67.56-1.34.85-2q5.68-13.26,12.57-26a323.13,323.13,0,0,1,34.9-51.66,318.14,318.14,0,0,1,44.27-44,2.26,2.26,0,0,1,.42-.26,2,2,0,0,1,2.68,1.07A1.76,1.76,0,0,1,848.08,1872.1Z" fill="#fff"/>
  <path d="M849.73,1992.45h-381a19,19,0,0,0-9.36,2.47,19.61,19.61,0,0,0-2,1.29,19,19,0,0,0-7.67,15.24v198a19,19,0,0,0,19,19h381a19,19,0,0,0,19-19v-198A19,19,0,0,0,849.73,1992.45Zm17,217a17,17,0,0,1-17,17h-381a17,17,0,0,1-17-17v-198a17.12,17.12,0,0,1,11.78-16.18l.41-.13a17.48,17.48,0,0,1,4.81-.69h381a17,17,0,0,1,17,17Z" fill="#3f3d56"/>
  <path d="M987,2250.73a10.75,10.75,0,0,0,3.14-14.87,11.29,11.29,0,0,0-1.17-1.49l6-71.21L977.78,2165l-4.68,69.31A10.8,10.8,0,0,0,987,2250.73Z" fill="#fff" stroke="#000" stroke-miterlimit="10"/>
  <polygon points="926.07 2420.58 913.81 2420.58 907.98 2373.29 926.07 2373.29 926.07 2420.58" fill="#fff" stroke="#000" stroke-miterlimit="10"/>
  <path d="M905.05,2417.07H928.7V2432H890.17A14.89,14.89,0,0,1,905.05,2417.07Z" fill="#2f2e41"/>
  <polygon points="1013.07 2420.58 1000.81 2420.58 994.98 2373.29 1013.07 2373.29 1013.07 2420.58" fill="#fff" stroke="#000" stroke-miterlimit="10"/>
  <path d="M992.05,2417.07h23.65V2432H977.17A14.89,14.89,0,0,1,992.05,2417.07Z" fill="#2f2e41"/>
  <path d="M926.28,2391.29l-.4,0-17.36-1.39a5,5,0,0,1-4.58-5.38c0-.13,0-.27,0-.4l26.31-162.72,1.76-23a5,5,0,0,1,3.91-4.5l26.47-5.79a5,5,0,0,1,5.19,2.06l6.45,9.43a110.24,110.24,0,0,0,8.25,10.51c4.58,5.22,12.36,16.79,13.06,35.74a125.6,125.6,0,0,0,1.93,18.55l21.3,114.76a5,5,0,0,1-4.14,5.73l-.29,0-16.45,1.24a5,5,0,0,1-5.3-3.68L963.26,2274a1,1,0,0,0-1.93,0l-30.22,113.56A5,5,0,0,1,926.28,2391.29Z" fill="#2f2e41"/>
  <circle cx="972.42" cy="2089.84" r="24.56" fill="#fff" stroke="#000" stroke-miterlimit="10"/>
  <path d="M930.79,2202.12l-.51-35.07c-1.87-22.43,8.07-34.21,16.73-40.14a19.92,19.92,0,0,1,15.4-2.94l19.33,4.17a20.41,20.41,0,0,1,13.06,9.3,19,19,0,0,1,2.17,15,20.56,20.56,0,0,1-8.4,11.5c-16.61,11.73-17.78,31.42-17.79,31.62l0,.4Z" fill="#d0cde1"/>
  <path d="M991.28,2176h-17a4.51,4.51,0,0,1-4.5-4.5V2142a13,13,0,0,1,26,0v29.5A4.49,4.49,0,0,1,991.28,2176Z" fill="#d0cde1"/>
  <path d="M877.14,2181.62A11,11,0,0,1,861.6,2183a10.11,10.11,0,0,1-1-.9c-9.69-10.16,6.15-25.41,15.87-15.23h0a11.24,11.24,0,0,1,1,1.12l49-1.22,5.85-10.7,18,7c-3.46,5.36-7.42,26.37-16.45,25.35C932.7,2188.42,878.36,2181.7,877.14,2181.62Z" fill="#fff" stroke="#000" stroke-miterlimit="10"/>
  <path d="M942.73,2173.52,929,2163.46a4.5,4.5,0,0,1-1-6.29l17.45-23.78a13,13,0,0,1,21,15.37h0L949,2172.55A4.51,4.51,0,0,1,942.73,2173.52Z" fill="#d0cde1"/>
  <path d="M977.34,2102.6a9.12,9.12,0,0,0-1.56-10.16c-4.62-4.65-11.84-1.55-18.08-2-10.41-.76-17.49-13.17-14.38-23.12s14.14-16.14,24.55-15.48,19.83,7.09,26.1,15.42c4.3-6.91,14.84-7.71,21.65-3.26s10.33,12.6,11.79,20.6,1.22,16.23,2.44,24.28c3,19.49,15.56,37.85,33.77,45.43s41.5,2.71,53.42-13a86.79,86.79,0,0,1-54.2,91.16c-9.87,3.9-20.77,6-31.16,3.8-16.76-3.5-29.81-17.84-35.49-34s-5-33.9-2.25-50.81c1.7-10.41,3.59-22.74-4-30.07a18.31,18.31,0,0,0-7.33-3.7,9.79,9.79,0,0,1-6.57-12.2,9.38,9.38,0,0,1,1-2.22Q977.19,2102.93,977.34,2102.6Z" fill="#2f2e41"/>
  <path d="M1065.51,2432.38h-228a1,1,0,0,1,0-2h228a1,1,0,1,1,0,2Z" fill="#3f3d56"/>
  <path d="M658.82,2110.37a9,9,0,0,1-4.34-1.12l-199-109.55a1,1,0,1,1,1-1.75l199,109.55a7,7,0,0,0,6.64.06L864.4,2000.83a1,1,0,0,1,.94,1.77h0L663,2109.33A9.06,9.06,0,0,1,658.82,2110.37Z" fill="#3f3d56"/>
  <path d="M513.3,2178.45h-28a8,8,0,0,1,0-16h28a8,8,0,1,1,0,16Z" fill="#3f3d56"/>
  <path d="M546.3,2205.45h-61a8,8,0,0,1,0-16h61a8,8,0,1,1,0,16Z" fill="#3f3d56"/>
  <circle cx="658.74" cy="2110.45" r="32" fill="#d0cde1"/>
</svg>
