<?xml version="1.0" encoding="utf-8"?>
<!-- Generator: Adobe Illustrator 23.0.5, SVG Export Plug-In . SVG Version: 6.00 Build 0)  -->
<svg version="1.1" id="Capa_1" xmlns="http://www.w3.org/2000/svg" xmlns:xlink="http://www.w3.org/1999/xlink" x="0px" y="0px"
	 viewBox="0 0 999.7 380.9" style="enable-background:new 0 0 999.7 380.9;" xml:space="preserve">
<style type="text/css">
	.st0{fill:#1A1A1A;}
	.st1{fill:#D0CDE1;}
	.st2{fill:#A4A4A7;}
	.st3{fill:#CFCCE0;}
	.st4{opacity:0.1;fill:#F2F2F2;enable-background:new    ;}
	.st5{fill:#3F3D56;}
	.st6{fill:#FF6584;}
	.st7{opacity:0.1;enable-background:new    ;}
	.st8{display:none;}
	.st9{display:inline;fill:#F0F0F0;}
	.st10{display:inline;fill:#D0CDE1;}
	.st11{display:inline;fill:#3F3D56;}
	.st12{display:inline;fill:#2F2E41;}
	.st13{display:inline;fill:#FFB6B6;}
	.st14{display:inline;fill:#E4E4E4;}
	.st15{display:inline;fill:#FFB7B7;}
	.st16{display:inline;}
	.st17{fill:none;stroke:#BBC5CD;stroke-miterlimit:10;stroke-dasharray:12;}
	.st18{fill:none;stroke:#BBC5CD;stroke-width:0.5;stroke-miterlimit:10;}
	.st19{display:inline;fill:#4D4D4D;}
	.st20{display:inline;fill:#A0616A;}
	.st21{display:inline;fill:#6C63FF;}
	.st22{display:inline;fill:#E6E6E6;}
</style>
<g>
	<title>Mesa de trabajo 1</title>
	<rect x="-93" y="-911.3" class="st0" width="1149.2" height="2463.3"/>
	<path class="st1" d="M415.2,676c114,152,479.8,588.3,545,862h-653c32.1-140.4-189-703-223-757c0,0-134-272-122-413
		c6-94,9-351,323-536c124-74,701-280,762-303l-3,106c0,0-471,160-614,299C170.2,189,274.2,461,415.2,676z"/>
	<circle class="st1" cx="-21.1" cy="-590.3" r="6.5"/>
	<circle class="st1" cx="736.2" cy="-820" r="2.9"/>
	<circle class="st1" cx="596.7" cy="-675.2" r="2.9"/>
	<polygon class="st1" points="-9.3,-534.8 -10.7,-534.8 -10.7,-536.3 -11.5,-536.3 -11.5,-534.8 -12.9,-534.8 -12.9,-534.1 
		-11.5,-534.1 -11.5,-532.6 -10.7,-532.6 -10.7,-534.1 -9.3,-534.1 	"/>
	<polygon class="st1" points="558.1,-851.1 556.7,-851.1 556.7,-852.6 556,-852.6 556,-851.1 554.5,-851.1 554.5,-850.4 556,-850.4 
		556,-848.9 556.7,-848.9 556.7,-850.4 558.1,-850.4 	"/>
	<polygon class="st1" points="73.2,-623.7 71.7,-623.7 71.7,-625.2 71,-625.2 71,-623.7 69.5,-623.7 69.5,-623 71,-623 71,-621.5 
		71.7,-621.5 71.7,-623 73.2,-623 	"/>
	<polygon class="st1" points="-24.8,-701.7 -26.2,-701.7 -26.2,-703.2 -27,-703.2 -27,-701.7 -28.4,-701.7 -28.4,-701 -27,-701 
		-27,-699.6 -26.2,-699.6 -26.2,-701 -24.8,-701 	"/>
	<polygon class="st1" points="288.9,-668.7 287.4,-668.7 287.4,-670.2 286.7,-670.2 286.7,-668.7 285.2,-668.7 285.2,-668 
		286.7,-668 286.7,-666.6 287.4,-666.6 287.4,-668 288.9,-668 	"/>
	<polygon class="st1" points="60.3,-500.4 58.8,-500.4 58.8,-501.8 58.1,-501.8 58.1,-500.4 56.6,-500.4 56.6,-499.7 58.1,-499.7 
		58.1,-498.2 58.8,-498.2 58.8,-499.7 60.3,-499.7 	"/>
	<polygon class="st1" points="725.2,-714.9 723.7,-714.9 723.7,-716.3 723,-716.3 723,-714.9 721.6,-714.9 721.6,-714.2 723,-714.2 
		723,-712.7 723.7,-712.7 723.7,-714.2 725.2,-714.2 	"/>
	<polygon class="st1" points="258,-601.4 256.6,-601.4 256.6,-602.8 255.9,-602.8 255.9,-601.4 254.4,-601.4 254.4,-600.6 
		255.9,-600.6 255.9,-599.2 256.6,-599.2 256.6,-600.6 258,-600.6 	"/>
	<polygon class="st1" points="727.3,-887.7 725.9,-887.7 725.9,-889.1 725.2,-889.1 725.2,-887.7 723.7,-887.7 723.7,-886.9 
		725.2,-886.9 725.2,-885.5 725.9,-885.5 725.9,-886.9 727.3,-886.9 	"/>
	<polygon class="st1" points="-48.4,-815 -49.9,-815 -49.9,-816.5 -50.6,-816.5 -50.6,-815 -52.1,-815 -52.1,-814.3 -50.6,-814.3 
		-50.6,-812.8 -49.9,-812.8 -49.9,-814.3 -48.4,-814.3 	"/>
	<polygon class="st1" points="281.7,-756.2 280.3,-756.2 280.3,-757.7 279.5,-757.7 279.5,-756.2 278.1,-756.2 278.1,-755.5 
		279.5,-755.5 279.5,-754 280.3,-754 280.3,-755.5 281.7,-755.5 	"/>
	<polygon class="st1" points="445.3,-615.8 443.8,-615.8 443.8,-617.3 443.1,-617.3 443.1,-615.8 441.6,-615.8 441.6,-615.1 
		443.1,-615.1 443.1,-613.6 443.8,-613.6 443.8,-615.1 445.3,-615.1 	"/>
	<polygon class="st1" points="91.8,-437.3 90.4,-437.3 90.4,-438.8 89.6,-438.8 89.6,-437.3 88.2,-437.3 88.2,-436.6 89.6,-436.6 
		89.6,-435.1 90.4,-435.1 90.4,-436.6 91.8,-436.6 	"/>
	<path class="st1" d="M255.3,1411.5c2.2,76.8-42.6,104.9-98.9,106.6c-1.3,0-2.6,0.1-3.9,0.1c-2.6,0-5.2,0-7.8-0.1
		c-50.9-2.1-91.2-29.1-93.3-100.6c-2.2-73.9,89.6-169.9,96.5-177l0,0l0.4-0.4C148.2,1240,253,1334.7,255.3,1411.5z"/>
	<path class="st2" d="M143.6,1508.7l28.9-43l-28.8,47.6l0.1,4.8c-2.1,0-4.2,0-6.3-0.1l1.4-62.1v-0.5v-0.1l0.1-5.9l-31.6-45.9
		L139,1445l0.1,1.2l1.1-46.9l-27.3-47.6l27.4,39.4l-0.3-97.2l0,0l1.8,76.6l24.9-31.1l-24.8,37.7l0.6,42l22.9-41l-22.8,47.1l0.3,23.3
		l33.3-57l-33.2,65.2L143.6,1508.7z"/>
	<circle class="st3" cx="451.5" cy="-814.2" r="5.8"/>
	<circle class="st3" cx="211.1" cy="-725.7" r="5.8"/>
	
		<ellipse transform="matrix(0.9999 -1.020248e-02 1.020248e-02 0.9999 8.3079 0.1647)" class="st3" cx="20.3" cy="-814.2" rx="5.8" ry="5.8"/>
	<path class="st2" d="M925.6,627.6l45.2-67.2l-45.1,74.4l0.1,7.6c-3.3,0-6.6,0-9.8-0.2l2.2-97.1l-0.1-0.8l0.1-0.1l0.2-9.2L869,463.3
		l49.4,64.9l0.2,1.9l1.7-73.4l-42.7-74.4l42.8,61.5l-0.5-152v-0.5v0.5l2.8,119.8l38.9-48.7l-38.8,59l0.8,65.6l35.8-64.1l-35.7,73.7
		l0.5,36.5l52.1-89.2l-51.9,102L925.6,627.6z"/>
	<path class="st1" d="M1023.1,402.4c2.1,71.7-39.8,98-92.4,99.5c-1.2,0-2.4,0.1-3.6,0.1c-2.4,0-4.9,0-7.2-0.1
		c-47.5-2-85.2-27.2-87.1-93.9c-2-69,83.6-158.6,90-165.3l0,0l0.4-0.4C923.1,242.3,1021,330.7,1023.1,402.4z"/>
	<path class="st2" d="M741.3,1011.9l76.5-113.8l-76.3,126l0.2,12.8c-5.6,0-11.1-0.1-16.6-0.3l3.8-164.6l-0.1-1.3l0.1-0.3l0.4-15.6
		l-83.8-121.6l83.7,110l0.3,3.3l2.9-124.3L660,596.1l72.6,104.3L731.7,443v-0.8v0.8l4.8,203l66-82.5l-65.7,100l1.4,111.2l60.7-108.5
		L738.4,791l0.8,61.8l88.3-151.2l-88,172.8L741.3,1011.9z"/>
	<path class="st1" d="M906.6,630.3c3.5,121.5-67.4,166-156.5,168.6c-2.1,0.1-4.1,0.1-6.2,0.1c-4.1,0-8.2-0.1-12.3-0.2
		c-80.5-3.3-144.3-46.1-147.6-159.1c-3.4-116.9,141.7-268.8,152.6-280l0,0l0.6-0.6C737.2,359.1,903,508.9,906.6,630.3z"/>
	<circle class="st3" cx="-32.6" cy="-719.9" r="5.8"/>
	
		<ellipse transform="matrix(0.1602 -0.9871 0.9871 0.1602 1082.3286 -342.4023)" class="st3" cx="339.9" cy="-807.3" rx="12.6" ry="12.7"/>
	
		<ellipse transform="matrix(9.089773e-03 -1 1 9.089773e-03 677.4625 -603.5512)" class="st3" cx="34.2" cy="-643.6" rx="12.6" ry="12.6"/>
	<circle class="st3" cx="242.2" cy="-861.4" r="12.6"/>
	<path class="st1" d="M78.2,1473.3c1.4,46.6-25.9,63.6-60,64.6c-0.8,0-1.6,0-2.4,0c-1.6,0-3.2,0-4.7-0.1
		c-30.9-1.3-55.3-17.7-56.6-61c-1.3-44.8,54.3-103.1,58.5-107.4l0,0l0.2-0.3C13.2,1369.2,76.8,1426.7,78.2,1473.3z"/>
	<path class="st2" d="M507-314.6v2.4v2.5c-1.1,0-2.2,0-3.3,0l0.7-32.4v-0.3l0,0l0.1-3v-2.3l0.1,0.6l0.6-24.5L491-396.2l14.3,20.5
		l-0.1-50.8l0,0l1,39.9l13-16.2l-12.9,19.7l0.3,21.9l11.9-21.4l-12,24.6l0.2,12.2l17.4-29.8l-17.3,34L507-314.6z"/>
	<path class="st1" d="M539.5-389.6c0.7,23.9-13.3,32.7-30.8,33.2h-1.2c-0.8,0-1.6,0-2.4,0c-15.8-0.7-28.4-9.1-29-31.3
		c-0.7-23,27.9-52.9,30-55.1l0,0l0.1-0.1C506.3-443,538.8-413.5,539.5-389.6z"/>
	<path class="st1" d="M1035.5-504c0.7,23.9-13.3,32.7-30.8,33.2h-1.2c-0.8,0-1.6,0-2.4,0c-15.8-0.7-28.4-9.1-29-31.3
		c-0.7-23,27.9-52.9,30-55.1l0,0l0.1-0.1C1002.2-557.3,1034.8-527.9,1035.5-504z"/>
	<path class="st2" d="M541.1,674.7l54.2-80.5l-54.1,89.2l0.1,9.1c-3.9,0-7.9-0.1-11.8-0.2l2.7-116.5l-0.1-0.9l0.1-0.2l0.3-11
		l-59.3-86.1l59.2,77.9l0.2,2.3l2-88l-51.2-89.3l51.4,73.8l-0.5-182.4v-0.6v0.6l3.4,143.7l46.7-58.4L537.9,428l1,78.7l43-76.8
		l-42.8,88.4l0.6,43.8l62.5-107l-62.3,122.3L541.1,674.7z"/>
	<path class="st1" d="M658.1,404.5c2.5,86-47.7,117.5-110.8,119.3c-1.5,0-2.9,0.1-4.4,0.1c-2.9,0-5.8,0-8.7-0.2
		c-57-2.4-102.2-32.6-104.5-112.6c-2.4-82.8,100.3-190.3,108-198.3l0,0l0.4-0.5C538.2,212.5,655.6,318.5,658.1,404.5z"/>
	<circle class="st3" cx="-57.7" cy="-861.4" r="72.6"/>
	<polygon class="st4" points="-8.8,-874 -69.8,-830 709.2,-5 1047.2,-5 	"/>
	<path class="st4" d="M908.6-61.9c1.6-0.1,2.8-1.5,2.7-3s-1.2-2.6-2.7-2.7H885c1.6,3.2,0.3,7-2.9,8.6l0,0c0,1.6,1.3,2.9,2.9,2.9l0,0
		h23.7c1.6,0,2.9-1.3,2.9-2.9S910.2-61.9,908.6-61.9L908.6-61.9z"/>
	<path class="st5" d="M810.7-67.8c0-6.7,9.4-8.2,20.9-8.2s20.6,1.5,20.8,8.2c0.4,15.7-9.1,11.7-20.6,11.7S810.8-54.1,810.7-67.8"/>
	<path class="st5" d="M879.3-61.6c-0.2-0.1-0.4-0.2-0.6-0.2c-1-0.2-2.1-0.4-3.1-0.7s-2-0.8-2.8-1.5c-0.3-0.3-0.6-0.6-1-0.9
		s-0.9-0.3-1.3-0.1l-0.1,0.1l-0.4-0.3l-2.3-1.5l0,0c0-0.1,0-0.2,0-0.4c-0.1-0.4-0.4-0.7-0.8-1c1,0,2-0.1,3-0.2c0.9,0,1.9-0.3,2.5-1
		c0.1-0.1,0.2-0.3,0.2-0.4c0-0.3-0.3-0.5-0.6-0.6c-0.4-0.2-0.8-0.3-1.2-0.3c-0.3,0-0.6-0.1-0.8-0.2s-0.5-0.2-0.7-0.3l-1.5-0.8
		c-0.2-0.1-0.4-0.2-0.6-0.4c-0.3-0.3-0.4-0.6-0.6-0.9s-1.2-0.5-1.3-0.1c0,0.2,0.2,0.4,0.2,0.6c-0.3-0.2-0.7-0.4-1-0.6
		c0,0,0-0.1,0.1-0.1c-1.6-1.3-2.9-3-3.8-4.9h0.4c0.2,0,0.5,0,0.7-0.2s0.3-0.4,0.3-0.6s-0.1-0.5-0.2-0.7c-0.2-0.6-0.6-1.2-1-1.8
		c-0.4-0.4-0.9-0.7-1.4-1h-0.1c0-0.1-0.1-0.2-0.1-0.3c-0.3-0.7-0.7-1.3-1.1-1.9c-0.6-1-1-2.2-1.3-3.3c-0.1-0.7-0.4-1.3-0.8-1.9
		c-0.8-0.8-2.1-0.8-3.2-0.7l-1.9,0.3l0,0c-0.1-0.1-0.1-0.3-0.2-0.5c0-0.1,0-0.3,0.1-0.4c0.1-0.3,0-0.7-0.3-0.9l-0.1-0.1
		c0.1-0.2,0.1-0.3,0.2-0.5c0.1-0.1,0.2-0.3,0.2-0.5c0.1-0.4,0.2-0.8,0.2-1.3c-0.1-0.9-0.2-1.9-0.1-2.8c0-0.2-0.1-0.5-0.3-0.7
		l-0.1-0.1c0.2-0.3,0.4-0.5,0.7-0.7c0.5-0.4,1-0.7,1.6-1c0.2-0.1,0.3-0.1,0.5-0.2c0.2,0,0.4,0.1,0.6,0.1c2.5,0,4.5-2,4.5-4.4l0,0
		c0-0.6-0.1-1.1-0.3-1.7c0.4-0.1,0.8-0.4,1-0.7c0.2-0.4,0.4-0.8,0.4-1.2c0.1-0.3,0-0.7-0.2-1c-0.2-0.2-0.4-0.3-0.6-0.4
		c-0.3-0.2-0.5-0.4-0.7-0.7c-0.1-0.2-0.2-0.4-0.3-0.7c-0.4-0.8-1.2-1.4-2.1-1.4c-0.4,0.1-0.8,0.1-1.2,0.3c-1.4,0.3-2.9-0.5-4.2,0.1
		c-0.3,0.2-0.6,0.4-0.9,0.6c-0.4,0.3-0.7,0.6-1.1,1c-0.3,0.2-0.5,0.6-0.6,0.9c-0.2,0.7,0.2,1.4,0,2c-0.1,0.2-0.2,0.4-0.3,0.5
		c-0.3,0.4,0,2.1,0,2.6c0,0.3,0,0.5,0.2,0.7l0.1,0.1c-2.2,0.8-4.3,1.7-6.4,2.7c-2.5,1.2-4.5,3.1-5.9,5.5c-0.4,0.7-0.6,1.4-0.9,2.1
		c-0.4,0.9-0.9,1.8-1.5,2.7c-0.6,1.1-1.3,2.2-2,3.2c-0.4,0.5-0.8,1.1-1.2,1.7c0,0.1,0,0.2,0,0.3c0,0.1,0,0.2,0,0.2
		c-0.1,0.1-0.2,0.1-0.3,0.2l0,0c-0.2,0.5-0.3,1.1-0.4,1.6c-0.3,0.8-0.5,1.7-0.7,2.6c-0.2,0.3-0.2,0.7,0.1,1l0,0
		c0.1,0.1,0.3,0.1,0.5,0.1c0.8,0.3,1.5,0.7,2.2,1.1c0,0,0,0.1,0,0.2c0,1.1,0.6,2.2,1.6,2.7s2.1,0.8,3.2,0.9c0.4,0,0.9,0.1,1.3,0.1
		c0.6,0.3,1.3,0.6,2,0.8c0.2,0,0.3,0.1,0.5,0.1c0.4,0,0.8-0.2,1.1-0.6c3.7,0.2,7.5,0.1,11.2-0.2c1-0.2,2.1-0.1,3,0.5
		c0.8,0.7,1,1.8,1.6,2.7c0.4,0.5,0.9,1,1.5,1.4c1.1,1.1,2,2.4,2.8,3.7c0.8,1.3,2,2.4,3.4,3.1c0.3-0.4,0.6-0.7,1-0.9l0.3-0.2
		c0.1,0.2,0.3,0.5,0.5,0.7l0.4,0.5l0,0c-0.2,0-0.3,0.3-0.3,0.5c-0.1,0.8-0.2,1.5-0.3,2.3c0,0.1,0,0.3,0,0.4c0.1,0.2,0.2,0.3,0.4,0.3
		c0.7,0.3,1.4,0.5,2.2,0.6c0.4,0,0.8,0,1.2,0c0.6,0.1,1.3,0.2,1.9,0.4c1.7,0.4,3.4,0.5,5.1,0.4c0.3,0,0.7-0.1,1-0.2
		c0.4-0.2,0.7-0.5,1-0.8c0.4-0.3,0.6-0.8,0.8-1.2C879.9-60.9,879.7-61.4,879.3-61.6z"/>
	<path class="st1" d="M851.7-111.9c0.2,0,0.3-0.1,0.5-0.1c-0.5-0.1-1.1,0-1.6,0.2C851-111.8,851.3-111.8,851.7-111.9z"/>
	<path class="st1" d="M855-110.7c0.1,0.2,0.2,0.4,0.3,0.7c0.2,0.3,0.4,0.5,0.7,0.7c0.2,0.1,0.4,0.2,0.6,0.4c0.2,0.3,0.3,0.7,0.2,1
		c0,0.4-0.2,0.9-0.4,1.2c-0.2,0.4-0.6,0.6-1,0.7c0.9,2.2-0.1,4.8-2.3,5.8c-0.8,0.3-1.6,0.4-2.5,0.3c-0.1,0.1-0.3,0.2-0.5,0.2
		c-0.6,0.3-1.1,0.6-1.6,1c-0.3,0.2-0.5,0.4-0.7,0.7l0.2,0c0.1,0.2,0.2,0.4,0.3,0.7c-0.1,0.9,0,1.9,0.1,2.8c0,0.4-0.1,0.8-0.2,1.3
		c0,0.2,0,0.3-0.2,0.5c-0.1,0.2-0.1,0.3-0.2,0.5l0.1,0.1c0.2,0.2,0.3,0.6,0.3,0.9c0,0.1-0.1,0.3-0.1,0.4c0,0.2,0.1,0.3,0.2,0.5l0,0
		l1.9-0.3l1-0.1c0-0.1,0-0.1,0-0.2s0-0.3,0.1-0.4c0.1-0.3,0-0.7-0.3-0.9l-0.1-0.1c0.1-0.2,0.1-0.3,0.2-0.5c0.1-0.1,0.2-0.3,0.2-0.5
		c0.1-0.4,0.2-0.8,0.2-1.3c-0.1-0.9-0.2-1.9-0.1-2.8c0-0.2-0.1-0.5-0.3-0.7L851-98c0.2-0.3,0.4-0.5,0.7-0.7c0.5-0.4,1-0.7,1.6-1
		c0.2-0.1,0.3-0.1,0.5-0.2c0.2,0,0.4,0.1,0.6,0.1c2.5,0,4.5-2,4.5-4.4l0,0c0-0.6-0.1-1.1-0.3-1.7c0.4-0.1,0.8-0.4,1-0.7
		c0.2-0.4,0.4-0.8,0.4-1.2c0.1-0.3,0-0.7-0.2-1c-0.2-0.2-0.4-0.3-0.6-0.4c-0.3-0.2-0.5-0.4-0.7-0.7c-0.1-0.2-0.2-0.4-0.3-0.7
		c-0.4-0.8-1.2-1.4-2.1-1.4c-0.4,0.1-0.8,0.1-1.2,0.3c-0.2,0-0.5,0-0.7,0C854.5-111.6,854.8-111.2,855-110.7z"/>
	<path class="st1" d="M879.3-61.6c-0.2-0.1-0.4-0.2-0.6-0.2c-1-0.2-2.1-0.4-3.1-0.7s-2-0.8-2.8-1.5c-0.3-0.3-0.6-0.6-1-0.9
		s-0.9-0.3-1.3-0.1l-0.1,0.1l-0.4-0.3l-2.3-1.5l0,0c0-0.1,0-0.2,0-0.4c-0.1-0.4-0.4-0.7-0.8-1c1,0,2-0.1,3-0.2c0.9,0,1.9-0.3,2.5-1
		c0.1-0.1,0.2-0.3,0.2-0.4c0-0.3-0.3-0.5-0.6-0.6c-0.4-0.2-0.8-0.3-1.2-0.3c-0.3,0-0.6-0.1-0.8-0.2s-0.5-0.2-0.7-0.3l-1.5-0.8
		c-0.2-0.1-0.4-0.2-0.6-0.4c-0.3-0.3-0.4-0.6-0.6-0.9s-1.2-0.5-1.3-0.1c0,0.2,0.2,0.4,0.2,0.6c-0.3-0.2-0.7-0.4-1-0.6
		c0,0,0-0.1,0.1-0.1c-1.6-1.3-2.9-3-3.8-4.9h0.4c0.2,0,0.5,0,0.7-0.2s0.3-0.4,0.3-0.6s-0.1-0.5-0.2-0.7c-0.2-0.6-0.6-1.2-1-1.8
		c-0.4-0.4-0.9-0.7-1.4-1h-0.1c0-0.1-0.1-0.2-0.1-0.3c-0.3-0.7-0.7-1.3-1.1-1.9c-0.6-1-1-2.2-1.3-3.3c-0.1-0.7-0.4-1.3-0.8-1.9
		c-0.8-0.8-2.1-0.8-3.2-0.7l-0.8,0.1c0.4,0.1,0.7,0.3,1,0.6c0.4,0.6,0.6,1.2,0.7,1.9c0.3,1.1,0.7,2.2,1.2,3.3
		c0.4,0.6,0.8,1.2,1.1,1.9c0,0.1,0.1,0.2,0.1,0.3h0.1c0.5,0.3,1,0.6,1.4,1c0.4,0.5,0.8,1.1,1,1.8c0.1,0.2,0.2,0.4,0.2,0.7
		c0,0.2-0.1,0.5-0.3,0.6s-0.5,0.2-0.7,0.2h-0.4c0.8,1.9,2.1,3.6,3.8,4.9c0,0,0,0.1-0.1,0.1c0.3,0.2,0.7,0.4,1,0.6
		c0-0.2-0.2-0.4-0.2-0.6c0.1-0.5,1.1-0.2,1.3,0.1s0.4,0.6,0.6,0.9c0.2,0.2,0.4,0.3,0.6,0.4l1.5,0.8c0.2,0.1,0.5,0.2,0.7,0.3
		c0.3,0.1,0.6,0.1,0.8,0.2c0.4,0.1,0.8,0.2,1.2,0.3c0.3,0.1,0.6,0.3,0.6,0.6c0,0.2-0.1,0.3-0.2,0.4c-0.7,0.7-1.6,1-2.5,1
		c-1,0.1-2,0.2-3,0.2c0.4,0.2,0.6,0.6,0.8,1c0,0.1,0,0.2,0,0.4l0,0l2.3,1.5l0.4,0.3l0.1-0.1c0.4-0.2,0.9-0.2,1.3,0.1
		c0.4,0.3,0.7,0.6,1,0.9c0.8,0.7,1.7,1.3,2.8,1.5c1,0.3,2.1,0.5,3.1,0.7c0.2,0,0.4,0.1,0.6,0.2c0.4,0.3,0.6,0.8,0.5,1.3
		c-0.2,0.5-0.4,0.9-0.8,1.2c-0.3,0.3-0.6,0.6-1,0.8c-0.2,0.1-0.5,0.1-0.8,0.2c0.9,0.1,1.8,0.1,2.7,0c0.3,0,0.7-0.1,1-0.2
		c0.4-0.2,0.7-0.5,1-0.8c0.4-0.3,0.6-0.8,0.8-1.2C879.8-60.9,879.7-61.3,879.3-61.6z"/>
	<path class="st6" d="M862.7-64.1l0.2,0.1L862.7-64.1L862.7-64.1z"/>
	<path class="st1" d="M907.4-72.5c0,10.6-4.7,7.7-10.5,7.7s-10.6,2.9-10.6-7.7s10.6-30.7,10.6-30.7S907.4-83,907.4-72.5z"/>
	<path class="st7" d="M901.6-68.4c0,4.8-2.2,3.5-4.8,3.5s-4.8,1.3-4.8-3.5s4.8-14,4.8-14S901.6-73.2,901.6-68.4z"/>
	<path class="st1" d="M910-100.8c0,0,2.2-2.2,2.2-4.5"/>
	<path class="st1" d="M887.6-119.8c0,0-0.9-3-2.9-4.1"/>
	<path class="st1" d="M865.6-160.8c0,0-0.9-3-2.9-4.1"/>
	<path class="st1" d="M891.6-105.8c0,0-0.9-3-2.9-4.1"/>
	<path class="st1" d="M888.6-154.8c0,0-0.9-3-2.9-4.1"/>
	<path class="st1" d="M882.6-136.8c0,0-0.9-3-2.9-4.1"/>
	<path class="st1" d="M908-69.8c0,0,2.2-2.2,2.2-4.5"/>
	<path class="st1" d="M912-86.8c0,0,2.2-2.2,2.2-4.5"/>
	
		<rect x="860.1" y="-85.5" transform="matrix(0.9487 -0.3161 0.3161 0.9487 71.6075 271.5295)" class="st1" width="25.3" height="1"/>
	<path class="st1" d="M882.9-88.7c0.9,3.5-0.6,2.7-2,3s-1.1,1.6-3-1.9c-1.3-2.4,0.6-2.7,2-3S882.3-91.1,882.9-88.7z"/>
	<path class="st5" d="M765.8-47c2,7.5,8.9,12.1,8.9,12.1s3.6-7.5,1.6-14.9s-8.9-12.1-8.9-12.1S763.8-54.4,765.8-47z"/>
	<path class="st5" d="M768.8-48.6c5.5,5.4,6.2,13.7,6.2,13.7s-8.3-0.5-13.8-5.8S755-54.4,755-54.4S763.2-54,768.8-48.6z"/>
	<path class="st5" d="M871.9-34.7c-5.3,5.6-5.7,13.9-5.7,13.9s8.3-0.8,13.6-6.4s5.7-13.9,5.7-13.9S877.2-40.3,871.9-34.7z"/>
	<path class="st5" d="M874.8-33c-1.7,7.5-8.4,12.4-8.4,12.4s-3.9-7.3-2.2-14.8s8.4-12.4,8.4-12.4S876.5-40.6,874.8-33z"/>
</g>
<g id="Capa_1_copia" class="st8">
	<title>Mesa de trabajo 1</title>
	<path class="st9" d="M604.4,86.7c-12.2,0-17.5,17.7-29.4,20.2c-5.3,1.1-10.8-1.1-16.2-1.2c-5.5-0.1-12,3.9-10.8,9.2l104-1.6
		c-10.7-1.1-20.8-5.8-28.5-13.4C617.7,94.3,612.3,86.7,604.4,86.7z"/>
	<path class="st10" d="M842.8,272.2c-31.4,0-58.1-22.7-63.3-53.6v-0.1l0.1-0.1c4.1-4.9,7.4-10.4,9.8-16.4c-2.9,3.7-6.3,6.9-10.3,9.4
		l-0.4,0.3v-0.5c-0.1-1.1-0.1-2.1-0.1-3.1c-0.1-22.2,11.4-42.8,30.3-54.5c-16.2-16.9-25.3-39.4-25.3-62.8c0-50,40.7-90.7,90.7-90.7
		c39.1-0.1,73.9,25,86.1,62.2l0.1,0.2l-0.2,0.1c-6.2,2.5-11.9,3.7-17.3,3.6c6.2,1.8,12.6,2.5,19.1,2.3h0.2l0.1,0.2
		c1.8,7.2,2.7,14.6,2.7,22.1c0,0.3,0,0.5,0,0.8c0,11.7,4.9,22.8,13.6,30.7c26.2,23.9,28.1,64.4,4.3,90.7c-2.2,2.5-4.7,4.8-7.3,6.8
		l-0.1,0.1l-0.2-0.1c-9.5-4.3-16.1-9.1-20.6-15c3,7.4,7.5,14.2,13.1,20l0.2,0.3l-0.3,0.2c-19.5,11.4-43.6,11.7-63.3,0.8
		C896.5,253.3,871.4,272.1,842.8,272.2z"/>
	<path class="st11" d="M820,374.4c-0.6,0-1.1-0.4-1.2-1c0-0.3-4.9-35.3-0.5-81.9c4-43,17-104.8,55.7-155.6c0.4-0.5,1.1-0.6,1.6-0.2
		s0.6,1.1,0.2,1.6c-38.4,50.4-51.2,111.8-55.2,154.5c-4.3,46.2,0.5,81,0.5,81.3C821.2,373.7,820.7,374.3,820,374.4
		C820.1,374.4,820,374.4,820,374.4L820,374.4z"/>
	<path class="st11" d="M839.3,203.1c-0.6,0-1.2-0.5-1.2-1.2c0-0.4,0.2-0.7,0.5-0.9c0.1-0.1,14.3-10.3,35.5-18.1
		c19.6-7.2,49.3-13.7,80-3.9c0.6,0.2,1,0.9,0.8,1.5s-0.9,1-1.5,0.8c-30-9.6-59.2-3.2-78.5,3.9c-20.9,7.6-34.8,17.7-34.9,17.8
		C839.8,203,839.6,203.1,839.3,203.1z"/>
	<path class="st11" d="M597.5,349.9l3,0.9l20.3-65c-1.7-0.4-3.5,0.5-4,2.2L597.5,349.9z"/>
	<path class="st12" d="M664.3,265.1h-13.4v-39.4h13.4c5.3,0,9.7,4.3,9.7,9.7v20.1C674,260.8,669.7,265.1,664.3,265.1z"/>
	<path class="st11" d="M662.5,244c-0.9,0-1.7-0.8-1.7-1.7v-14.6h3.4v14.6C664.1,243.3,663.4,244,662.5,244z"/>
	<path class="st11" d="M666.5,262h-9.8c-1.2,0-2.1-1-2.1-2.1V254c0-1.2,1-2.1,2.1-2.1h9.8c1.2,0,2.1,1,2.1,2.1v5.9
		C668.6,261.1,667.7,262,666.5,262z"/>
	<path class="st12" d="M637.9,221.6c-0.2,0-0.5-0.1-0.6-0.2c-0.2-0.2-0.4-0.4-0.4-0.7c-0.3-5,0.6-10.1,2.6-14.7
		c1.4-3.1,2.9-5.2,4.9-6.4c2.7-1.6,6.3-1.7,10-0.4c2.1,0.8,3.6,1.8,4.7,3.2c1.4,1.8,1.8,4.1,2.1,6.3c0.4,3.3,0.5,6.7,0.3,10
		c0,0.4-0.2,0.7-0.5,0.8c-0.3,0.2-0.7,0.1-1.1-0.1c-0.1,0-0.1-0.1-0.2-0.1c-0.7-0.3-1.5-0.3-2.2,0c-0.2,0.1-0.5,0.3-0.7,0.5
		l-1.3,1.1c-0.3,0.3-0.8,0.3-1.2,0.1c-1-0.5-2-0.9-3.2-0.9c-1.5-0.1-2.9,0.1-4.4,0.3l-8.6,1.3C638,221.6,638,221.6,637.9,221.6z"/>
	<polygon class="st13" points="636.8,365 632.2,365 630,347.3 636.8,347.3 	"/>
	<path class="st12" d="M639.2,373.7H636l-0.6-3.1l-1.5,3.1h-8.6c-1.1,0-1.9-0.9-1.9-1.9c0-0.6,0.3-1.2,0.8-1.6l6.9-4.8v-3.1l7.3,0.4
		L639.2,373.7z"/>
	<polygon class="st13" points="689.6,361.1 685.4,362.9 676.5,347.4 682.7,344.8 	"/>
	<path class="st12" d="M695.3,368.2l-3,1.3l-1.7-2.6l-0.2,3.4l-8,3.3c-1,0.4-2.1,0-2.5-1c-0.2-0.6-0.2-1.3,0.2-1.8l4.5-7.1l-1.2-2.9
		l6.9-2.4L695.3,368.2z"/>
	<polygon class="st13" points="634.6,244.4 633.3,262 624.6,288.4 621.1,286.3 625.8,259.5 627.4,244.1 	"/>
	<circle class="st13" cx="622.5" cy="288.5" r="3.7"/>
	<path class="st12" d="M657,264.7v4.9c0,0,7.5,13.3,4.5,19l11.3,30.9c0,0,15.3,15.3,14,26.3l0.9,3.5l-10.1,4.4l-2.2-3.1l-17.1-29.3
		l-14.4-26.7l-2.6,31.5c0,0,1.8,24.5-3.1,27.1l-0.4,3.9h-10.2v-3.7c0,0-3.8-13.3-1.6-23.4l-0.9-42.5c0,0,3.9-18,8.8-21l1.8-4.4
		L657,264.7z"/>
	<path class="st14" d="M665.1,231l-9.5-4.5l-2.8-4.8l-9.3,0.5l-2.8,4.6l-8.2,1.7l1.2,29.8c-0.5,0.9-0.7,2-0.5,3.1
		c0.3,1.9,1.8,0.4,0.3,1.9s-2.6,0.7-1.8,2s-1.1,3.3-1.1,3.3s23.5,11.9,30.1-3.3c0,0,1.3-4.5-0.9-13.8S665.1,231,665.1,231z"/>
	<path class="st14" d="M635.2,230.4l-2.7-1.9c0,0-3.7,1.5-3.9,4.7c-0.1,3.1-2.3,12.4-2.3,12.4l8.6,4.6L635.2,230.4z"/>
	<polygon class="st13" points="667.3,245.9 666,263.5 651.4,285.4 647.9,283.4 658.5,261 660.1,245.6 	"/>
	<path class="st14" d="M660.6,232l4.5-1c0,0,2.7,0.9,3.1,4.9s0.7,11.1,0.7,11.1l-9.4,6.9l-2.3-9.9L660.6,232z"/>
	<circle class="st13" cx="649" cy="285.6" r="3.7"/>
	<circle class="st15" cx="647.3" cy="211.6" r="8.6"/>
	<path class="st12" d="M640.3,210.3L640.3,210.3c-1.1,0-2.2,0-3.3,0c-0.3,0-0.5-0.1-0.7-0.3s-0.3-0.4-0.3-0.7c0.2-3.7,2.1-7,5.2-9
		l0,0c5.2-3.1,11.9-1.5,15,3.6c0.9,1.5,1.5,3.3,1.6,5.1c0,0.5-0.4,1-0.9,1l0,0c-3.8,0.2-8,0.2-13.6,0.3l0,0c-0.4,0-0.7-0.2-0.9-0.6
		l-0.1-0.2c-0.1-0.3-0.5-0.5-0.8-0.3c-0.2,0.1-0.3,0.2-0.4,0.4C641.2,210,640.8,210.3,640.3,210.3z"/>
	<path class="st11" d="M659.5,253.5c-2.3-2.2-3.3-5.3-3.3-8.4c0-3.5,1.3-6.9,2.9-10c1-1.9,2.1-3.6,3.3-5.4c0.4-0.6-0.6-1.2-1-0.6
		c-3.9,6-8.1,13.1-5.6,20.5c0.6,1.8,1.6,3.3,2.9,4.6C659.2,254.7,660,254,659.5,253.5L659.5,253.5z"/>
	<path class="st10" d="M597.6,319.2c-1.9-0.6-3.9-0.6-5.8-0.1l0,0c-1.5,0.4-2.9,1.1-4.1,2.1c-0.1,0.1-0.1,0.1-0.2,0.2
		c-1.5,1.3-2.6,3-3.2,4.9l-8.2,26.1c-0.6,1.9-0.6,4-0.1,6c0,0.1,0.1,0.2,0.1,0.3c0.4,1.3,1,2.5,1.9,3.6l0,0c1.3,1.6,3.1,2.9,5.1,3.5
		l15.4,4.8L613,324L597.6,319.2z"/>
	<path class="st11" d="M621.9,286.2L602,349.6c-0.3,0.8,0.2,1.7,1,2s1.7-0.2,2-1l0,0l18.9-60.3C624.4,288.6,623.5,286.8,621.9,286.2
		z"/>
	<circle class="st11" cx="597.1" cy="371.1" r="2.8"/>
	<circle class="st11" cx="578.6" cy="365.3" r="2.8"/>
	<path class="st11" d="M591.7,319.1c-2.9,9.2-10.7,33.4-13.8,43.1l0,0c-0.8-1.1-1.5-2.3-1.9-3.6c0-0.1-0.1-0.2-0.1-0.3
		c3.4-10.6,9-28.5,11.5-37c0.1-0.1,0.1-0.1,0.2-0.2C588.8,320.2,590.2,319.5,591.7,319.1L591.7,319.1z"/>
	<path class="st11" d="M997.9,373.8L1.8,376c-1,0-1.8-0.3-1.8-0.7c0-0.4,0.8-0.7,1.8-0.7l996.1-2.3c1,0,1.8,0.3,1.8,0.7
		C999.7,373.5,998.9,373.8,997.9,373.8z"/>
	<path class="st9" d="M715.4,31.9c-5.6-5.6-11-13.2-19-13.2c-12.2,0-17.5,17.7-29.4,20.2c-5.3,1.1-10.8-1.1-16.2-1.2
		c-5.5-0.1-12,3.9-10.8,9.2l104-1.6C733.2,44.2,723.2,39.5,715.4,31.9z"/>
	<path class="st9" d="M947,8.5c-12.2,0-17.5,17.7-29.4,20.2c-5.3,1.1-10.8-1.1-16.2-1.2c-5.5-0.1-12,3.9-10.8,9.2l104-1.6
		c-10.7-1.1-20.8-5.8-28.5-13.4C960.3,16.1,954.9,8.5,947,8.5z"/>
	<g id="g10" transform="matrix(1.25,0,0,-1.25,0,195)" class="st16">
		<g id="g12" transform="scale(0.1,0.1)">
			<path id="path14" class="st17" d="M1478.5-1311.2c-83,7.9-128.5,53.3-136.3,136.3c7.9,83,53.3,128.4,136.3,136.3
				c83-7.9,128.4-53.4,136.4-136.3C1606.9-1257.9,1561.5-1303.3,1478.5-1311.2 M1740.3-1174.9c-1.9,74.4-27.7,136-77,184.8
				c-48.7,49.4-110.3,75-184.8,77c-74.4-2-136-27.6-184.8-77c-49.4-48.8-75.1-110.4-77.1-184.8c2-74.4,27.7-136.3,77.1-185.7
				c48.7-48.8,110.3-74.1,184.8-76.1c74.5,2,136.4,27.6,185.8,77C1713-1310.9,1738.3-1249.3,1740.3-1174.9"/>
			<path id="path16" class="st17" d="M3708.5-1311.2c-83,7.9-128.4,53.3-136.3,136.3c7.9,83,53.3,128.4,136.3,136.3
				c83-7.9,128.5-53.4,136.3-136.3C3837-1257.9,3791.5-1303.3,3708.5-1311.2 M3970.4-1174.9c-2,74.4-27.3,136-76.1,184.8
				c-49.4,49.4-111.3,75-185.7,77c-74.4-2-136-27.6-184.8-77c-49.4-48.8-75-110.4-77-184.8c2-74.4,27.7-136.3,77-185.7
				c48.8-48.8,110.4-74.1,184.8-76.1c74.4,2,136.3,27.6,185.7,77C3943-1310.9,3968.3-1249.3,3970.4-1174.9"/>
			<path id="path18" class="st17" d="M4163-658.2c-98.8,78.4-201.8,139-309.2,181.9c-106.8,42.8-164.7,64.5-173.9,65.2L3321.2-62.4
				c-131.7,119.9-243.7,189.4-336,208.5c-91.6,19.1-139.6,25.3-144.2,18.8H1037.9c-62-110.7-112-222.6-150.2-335.9h1697.5
				l25.7,228.3l768.7-492.1l-881.4-493l11.9,103.7l14.8,124.5H151.5L43.9-824.2h711.4c-9.3-168-11.9-255.9-8-263.8l224.3-106.7
				h162.1c-0.7,6.6-1,12.8-1,18.8c2.7,98.2,36.6,179.9,101.8,245.1c64.6,65.1,145.9,99.1,244,101.7c98.2-2.6,179.8-36.6,245-101.7
				c65.2-65.2,99.1-146.9,101.8-245.1c-0.6-5.9-1-12.2-1-18.8h1523.6c-0.7,6.6-1,12.8-1,18.8c2.6,101.4,37.6,185.8,104.8,253
				c67.2,67.1,151.1,102.1,252,104.7c101.4-2.6,185.7-37.6,252.9-104.7c67.2-67.2,102-151.6,104.8-253c0-5.9-0.4-12.2-1-18.8H4257
				c31.7,158.8,26,287.2-16.8,385.3C4197.9-711.2,4172.2-660.8,4163-658.2"/>
			<path id="path20" class="st17" d="M3023.8-298.5L2672.1-74.2l-14.8-164H547.8L394.6-430.9h2839.6L3023.8-298.5"/>
			<path id="path22" class="st18" d="M978.9-543.6l-4.5,269.8c-18.5-6.8-33.1-17.6-43.5-32.3c-10.4-14.7-15.7-33.1-15.8-55.1
				c-0.1-5,0.1-9.1,0.7-12.2c0.7-3.2,1.3-5.7,1.9-7.6c0.7-1.9,1.2-3.3,1.8-4.4c0.5-1,0.8-1.9,0.8-2.6c-6.8,0.1-12.9,0.8-18.2,2.1
				c-5.2,1.4-9.6,3.6-13.2,6.7c-3.5,3-6.1,7-8,11.9s-2.8,10.9-2.8,18c0.1,8.8,2,17.4,5.8,25.8c3.9,8.4,9.2,16.4,15.9,24
				s14.5,14.5,23.6,20.8c9,6.4,18.6,11.9,28.8,16.4c10.3,4.6,20.9,8.3,32,10.9c11.1,2.6,22.2,3.8,33.3,3.7c2.9,0,5.6-0.1,8.1-0.2
				c2.6-0.1,5.1-0.4,7.6-0.8l1.9-243l84.8,241.3l27.5-0.2l-111.6-293.7C1035.9-544.1,978.9-543.6,978.9-543.6z M1219.8-295.3
				c-0.1-4.3-1.1-8.4-2.8-12.2c-1.6-3.8-3.9-7.1-6.8-9.9c-2.9-2.7-6.3-4.9-10.1-6.5c-3.8-1.5-7.9-2.3-12.3-2.3
				c-4.3,0-8.4,0.8-12.2,2.4c-3.8,1.7-7.1,3.9-9.9,6.7c-2.8,2.8-5,6.1-6.7,9.9c-1.5,3.9-2.2,8-2.1,12.3c0,4.3,0.7,8.3,2.3,12
				c1.6,3.8,3.9,7.1,6.8,10.1c2.9,2.9,6.3,5.2,10.1,6.8c3.8,1.6,7.8,2.4,12.2,2.4c4.4,0,8.5-0.9,12.3-2.6s7.1-4.1,9.9-7
				s5-6.3,6.7-10.1C1218.9-287,1219.8-291,1219.8-295.3L1219.8-295.3z M1243-474.6c-3.9-10.7-8.2-20-12.8-27.8
				c-4.6-7.8-9.3-14.4-14.3-19.8c-4.9-5.3-10-9.7-15.3-13c-5.3-3.2-10.4-5.8-15.3-7.5s-9.5-2.9-14-3.6c-4.5-0.7-8.4-1-11.9-1
				c-6,0.1-11.5,1.1-16.7,2.8c-5.1,1.8-9.5,4.7-13.3,8.6c-3.7,3.9-6.6,8.8-8.8,14.8c-2.2,5.9-3.2,13.1-3.1,21.4
				c0,3.6,0.3,7.5,0.8,11.9c0.6,4.3,1.4,9,2.4,14l27.6,126.5l56.8-0.5L1176-481.6c-0.6-2.3-1.1-4.5-1.5-6.7
				c-0.2-2.1-0.3-4.1-0.3-6.2c0-5.5,1.3-9.4,3.9-11.5c2.6-2.2,6.7-3.3,12.2-3.3c3.9,0,7.6,0.8,11.2,2.4c3.6,1.7,7,4.1,10.1,7.1
				c3.1,3.1,5.9,6.9,8.5,11.2c2.5,4.3,4.5,9,6.2,14L1243-474.6L1243-474.6z M1451.7-476c-3.8-10.7-7.9-20.1-12.3-27.9
				c-4.5-7.8-9.1-14.4-13.8-19.6c-4.7-5.3-9.5-9.7-14.5-13c-4.9-3.3-9.7-5.8-14.3-7.6c-4.7-1.7-9.1-2.8-13.3-3.4
				c-4.2-0.6-8.1-1-11.5-1c-11.2,0.1-20.1,3.2-26.6,9.3c-6.6,6.2-10.6,15.3-12,27.3c-3.2-4.6-6.7-9-10.6-13.3
				c-3.9-4.2-8.2-8-13-11.4s-10.1-6.1-16.1-8.1c-5.8-2-12.3-3.1-19.3-3.1c-6.8,0-13.4,1.1-19.7,3.2c-6.3,2.3-11.9,5.9-16.7,11
				c-4.8,5.1-8.6,11.6-11.5,19.6c-2.9,8.1-4.3,18-4.2,29.7c0,9.1,0.9,18.8,2.8,29.1c1.9,10.3,4.6,20.5,8.4,30.9
				c3.9,10.3,8.6,20.1,14.3,29.4c5.6,9.4,12.2,17.7,19.8,24.8c7.5,7.2,16.1,13,25.7,17.2c9.5,4.3,20,6.4,31.5,6.3
				c11.1-0.1,19.2-2.1,24.4-6c5.1-3.8,7.6-8.6,7.6-14.3l-0.2-2.8l4.4,20.8l56.8-0.3l-29.1-134c-0.7-2.3-1.1-4.5-1.5-6.7
				c-0.3-2.1-0.5-4.1-0.5-6.2c-0.1-11.3,5.2-16.9,16.1-16.9c3.8-0.1,7.3,0.8,10.7,2.8c3.3,2,6.4,4.6,9.1,8c2.7,3.3,5.1,7.3,7.1,11.9
				c2.2,4.5,3.9,9.3,5.4,14.3L1451.7-476L1451.7-476z M1352.8-386.4c0,1.2-0.3,2.6-0.8,4.4c-0.4,1.7-1.3,3.4-2.6,5
				c-1.2,1.6-2.8,3-4.9,4.1c-2.1,1-4.7,1.6-7.8,1.6c-5.5,0.1-10.8-1.6-15.8-5.2s-9.6-8.4-13.8-14.3c-4.1-6-7.8-12.8-11-20.3
				c-3.3-7.6-6.1-15.4-8.5-23.4c-2.3-7.9-4-15.8-5.2-23.6c-1.2-7.8-1.8-14.8-1.8-21c-0.1-7.6,0.5-13.4,2-17.5c1.4-4.1,3.1-7.2,5-9.3
				c2-2.1,4.2-3.3,6.5-3.7c2.3-0.3,4.3-0.5,6.2-0.5c2.9,0,6,0.7,9.3,2.1s6.5,3.6,9.6,6.5c3,2.9,5.8,6.5,8.3,10.9
				c2.6,4.3,4.6,9.4,5.9,15.3L1352.8-386.4L1352.8-386.4z M1471.6-578.6c-3-14.1-7.3-25.5-12.7-34.3c-5.3-8.8-11.3-15.5-17.9-20.3
				c-6.5-4.9-13.3-8.1-20.5-9.8c-7.1-1.6-14-2.4-20.6-2.4c-5.9,0.1-11.6,1.1-16.9,2.8c-5.4,1.6-10.1,4-14.1,7.2
				c-4.1,3.2-7.3,7.1-9.6,12c-2.4,4.8-3.6,10.4-3.6,16.7c0.1,8.2,2.2,15.5,6.2,21.8c4,6.2,9.2,11.7,15.4,16.4
				c6.2,4.7,13.2,8.7,21,12c7.7,3.2,15.3,6,22.7,8.3l43.5,198.8l57-0.5l-40.3-182.9c6,2,11.5,4.5,16.4,7.3s9.3,6.4,13.5,10.9
				c4.1,4.4,7.8,9.7,11,15.7c3.2,6.2,6.3,13.6,9.3,22.3l16.6-0.2c-4-13-8.8-23.9-14.3-32.6c-5.5-8.8-11.5-15.9-17.9-21.4
				c-6.3-5.5-12.7-9.7-19.3-12.7c-6.5-2.9-12.8-5.1-19-6.7L1471.6-578.6L1471.6-578.6z M1532.4-297.1c-0.1-4.3-1-8.4-2.8-12.2
				c-1.6-3.8-3.9-7.1-6.8-9.8c-2.8-2.7-6.1-4.9-9.9-6.5s-7.9-2.4-12.3-2.4c-4.3,0.1-8.4,1-12.2,2.6c-3.8,1.6-7.1,3.8-9.9,6.5
				c-2.8,2.8-5,6.1-6.7,9.9c-1.5,3.9-2.2,8-2.1,12.3c0,4.4,0.7,8.5,2.3,12.3c1.6,3.8,3.9,7.1,6.8,9.9s6.3,5,10.1,6.7
				c3.8,1.7,7.8,2.5,12.2,2.4c4.4,0,8.5-0.9,12.3-2.6c3.8-1.6,7-3.9,9.8-6.8c2.8-2.8,5-6.2,6.7-10.1
				C1531.5-288.6,1532.4-292.7,1532.4-297.1L1532.4-297.1z M1416.7-568.1c-5.1-1.9-9.9-4-14.6-6.2c-4.8-2.1-8.9-4.6-12.5-7.3
				s-6.4-5.7-8.5-8.9c-2.2-3.3-3.2-7-3.2-10.9c0-1.5,0.2-3,0.6-4.5s1.3-2.9,2.4-4.2s2.5-2.3,4.2-3.1c1.6-0.7,3.7-1.1,6-1.1
				c4.1,0,8.4,2.9,12.7,8.6c4.2,5.6,7.7,14.4,10.4,26.3L1416.7-568.1L1416.7-568.1z M1694.4-485.2c-0.6-2.3-1.1-4.5-1.5-6.7
				c-0.3-2.1-0.5-4.1-0.5-6.2c0-5.5,1.3-9.4,3.9-11.5c2.7-2.1,6.8-3.1,12.3-3.1c1.7-0.1,3.3-0.1,4.7,0.2c1.5,0.3,2.8,0.8,3.9,1.5
				c-2.8-6.8-5.5-12.8-8-17.7c-2.4-5-5.1-9.2-8.1-12.5c-2.9-3.2-6.3-5.6-10.1-7.1c-3.8-1.5-8.3-2.3-13.5-2.3
				c-11,0.1-19.7,3.3-26.3,9.6c-6.6,6.4-10.7,15.5-12.3,27.3c-2.9-4.5-6.3-8.9-10.2-13.3c-3.9-4.3-8.3-8.2-13.2-11.7
				c-4.9-3.4-10.3-6.1-16.2-8.1c-6-2-12.4-3.1-19.3-3.1c-6.8,0-13.4,1.1-19.6,3.2c-6.3,2.3-11.9,5.9-16.7,11.1
				c-4.8,5.1-8.6,11.6-11.5,19.6c-2.9,8.1-4.3,18-4.2,29.7c0,9.1,0.9,18.8,2.8,29.1c1.9,10.3,4.6,20.6,8.5,30.9s8.6,20.1,14.3,29.4
				c5.6,9.4,12.2,17.7,19.8,24.9c7.5,7.2,16.1,13,25.7,17.2c9.5,4.3,20,6.4,31.5,6.3c11.1-0.1,19.2-2.1,24.4-6
				c5.1-3.8,7.6-8.6,7.6-14.3l-0.2-2.8l4.4,20.8l56.8-0.3L1694.4-485.2L1694.4-485.2z M1658.5-388.4c0,1.2-0.3,2.6-0.8,4.4
				c-0.4,1.7-1.3,3.4-2.6,5c-1.2,1.6-2.8,3-4.9,4.1s-4.7,1.6-7.8,1.6c-5.5,0.1-10.8-1.6-15.7-5.2c-5-3.6-9.6-8.4-13.8-14.3
				c-4.1-6-7.8-12.8-11-20.3c-3.3-7.6-6.1-15.4-8.5-23.4c-2.3-7.9-4-15.7-5.2-23.5s-1.8-14.8-1.8-21c-0.1-7.6,0.5-13.4,1.9-17.5
				s3.1-7.2,5-9.3c2-2.1,4.2-3.3,6.5-3.7c2.3-0.3,4.3-0.5,6.2-0.5c2.9,0,6,0.7,9.3,2.1s6.5,3.6,9.6,6.5c3,2.9,5.8,6.5,8.3,10.9
				c2.6,4.3,4.5,9.4,5.8,15.3L1658.5-388.4L1658.5-388.4z M1758-549.1l55.6,250.9l58.3,7.5l-19.2-87.5h2.4c7.8,0,15.1,1.9,22.1,5.7
				c6.9,3.8,12.9,8.7,18,14.8c5.2,6.2,9.3,13,12.3,20.6c3.1,7.5,4.8,15.1,4.9,22.6c0,5.5-1,10.8-2.9,15.9s-4.8,9.6-8.9,13.6
				s-9.5,7.2-16.1,9.6c-6.5,2.5-14.4,3.7-23.9,3.7c-7.7,0.1-15.6-0.7-23.5-2.4c-7.9-1.6-15.5-4.2-22.7-7.8
				c-7.3-3.5-14.1-7.8-20.6-13s-12.1-11.4-16.9-18.5s-8.6-15.1-11.4-24s-4.2-18.8-4.2-29.6c-0.1-5,0.1-9.1,0.6-12.2
				c0.7-3.2,1.3-5.7,2-7.6s1.4-3.3,1.9-4.4c0.7-1,1-1.9,1-2.6c-13.4,0.1-23.8,2.8-31.2,8.3c-7.4,5.5-11,14.9-10.9,28.3
				c0.1,9.2,2,18.1,5.5,26.6c3.7,8.6,8.8,16.9,15.3,24.7c6.6,7.8,14.4,14.8,23.4,21.1c9,6.4,18.8,11.9,29.4,16.6
				c10.6,4.8,21.9,8.4,33.8,11s24.1,3.8,36.5,3.7c14.5-0.1,27-2,37.5-5.5c10.6-3.6,19.3-8.3,26.2-14.1c6.8-5.8,11.9-12.6,15.1-20.3
				c3.3-7.6,5-15.4,5-23.6c-0.1-6-1-11.9-2.8-17.9c-1.6-5.9-4.2-11.5-7.6-16.9c-3.4-5.3-7.5-10.4-12.5-15.3
				c-5-4.8-10.7-8.9-17.2-12.3c8.5-1.6,15.8-4.5,21.6-8.6c5.9-4,10.8-8.9,14.5-14.8c3.6-5.8,6.3-12.1,8-19
				c1.6-6.9,2.4-14.1,2.4-21.6c-0.1-6.3-0.8-13.5-2.1-21.6c-1.3-8.1-3.4-16.4-6.2-24.9c-2.7-8.4-6.3-16.6-10.7-24.7
				c-4.3-8-9.8-15.2-16.2-21.4c-6.5-6.2-14-11.2-22.6-15c-8.6-3.9-18.3-5.8-29.4-5.7c-4.2,0-8.7,0.4-13.3,1.3
				c-4.7,0.8-8.9,2.3-12.7,4.5c-3.8,2.2-6.9,5.1-9.4,8.9c-2.4,3.8-3.6,8.7-3.6,14.8c0,3.3,0.4,6.9,1.1,10.6
				c0.9,3.8,2.2,7.9,4.1,12.3c5-5.4,9.5-9.2,13.5-11.4c4.1-2.1,8.4-3.1,12.8-3.1c7.2-0.1,13.4,2.1,18.4,6.7c5,4.6,9,10.4,12.2,17.4
				c3.1,6.9,5.4,14.5,6.8,22.9c1.4,8.5,2.1,16.3,2.1,23.7c0.1,6.8-0.4,13.2-1.6,19.3c-1.1,6.2-3.1,11.5-6,16.1s-6.8,8.3-11.5,11
				c-4.8,2.7-10.7,4.1-17.9,4.2c-1.7,0-4.3-0.1-7.6-0.2c-3.2-0.1-6.8-0.4-10.6-1l-33.3-151.1L1758-549.1L1758-549.1z M2198.5-481.1
				c-3.8-10.7-7.9-20.1-12.3-27.9c-4.5-7.8-9.1-14.4-13.8-19.7s-9.5-9.7-14.5-13c-4.9-3.2-9.7-5.8-14.3-7.6
				c-4.7-1.7-9.1-2.8-13.3-3.4c-4.2-0.7-8.1-1-11.5-1c-11.2,0.1-20.1,3.2-26.6,9.3c-6.6,6.2-10.6,15.3-12,27.3
				c-3.2-4.6-6.7-9-10.6-13.3c-3.9-4.2-8.2-8-13-11.4s-10.1-6.1-16.1-8.1c-5.8-2-12.3-3.1-19.3-3.1c-6.8,0-13.4,1.1-19.7,3.2
				c-6.3,2.3-11.9,5.9-16.7,11.1c-4.8,5.1-8.6,11.6-11.5,19.6c-2.9,8.1-4.3,18-4.2,29.7c0,9.1,0.9,18.8,2.8,29.1
				c1.9,10.3,4.6,20.5,8.4,30.9c3.9,10.3,8.6,20.1,14.3,29.4c5.6,9.4,12.2,17.7,19.8,24.9c7.5,7.2,16.1,13,25.7,17.2
				c9.5,4.3,20,6.4,31.5,6.3c11.1-0.1,19.2-2.1,24.4-6c5.1-3.8,7.6-8.6,7.6-14.3l-0.2-2.8l4.4,20.8l56.8-0.3l-29.1-134
				c-0.7-2.3-1.1-4.5-1.5-6.7c-0.3-2.1-0.5-4.1-0.5-6.2c-0.1-11.3,5.2-16.9,16.1-16.9c3.8-0.1,7.3,0.8,10.7,2.8c3.3,2,6.4,4.6,9.1,8
				c2.7,3.3,5.1,7.3,7.2,11.8c2.2,4.6,3.9,9.3,5.4,14.3L2198.5-481.1L2198.5-481.1z M2099.6-391.5c0,1.2-0.3,2.6-0.8,4.4
				c-0.4,1.7-1.3,3.4-2.6,5c-1.2,1.6-2.8,3-4.9,4.1c-2.1,1.1-4.7,1.6-7.8,1.6c-5.5,0.1-10.8-1.6-15.8-5.2s-9.6-8.4-13.8-14.3
				c-4.1-6-7.8-12.8-11-20.3c-3.3-7.6-6.1-15.4-8.5-23.4c-2.3-7.9-4-15.7-5.2-23.5s-1.8-14.8-1.8-21c-0.1-7.6,0.5-13.4,2-17.5
				c1.4-4.1,3.1-7.2,5-9.3c2-2.1,4.2-3.3,6.5-3.7c2.3-0.3,4.3-0.5,6.2-0.5c2.9,0,6,0.7,9.3,2.1c3.3,1.4,6.5,3.6,9.6,6.5
				c3,2.9,5.8,6.5,8.3,10.9c2.6,4.3,4.6,9.4,5.9,15.3L2099.6-391.5L2099.6-391.5z M2167.8-551.7l43.2,197.2l56.8-0.5l-5-24.4
				c3.5,3,7,6,10.6,8.9c3.7,2.9,7.5,5.5,11.4,7.8c4,2.3,8.1,4.1,12.3,5.4c4.2,1.4,8.7,2.1,13.5,2.1c4.4-0.1,8.3-1.1,11.7-2.8
				c3.5-1.6,6.3-3.8,8.6-6.5s4.1-5.8,5.2-9.4c1.1-3.6,1.6-7.3,1.6-11.2c0-3.5-0.6-6.9-1.8-10.4c-1.2-3.4-3-6.4-5.4-9.1
				s-5.4-5-8.9-6.7c-3.6-1.7-7.8-2.6-12.5-2.4c-3.8,0-6.7,0.6-8.8,1.9c-1.9,1.3-3.5,2.9-4.5,4.9c-1,1.9-1.7,4-2.1,6.2
				c-0.3,2.3-0.8,4.4-1.3,6.3c-0.4,2-1.1,3.6-1.9,4.9c-0.9,1.4-2.3,2.1-4.2,2.1c-6,0-11-1.4-15.1-4.2c-4.1-2.7-8.7-6.3-13.8-10.7
				l-32.5-149.9L2167.8-551.7L2167.8-551.7z M2494.8-490.7c-0.6-2.3-1.1-4.5-1.5-6.7c-0.3-2.1-0.5-4.1-0.5-6.2
				c0-5.5,1.3-9.4,3.9-11.5c2.7-2.1,6.8-3.1,12.3-3.1c1.7-0.1,3.3-0.1,4.7,0.2c1.5,0.3,2.8,0.8,3.9,1.5c-2.8-6.8-5.5-12.7-8-17.7
				c-2.4-5-5.1-9.2-8.1-12.5c-2.9-3.3-6.3-5.6-10.1-7.2c-3.8-1.5-8.3-2.3-13.5-2.3c-11,0.1-19.7,3.3-26.3,9.6
				c-6.6,6.4-10.7,15.5-12.3,27.3c-2.9-4.5-6.3-8.9-10.2-13.3c-3.9-4.3-8.3-8.2-13.2-11.7c-4.9-3.4-10.3-6.1-16.2-8.1
				c-6-2-12.4-3.1-19.3-3.1c-6.8,0-13.4,1.1-19.6,3.3c-6.3,2.3-11.9,5.9-16.7,11s-8.6,11.6-11.5,19.7c-2.9,8.1-4.3,18-4.2,29.7
				c0,9.1,0.9,18.8,2.8,29.1c1.9,10.3,4.6,20.5,8.5,30.9c3.9,10.3,8.6,20.1,14.3,29.4c5.6,9.4,12.2,17.7,19.8,24.9
				c7.5,7.2,16.1,13,25.7,17.2c9.5,4.3,20,6.4,31.5,6.3c11.1-0.1,19.2-2.1,24.4-6c5.1-3.8,7.6-8.6,7.6-14.3l-0.2-2.8l4.4,20.8
				l56.8-0.3C2523.9-356.7,2494.8-490.7,2494.8-490.7z M2458.9-393.9c0,1.2-0.3,2.6-0.8,4.4c-0.4,1.7-1.3,3.4-2.6,5
				c-1.2,1.6-2.8,3-4.9,4.1c-2.1,1.1-4.7,1.6-7.8,1.6c-5.5,0.1-10.8-1.6-15.7-5.2c-5-3.6-9.6-8.4-13.8-14.3c-4.1-6-7.8-12.7-11-20.3
				c-3.3-7.6-6.1-15.4-8.5-23.4c-2.3-7.9-4-15.8-5.2-23.6c-1.2-7.8-1.8-14.8-1.8-20.9c-0.1-7.6,0.5-13.4,1.9-17.5s3.1-7.2,5-9.3
				c2-2.1,4.2-3.3,6.5-3.7c2.3-0.3,4.3-0.5,6.2-0.5c2.9,0,6,0.7,9.3,2.1c3.3,1.4,6.5,3.6,9.6,6.5c3,2.9,5.8,6.5,8.3,10.9
				c2.6,4.3,4.5,9.4,5.8,15.3"/>
		</g>
	</g>
	<path class="st11" d="M779.4,314c-2.2,0-4.1,1.5-4.6,3.7h6.5V334h-6.5c0.5,2.5,3,4.1,5.5,3.6c2.2-0.5,3.7-2.4,3.7-4.6v-14.4
		C784,316.1,781.9,314,779.4,314L779.4,314z"/>
	<path class="st11" d="M727,285.5c-4.6,0-8.4,3.8-8.4,8.4v64.4c0,4.6,3.8,8.4,8.4,8.4h40.7c4.6,0,8.4-3.8,8.4-8.4v-64.4
		c0-4.6-3.8-8.4-8.4-8.4H727z"/>
	<circle class="st11" cx="722.7" cy="369.9" r="4.3"/>
	<circle class="st11" cx="770.4" cy="369.9" r="4.3"/>
	<rect x="725.8" y="284.9" class="st19" width="2.3" height="81.9"/>
	<rect x="732.4" y="284.9" class="st19" width="2.3" height="81.9"/>
	<rect x="739" y="284.9" class="st19" width="2.3" height="81.9"/>
	<rect x="745.6" y="284.9" class="st19" width="2.3" height="81.9"/>
	<rect x="752.2" y="284.9" class="st19" width="2.3" height="81.9"/>
	<rect x="758.8" y="284.9" class="st19" width="2.3" height="81.9"/>
	<rect x="765.4" y="284.9" class="st19" width="2.3" height="81.9"/>
	<path class="st12" d="M767.1,278.7c1.5-2.6,2.3-5.5,2.3-8.5h-41.2c0,3,0.8,6,2.3,8.5h-8.4c0,4.5,3.8,8.2,8.5,8.2H741
		c1.7,0.5,3.6,0.8,5.4,0.8h4.9c1.8,0,3.6-0.3,5.4-0.8H767c4.7,0,8.5-3.6,8.5-8.2H767.1z"/>
	<path class="st12" d="M736.6,337.5c0.2,1.7-0.7,3.3-2.3,4.1l0,0c-3.9,2.2-7.1,4-10.8,3.6c-1.4-0.1-2.4-1.3-2.2-2.7
		c0-0.2,0.1-0.4,0.1-0.6l5.4-10.2c3.1-3.6,5.3-3.6,9.1-0.6L736.6,337.5z"/>
	<path class="st12" d="M758.8,337.5c-0.2,1.7,0.7,3.3,2.3,4.1l0,0c3.9,2.2,7.1,4,10.8,3.6c1.4-0.1,2.4-1.3,2.2-2.7
		c0-0.2-0.1-0.4-0.1-0.6l-5.4-10.2c-3.1-3.6-5.3-3.6-9.1-0.6L758.8,337.5z"/>
	<path class="st12" d="M743.2,217.3h-14.9c-1.4,0-2.6-0.9-3-2.2c-0.5-1.5-1.1-3-1.1-4.4c0-5.2,0.2-8.6,2.5-10.7
		c7.7-5.8,13.2-4.7,18.4,1.4c1.8,3.4,1.4,8.5,0.4,14C745.4,216.5,744.4,217.3,743.2,217.3z"/>
	<circle class="st20" cx="735.5" cy="213.9" r="10.1"/>
	<polygon class="st20" points="743.3,234 729.3,234.4 728.1,219.3 741.7,218.9 	"/>
	<path class="st21" d="M766.9,270.1l-9.6,4.5c-1.6,3.8-3.8,3.7-6.7-0.2c-2.7,4.7-8.5,1.9-11.3-0.2c-3.7-1.9-8.1-1.9-11.8,0
		l-10.3-45.6c3.2-2.7,7.4-4.4,11.5-5.6l8,9.9l5.4-9.7c3.8-3,9.1-3,14.8-2.3l3.3,17.7C758,252.5,761.3,259.5,766.9,270.1z"/>
	<path class="st12" d="M735.1,330.3l-8.2,0.8l-12.1-53.4c-1-4.6,1.9-9.1,6.4-10.1c0.6-0.1,1.2-0.2,1.8-0.2l0,0
		c4.7,0,8.5,3.8,8.5,8.5c0,0.4,0,0.7-0.1,1.1l-1.5,11L735.1,330.3z"/>
	<path class="st12" d="M759.6,331.1l8.2-0.4l12.1-53c1-4.6-1.9-9.1-6.4-10.1c-0.6-0.1-1.2-0.2-1.8-0.2l0,0c-4.7,0-8.5,3.8-8.5,8.5
		c0,0.4,0,0.7,0.1,1.1l1.5,11L759.6,331.1z"/>
	<path class="st20" d="M786.1,254.5l-6.9,17.8c-3.8-2.9-6.8-3.3-11-1.7c-1.2-0.2-2-2.7-2-3.9l0,0c0-1.2,1-2.3,2.2-2.3l6.3-0.3
		c1.2-3,1.9-6.2,2.1-9.4C779.8,253.8,783,253.7,786.1,254.5z"/>
	<path class="st21" d="M786.7,255l1.7-6.3c1.5-4.7-0.5-9.9-4.8-12.4l-26.8-15.5l-0.4,17.1l19.8,8.5c0.5,2.9,0.7,5.9,0.5,8.8
		C779.9,254.4,783.6,254.2,786.7,255z"/>
	<path class="st12" d="M745.4,208.2l-10.5,1.9c-4.1,0-7.4-3.3-7.4-7.4l0,0h18.2L745.4,208.2z"/>
	<ellipse class="st20" cx="726.2" cy="210.2" rx="1" ry="1.9"/>
	<path class="st22" d="M758.2,241.1L758.2,241.1l-0.1-3.1c0-1-0.8-1.8-1.8-1.8l0,0h-6.5c-1,0-1.8,0.8-1.8,1.8l0,0v16.9
		c0,1,0.8,1.8,1.8,1.8l0,0h6.5c1,0,1.8-0.8,1.8-1.8l0,0v-11.7h0.1V241.1z"/>
	<circle class="st21" cx="752.8" cy="241.2" r="1.6"/>
	<path class="st20" d="M751.4,255.4c-8,6.3-16,11.5-21.9,12.2l-1-10.7c5.7-0.8,13.3-4.6,21.3-8.9l3.9-2c2.1-1.1,4.7-0.3,5.8,1.8
		c0.3,0.5,0.4,1.1,0.5,1.7l0,0c0.2,2.1-1.2,4-3.2,4.5L751.4,255.4z"/>
	<path class="st21" d="M736.3,267.8l-15.9,0.4c-5.4-10.5-7.3-21.7-6.2-33.6c0-2.6,1.3-5,3.4-6.4l1.7-1.2
		c7.2,10.6,11.6,20.5,10.1,28.7l4.7-0.4C730.9,259.5,732.3,263.6,736.3,267.8z"/>
	<path class="st9" d="M398,58.5c-12.2,0-17.5,17.7-29.4,20.2c-5.3,1.1-10.8-1.1-16.2-1.2c-5.5-0.1-12,3.9-10.8,9.2l104-1.6
		c-10.7-1.1-20.8-5.8-28.5-13.4C411.4,66.1,406,58.5,398,58.5z"/>
	<path class="st9" d="M240,91.2c-11.4-11.3-22.3-26.7-38.4-26.7c-24.7,0-35.3,35.8-59.5,40.8c-10.8,2.3-21.8-2.2-32.8-2.4
		c-11-0.2-24.2,7.8-21.9,18.6l210.2-3.2C276,116.1,255.7,106.5,240,91.2z"/>
	<path class="st12" d="M649.4,179.1h-0.6c-1.2,0-2.1-0.9-2.1-2.1v-0.5c0-1.3,0.2-2.4,0.7-3.2c0.6-1,1.3-1.9,2-2.7
		c0.5-0.5,1-1.1,1.4-1.7c0.3-0.5,0.4-1,0.4-1.5c0-1.3-0.8-1.9-2.6-1.9c-1,0-1.9,0.2-2.8,0.4c-1.3,0.4-2.6-0.4-2.9-1.6
		c-0.1-0.2-0.1-0.4-0.1-0.7v-1c0-0.9,0.5-1.8,1.4-2.1c1.6-0.7,3.4-1,5.1-1c1.8,0,3.5,0.3,5,0.9c1.4,0.6,2.6,1.5,3.4,2.6
		c0.8,1.1,1.2,2.4,1.2,3.7c0,1.4-0.4,2.7-1.2,3.7s-1.9,2.2-3.3,3.3c-0.7,0.6-1.4,1.3-2.1,2c-0.4,0.5-0.7,1-0.9,1.6
		C651.3,178.3,650.5,179.1,649.4,179.1z"/>
	<path class="st12" d="M649.1,188.9L649.1,188.9c-2.2,0-3.9-1.7-3.9-3.9c0-2.1,1.7-3.9,3.9-3.9h0.1c2.1,0,3.9,1.7,3.9,3.9
		C653,187.1,651.2,188.9,649.1,188.9L649.1,188.9z"/>
	<path class="st12" d="M737.5,180.7h-0.6c-1.2,0-2.1-0.9-2.1-2.1v-0.5c0-1.3,0.2-2.4,0.7-3.2c0.6-1,1.3-1.9,2-2.7
		c0.5-0.5,1-1.1,1.4-1.7c0.3-0.5,0.4-1,0.4-1.5c0-1.3-0.8-1.9-2.6-1.9c-1,0-1.9,0.2-2.8,0.4c-1.3,0.4-2.6-0.4-2.9-1.6
		c-0.1-0.2-0.1-0.4-0.1-0.7v-1c0-0.9,0.5-1.8,1.4-2.1c1.6-0.7,3.4-1,5.1-1c1.8,0,3.5,0.3,5,0.9c1.4,0.6,2.6,1.5,3.4,2.6
		c0.8,1.1,1.2,2.4,1.2,3.7c0,1.4-0.4,2.7-1.2,3.7s-1.9,2.2-3.3,3.3c-0.7,0.6-1.4,1.3-2.1,2c-0.4,0.5-0.7,1-0.9,1.6
		C739.4,179.9,738.5,180.7,737.5,180.7z"/>
	<path class="st12" d="M737.2,190.5L737.2,190.5c-2.2,0-3.9-1.7-3.9-3.9c0-2.1,1.7-3.9,3.9-3.9h0.1c2.1,0,3.9,1.7,3.9,3.9
		C741.1,188.7,739.3,190.5,737.2,190.5L737.2,190.5z"/>
</g>
</svg>
