<svg id="Capa_2" data-name="Capa 2" xmlns="http://www.w3.org/2000/svg" viewBox="0 0 1125 2436">
  <title>Mesa de trabajo 1</title>
  <rect x="-12.22" y="-13.33" width="1149.22" height="2463.33" fill="#1a1a1a"/>
  <path d="M496,1574c114,152,479.77,588.3,545,862H388c32.1-140.38-189-703-223-757,0,0-134-272-122-413,6-94,9-351,323-536,124-74,701-280,762-303l-3,106S654,693,511,832C251,1087,355,1359,496,1574Z" fill="#d0cde1"/>
  <circle cx="59.75" cy="307.73" r="6.53" fill="#d0cde1"/>
  <circle cx="817" cy="78.04" r="2.9" fill="#d0cde1"/>
  <circle cx="677.5" cy="222.76" r="2.9" fill="#d0cde1"/>
  <polygon points="71.55 363.2 70.1 363.2 70.1 361.75 69.37 361.75 69.37 363.2 67.92 363.2 67.92 363.93 69.37 363.93 69.37 365.38 70.1 365.38 70.1 363.93 71.55 363.93 71.55 363.2" fill="#d0cde1"/>
  <polygon points="638.97 46.91 637.51 46.91 637.51 45.45 636.79 45.45 636.79 46.91 635.34 46.91 635.34 47.63 636.79 47.63 636.79 49.08 637.51 49.08 637.51 47.63 638.97 47.63 638.97 46.91" fill="#d0cde1"/>
  <polygon points="154 274.3 152.54 274.3 152.54 272.85 151.82 272.85 151.82 274.3 150.37 274.3 150.37 275.03 151.82 275.03 151.82 276.48 152.54 276.48 152.54 275.03 154 275.03 154 274.3" fill="#d0cde1"/>
  <polygon points="56.04 196.27 54.59 196.27 54.59 194.82 53.86 194.82 53.86 196.27 52.41 196.27 52.41 197 53.86 197 53.86 198.45 54.59 198.45 54.59 197 56.04 197 56.04 196.27" fill="#d0cde1"/>
  <polygon points="369.7 229.26 368.25 229.26 368.25 227.8 367.52 227.8 367.52 229.26 366.07 229.26 366.07 229.98 367.52 229.98 367.52 231.43 368.25 231.43 368.25 229.98 369.7 229.98 369.7 229.26" fill="#d0cde1"/>
  <polygon points="141.09 397.61 139.64 397.61 139.64 396.16 138.91 396.16 138.91 397.61 137.46 397.61 137.46 398.34 138.91 398.34 138.91 399.79 139.64 399.79 139.64 398.34 141.09 398.34 141.09 397.61" fill="#d0cde1"/>
  <polygon points="806.01 183.12 804.56 183.12 804.56 181.67 803.83 181.67 803.83 183.12 802.38 183.12 802.38 183.85 803.83 183.85 803.83 185.3 804.56 185.3 804.56 183.85 806.01 183.85 806.01 183.12" fill="#d0cde1"/>
  <polygon points="338.87 296.65 337.42 296.65 337.42 295.19 336.7 295.19 336.7 296.65 335.24 296.65 335.24 297.37 336.7 297.37 336.7 298.82 337.42 298.82 337.42 297.37 338.87 297.37 338.87 296.65" fill="#d0cde1"/>
  <polygon points="808.16 10.34 806.71 10.34 806.71 8.89 805.98 8.89 805.98 10.34 804.53 10.34 804.53 11.07 805.98 11.07 805.98 12.52 806.71 12.52 806.71 11.07 808.16 11.07 808.16 10.34" fill="#d0cde1"/>
  <polygon points="32.38 83 30.93 83 30.93 81.55 30.2 81.55 30.2 83 28.75 83 28.75 83.72 30.2 83.72 30.2 85.17 30.93 85.17 30.93 83.72 32.38 83.72 32.38 83" fill="#d0cde1"/>
  <polygon points="362.53 141.79 361.08 141.79 361.08 140.34 360.35 140.34 360.35 141.79 358.9 141.79 358.9 142.52 360.35 142.52 360.35 143.97 361.08 143.97 361.08 142.52 362.53 142.52 362.53 141.79" fill="#d0cde1"/>
  <polygon points="526.08 282.19 524.63 282.19 524.63 280.74 523.9 280.74 523.9 282.19 522.45 282.19 522.45 282.91 523.9 282.91 523.9 284.37 524.63 284.37 524.63 282.91 526.08 282.91 526.08 282.19" fill="#d0cde1"/>
  <polygon points="172.64 460.7 171.18 460.7 171.18 459.25 170.46 459.25 170.46 460.7 169.01 460.7 169.01 461.43 170.46 461.43 170.46 462.88 171.18 462.88 171.18 461.43 172.64 461.43 172.64 460.7" fill="#d0cde1"/>
  <path d="M336.09,2309.49c2.24,76.79-42.63,104.94-98.94,106.58-1.31,0-2.61.06-3.9.07-2.62,0-5.2,0-7.76-.13-50.93-2.11-91.24-29.15-93.33-100.57-2.16-73.9,89.58-169.93,96.46-177h0l.39-.41S333.85,2232.7,336.09,2309.49Z" fill="#d0cde1"/>
  <path d="M224.46,2406.69l28.88-43-28.82,47.57.06,4.83c-2.11,0-4.19,0-6.26-.1l1.43-62.12,0-.48,0-.09.14-5.87-31.62-45.92,31.58,41.52.12,1.24,1.08-46.93-27.32-47.6,27.4,39.36-.29-97.23v0l1.81,76.63,24.9-31.13-24.82,37.73.55,42,22.91-41-22.83,47.15.3,23.34L257,2289.57l-33.21,65.21Z" fill="#a4a4a7"/>
  <circle cx="532.29" cy="83.77" r="5.75" fill="#cfcce0"/>
  <circle cx="291.96" cy="172.31" r="5.75" fill="#cfcce0"/>
  <circle cx="101.08" cy="83.77" r="5.75" fill="#cfcce0"/>
  <path d="M1006.39,1525.63l45.15-67.15-45.06,74.37.1,7.56c-3.3,0-6.56,0-9.8-.16l2.24-97.13-.06-.75.08-.14.22-9.18-49.45-71.79,49.39,64.92.18,1.94,1.69-73.38-42.71-74.43,42.83,61.54-.45-152v-.5l0,.5,2.83,119.81,38.93-48.67-38.8,59,.85,65.64,35.82-64.06-35.69,73.71.47,36.5,52.09-89.23-51.93,102Z" fill="#a4a4a7"/>
  <path d="M1103.92,1300.38c2.1,71.69-39.79,98-92.36,99.5-1.22,0-2.43.06-3.64.06q-3.66,0-7.24-.12c-47.55-2-85.18-27.21-87.12-93.88-2-69,83.62-158.64,90-165.27h0l.37-.38S1101.83,1228.7,1103.92,1300.38Z" fill="#d0cde1"/>
  <path d="M822.13,1909.94l76.51-113.76-76.35,126,.16,12.8q-8.37.06-16.59-.28l3.79-164.55-.1-1.27.14-.25.36-15.55-83.78-121.63,83.68,110,.3,3.28,2.87-124.32L740.76,1494.3l72.56,104.27L812.57,1341v-.85l0,.84,4.8,203,66-82.46-65.73,100,1.44,111.21,60.69-108.54L819.27,1689l.8,61.83,88.26-151.18-88,172.75Z" fill="#a4a4a7"/>
  <path d="M987.38,1528.31c3.55,121.46-67.42,166-156.48,168.57q-3.1.09-6.18.11-6.19,0-12.27-.2c-80.55-3.35-144.3-46.1-147.6-159.06-3.42-116.9,141.68-268.78,152.56-280h0l.63-.64S983.84,1406.86,987.38,1528.31Z" fill="#d0cde1"/>
  <circle cx="48.18" cy="178.06" r="5.75" fill="#cfcce0"/>
  <circle cx="420.75" cy="90.67" r="12.65" transform="translate(263.85 491.46) rotate(-80.78)" fill="#cfcce0"/>
  <circle cx="115.07" cy="254.37" r="12.65" fill="#cfcce0"/>
  <circle cx="323.01" cy="36.62" r="12.65" fill="#cfcce0"/>
  <path d="M159,2371.3c1.36,46.57-25.85,63.64-60,64.64-.79,0-1.58,0-2.37,0-1.58,0-3.15,0-4.7-.08-30.89-1.28-55.34-17.67-56.6-61-1.31-44.82,54.32-103.06,58.5-107.36h0l.24-.25S157.59,2324.73,159,2371.3Z" fill="#d0cde1"/>
  <path d="M587.86,583.45l0,2.4,0,2.52c-1.1,0-2.19,0-3.26,0l.74-32.38,0-.25,0-.05.07-3,0-2.29.06.64.56-24.46-14.23-24.81,14.28,20.52L586,471.51v0l.95,39.94,13-16.23L587,514.89l.28,21.88,11.94-21.36L587.3,540l.15,12.17,17.37-29.75-17.31,34Z" fill="#a4a4a7"/>
  <path d="M620.37,508.36c.7,23.9-13.26,32.66-30.79,33.17l-1.21,0c-.81,0-1.62,0-2.42,0-15.84-.66-28.39-9.07-29-31.29-.67-23,27.88-52.88,30-55.09h0l.13-.13S619.67,484.47,620.37,508.36Z" fill="#d0cde1"/>
  <path d="M1116.29,394c.7,23.9-13.27,32.66-30.79,33.17l-1.21,0c-.82,0-1.62,0-2.42,0-15.84-.66-28.39-9.07-29-31.29-.67-23,27.88-52.88,30-55.09h0l.13-.13S1115.59,370.15,1116.29,394Z" fill="#d0cde1"/>
  <path d="M621.92,1572.68l54.16-80.54L622,1581.35l.11,9.06q-5.92,0-11.75-.2l2.69-116.5-.07-.9.1-.17.25-11-59.31-86.11,59.24,77.87.21,2.33,2-88-51.23-89.28,51.38,73.82-.54-182.36v-.6l0,.59,3.4,143.72,46.69-58.38L618.71,1326l1,78.73,43-76.83-42.81,88.41.57,43.78,62.48-107-62.29,122.31Z" fill="#a4a4a7"/>
  <path d="M738.91,1302.5c2.51,86-47.73,117.5-110.79,119.34-1.46,0-2.92.07-4.37.08q-4.38,0-8.69-.15c-57-2.36-102.16-32.63-104.5-112.6-2.41-82.76,100.31-190.29,108-198.25h0l.44-.46S736.4,1216.51,738.91,1302.5Z" fill="#d0cde1"/>
  <circle cx="23.12" cy="36.63" r="72.63" fill="#cfcce0"/>
  <polygon points="72 24 11 68 790 893 1128 893 72 24" fill="#f2f2f2" opacity="0.1" style="isolation: isolate"/>
  <path d="M989.46,836.1a2.88,2.88,0,0,0,0-5.75H965.8a6.43,6.43,0,0,1-2.88,8.63,2.88,2.88,0,0,0,2.88,2.88h23.66a2.88,2.88,0,0,0,0-5.76Z" fill="#f2f2f2" opacity="0.1" style="isolation: isolate"/>
  <path d="M891.55,830.16c0-6.74,9.4-8.21,20.9-8.21s20.6,1.47,20.77,8.21c.41,15.7-9.09,11.7-20.59,11.7s-21,2-21.08-11.7" fill="#3f3d56"/>
  <path d="M960.14,836.37a1.72,1.72,0,0,0-.59-.2,27.11,27.11,0,0,1-3.1-.66A6.51,6.51,0,0,1,953.7,834a6.42,6.42,0,0,0-1-.92,1.16,1.16,0,0,0-1.26-.09l-.11.1-.43-.28-2.3-1.49,0,0a1.09,1.09,0,0,0,0-.36,1.71,1.71,0,0,0-.76-.95,29.43,29.43,0,0,0,3-.21,3.55,3.55,0,0,0,2.53-1,.8.8,0,0,0,.18-.41c0-.31-.32-.51-.61-.63a5.43,5.43,0,0,0-1.19-.35,6.3,6.3,0,0,1-.84-.18,4.58,4.58,0,0,1-.71-.33l-1.46-.81a2.22,2.22,0,0,1-.57-.39c-.25-.27-.36-.64-.61-.9s-1.18-.55-1.32-.06c-.05.19.15.4.18.62-.33-.2-.67-.39-1-.56a.67.67,0,0,0,.06-.12,13.11,13.11,0,0,1-3.76-4.87h.44a1.14,1.14,0,0,0,.7-.17.75.75,0,0,0,.25-.63,2,2,0,0,0-.17-.67,5,5,0,0,0-1-1.75,5.78,5.78,0,0,0-1.43-1l-.08-.05c0-.1-.07-.21-.11-.32a16.84,16.84,0,0,0-1.07-1.9A12.34,12.34,0,0,1,938,810a4.17,4.17,0,0,0-.78-1.91c-.76-.85-2.07-.82-3.2-.7l-1.92.27a.07.07,0,0,1,0-.05,1.34,1.34,0,0,1-.15-.48,2.71,2.71,0,0,1,.09-.41,1,1,0,0,0-.28-.92l-.08-.09a4.29,4.29,0,0,0,.19-.5.62.62,0,0,0,.15-.45,5.4,5.4,0,0,0,.18-1.26,13.51,13.51,0,0,1-.1-2.84,1.71,1.71,0,0,0-.25-.66.73.73,0,0,1-.09-.08,4,4,0,0,1,.67-.69,9.93,9.93,0,0,1,1.57-1,3.68,3.68,0,0,0,.45-.21,5.61,5.61,0,0,0,.59.06,4.47,4.47,0,0,0,4.51-4.46,4.29,4.29,0,0,0-.31-1.66,1.52,1.52,0,0,0,1-.73,2.86,2.86,0,0,0,.39-1.24,1.33,1.33,0,0,0-.19-1,2.54,2.54,0,0,0-.57-.4,2.13,2.13,0,0,1-.71-.72c-.13-.21-.22-.44-.34-.65a2.42,2.42,0,0,0-2.09-1.39,10.47,10.47,0,0,0-1.24.25c-1.4.25-2.92-.49-4.22.08a4.1,4.1,0,0,0-.88.59,13.7,13.7,0,0,0-1.06,1,2.16,2.16,0,0,0-.64.93c-.18.66.24,1.4,0,2a3,3,0,0,1-.32.52c-.3.43,0,2.12,0,2.64a1,1,0,0,0,.18.72l.13.1a60.42,60.42,0,0,0-6.38,2.71,13.67,13.67,0,0,0-5.91,5.53c-.36.69-.62,1.41-.94,2.11-.43.94-.94,1.83-1.45,2.72-.63,1.09-1.25,2.18-2,3.2a16.34,16.34,0,0,0-1.15,1.7,1,1,0,0,0,0,.25.48.48,0,0,1,0,.24.37.37,0,0,1-.27.16l0,0a15,15,0,0,0-.4,1.6,25.64,25.64,0,0,0-.69,2.57.69.69,0,0,0,.17,1,.68.68,0,0,0,.5.11c.75.33,1.47.72,2.19,1.12,0,0,0,.1,0,.15a3,3,0,0,0,1.57,2.74,8.08,8.08,0,0,0,3.19.87c.43,0,.87.07,1.3.12a8.92,8.92,0,0,0,2,.81,2.44,2.44,0,0,0,.46.07,1.42,1.42,0,0,0,1.07-.6,74.26,74.26,0,0,0,11.16-.23,4.08,4.08,0,0,1,3,.47c.8.65,1,1.81,1.56,2.65a9.33,9.33,0,0,0,1.46,1.42,22.19,22.19,0,0,1,2.79,3.67,8.19,8.19,0,0,0,3.36,3.11,2.38,2.38,0,0,1,1.05-.91l.32-.21a3.69,3.69,0,0,0,.52.66l.42.49h0c-.19,0-.26.27-.28.47-.08.75-.17,1.5-.26,2.25a.83.83,0,0,0,0,.44.85.85,0,0,0,.41.34,6.08,6.08,0,0,0,2.22.58c.38,0,.77,0,1.16,0a13.32,13.32,0,0,1,1.88.38,17.69,17.69,0,0,0,5.13.4,3.42,3.42,0,0,0,1-.2,3.15,3.15,0,0,0,1-.79,2.94,2.94,0,0,0,.78-1.24A1.19,1.19,0,0,0,960.14,836.37Z" fill="#3f3d56"/>
  <path d="M932.48,786.13A3.89,3.89,0,0,0,933,786a3.59,3.59,0,0,0-1.56.16A4.28,4.28,0,0,0,932.48,786.13Z" fill="#d0cde1"/>
  <path d="M935.81,787.27c.12.21.21.44.34.65a2.13,2.13,0,0,0,.71.72,2.54,2.54,0,0,1,.57.4,1.33,1.33,0,0,1,.19,1,2.86,2.86,0,0,1-.39,1.24,1.52,1.52,0,0,1-1,.73,4.41,4.41,0,0,1-2.34,5.78,4.46,4.46,0,0,1-2.45.28,3.68,3.68,0,0,1-.45.21,9.93,9.93,0,0,0-1.57,1,3.71,3.71,0,0,0-.67.7l.09.07a1.71,1.71,0,0,1,.25.66,13.51,13.51,0,0,0,.1,2.84,5.4,5.4,0,0,1-.18,1.26.62.62,0,0,1-.15.45,4.29,4.29,0,0,1-.19.5l.08.09a1,1,0,0,1,.28.92,2.71,2.71,0,0,0-.09.41,1.34,1.34,0,0,0,.15.48.07.07,0,0,0,0,.05l1.92-.27,1-.06a.65.65,0,0,1,0-.2,2.71,2.71,0,0,1,.09-.41,1,1,0,0,0-.28-.92l-.08-.09a4.29,4.29,0,0,0,.19-.5.62.62,0,0,0,.15-.45,5.4,5.4,0,0,0,.18-1.26,13.51,13.51,0,0,1-.1-2.84,1.71,1.71,0,0,0-.25-.66l-.09-.07a3.71,3.71,0,0,1,.67-.7,9.93,9.93,0,0,1,1.57-1,3.68,3.68,0,0,0,.45-.21,5.61,5.61,0,0,0,.59.06,4.47,4.47,0,0,0,4.51-4.46,4.29,4.29,0,0,0-.31-1.66,1.52,1.52,0,0,0,1-.73,2.86,2.86,0,0,0,.39-1.24,1.33,1.33,0,0,0-.19-1,2.54,2.54,0,0,0-.57-.4,2.13,2.13,0,0,1-.71-.72c-.13-.21-.22-.44-.34-.65a2.42,2.42,0,0,0-2.09-1.39,10.47,10.47,0,0,0-1.24.25,4,4,0,0,1-.69,0A2.74,2.74,0,0,1,935.81,787.27Z" fill="#d0cde1"/>
  <path d="M960.14,836.37a1.72,1.72,0,0,0-.59-.2,27.11,27.11,0,0,1-3.1-.66A6.51,6.51,0,0,1,953.7,834a6.42,6.42,0,0,0-1-.92,1.16,1.16,0,0,0-1.26-.09l-.11.1-.43-.28-2.3-1.49,0,0a1.09,1.09,0,0,0,0-.36,1.71,1.71,0,0,0-.76-.95,29.43,29.43,0,0,0,3-.21,3.55,3.55,0,0,0,2.53-1,.8.8,0,0,0,.18-.41c0-.31-.32-.51-.61-.63a5.43,5.43,0,0,0-1.19-.35,6.3,6.3,0,0,1-.84-.18,4.58,4.58,0,0,1-.71-.33l-1.46-.81a2.22,2.22,0,0,1-.57-.39c-.25-.27-.36-.64-.61-.9s-1.18-.55-1.32-.06c-.05.19.15.4.18.62-.33-.2-.67-.39-1-.56a.67.67,0,0,0,.06-.12,13.11,13.11,0,0,1-3.76-4.87h.44a1.14,1.14,0,0,0,.7-.17.75.75,0,0,0,.25-.63,2,2,0,0,0-.17-.67,5,5,0,0,0-1-1.75,5.78,5.78,0,0,0-1.43-1l-.08-.05c0-.1-.07-.21-.11-.32a16.84,16.84,0,0,0-1.07-1.9A12.34,12.34,0,0,1,938,810a4.17,4.17,0,0,0-.78-1.91c-.76-.85-2.07-.82-3.2-.7l-.75.11a2.1,2.1,0,0,1,1,.59A4.17,4.17,0,0,1,935,810a12.34,12.34,0,0,0,1.22,3.26,16.84,16.84,0,0,1,1.07,1.9c0,.11.07.22.11.32l.08.05a5.78,5.78,0,0,1,1.43,1,5,5,0,0,1,1,1.75,2,2,0,0,1,.17.67.75.75,0,0,1-.25.63,1.14,1.14,0,0,1-.7.17h-.44a13.11,13.11,0,0,0,3.76,4.87.67.67,0,0,1-.06.12c.35.17.69.36,1,.56,0-.22-.23-.43-.18-.62.14-.49,1.08-.18,1.32.06s.36.63.61.9a2.22,2.22,0,0,0,.57.39l1.46.81a4.58,4.58,0,0,0,.71.33,6.3,6.3,0,0,0,.84.18,5.43,5.43,0,0,1,1.19.35c.29.12.61.32.61.63a.8.8,0,0,1-.18.41,3.55,3.55,0,0,1-2.53,1,29.43,29.43,0,0,1-3,.21,1.71,1.71,0,0,1,.76.95,1.09,1.09,0,0,1,0,.36l0,0,2.3,1.49.43.28.11-.1a1.16,1.16,0,0,1,1.26.09,6.42,6.42,0,0,1,1,.92,6.51,6.51,0,0,0,2.75,1.53,27.11,27.11,0,0,0,3.1.66,1.72,1.72,0,0,1,.59.2,1.19,1.19,0,0,1,.45,1.3,2.94,2.94,0,0,1-.78,1.24,3.15,3.15,0,0,1-1,.79,2.88,2.88,0,0,1-.76.17,17.63,17.63,0,0,0,2.72,0,3.42,3.42,0,0,0,1-.2,3.15,3.15,0,0,0,1-.79,2.94,2.94,0,0,0,.78-1.24A1.19,1.19,0,0,0,960.14,836.37Z" fill="#d0cde1"/>
  <path d="M943.51,833.86l.15.14-.11-.16Z" fill="#ff6584"/>
  <path d="M988.18,825.55c0,10.59-4.73,7.67-10.55,7.67s-10.56,2.92-10.56-7.67,10.56-30.69,10.56-30.69S988.18,815,988.18,825.55Z" fill="#d0cde1"/>
  <path d="M982.42,829.6c0,4.82-2.15,3.49-4.79,3.49s-4.8,1.33-4.8-3.49,4.8-14,4.8-14S982.42,824.79,982.42,829.6Z" opacity="0.1" style="isolation: isolate"/>
  <path d="M990.85,797.24S993,795,993,792.73" fill="#d0cde1"/>
  <path d="M968.39,778.25s-.92-3-2.89-4.08" fill="#d0cde1"/>
  <path d="M946.39,737.25s-.92-3-2.89-4.08" fill="#d0cde1"/>
  <path d="M972.39,792.25s-.92-3-2.89-4.08" fill="#d0cde1"/>
  <path d="M969.39,743.25s-.92-3-2.89-4.08" fill="#d0cde1"/>
  <path d="M963.39,761.25s-.92-3-2.89-4.08" fill="#d0cde1"/>
  <path d="M988.85,828.24S991,826,991,823.73" fill="#d0cde1"/>
  <path d="M992.85,811.24S995,809,995,806.73" fill="#d0cde1"/>
  <rect x="940.98" y="812.36" width="25.3" height="1" transform="translate(-208.11 343.28) rotate(-18.43)" fill="#d0cde1"/>
  <path d="M963.73,809.34c.9,3.52-.62,2.68-2,3s-1.1,1.56-3-1.93c-1.31-2.41.61-2.68,2-3S963.11,806.93,963.73,809.34Z" fill="#d0cde1"/>
  <path d="M846.62,851c2,7.45,8.92,12.06,8.92,12.06s3.63-7.46,1.62-14.91-8.92-12.06-8.92-12.06S844.61,843.57,846.62,851Z" fill="#3f3d56"/>
  <path d="M849.58,849.42c5.53,5.38,6.21,13.65,6.21,13.65s-8.29-.45-13.82-5.83-6.21-13.65-6.21-13.65S844.05,844,849.58,849.42Z" fill="#3f3d56"/>
  <path d="M952.71,863.26c-5.31,5.6-5.65,13.89-5.65,13.89s8.27-.78,13.57-6.39,5.65-13.89,5.65-13.89S958,857.66,952.71,863.26Z" fill="#3f3d56"/>
  <path d="M955.62,865c-1.71,7.52-8.42,12.41-8.42,12.41s-3.94-7.31-2.23-14.83,8.42-12.41,8.42-12.41S957.33,857.43,955.62,865Z" fill="#3f3d56"/>
</svg>
