<svg id="Capa_13_copia" data-name="Capa 13 copia" xmlns="http://www.w3.org/2000/svg" viewBox="0 0 612 792">
  <title>Mesa de trabajo 1</title>
  <path d="M448.48,597.23H156.68c-1.87-1.88-4.56-3.43-5.46-5.69-2.08-5.23,1.93-10.1,8-10.2,7.63-.14,15.26,0,23.12,0,.07-1.51.18-2.67.18-3.83,0-13.89-.07-27.78.07-41.67,0-2.61-.76-3.67-3.3-4.42-16.54-5-27.44-18.58-28.41-35.72-.45-7.88-.37-15.8-.23-23.69.05-2.83-.93-3.94-3.55-4.66-8.87-2.42-15.74-7.74-21.16-15.13-4.15-5.65-5.93-12.15-7.39-18.82V363.64c1.77-4.86,5.41-6.5,10.37-6.47,16.52.1,33,0,49.57,0h4v-4.37c0-22,0-44.07,0-66.1.07-33,24.48-57.44,57.41-57.49q62.68-.08,125.36,0a61.25,61.25,0,0,1,12.47,1.22c26.53,5.6,44.59,27.91,44.75,55.33.13,22.39,0,44.78,0,67.17v4.2h4.21q24.78,0,49.57,0c7.15,0,10.18,2.95,10.19,9.93,0,20.35.09,40.71,0,61.07-.1,19-11,33.72-29.19,39.32-2.38.73-2.88,1.84-2.85,4q.17,10.05,0,20.11c-.27,19.9-10.56,34-29.38,39.9-2.25.72-2.6,1.8-2.59,3.83.06,14.25,0,28.5,0,42.75,0,.92.12,1.85.2,3.11h4.06c6.46,0,12.93-.11,19.4.07,5.86.16,9.73,5.06,7.68,10.18C453,593.8,450.36,595.35,448.48,597.23ZM406.5,421c.05-1.27.13-2.21.13-3.15,0-43.82.09-87.65,0-131.48-.07-23.89-17.47-41.14-41.43-41.18q-62.51-.13-125,0a46.44,46.44,0,0,0-10,1c-19.27,4.31-31.61,20.19-31.63,40.71q-.08,65.21,0,130.4c0,1.17.1,2.33.16,3.67ZM302.33,517.28q55,0,110,0c16.12,0,26.15-9.93,26.22-25.81,0-6.35-.14-12.71.08-19,.09-3-.73-4.27-3.76-5.2-13.31-4.07-22.1-13-26.3-26.22-.93-2.93-2-3.87-5.08-3.86q-58.21.15-116.43.07H201.14c-1.81,0-3.39-.2-4.08,2.28-4.13,14.68-13.72,24-28.24,28.42a3.58,3.58,0,0,0-2.08,2.58c-.11,8.38-.47,16.81.26,25.13a26.4,26.4,0,0,0,4.55,11.82c5.12,7.59,13,9.9,21.9,9.89Q247.89,517.22,302.33,517.28Zm-39.56,16.07V581.1h79.58V533.35ZM135,373.41c-.21.43-.39.64-.39.85,0,18.55-.6,37.13.16,55.66.63,15.35,12.56,24.65,27.43,22.9,11.55-1.35,20.26-11.72,20.32-24.47.09-17.48,0-35,0-52.44,0-.8-.13-1.6-.21-2.5Zm287.58-.07v20c0,11.86-.15,23.71,0,35.56.28,17.19,16.2,28.37,32.16,22.77,9.72-3.41,15.78-12.54,15.83-24.13.06-17,0-34,0-51,0-1-.15-2.05-.25-3.21Zm-223.83,160v47.73h47.52V533.36Zm207.61,47.76V533.45H358.91v47.67Z" fill="#2b2b2b"/>
  <path d="M406.5,421H198.7c-.06-1.34-.16-2.5-.16-3.67q0-65.2,0-130.4c0-20.52,12.36-36.4,31.63-40.71a46.44,46.44,0,0,1,10-1q62.5-.1,125,0c24,0,41.36,17.29,41.43,41.18.12,43.83,0,87.66,0,131.48C406.63,418.8,406.55,419.74,406.5,421ZM302.39,309.18h20.83c8.73,0,17.47,0,26.21,0,4.7,0,7.46-1.9,8.61-5.56,1.85-5.86-2.23-10.37-9.49-10.38q-46,0-91.91,0a16.08,16.08,0,0,0-4.59.61,7.25,7.25,0,0,0-5.28,6.58c-.35,3.06.73,5.87,3.54,7.26a15.33,15.33,0,0,0,6.49,1.43C272,309.24,287.2,309.18,302.39,309.18Z" fill="#17d4dc"/>
  <path d="M302.33,517.28q-54.43,0-108.88,0c-8.87,0-16.78-2.3-21.9-9.89A26.4,26.4,0,0,1,167,495.6c-.73-8.32-.37-16.75-.26-25.13a3.58,3.58,0,0,1,2.08-2.58c14.52-4.43,24.11-13.74,28.24-28.42.69-2.48,2.27-2.28,4.08-2.28H287q58.22,0,116.43-.07c3.06,0,4.15.93,5.08,3.86,4.2,13.2,13,22.15,26.3,26.22,3,.93,3.85,2.23,3.76,5.2-.22,6.34,0,12.7-.08,19-.07,15.88-10.1,25.8-26.22,25.81Q357.31,517.33,302.33,517.28Z" fill="#17d4dc"/>
  <path d="M135,373.41h47.33c.08.9.21,1.7.21,2.5,0,17.48.07,35,0,52.44-.06,12.75-8.77,23.12-20.32,24.47-14.87,1.75-26.8-7.55-27.43-22.9-.76-18.53-.18-37.11-.16-55.66C134.63,374.05,134.81,373.84,135,373.41Z" fill="#2b2b2b"/>
  <path d="M422.6,373.34h47.78c.1,1.16.25,2.18.25,3.21,0,17,.06,34,0,51-.05,11.59-6.11,20.72-15.83,24.13-16,5.6-31.88-5.58-32.16-22.77-.19-11.85,0-23.7,0-35.56Z" fill="#2b2b2b"/>
  <path d="M198.77,533.36h47.52v47.73H198.77Z" fill="#2b2b2b"/>
  <path d="M406.38,581.12H358.91V533.45h47.47Z" fill="#2b2b2b"/>
  <path d="M302.39,309.18c-15.19,0-30.39.06-45.59-.06a15.33,15.33,0,0,1-6.49-1.43c-2.81-1.39-3.89-4.2-3.54-7.26a7.25,7.25,0,0,1,5.28-6.58,16.08,16.08,0,0,1,4.59-.61q45.94,0,91.91,0c7.26,0,11.34,4.52,9.49,10.38-1.15,3.66-3.91,5.53-8.61,5.56-8.74.06-17.48,0-26.21,0Z" fill="#2b2b2b"/>
</svg>
