<svg id="Capa_1_copia" data-name="Capa 1 copia" xmlns="http://www.w3.org/2000/svg" viewBox="0 0 999.68 380.93">
  <title>Mesa de trabajo 1</title>
  <path d="M604.37,86.66c-12.22,0-17.46,17.69-29.41,20.2-5.34,1.12-10.79-1.11-16.24-1.21s-12,3.87-10.82,9.2l104-1.57a47.87,47.87,0,0,1-28.52-13.4C617.71,94.28,612.31,86.66,604.37,86.66Z" fill="#f0f0f0"/>
  <path d="M842.83,272.18a64.2,64.2,0,0,1-63.32-53.62l0-.13.08-.09A61.76,61.76,0,0,0,789.41,202a41.7,41.7,0,0,1-10.26,9.39l-.41.27,0-.48c-.05-1.07-.08-2.12-.08-3.14a63.82,63.82,0,0,1,30.27-54.5A90.72,90.72,0,1,1,960.52,62.16l.08.25-.24.09a44.8,44.8,0,0,1-17.3,3.65,62,62,0,0,0,19.07,2.3h.22l0,.22a91.06,91.06,0,0,1,2.71,22v.8a41.11,41.11,0,0,0,13.58,30.67,64.19,64.19,0,0,1-3,97.5l-.14.11-.15-.07c-9.49-4.31-16.1-9.11-20.6-15a63,63,0,0,0,13.07,20l.25.25-.3.18a64.26,64.26,0,0,1-63.34.75A64.42,64.42,0,0,1,842.83,272.18Z" fill="#d0cde1"/>
  <path d="M820,374.42a1.16,1.16,0,0,1-1.15-1c0-.34-4.91-35.34-.55-81.86,4-43,17-104.83,55.67-155.65a1.17,1.17,0,0,1,1.86,1.42c-38.39,50.37-51.21,111.8-55.2,154.45-4.34,46.24.48,81,.53,81.32a1.18,1.18,0,0,1-1,1.32Z" fill="#3f3d56"/>
  <path d="M839.32,203.1a1.17,1.17,0,0,1-.69-2.11,160.82,160.82,0,0,1,35.48-18.06c19.58-7.17,49.35-13.67,80-3.92a1.17,1.17,0,0,1-.7,2.23c-30-9.56-59.25-3.17-78.49,3.88A158.27,158.27,0,0,0,840,202.87,1.14,1.14,0,0,1,839.32,203.1Z" fill="#3f3d56"/>
  <path d="M597.49,349.88l3,.94,20.34-65a3.35,3.35,0,0,0-4,2.24Z" fill="#3f3d56"/>
  <path d="M664.32,265.12h-13.4V225.71h13.4a9.7,9.7,0,0,1,9.68,9.68v20.05A9.7,9.7,0,0,1,664.32,265.12Z" fill="#2f2e41"/>
  <path d="M662.46,244a1.69,1.69,0,0,1-1.69-1.69V227.68h3.37v14.64A1.69,1.69,0,0,1,662.46,244Z" fill="#3f3d56"/>
  <path d="M666.52,262h-9.81a2.13,2.13,0,0,1-2.13-2.13V254a2.13,2.13,0,0,1,2.13-2.13h9.81a2.13,2.13,0,0,1,2.13,2.13v5.87A2.13,2.13,0,0,1,666.52,262Z" fill="#3f3d56"/>
  <path d="M637.92,221.62a1,1,0,0,1-1-1,32.17,32.17,0,0,1,2.56-14.75c1.35-3.13,2.91-5.16,4.9-6.36,2.66-1.6,6.3-1.73,10-.35a10.14,10.14,0,0,1,4.67,3.15,12.55,12.55,0,0,1,2.05,6.27,56,56,0,0,1,.27,10,1,1,0,0,1-.54.83,1.08,1.08,0,0,1-1.06-.07l-.2-.12a2.35,2.35,0,0,0-2.16,0,4.29,4.29,0,0,0-.69.49l-1.33,1.08a1,1,0,0,1-1.17.08,7.34,7.34,0,0,0-3.15-.94,20.89,20.89,0,0,0-4.4.32l-8.59,1.26Z" fill="#2f2e41"/>
  <polygon points="636.77 365.01 632.18 365.01 629.99 347.31 636.77 347.31 636.77 365.01" fill="#ffb6b6"/>
  <path d="M639.24,373.73H636l-.58-3.07-1.49,3.07h-8.64a1.95,1.95,0,0,1-1.11-3.54l6.91-4.76v-3.11l7.25.43Z" fill="#2f2e41"/>
  <polygon points="689.61 361.09 685.38 362.87 676.5 347.39 682.75 344.76 689.61 361.09" fill="#ffb6b6"/>
  <path d="M695.27,368.17l-3,1.26-1.73-2.61-.18,3.41-8,3.35a1.94,1.94,0,0,1-2.39-2.84l4.51-7.06-1.2-2.87,6.85-2.41Z" fill="#2f2e41"/>
  <polygon points="634.62 244.4 633.31 262.03 624.58 288.35 621.08 286.31 625.83 259.54 627.45 244.1 634.62 244.4" fill="#ffb6b6"/>
  <circle cx="622.55" cy="288.52" r="3.67" fill="#ffb6b6"/>
  <path d="M657,264.7v4.86s7.53,13.27,4.47,19l11.3,30.91s15.32,15.32,14,26.27l.87,3.5-10.07,4.38-2.19-3.07-17.07-29.33-14.45-26.71L641.25,326s1.76,24.52-3.06,27.15l-.44,3.94H627.53v-3.75s-3.79-13.33-1.6-23.4l-.87-42.46s3.94-18,8.75-21l1.75-4.38Z" fill="#2f2e41"/>
  <path d="M665.06,231l-9.55-4.47-2.75-4.8-9.26.52-2.81,4.58-8.24,1.67,1.21,29.8a4.56,4.56,0,0,0-.54,3.09c.29,1.87,1.76.4.29,1.87s-2.58.73-1.84,2-1.08,3.29-1.08,3.29,23.45,11.95,30.08-3.29c0,0,1.31-4.46-.9-13.8S665.06,231,665.06,231Z" fill="#e4e4e4"/>
  <path d="M635.16,230.4l-2.71-1.9s-3.75,1.54-3.88,4.65-2.28,12.43-2.28,12.43l8.56,4.6Z" fill="#e4e4e4"/>
  <polygon points="667.31 245.87 666 263.5 651.39 285.41 647.89 283.38 658.52 261.01 660.13 245.57 667.31 245.87" fill="#ffb6b6"/>
  <path d="M660.59,232l4.47-1s2.69.86,3.05,4.9.68,11.07.68,11.07l-9.37,6.89L657.1,244Z" fill="#e4e4e4"/>
  <circle cx="648.99" cy="285.58" r="3.67" fill="#ffb6b6"/>
  <circle cx="647.29" cy="211.6" r="8.56" fill="#ffb7b7"/>
  <path d="M640.32,210.31H637a.94.94,0,0,1-.69-.29,1,1,0,0,1-.27-.7,11.23,11.23,0,0,1,5.23-9h0A10.93,10.93,0,0,1,657.92,209a1,1,0,0,1-.91,1h0c-3.79.16-8,.24-13.63.25h0a.94.94,0,0,1-.89-.59l-.09-.23a.6.6,0,0,0-.78-.32.56.56,0,0,0-.35.41A1,1,0,0,1,640.32,210.31Z" fill="#2f2e41"/>
  <path d="M659.47,253.46a11.47,11.47,0,0,1-3.3-8.4,21.06,21.06,0,0,1,2.92-10c1-1.86,2.15-3.64,3.29-5.42.39-.6-.57-1.15-1-.56-3.87,6-8.13,13.15-5.63,20.54a11.07,11.07,0,0,0,2.9,4.61c.51.49,1.29-.29.77-.78Z" fill="#3f3d56"/>
  <path d="M597.55,319.21a10.45,10.45,0,0,0-5.84-.14h0a10.86,10.86,0,0,0-4.08,2.06l-.2.17a10.64,10.64,0,0,0-3.22,4.9L576,352.33a10.66,10.66,0,0,0-.12,5.95c0,.11.07.22.1.33a10.92,10.92,0,0,0,1.88,3.57l0,0a10.65,10.65,0,0,0,5.11,3.48l15.42,4.82L613,324Z" fill="#d0cde1"/>
  <path d="M621.87,286.16,602,349.63a1.58,1.58,0,1,0,3,.95h0l18.86-60.26A3.36,3.36,0,0,0,621.87,286.16Z" fill="#3f3d56"/>
  <circle cx="597.1" cy="371.14" r="2.84" fill="#3f3d56"/>
  <circle cx="578.58" cy="365.34" r="2.84" fill="#3f3d56"/>
  <path d="M591.71,319.07c-3,9.23-10.66,33.37-13.81,43.13l0,0a10.92,10.92,0,0,1-1.88-3.57l-.1-.33c3.38-10.6,9.05-28.48,11.52-37l.2-.17a10.86,10.86,0,0,1,4.08-2.06Z" fill="#3f3d56"/>
  <path d="M997.89,373.78,1.82,376c-1,0-1.82-.31-1.82-.71s.82-.7,1.82-.71l996.07-2.25c1,0,1.82.31,1.82.71S998.89,373.77,997.89,373.78Z" fill="#3f3d56"/>
  <path d="M715.44,31.91c-5.63-5.61-11-13.23-19-13.22-12.21,0-17.45,17.68-29.41,20.2-5.33,1.12-10.78-1.12-16.23-1.21s-12,3.86-10.83,9.19L744,45.3A47.77,47.77,0,0,1,715.44,31.91Z" fill="#f0f0f0"/>
  <path d="M947,8.52c-12.21,0-17.46,17.69-29.41,20.2-5.34,1.13-10.78-1.11-16.24-1.2s-12,3.86-10.82,9.19l104-1.57A47.77,47.77,0,0,1,966,21.75C960.33,16.14,954.94,8.52,947,8.52Z" fill="#f0f0f0"/>
  <g id="g10">
    <g id="g12">
      <path id="path14" d="M184.81,358.9q-15.57-1.47-17-17,1.47-15.56,17-17,15.57,1.49,17.05,17-1.5,15.57-17.05,17m32.73-17q-.37-14-9.63-23.1t-23.1-9.62q-14,.36-23.1,9.62t-9.63,23.1q.38,14,9.63,23.22t23.1,9.51q14-.37,23.22-9.63t9.51-23.1" fill="#020205" fill-rule="evenodd"/>
      <path id="path16" d="M463.56,358.9q-15.56-1.47-17-17,1.49-15.56,17-17,15.57,1.49,17,17-1.47,15.57-17,17m32.73-17q-.37-14-9.51-23.1t-23.22-9.62q-13.95.36-23.1,9.62t-9.63,23.1q.38,14,9.63,23.22t23.1,9.51q14-.37,23.22-9.63t9.51-23.1" fill="#020205" fill-rule="evenodd"/>
      <path id="path18" d="M520.37,277.28a153.68,153.68,0,0,0-38.65-22.74q-20-8-21.74-8.14l-44.83-43.6q-24.69-22.49-42-26.07t-18-2.34H129.73a248.3,248.3,0,0,0-18.78,42H323.14l3.21-28.53,96.09,61.51L312.27,311l1.49-13,1.85-15.56H18.94L5.48,298H94.41q-1.74,31.5-1,33l28,13.33h20.26c-.08-.82-.13-1.6-.13-2.34q.51-18.4,12.72-30.64t30.51-12.71q18.41.48,30.63,12.71T228.16,342a21.72,21.72,0,0,0-.13,2.34H418.49a21.43,21.43,0,0,1-.13-2.34q.5-19,13.09-31.62T463,297.28q19,.48,31.61,13.09T507.66,342c0,.74-.05,1.52-.13,2.34h24.58q5.94-29.77-2.1-48.16t-9.64-18.89" fill="#fd1400" fill-rule="evenodd"/>
      <path id="path20" d="M378,232.31l-44-28-1.86,20.5H68.47L49.33,248.87h355L378,232.31" fill="#17d4dc" fill-rule="evenodd"/>
      <path id="path22" d="M122.36,263l-.56-33.72a11.24,11.24,0,0,0-5.45,4,11.72,11.72,0,0,0-2,6.88,7.5,7.5,0,0,0,.09,1.53,8.61,8.61,0,0,0,.24.95,4.14,4.14,0,0,0,.22.55.65.65,0,0,1,.1.32,10.2,10.2,0,0,1-2.27-.26,4,4,0,0,1-1.64-.83,3.6,3.6,0,0,1-1-1.49,6.42,6.42,0,0,1-.34-2.25,7.91,7.91,0,0,1,.73-3.23,11.94,11.94,0,0,1,2-3,16.17,16.17,0,0,1,2.94-2.6,20.83,20.83,0,0,1,3.59-2.05,21.68,21.68,0,0,1,4-1.36,17.44,17.44,0,0,1,4.17-.47l1,0c.33,0,.64.05,1,.1l.24,30.38L140,226.29l3.43,0L129.49,263Zm30.12-31a4.07,4.07,0,0,1-.35,1.52,3.7,3.7,0,0,1-.85,1.24,4.61,4.61,0,0,1-1.26.81,4.13,4.13,0,0,1-1.54.28,3.82,3.82,0,0,1-1.52-.3,4.15,4.15,0,0,1-1.24-.83,3.94,3.94,0,0,1-.84-1.24,3.83,3.83,0,0,1-.26-1.55,3.92,3.92,0,0,1,.28-1.5,4.15,4.15,0,0,1,.86-1.26,3.89,3.89,0,0,1,1.26-.85,3.85,3.85,0,0,1,1.52-.3,3.79,3.79,0,0,1,1.54.32,4.34,4.34,0,0,1,1.24.87,4.24,4.24,0,0,1,.83,1.26,3.63,3.63,0,0,1,.33,1.53Zm2.9,22.41a21.35,21.35,0,0,1-1.6,3.47,14.83,14.83,0,0,1-1.79,2.48,9.41,9.41,0,0,1-1.91,1.62,10.19,10.19,0,0,1-1.91.94,9.65,9.65,0,0,1-1.74.44,10.59,10.59,0,0,1-1.49.12,7.09,7.09,0,0,1-2.09-.34,4.27,4.27,0,0,1-1.66-1.08,5.21,5.21,0,0,1-1.1-1.84,7.71,7.71,0,0,1-.38-2.68,11.75,11.75,0,0,1,.1-1.49c.07-.53.17-1.12.3-1.74l3.45-15.82,7.11.06L147,255.2a7.48,7.48,0,0,0-.19.83,6.79,6.79,0,0,0,0,.78,1.81,1.81,0,0,0,.49,1.44,2.36,2.36,0,0,0,1.52.4,3.36,3.36,0,0,0,1.4-.3,4.32,4.32,0,0,0,1.26-.89,7.35,7.35,0,0,0,1.06-1.4,9.19,9.19,0,0,0,.77-1.75l2.07,0Zm26.09.17a23.13,23.13,0,0,1-1.54,3.49,14.44,14.44,0,0,1-1.73,2.46,9.26,9.26,0,0,1-1.81,1.62,9.78,9.78,0,0,1-1.78,1,8.94,8.94,0,0,1-1.67.43,9.73,9.73,0,0,1-1.44.12,4.81,4.81,0,0,1-3.33-1.16,5.29,5.29,0,0,1-1.5-3.41,15.74,15.74,0,0,1-1.32,1.66,9.6,9.6,0,0,1-1.63,1.42,7.62,7.62,0,0,1-4.42,1.41,7.51,7.51,0,0,1-2.46-.41,5.38,5.38,0,0,1-2.09-1.38,7.08,7.08,0,0,1-1.44-2.46,10.66,10.66,0,0,1-.53-3.71,20.79,20.79,0,0,1,.35-3.64,23,23,0,0,1,1.05-3.85,22.35,22.35,0,0,1,1.79-3.68,14.32,14.32,0,0,1,2.48-3.11,11.18,11.18,0,0,1,3.2-2.15,9.28,9.28,0,0,1,3.94-.79,5.19,5.19,0,0,1,3,.75,2.17,2.17,0,0,1,1,1.79l0,.34.55-2.6,7.11.05-3.64,16.75a6.51,6.51,0,0,0-.18.83,5.09,5.09,0,0,0-.06.77c0,1.41.65,2.11,2,2.11a2.46,2.46,0,0,0,1.34-.34,4.44,4.44,0,0,0,1.14-1,7.26,7.26,0,0,0,.89-1.48,11.58,11.58,0,0,0,.67-1.79Zm-12.36-11.21a1.84,1.84,0,0,0-.11-.54,1.57,1.57,0,0,0-.32-.63,1.81,1.81,0,0,0-.61-.51,2.15,2.15,0,0,0-1-.2,3.21,3.21,0,0,0-2,.65,7.35,7.35,0,0,0-1.73,1.78,14.89,14.89,0,0,0-1.38,2.54A26.73,26.73,0,0,0,161,249.3a24.39,24.39,0,0,0-.65,2.95,17.32,17.32,0,0,0-.22,2.62,7,7,0,0,0,.24,2.19,3.28,3.28,0,0,0,.63,1.16,1.52,1.52,0,0,0,.82.46,5.5,5.5,0,0,0,.77.07,2.91,2.91,0,0,0,1.16-.27,4,4,0,0,0,1.19-.81,6.55,6.55,0,0,0,1.77-3.27l2.44-11.11Zm14.84,24a13.85,13.85,0,0,1-1.58,4.28,8.54,8.54,0,0,1-2.24,2.54,6.81,6.81,0,0,1-2.55,1.22,11.83,11.83,0,0,1-2.58.3,7.28,7.28,0,0,1-2.11-.34,5.47,5.47,0,0,1-1.77-.9,4,4,0,0,1-1.2-1.5,4.73,4.73,0,0,1-.44-2.09,5,5,0,0,1,.77-2.72,8,8,0,0,1,1.93-2.05,11.7,11.7,0,0,1,2.62-1.5,28.83,28.83,0,0,1,2.84-1l5.44-24.85,7.12.06-5,22.86a11,11,0,0,0,2.05-.91,6.93,6.93,0,0,0,1.68-1.36,9.47,9.47,0,0,0,1.39-2,19.35,19.35,0,0,0,1.15-2.78l2.07,0a17.28,17.28,0,0,1-1.78,4.08,11.74,11.74,0,0,1-2.24,2.68,9.33,9.33,0,0,1-2.41,1.58,13.53,13.53,0,0,1-2.38.83l-.75,3.56Zm7.59-35.19a3.93,3.93,0,0,1-.34,1.53,3.49,3.49,0,0,1-.85,1.21,4.39,4.39,0,0,1-1.24.82,4,4,0,0,1-1.54.3,4.06,4.06,0,0,1-1.53-.32,4.25,4.25,0,0,1-1.24-.82,3.6,3.6,0,0,1-1.09-2.78,4.13,4.13,0,0,1,.28-1.54,3.92,3.92,0,0,1,.85-1.24,4.24,4.24,0,0,1,1.26-.83,3.58,3.58,0,0,1,1.53-.31,3.8,3.8,0,0,1,1.54.33,3.62,3.62,0,0,1,1.22.85,3.89,3.89,0,0,1,.83,1.26,3.79,3.79,0,0,1,.32,1.54ZM177.09,266c-.64.24-1.24.5-1.83.77a8.31,8.31,0,0,0-1.56.91,4.29,4.29,0,0,0-1.06,1.12,2.46,2.46,0,0,0-.4,1.36,2.24,2.24,0,0,0,.08.57,1.42,1.42,0,0,0,.3.53,1.47,1.47,0,0,0,.53.38,1.86,1.86,0,0,0,.75.14,2.18,2.18,0,0,0,1.59-1.07,8.93,8.93,0,0,0,1.29-3.29l.31-1.42Zm34.71-10.36a7,7,0,0,0-.18.84,5,5,0,0,0-.06.77,1.77,1.77,0,0,0,.49,1.44,2.49,2.49,0,0,0,1.54.39,2.27,2.27,0,0,0,.59,0,1.6,1.6,0,0,0,.48-.18c-.35.85-.68,1.6-1,2.22a6.58,6.58,0,0,1-1,1.56,3.38,3.38,0,0,1-1.25.89,4.56,4.56,0,0,1-1.69.29,4.64,4.64,0,0,1-3.29-1.2,5.62,5.62,0,0,1-1.54-3.41,14.49,14.49,0,0,1-1.28,1.66,10,10,0,0,1-1.65,1.46,8,8,0,0,1-2,1,7.8,7.8,0,0,1-4.87,0A5.42,5.42,0,0,1,193,262a6.93,6.93,0,0,1-1.44-2.46,10.66,10.66,0,0,1-.53-3.71,20.79,20.79,0,0,1,.35-3.64,22.39,22.39,0,0,1,1-3.86,22.64,22.64,0,0,1,1.79-3.67,14.32,14.32,0,0,1,2.48-3.11,11.18,11.18,0,0,1,3.2-2.15,9.25,9.25,0,0,1,3.94-.79,5.11,5.11,0,0,1,3,.75,2.17,2.17,0,0,1,1,1.79l0,.34.55-2.6,7.11,0-3.64,16.75Zm-4.49-12.1a1.78,1.78,0,0,0-.1-.54,1.57,1.57,0,0,0-.32-.63,1.81,1.81,0,0,0-.61-.51,2.16,2.16,0,0,0-1-.21,3.29,3.29,0,0,0-2,.65,7.59,7.59,0,0,0-1.73,1.79,14.23,14.23,0,0,0-1.38,2.54,26.73,26.73,0,0,0-1.06,2.92,24.39,24.39,0,0,0-.65,2.95,17.22,17.22,0,0,0-.22,2.62,6.78,6.78,0,0,0,.24,2.19,3.28,3.28,0,0,0,.63,1.16,1.6,1.6,0,0,0,.81.46,5.65,5.65,0,0,0,.78.06,2.8,2.8,0,0,0,1.15-.26,3.91,3.91,0,0,0,1.2-.81,6.55,6.55,0,0,0,1.77-3.27l2.43-11.11Zm12.44,20.08,6.95-31.36,7.29-.94-2.4,10.94h.31a5.62,5.62,0,0,0,2.76-.71,7.81,7.81,0,0,0,2.25-1.84,9.35,9.35,0,0,0,1.54-2.58,7.62,7.62,0,0,0,.61-2.82,5.61,5.61,0,0,0-.36-2,4.66,4.66,0,0,0-1.12-1.71,5.66,5.66,0,0,0-2-1.2,8.41,8.41,0,0,0-3-.46,13.62,13.62,0,0,0-3,.3,11.37,11.37,0,0,0-2.84,1,13,13,0,0,0-2.58,1.62,10.12,10.12,0,0,0-2.11,2.31,11.44,11.44,0,0,0-1.42,3,11.92,11.92,0,0,0-.53,3.69,8.37,8.37,0,0,0,.08,1.53,6.65,6.65,0,0,0,.25.95,5.46,5.46,0,0,0,.24.55.61.61,0,0,1,.12.32,6.53,6.53,0,0,1-3.9-1,4.1,4.1,0,0,1-1.36-3.53,8.9,8.9,0,0,1,.69-3.33,12.26,12.26,0,0,1,1.91-3.09,15.49,15.49,0,0,1,2.92-2.64,20.56,20.56,0,0,1,3.68-2.07,21.29,21.29,0,0,1,4.22-1.38,20.43,20.43,0,0,1,4.57-.47,15.36,15.36,0,0,1,4.69.69,9.76,9.76,0,0,1,3.27,1.77,6.9,6.9,0,0,1,1.89,2.54,7.33,7.33,0,0,1,.63,2.94,8.57,8.57,0,0,1-.35,2.23,7.66,7.66,0,0,1-1,2.11,10.61,10.61,0,0,1-1.57,1.91,9.45,9.45,0,0,1-2.15,1.55,6.86,6.86,0,0,1,2.7,1.07,6.25,6.25,0,0,1,1.81,1.85,7.5,7.5,0,0,1,1,2.38,11.34,11.34,0,0,1,.31,2.7,21,21,0,0,1-.26,2.7,20.69,20.69,0,0,1-.78,3.1,17.72,17.72,0,0,1-1.34,3.09,10.89,10.89,0,0,1-2,2.68,10,10,0,0,1-2.82,1.87,8.71,8.71,0,0,1-3.67.71,9,9,0,0,1-1.67-.17,4.38,4.38,0,0,1-1.58-.56,3.33,3.33,0,0,1-1.18-1.12,3.4,3.4,0,0,1-.45-1.85,6.22,6.22,0,0,1,.15-1.32,9.1,9.1,0,0,1,.5-1.54,6.81,6.81,0,0,0,1.69,1.42,3.47,3.47,0,0,0,1.6.39,3.24,3.24,0,0,0,2.3-.84,6.81,6.81,0,0,0,1.52-2.17,11.79,11.79,0,0,0,.85-2.86,18.82,18.82,0,0,0,.27-3,11.69,11.69,0,0,0-.21-2.41,5.25,5.25,0,0,0-.75-2,4.05,4.05,0,0,0-1.44-1.38,4.68,4.68,0,0,0-2.23-.53l-1,0c-.4,0-.85.06-1.32.12l-4.16,18.88-7.13,0Zm55.06-8.49a23.13,23.13,0,0,1-1.54,3.49,13.9,13.9,0,0,1-1.73,2.46,9.26,9.26,0,0,1-1.81,1.62,9.47,9.47,0,0,1-1.78,1,8.17,8.17,0,0,1-1.67.42,8.54,8.54,0,0,1-1.44.13,4.83,4.83,0,0,1-3.33-1.16,5.29,5.29,0,0,1-1.5-3.41,16.84,16.84,0,0,1-1.32,1.66,9.94,9.94,0,0,1-1.62,1.42,7.61,7.61,0,0,1-2,1,7.83,7.83,0,0,1-4.88,0,5.49,5.49,0,0,1-2.09-1.38,7.08,7.08,0,0,1-1.44-2.46,10.66,10.66,0,0,1-.53-3.71,20.79,20.79,0,0,1,.35-3.64,23,23,0,0,1,1.05-3.85,22.35,22.35,0,0,1,1.79-3.68,14.32,14.32,0,0,1,2.48-3.11,11.18,11.18,0,0,1,3.2-2.15,9.28,9.28,0,0,1,3.94-.79,5.19,5.19,0,0,1,3.05.75,2.17,2.17,0,0,1,.95,1.79l0,.34.55-2.6,7.11,0L266.93,256a7,7,0,0,0-.18.84,5,5,0,0,0-.06.77c0,1.41.65,2.11,2,2.11a2.47,2.47,0,0,0,1.34-.35,4.07,4.07,0,0,0,1.14-1,7.26,7.26,0,0,0,.89-1.48,11.58,11.58,0,0,0,.67-1.79Zm-12.36-11.21a1.84,1.84,0,0,0-.11-.54,1.57,1.57,0,0,0-.32-.63,1.81,1.81,0,0,0-.61-.51,2.15,2.15,0,0,0-1-.2,3.21,3.21,0,0,0-2,.65,7.35,7.35,0,0,0-1.73,1.78,14.89,14.89,0,0,0-1.38,2.54,26.73,26.73,0,0,0-1.06,2.92,24.39,24.39,0,0,0-.65,2.95,17.22,17.22,0,0,0-.22,2.62,6.7,6.7,0,0,0,.25,2.19,3.13,3.13,0,0,0,.62,1.16,1.52,1.52,0,0,0,.82.46,5.4,5.4,0,0,0,.77.06,2.8,2.8,0,0,0,1.15-.26,3.91,3.91,0,0,0,1.2-.81A6.55,6.55,0,0,0,260,255l2.44-11.11ZM271,264l5.4-24.65,7.1.06-.62,3.05c.43-.38.87-.75,1.31-1.12a10.91,10.91,0,0,1,1.43-1,7,7,0,0,1,1.54-.67,5.19,5.19,0,0,1,1.68-.27,3.42,3.42,0,0,1,1.47.35,3,3,0,0,1,1.07.81,3.17,3.17,0,0,1,.65,1.18,4.93,4.93,0,0,1,.2,1.4,4,4,0,0,1-.22,1.3,3.32,3.32,0,0,1-.67,1.13,3.55,3.55,0,0,1-1.12.84,3.32,3.32,0,0,1-1.56.3,2.09,2.09,0,0,1-1.1-.24,1.8,1.8,0,0,1-.56-.61,2.72,2.72,0,0,1-.27-.77,6,6,0,0,0-.16-.8,2.09,2.09,0,0,0-.24-.6.59.59,0,0,0-.53-.27,3.26,3.26,0,0,0-1.89.53,16.09,16.09,0,0,0-1.72,1.34L278.1,264,271,264Zm40.87-7.63a6.51,6.51,0,0,0-.18.83,5.09,5.09,0,0,0-.06.77,1.76,1.76,0,0,0,.49,1.44,2.49,2.49,0,0,0,1.54.39,2.28,2.28,0,0,0,.59,0,1.5,1.5,0,0,0,.48-.18c-.35.85-.68,1.59-1,2.21a6.38,6.38,0,0,1-1,1.56,3.3,3.3,0,0,1-1.25.9,4.78,4.78,0,0,1-1.69.28,4.6,4.6,0,0,1-3.29-1.2,5.57,5.57,0,0,1-1.54-3.41,15.5,15.5,0,0,1-1.28,1.67A10.38,10.38,0,0,1,302,263a8.19,8.19,0,0,1-2,1,7.35,7.35,0,0,1-2.42.39,7.51,7.51,0,0,1-2.46-.41,5.38,5.38,0,0,1-2.09-1.38,7,7,0,0,1-1.44-2.45,10.76,10.76,0,0,1-.53-3.72,20.68,20.68,0,0,1,.35-3.63,23.07,23.07,0,0,1,1.05-3.86,22.74,22.74,0,0,1,1.79-3.68,14.26,14.26,0,0,1,2.48-3.1,10.78,10.78,0,0,1,3.2-2.15,9.29,9.29,0,0,1,3.94-.8,5.18,5.18,0,0,1,3,.76,2.15,2.15,0,0,1,1,1.78l0,.35.55-2.6,7.11,0Zm-4.48-12.1a1.9,1.9,0,0,0-.11-.55,1.64,1.64,0,0,0-.32-.63,1.93,1.93,0,0,0-.61-.51,2.16,2.16,0,0,0-1-.2,3.18,3.18,0,0,0-2,.65,7.59,7.59,0,0,0-1.73,1.79,14.41,14.41,0,0,0-1.38,2.53,26.89,26.89,0,0,0-1.06,2.93,24.67,24.67,0,0,0-.65,2.94,17.42,17.42,0,0,0-.22,2.62,7,7,0,0,0,.24,2.19,3.19,3.19,0,0,0,.63,1.16,1.54,1.54,0,0,0,.82.47,5.4,5.4,0,0,0,.77.06,2.82,2.82,0,0,0,1.15-.27,3.74,3.74,0,0,0,1.2-.81,6,6,0,0,0,1-1.36,6.44,6.44,0,0,0,.73-1.91" fill="#090909"/>
    </g>
  </g>
  <path d="M779.37,314a4.67,4.67,0,0,0-4.56,3.69h6.5V334h-6.5a4.66,4.66,0,0,0,9.21-1V318.66a4.66,4.66,0,0,0-4.65-4.66Z" fill="#3f3d56"/>
  <path d="M727,285.47a8.37,8.37,0,0,0-8.37,8.37v64.38A8.38,8.38,0,0,0,727,366.6h40.7a8.4,8.4,0,0,0,8.38-8.38V293.84a8.39,8.39,0,0,0-8.38-8.37Z" fill="#3f3d56"/>
  <circle cx="722.69" cy="369.9" r="4.27" fill="#3f3d56"/>
  <circle cx="770.44" cy="369.9" r="4.27" fill="#3f3d56"/>
  <rect x="725.8" y="284.89" width="2.33" height="81.9" fill="#4d4d4d"/>
  <rect x="732.4" y="284.89" width="2.33" height="81.9" fill="#4d4d4d"/>
  <rect x="739" y="284.89" width="2.33" height="81.9" fill="#4d4d4d"/>
  <rect x="745.59" y="284.89" width="2.33" height="81.9" fill="#4d4d4d"/>
  <rect x="752.19" y="284.89" width="2.33" height="81.9" fill="#4d4d4d"/>
  <rect x="758.79" y="284.89" width="2.33" height="81.9" fill="#4d4d4d"/>
  <rect x="765.39" y="284.89" width="2.33" height="81.9" fill="#4d4d4d"/>
  <path d="M767.09,278.68a16.79,16.79,0,0,0,2.33-8.54H728.18a16.88,16.88,0,0,0,2.32,8.54h-8.39a8.33,8.33,0,0,0,8.49,8.15H741a18.86,18.86,0,0,0,5.38.77h4.85a18.81,18.81,0,0,0,5.38-.77H767a8.33,8.33,0,0,0,8.49-8.15Z" fill="#2f2e41"/>
  <path d="M736.63,337.48a4.12,4.12,0,0,1-2.27,4.07h0c-3.88,2.21-7.06,3.95-10.83,3.63a2.46,2.46,0,0,1-2.1-3.33l5.36-10.2c3.11-3.63,5.31-3.63,9.12-.58Z" fill="#2f2e41"/>
  <path d="M758.83,337.48a4.12,4.12,0,0,0,2.27,4.07h0c3.88,2.21,7.06,3.95,10.83,3.63a2.46,2.46,0,0,0,2.1-3.33l-5.36-10.2c-3.11-3.63-5.31-3.63-9.12-.58Z" fill="#2f2e41"/>
  <path d="M743.24,217.35H728.32a3.15,3.15,0,0,1-3-2.24,16.73,16.73,0,0,1-1.06-4.36c0-5.23.22-8.56,2.52-10.68,7.66-5.81,13.21-4.74,18.44,1.36,1.83,3.41,1.36,8.49.37,14A2.39,2.39,0,0,1,743.24,217.35Z" fill="#2f2e41"/>
  <circle cx="735.5" cy="213.85" r="10.09" fill="#a0616a"/>
  <polygon points="743.27 234.04 729.29 234.43 728.13 219.29 741.71 218.9 743.27 234.04" fill="#a0616a"/>
  <path d="M766.94,270.14l-9.64,4.46c-1.61,3.83-3.84,3.72-6.66-.19-2.69,4.71-8.48,1.88-11.31-.17a13,13,0,0,0-11.79,0L717.26,228.6c3.17-2.72,7.39-4.44,11.45-5.63l8,9.9,5.43-9.7c3.78-3,9.08-3,14.75-2.33l3.31,17.69C758,252.49,761.26,259.49,766.94,270.14Z" fill="#6c63ff"/>
  <path d="M735.11,330.3l-8.15.78-12.07-53.37a8.45,8.45,0,0,1,6.42-10.09,8.62,8.62,0,0,1,1.83-.2h0a8.45,8.45,0,0,1,8.46,8.45,8.29,8.29,0,0,1-.08,1.11l-1.45,11Z" fill="#2f2e41"/>
  <path d="M759.57,331.08l8.15-.39,12.08-53a8.46,8.46,0,0,0-6.42-10.09,8.71,8.71,0,0,0-1.84-.2h0a8.45,8.45,0,0,0-8.45,8.45,8.27,8.27,0,0,0,.07,1.11l1.46,11Z" fill="#2f2e41"/>
  <path d="M786.06,254.49l-6.89,17.78c-3.77-2.88-6.81-3.27-11-1.74-1.15-.17-2-2.71-2-3.87h0a2.34,2.34,0,0,1,2.23-2.34l6.31-.29a33.05,33.05,0,0,0,2.08-9.42A17.78,17.78,0,0,1,786.06,254.49Z" fill="#a0616a"/>
  <path d="M786.74,255l1.68-6.27a10.55,10.55,0,0,0-4.76-12.35l-26.81-15.54-.39,17.08,19.8,8.54a34.76,34.76,0,0,1,.53,8.82A19.21,19.21,0,0,1,786.74,255Z" fill="#6c63ff"/>
  <path d="M745.4,208.22l-10.48,1.94a7.38,7.38,0,0,1-7.38-7.37h18.25Z" fill="#2f2e41"/>
  <ellipse cx="726.19" cy="210.16" rx="0.97" ry="1.94" fill="#a0616a"/>
  <path d="M758.21,241.06h-.11V238a1.79,1.79,0,0,0-1.79-1.79h-6.54A1.79,1.79,0,0,0,748,238h0v16.94a1.79,1.79,0,0,0,1.79,1.79h6.54a1.79,1.79,0,0,0,1.79-1.79h0V243.25h.11Z" fill="#e6e6e6"/>
  <circle cx="752.78" cy="241.22" r="1.55" fill="#6c63ff"/>
  <path d="M751.42,255.39c-8,6.26-16,11.48-21.93,12.22l-1-10.67c5.7-.82,13.33-4.58,21.34-8.93l3.92-2a4.32,4.32,0,0,1,5.82,1.84,4.53,4.53,0,0,1,.47,1.66h0a4.32,4.32,0,0,1-3.21,4.5Z" fill="#a0616a"/>
  <path d="M736.28,267.81l-15.92.39a60.38,60.38,0,0,1-6.21-33.56,7.83,7.83,0,0,1,3.37-6.43l1.68-1.16c7.16,10.63,11.61,20.51,10.09,28.72l4.66-.38C730.93,259.46,732.33,263.61,736.28,267.81Z" fill="#6c63ff"/>
  <path d="M398,58.48c-12.21,0-17.45,17.68-29.4,20.2-5.34,1.12-10.79-1.12-16.24-1.21s-12,3.86-10.82,9.19l104-1.57A47.8,47.8,0,0,1,417,71.7C411.37,66.09,406,58.47,398,58.48Z" fill="#f0f0f0"/>
  <path d="M240,91.23c-11.39-11.33-22.3-26.74-38.37-26.73-24.69,0-35.3,35.76-59.47,40.84-10.79,2.27-21.8-2.24-32.83-2.44s-24.21,7.81-21.88,18.59l210.22-3.17A96.64,96.64,0,0,1,240,91.23Z" fill="#f0f0f0"/>
</svg>
