<svg id="carro_copia" data-name="carro copia" xmlns="http://www.w3.org/2000/svg" viewBox="0 0 217.47 75.91"><title>logo_viajabara2</title><path d="M262.84,418.22a12.46,12.46,0,1,1,10.78-18.68,12.46,12.46,0,0,1-10.78,18.68Zm0-19.79a7.26,7.26,0,0,0-3.66,1,7.33,7.33,0,1,0,10.74,8.24,7.25,7.25,0,0,0-.73-5.56A7.37,7.37,0,0,0,262.83,398.43Z" transform="translate(-177.95 -343.06)" fill="#1d1d1b"/><path d="M262.82,393.81a12,12,0,0,1,10.37,6,12,12,0,1,1-10.37-6m0,19.78a7.82,7.82,0,0,0,3.91-1,7.83,7.83,0,0,0,2.86-10.69,7.83,7.83,0,1,0-6.77,11.74m0-20.78a13,13,0,1,0,11.23,6.48,12.87,12.87,0,0,0-11.23-6.48Zm0,19.78a6.82,6.82,0,1,1,3.41-.91,6.82,6.82,0,0,1-3.41.91Z" transform="translate(-177.95 -343.06)" fill="#1d1d1b"/><path d="M269.65,405.77a6.63,6.63,0,0,0-.91-3.42,6.82,6.82,0,0,0-9.31-2.5h0a6.84,6.84,0,1,0,10.23,5.92Z" transform="translate(-177.95 -343.06)" fill="none"/><path d="M269.17,408.3a6.83,6.83,0,1,1-11.69-6.77l-5.33-3.08a12.95,12.95,0,1,0,22.35,12.94Z" transform="translate(-177.95 -343.06)" fill="none"/><path d="M268.74,402.35a6.63,6.63,0,0,1,.91,3.42l5.71,3.3a13,13,0,0,0,.13-6.05l-16.59-9.6a13.64,13.64,0,0,0-2.55,1.12,13,13,0,0,0-2.61,2l5.69,3.3A6.82,6.82,0,0,1,268.74,402.35Z" transform="translate(-177.95 -343.06)" fill="none"/><path d="M274.05,399.29a13,13,0,0,0-15.15-5.87l16.59,9.6A12.64,12.64,0,0,0,274.05,399.29Z" transform="translate(-177.95 -343.06)" fill="#333"/><path d="M269.17,408.3l5.33,3.09a13.23,13.23,0,0,0,.86-2.32l-5.71-3.3A6.85,6.85,0,0,1,269.17,408.3Z" transform="translate(-177.95 -343.06)" fill="#333"/><path d="M259.42,399.85h0l-5.69-3.3a12.42,12.42,0,0,0-1.59,1.9l5.33,3.08A6.87,6.87,0,0,1,259.42,399.85Z" transform="translate(-177.95 -343.06)" fill="#333"/><path d="M366.82,418.47a12.46,12.46,0,0,1,0-24.92,12.47,12.47,0,0,1,10.78,18.69,12.51,12.51,0,0,1-10.8,6.23Zm0-19.79a7.34,7.34,0,1,0,3.66,1A7.34,7.34,0,0,0,366.84,398.68Z" transform="translate(-177.95 -343.06)" fill="#1d1d1b"/><path d="M366.84,394.05a12,12,0,1,1-10.36,6,12,12,0,0,1,10.36-6m0,19.79a7.83,7.83,0,1,0-3.91-1,7.85,7.85,0,0,0,3.91,1m0-20.79a13,13,0,1,0,6.47,1.74,13,13,0,0,0-6.47-1.74Zm0,19.79a6.83,6.83,0,1,1,5.91-3.41,6.79,6.79,0,0,1-5.91,3.41Z" transform="translate(-177.95 -343.06)" fill="#1d1d1b"/><path d="M373.65,405.74a6.69,6.69,0,0,0-.91-3.14,6.82,6.82,0,0,0-9.07-2.63l-.25.13a6.71,6.71,0,0,0-1.79,1.5,6.83,6.83,0,1,0,11.62,6.73A6.7,6.7,0,0,0,373.65,405.74Z" transform="translate(-177.95 -343.06)" fill="none"/><path d="M373.25,408.33a6.82,6.82,0,1,1-11.62-6.73l-5.35-3.09a12.95,12.95,0,0,0,17,18.72,12.8,12.8,0,0,0,5.28-5.81Z" transform="translate(-177.95 -343.06)" fill="none"/><path d="M372.74,402.6a6.69,6.69,0,0,1,.91,3.14l5.76,3.34a13.05,13.05,0,0,0,0-6.12l-16.2-9.38a12.52,12.52,0,0,0-5.31,3.05l5.76,3.34A6.82,6.82,0,0,1,372.74,402.6Z" transform="translate(-177.95 -343.06)" fill="none"/><path d="M378.05,399.53a13,13,0,0,0-14.83-5.95l16.2,9.38A13,13,0,0,0,378.05,399.53Z" transform="translate(-177.95 -343.06)" fill="#333"/><path d="M363.42,400.1l.25-.13-5.76-3.34a13.16,13.16,0,0,0-1.63,1.88l5.35,3.09A6.71,6.71,0,0,1,363.42,400.1Z" transform="translate(-177.95 -343.06)" fill="#333"/><path d="M373.25,408.33l5.34,3.09a13.27,13.27,0,0,0,.82-2.34l-5.76-3.34A6.7,6.7,0,0,1,373.25,408.33Z" transform="translate(-177.95 -343.06)" fill="#333"/><path d="M278.87,402.61a1.6,1.6,0,0,0-.05-.21A1.6,1.6,0,0,1,278.87,402.61Z" transform="translate(-177.95 -343.06)" fill="#fd1400"/><polygon points="101.41 63.57 173.61 63.31 101.41 63.57 101.41 63.57" fill="#fd1400"/><path d="M229.16,401.11h0c0-2.31.12-13.77,1.3-25.75A243.27,243.27,0,0,0,229.16,401.11Z" transform="translate(-177.95 -343.06)" fill="#fd1400"/><path d="M395.42,391.23c-.78-8.34-17.42-20.42-31.19-22,0,0-19.93-21.62-30.92-26.22H241.24a13.74,13.74,0,0,0-3.77,4.38l91.43.39c10.52,4.25,29.61,24.26,29.61,24.26,13.19,1.41,33.54,11.81,34.3,19.53l-.17,15.27H395Z" transform="translate(-177.95 -343.06)" fill="#fd1400"/><path d="M279.25,404.86a18.78,18.78,0,0,0-.34-2.07C279.08,403.57,279.18,404.27,279.25,404.86Z" transform="translate(-177.95 -343.06)" fill="#fd1400"/><path d="M358.51,372.09s-19.09-20-29.61-24.26l-91.43-.39h-.06c-3.8,5-5.85,16.69-6.95,27.92-1.18,12-1.29,23.44-1.3,25.75v.43c.74,4.41,11.21,4.64,11.21,4.64l7.2-.05s.24-14.93,15.52-14.93c11.09.06,14.62,6.65,15.73,11.2a1.6,1.6,0,0,1,.05.21,1.16,1.16,0,0,1,0,.18,18.78,18.78,0,0,1,.34,2.07,13.67,13.67,0,0,1,.08,1.78h0l72.2-.26s.61-15.66,14.56-15.73c17.82,0,16.24,16.24,16.24,16.24h10.27l.17-15.27C392.05,383.9,371.7,373.5,358.51,372.09Z" transform="translate(-177.95 -343.06)" fill="#cc1400"/><g id="flecha_copia" data-name="flecha copia"><g id="rojo"><polygon points="1.87 49.05 15.68 41.1 135.97 41.1 135.97 49.05 1.87 49.05" fill="#1d1d1b"/><path d="M313.42,384.67v6.95H181.69l12.07-6.95H313.42m1-1H193.5L178,392.62H314.42v-8.95Z" transform="translate(-177.95 -343.06)" fill="#1d1d1b"/></g><polygon points="136.97 40.1 17.41 40.1 35.75 29.55 136.47 29.49 170.21 29.54 136.97 48.69 136.97 40.1" fill="#1d1d1b"/><path d="M314.42,373.06h0l31.88,0-30.88,17.79v-8.22H197.24l16.59-9.56,100.59-.05m0-1-100.8.05h-.05L193.5,383.67H314.42v8.95L350,372.11h0l-35.61-.05Z" transform="translate(-177.95 -343.06)" fill="#1d1d1b"/><polygon points="169.47 28.54 136.97 12.18 136.97 9.3 170.21 28.54 169.47 28.54" fill="#1d1d1b"/><path d="M315.42,353.23l22.63,13.1-22.63-11.4v-1.7m-1-1.73v4.05l32.88,16.56-32.88-.05,35.61.05L314.42,351.5Z" transform="translate(-177.95 -343.06)" fill="#1d1d1b"/><path d="M233.59,361.16h80.83a.5.5,0,0,0,.5-.5v-4.3l30.27,15.24-30.77,0-99,.05Z" transform="translate(-177.95 -343.06)" fill="#1d1d1b"/><path d="M315.42,357.17l27.66,13.93-28.66,0-97.11.05,16.41-9.45h80.7a1,1,0,0,0,1-1v-3.49m-1-1.62v5.11h-81l-19.88,11.45h.05l100.8-.05,32.88.05-32.88-16.56Z" transform="translate(-177.95 -343.06)" fill="#1d1d1b"/><g id="rojo-2" data-name="rojo"><polygon points="2.87 48.05 16.68 40.1 136.97 40.1 136.97 48.05 2.87 48.05" fill="#1d1d1b"/><path d="M314.42,383.67v6.95H182.69l12.07-6.95H314.42m1-1H194.5L179,391.62H315.42v-8.95Z" transform="translate(-177.95 -343.06)" fill="#1d1d1b"/></g><polygon points="137.97 39.1 18.41 39.1 36.75 28.55 137.47 28.49 171.21 28.54 137.97 47.69 137.97 39.1" fill="#1d1d1b"/><path d="M315.42,372.06h0l31.88,0-30.88,17.79v-8.22H198.24l16.59-9.56,100.59-.05m0-1-100.8.05h-.05L194.5,382.67H315.42v8.95L351,371.11h0l-35.61-.05Z" transform="translate(-177.95 -343.06)" fill="#1d1d1b"/><polygon points="170.47 27.54 137.97 11.18 137.97 8.3 171.21 27.54 170.47 27.54" fill="#1d1d1b"/><path d="M316.42,352.23l22.63,13.1-22.63-11.4v-1.7m-1-1.73v4.05l32.88,16.56-32.88-.05,35.61.05L315.42,350.5Z" transform="translate(-177.95 -343.06)" fill="#1d1d1b"/><path d="M234.59,360.16h80.83a.5.5,0,0,0,.5-.5v-4.3l30.27,15.24-30.77,0-99,.05Z" transform="translate(-177.95 -343.06)" fill="#1d1d1b"/><path d="M316.42,356.17l27.66,13.93-28.66,0-97.11.05,16.41-9.45h80.7a1,1,0,0,0,1-1v-3.49m-1-1.62v5.11h-81l-19.88,11.45h.05l100.8-.05,32.88.05-32.88-16.56Z" transform="translate(-177.95 -343.06)" fill="#1d1d1b"/><g id="rojo-3" data-name="rojo"><polygon points="2.87 48.05 16.68 40.1 136.97 40.1 136.97 48.05 2.87 48.05" fill="#b31400"/><path d="M314.42,383.67v6.95H182.69l12.07-6.95H314.42m1-1H194.5L179,391.62H315.42v-8.95Z" transform="translate(-177.95 -343.06)" fill="#b31400"/></g><polygon points="137.97 39.1 18.41 39.1 36.75 28.55 137.47 28.49 171.21 28.54 137.97 47.69 137.97 39.1" fill="#fff"/><path d="M315.42,372.06h0l31.88,0-30.88,17.79v-8.22H198.24l16.59-9.56,100.59-.05m0-1-100.8.05h-.05L194.5,382.67H315.42v8.95L351,371.11h0l-35.61-.05Z" transform="translate(-177.95 -343.06)" fill="#fff"/><polygon points="170.47 27.54 137.97 11.18 137.97 8.3 171.21 27.54 170.47 27.54" fill="#0cc"/><path d="M316.42,352.23l22.63,13.1-22.63-11.4v-1.7m-1-1.73v4.05l32.88,16.56-32.88-.05,35.61.05L315.42,350.5Z" transform="translate(-177.95 -343.06)" fill="#0cc"/><path d="M234.59,360.16h80.83a.5.5,0,0,0,.5-.5v-4.3l30.27,15.24-30.77,0-99,.05Z" transform="translate(-177.95 -343.06)" fill="#0cc"/><path d="M316.42,356.17l27.66,13.93-28.66,0-97.11.05,16.41-9.45h80.7a1,1,0,0,0,1-1v-3.49m-1-1.62v5.11h-81l-19.88,11.45h.05l100.8-.05,32.88.05-32.88-16.56Z" transform="translate(-177.95 -343.06)" fill="#0cc"/><path d="M250.6,363.55a2.51,2.51,0,0,1,.9.24,2.16,2.16,0,0,1,.93.8,1.87,1.87,0,0,1,.27,1,4.12,4.12,0,0,1,0,.48,4.2,4.2,0,0,0-.86-.1,5.05,5.05,0,0,0-3.76,2.16,32.93,32.93,0,0,0-3.56,5.32,43.57,43.57,0,0,1-2.75,4.32,3.71,3.71,0,0,1-2.82,1.85c-1.22,0-1.88-.82-2-2.45,0-.32,0-.66,0-1a25.3,25.3,0,0,1,.54-4.8c.36-1.82.73-3.45,1.11-4.87,0-.14.07-.28.1-.41a2,2,0,0,0,0-.4c0-.43-.18-.68-.54-.74l-.24,0a1.85,1.85,0,0,0-1.17.52,2.19,2.19,0,0,0-.75,1.3,1.15,1.15,0,0,0,0,.18,1.19,1.19,0,0,0,.32.85.94.94,0,0,0,.74.37c0,.05,0,.1,0,.15a1.06,1.06,0,0,1-.53.9,2.38,2.38,0,0,1-1.35.39h-.42a1.41,1.41,0,0,1-.93-.57,1.63,1.63,0,0,1-.38-1.15,4.48,4.48,0,0,1,.07-.69,3.94,3.94,0,0,1,1.11-2.09,5.31,5.31,0,0,1,1.76-1.09,7.52,7.52,0,0,1,1.64-.41l.7-.06a3.28,3.28,0,0,1,2.15.68,1.67,1.67,0,0,1,.61,1.38,3.86,3.86,0,0,1-.08.72c-.16.63-.35,1.35-.58,2.17-.35,1.26-.69,2.54-1,3.86a26.45,26.45,0,0,0-.63,3.36c0,.17,0,.32,0,.46,0,.61.15.92.47.92.5,0,1-.46,1.55-1.38s1.12-2,1.74-3.36a43.65,43.65,0,0,1,3.27-6Q248.05,363.56,250.6,363.55Z" transform="translate(-177.95 -343.06)" fill="#1d1d1b"/><path d="M248,368.77a2,2,0,0,1,1.06.31,1.29,1.29,0,0,1,.65.88c0,.11-.08.22-.13.33-.29.69-.59,1.43-.9,2.23a14.68,14.68,0,0,0-.66,2.09,2.15,2.15,0,0,0-.06.46c0,.29.1.43.3.43s.71-.35,1.23-1.05a18.54,18.54,0,0,0,1.45-2.38h.85l-.43.85c-.29.57-.67,1.21-1.14,1.94a10.79,10.79,0,0,1-1.58,1.92,2.72,2.72,0,0,1-1.74.86,1.46,1.46,0,0,1-1.45-1.63,10.14,10.14,0,0,1,1-4A30.94,30.94,0,0,1,248,368.77Zm1.69-2.62a1,1,0,0,1,.77.32,1.06,1.06,0,0,1,.32.78,1,1,0,0,1-.32.75,1.06,1.06,0,0,1-.77.32A1,1,0,0,1,249,368a1,1,0,0,1-.31-.75,1.06,1.06,0,0,1,.31-.78A1,1,0,0,1,249.73,366.15Z" transform="translate(-177.95 -343.06)" fill="#1d1d1b"/><path d="M254.53,368.77a2.2,2.2,0,0,1,1.27.4,2.23,2.23,0,0,1,.77,1.41c.25-.53.46-1,.63-1.3l.25-.51a2,2,0,0,1,1.07.32,1.41,1.41,0,0,1,.67.91c-.3.67-.62,1.44-.95,2.29a17.74,17.74,0,0,0-.74,2.26,3.07,3.07,0,0,0-.07.54c0,.29.1.44.31.44s.71-.35,1.23-1.07a18.68,18.68,0,0,0,1.45-2.39h.84l-.43.85a20.29,20.29,0,0,1-1.14,1.94,11.26,11.26,0,0,1-1.57,1.95,2.52,2.52,0,0,1-1.74.85c-1,0-1.47-.47-1.47-1.42,0-.06,0-.13,0-.19a3.53,3.53,0,0,1-2.71,1.61c-1.34,0-2-.74-2.06-2.22v-.16a8.8,8.8,0,0,1,1.24-4.33A3.61,3.61,0,0,1,254.53,368.77Zm.58,2c-.47.06-1,.53-1.52,1.4a5.08,5.08,0,0,0-.72,2.29v.11q0,.93.66.93a1.22,1.22,0,0,0,.88-.58,6.06,6.06,0,0,0,.82-1.34,5.36,5.36,0,0,0,.46-1.41c0-.2,0-.37,0-.52,0-.59-.17-.88-.5-.88Z" transform="translate(-177.95 -343.06)" fill="#1d1d1b"/><path d="M261.24,368.77a1.77,1.77,0,0,1,1.85,1.2l-.12.51a49.63,49.63,0,0,1-2.19,7.5c-1,2.6-2.43,3.89-4.35,3.89a1.4,1.4,0,0,1-1.51-.89,1.75,1.75,0,0,1-.11-.58,1.49,1.49,0,0,1,.42-1,3.11,3.11,0,0,0,.67.07,3.41,3.41,0,0,0,3-2.14,16.73,16.73,0,0,0,1.7-4.91h0c-.16,0-.24,0-.24-.14a.45.45,0,0,1,.06-.19,8.21,8.21,0,0,0,.66-1.76A6.68,6.68,0,0,0,261.24,368.77Zm1.56-2.61a1.08,1.08,0,0,1,1.09,1.09,1,1,0,0,1-.32.75,1.06,1.06,0,0,1-.77.32A1.09,1.09,0,0,1,262,368a1,1,0,0,1-.33-.75,1.05,1.05,0,0,1,.33-.78A1.08,1.08,0,0,1,262.8,366.16Z" transform="translate(-177.95 -343.06)" fill="#1d1d1b"/><path d="M267.54,368.77a2.2,2.2,0,0,1,1.27.4,2.23,2.23,0,0,1,.77,1.41c.25-.53.46-1,.63-1.3l.25-.51a2.07,2.07,0,0,1,1.07.32,1.41,1.41,0,0,1,.67.91c-.3.67-.62,1.44-.95,2.29a17.74,17.74,0,0,0-.74,2.26,2.35,2.35,0,0,0-.07.54c0,.29.1.44.3.44s.72-.35,1.23-1.07a18.71,18.71,0,0,0,1.46-2.39h.84l-.43.85c-.29.57-.67,1.21-1.14,1.94a11.26,11.26,0,0,1-1.57,1.95,2.52,2.52,0,0,1-1.74.85c-1,0-1.47-.47-1.47-1.42a1.21,1.21,0,0,1,0-.19,3.53,3.53,0,0,1-2.71,1.61c-1.35,0-2-.74-2.06-2.22v-.16A8.7,8.7,0,0,1,264.4,371,3.61,3.61,0,0,1,267.54,368.77Zm.58,2c-.47.06-1,.53-1.52,1.4a5.08,5.08,0,0,0-.72,2.29v.11q0,.93.66.93a1.22,1.22,0,0,0,.88-.58,6.06,6.06,0,0,0,.82-1.34,5.36,5.36,0,0,0,.46-1.41c0-.2,0-.37,0-.52,0-.59-.16-.88-.49-.88Z" transform="translate(-177.95 -343.06)" fill="#1d1d1b"/><path d="M281.77,363.56l.21,0,.2,0h.2a5.5,5.5,0,0,1,3.68,1.47,3,3,0,0,1,1,2.18,3.51,3.51,0,0,1-1.2,2.67,6,6,0,0,1-1.49,1,7.14,7.14,0,0,1-1.32.49l-.56.14a6.68,6.68,0,0,1,3.17,1,3.49,3.49,0,0,1,1.81,3.21,4.37,4.37,0,0,1-1.23,2.73,3.78,3.78,0,0,1-2.94,1.25,3.12,3.12,0,0,1-2.54-.92,2.84,2.84,0,0,1-.71-1.85c0-.06,0-.28,0-.67a2,2,0,0,1,.78-1.25,1.83,1.83,0,0,0,.95,1.84,2.2,2.2,0,0,0,1,.22,2.87,2.87,0,0,0,1.18-.35c.48-.24.76-.81.86-1.71v0a2.06,2.06,0,0,0-.68-1.71,3,3,0,0,0-1.6-.64c-.24,0-.47,0-.69,0a4,4,0,0,0-.88.09,20.59,20.59,0,0,1-2.4,4.91,4.2,4.2,0,0,1-3.51,2.11c-1.27,0-2-.46-2.28-1.39a2.35,2.35,0,0,1-.09-.64,2.45,2.45,0,0,1,.94-1.85,2.42,2.42,0,0,0,1.54.68,3.14,3.14,0,0,0,2-1.22,10.94,10.94,0,0,0,2.06-3.83c.2-.55.4-1.11.59-1.69s.33-1,.51-1.51a2.23,2.23,0,0,1,1.63-1.51l.21,0c.56,0,1,.37,1.23,1.1a2.53,2.53,0,0,0-1,1,11.15,11.15,0,0,0-.73,1.64,4.77,4.77,0,0,0,2.2-1.18,2.77,2.77,0,0,0,.95-2.17c0-.12,0-.24,0-.37a2.42,2.42,0,0,0-2.06-1.93,4,4,0,0,0-3.16.75,3.61,3.61,0,0,0-1.33,3.15c0,.17,0,.34,0,.52q-1.75,0-2-1.41a3,3,0,0,1,0-.43,3.59,3.59,0,0,1,1.26-2.45C278.31,364.12,279.74,363.65,281.77,363.56Z" transform="translate(-177.95 -343.06)" fill="#1d1d1b"/><path d="M292.33,368.77a2,2,0,0,1,2,1.81c.25-.53.46-1,.63-1.3l.25-.51a2.08,2.08,0,0,1,1.08.32,1.41,1.41,0,0,1,.67.91c-.31.67-.62,1.44-1,2.29a17.52,17.52,0,0,0-.73,2.26,2.35,2.35,0,0,0-.07.54c0,.29.1.44.3.44s.71-.35,1.23-1.07a17.61,17.61,0,0,0,1.45-2.39h.85l-.43.85c-.29.57-.67,1.21-1.14,1.94a11.31,11.31,0,0,1-1.58,1.95,2.52,2.52,0,0,1-1.74.85,1.27,1.27,0,0,1-1.46-1.42,1.21,1.21,0,0,1,0-.19,3.54,3.54,0,0,1-2.72,1.61c-1.34,0-2-.74-2.05-2.22v-.16a8.78,8.78,0,0,1,1.23-4.33A3.61,3.61,0,0,1,292.33,368.77Zm.58,2c-.48.06-1,.53-1.53,1.4a5.35,5.35,0,0,0-.72,2.29v.11c0,.62.22.93.67.93a1.24,1.24,0,0,0,.88-.58,6.46,6.46,0,0,0,.82-1.34,5.76,5.76,0,0,0,.46-1.41c0-.2,0-.37,0-.52,0-.59-.17-.88-.5-.88Z" transform="translate(-177.95 -343.06)" fill="#1d1d1b"/><path d="M299.65,368.77a2.49,2.49,0,0,1,1.16.31,1.3,1.3,0,0,1,.75.89,3,3,0,0,1,2.23-1.2,1.33,1.33,0,0,1,1.4.8,2,2,0,0,1,.12.68,2.87,2.87,0,0,1-.33,1.19,2.35,2.35,0,0,1-1.38,1.11,1.72,1.72,0,0,1-.51.09.89.89,0,0,1-.57-.19,1,1,0,0,1-.38-.81v-.27q0-.25.45-.6a2,2,0,0,0-1.5,1.08,7.67,7.67,0,0,0-1,2.5,7.28,7.28,0,0,0-.21,1.68,5.8,5.8,0,0,0,.09,1,1.89,1.89,0,0,1-1.36.58,1.45,1.45,0,0,1-1.45-1.62,10.55,10.55,0,0,1,.82-3.65,29.67,29.67,0,0,1,1.47-3.15Z" transform="translate(-177.95 -343.06)" fill="#1d1d1b"/><path d="M308.81,368.77a2.2,2.2,0,0,1,1.27.4,2.23,2.23,0,0,1,.77,1.41c.25-.53.46-1,.63-1.3l.25-.51a2,2,0,0,1,1.07.32,1.41,1.41,0,0,1,.67.91c-.3.67-.62,1.44-1,2.29a17.74,17.74,0,0,0-.74,2.26,2.35,2.35,0,0,0-.07.54c0,.29.1.44.31.44s.71-.35,1.23-1.07a18.68,18.68,0,0,0,1.45-2.39h.84l-.43.85a20.29,20.29,0,0,1-1.14,1.94,11.26,11.26,0,0,1-1.57,1.95,2.52,2.52,0,0,1-1.74.85c-1,0-1.47-.47-1.47-1.42,0-.06,0-.13,0-.19a3.53,3.53,0,0,1-2.71,1.61c-1.34,0-2-.74-2.06-2.22v-.16a8.8,8.8,0,0,1,1.24-4.33A3.61,3.61,0,0,1,308.81,368.77Zm.58,2c-.47.06-1,.53-1.52,1.4a5.08,5.08,0,0,0-.72,2.29v.11q0,.93.66.93a1.22,1.22,0,0,0,.88-.58,6.06,6.06,0,0,0,.82-1.34,5.36,5.36,0,0,0,.46-1.41c0-.2,0-.37,0-.52,0-.59-.16-.88-.49-.88Z" transform="translate(-177.95 -343.06)" fill="#1d1d1b"/><path d="M248.6,364.75a2.51,2.51,0,0,1,.9.24,2.16,2.16,0,0,1,.93.8,1.87,1.87,0,0,1,.27,1,4.12,4.12,0,0,1,0,.48,4.2,4.2,0,0,0-.86-.1,5.05,5.05,0,0,0-3.76,2.16,32.93,32.93,0,0,0-3.56,5.32,43.57,43.57,0,0,1-2.75,4.32,3.71,3.71,0,0,1-2.82,1.85c-1.22,0-1.88-.82-2-2.45,0-.32,0-.66,0-1a25.3,25.3,0,0,1,.54-4.8c.36-1.82.73-3.45,1.11-4.87,0-.14.07-.28.1-.41a2,2,0,0,0,0-.4c0-.43-.18-.68-.54-.74l-.24,0a1.85,1.85,0,0,0-1.17.52A2.19,2.19,0,0,0,234,368a1.15,1.15,0,0,0,0,.18,1.19,1.19,0,0,0,.32.85.94.94,0,0,0,.74.37c0,.05,0,.1,0,.15a1.06,1.06,0,0,1-.53.9,2.38,2.38,0,0,1-1.35.39h-.42a1.41,1.41,0,0,1-.93-.57,1.63,1.63,0,0,1-.38-1.15,4.48,4.48,0,0,1,.07-.69,3.94,3.94,0,0,1,1.11-2.09,5.31,5.31,0,0,1,1.76-1.09,7.52,7.52,0,0,1,1.64-.41l.7-.06a3.28,3.28,0,0,1,2.15.68,1.67,1.67,0,0,1,.61,1.38,3.86,3.86,0,0,1-.08.72c-.16.63-.35,1.35-.58,2.17-.35,1.26-.69,2.54-1,3.86a26.45,26.45,0,0,0-.63,3.36c0,.17,0,.32,0,.46,0,.61.15.92.47.92.5,0,1-.46,1.55-1.38s1.12-2,1.74-3.36a43.65,43.65,0,0,1,3.27-6Q246.05,364.76,248.6,364.75Z" transform="translate(-177.95 -343.06)" fill="#1d1d1b"/><path d="M246,370a2,2,0,0,1,1.06.31,1.29,1.29,0,0,1,.65.88c0,.11-.08.22-.13.33-.29.69-.59,1.43-.9,2.23a14.68,14.68,0,0,0-.66,2.09,2.15,2.15,0,0,0-.06.46c0,.29.1.43.3.43s.71-.35,1.23-1.05a18.54,18.54,0,0,0,1.45-2.38h.85l-.43.85c-.29.57-.67,1.21-1.14,1.94a10.79,10.79,0,0,1-1.58,1.92,2.72,2.72,0,0,1-1.74.86,1.46,1.46,0,0,1-1.45-1.63,10.14,10.14,0,0,1,1-4A30.94,30.94,0,0,1,246,370Zm1.69-2.62a1,1,0,0,1,.77.32,1.06,1.06,0,0,1,.32.78,1,1,0,0,1-.32.75,1.06,1.06,0,0,1-.77.32,1,1,0,0,1-.76-.32,1,1,0,0,1-.31-.75,1.06,1.06,0,0,1,.31-.78A1,1,0,0,1,247.73,367.35Z" transform="translate(-177.95 -343.06)" fill="#1d1d1b"/><path d="M252.53,370a2.2,2.2,0,0,1,1.27.4,2.23,2.23,0,0,1,.77,1.41c.25-.53.46-1,.63-1.3l.25-.51a2,2,0,0,1,1.07.32,1.41,1.41,0,0,1,.67.91c-.3.67-.62,1.44-.95,2.29a17.74,17.74,0,0,0-.74,2.26,3.07,3.07,0,0,0-.07.54c0,.29.1.44.31.44s.71-.35,1.23-1.07a18.68,18.68,0,0,0,1.45-2.39h.84l-.43.85a20.29,20.29,0,0,1-1.14,1.94,11.26,11.26,0,0,1-1.57,1.95,2.52,2.52,0,0,1-1.74.85c-1,0-1.47-.47-1.47-1.42,0-.06,0-.13,0-.19a3.53,3.53,0,0,1-2.71,1.61c-1.34,0-2-.74-2.06-2.22v-.16a8.8,8.8,0,0,1,1.24-4.33A3.61,3.61,0,0,1,252.53,370Zm.58,2c-.47.06-1,.53-1.52,1.4a5.08,5.08,0,0,0-.72,2.29v.11q0,.93.66.93a1.22,1.22,0,0,0,.88-.58,6.06,6.06,0,0,0,.82-1.34,5.36,5.36,0,0,0,.46-1.41c0-.2,0-.37,0-.52,0-.59-.17-.88-.5-.88Z" transform="translate(-177.95 -343.06)" fill="#1d1d1b"/><path d="M259.24,370a1.77,1.77,0,0,1,1.85,1.2l-.12.51a49.63,49.63,0,0,1-2.19,7.5c-1,2.6-2.43,3.89-4.35,3.89a1.4,1.4,0,0,1-1.51-.89,1.75,1.75,0,0,1-.11-.58,1.49,1.49,0,0,1,.42-1,3.11,3.11,0,0,0,.67.07,3.41,3.41,0,0,0,3-2.14,16.73,16.73,0,0,0,1.7-4.91h0c-.16,0-.24-.05-.24-.14a.45.45,0,0,1,.06-.19,8.21,8.21,0,0,0,.66-1.76A6.68,6.68,0,0,0,259.24,370Zm1.56-2.61a1.08,1.08,0,0,1,1.09,1.09,1,1,0,0,1-.32.75,1.06,1.06,0,0,1-.77.32,1.09,1.09,0,0,1-.77-.32,1,1,0,0,1-.33-.75,1.05,1.05,0,0,1,.33-.78A1.08,1.08,0,0,1,260.8,367.36Z" transform="translate(-177.95 -343.06)" fill="#1d1d1b"/><path d="M265.54,370a2.2,2.2,0,0,1,1.27.4,2.23,2.23,0,0,1,.77,1.41c.25-.53.46-1,.63-1.3l.25-.51a2.07,2.07,0,0,1,1.07.32,1.41,1.41,0,0,1,.67.91c-.3.67-.62,1.44-.95,2.29a17.74,17.74,0,0,0-.74,2.26,2.35,2.35,0,0,0-.07.54c0,.29.1.44.3.44s.72-.35,1.23-1.07a18.71,18.71,0,0,0,1.46-2.39h.84l-.43.85c-.29.57-.67,1.21-1.14,1.94a11.26,11.26,0,0,1-1.57,1.95,2.52,2.52,0,0,1-1.74.85c-1,0-1.47-.47-1.47-1.42a1.21,1.21,0,0,1,0-.19,3.53,3.53,0,0,1-2.71,1.61c-1.35,0-2-.74-2.06-2.22v-.16a8.7,8.7,0,0,1,1.24-4.33A3.61,3.61,0,0,1,265.54,370Zm.58,2c-.47.06-1,.53-1.52,1.4a5.08,5.08,0,0,0-.72,2.29v.11q0,.93.66.93a1.22,1.22,0,0,0,.88-.58,6.06,6.06,0,0,0,.82-1.34,5.36,5.36,0,0,0,.46-1.41c0-.2,0-.37,0-.52,0-.59-.16-.88-.49-.88Z" transform="translate(-177.95 -343.06)" fill="#1d1d1b"/><path d="M279.77,364.76l.21,0,.2,0h.2a5.5,5.5,0,0,1,3.68,1.47,3,3,0,0,1,1,2.18,3.51,3.51,0,0,1-1.2,2.67,6,6,0,0,1-1.49,1,7.14,7.14,0,0,1-1.32.49l-.56.14a6.68,6.68,0,0,1,3.17,1,3.49,3.49,0,0,1,1.81,3.21,4.37,4.37,0,0,1-1.23,2.73,3.78,3.78,0,0,1-2.94,1.25,3.12,3.12,0,0,1-2.54-.92,2.84,2.84,0,0,1-.71-1.85c0-.06,0-.28,0-.67a2,2,0,0,1,.78-1.25,1.83,1.83,0,0,0,.95,1.84,2.2,2.2,0,0,0,1,.22,2.87,2.87,0,0,0,1.18-.35c.48-.24.76-.81.86-1.71v0a2.06,2.06,0,0,0-.68-1.71,3,3,0,0,0-1.6-.64c-.24,0-.47,0-.69,0a4,4,0,0,0-.88.09,20.59,20.59,0,0,1-2.4,4.91,4.2,4.2,0,0,1-3.51,2.11c-1.27,0-2-.46-2.28-1.39a2.35,2.35,0,0,1-.09-.64,2.45,2.45,0,0,1,.94-1.85,2.42,2.42,0,0,0,1.54.68,3.14,3.14,0,0,0,2-1.22,10.94,10.94,0,0,0,2.06-3.83c.2-.55.4-1.11.59-1.69s.33-1,.51-1.51a2.23,2.23,0,0,1,1.63-1.51l.21,0c.56,0,1,.37,1.23,1.1a2.53,2.53,0,0,0-1,1.05,11.15,11.15,0,0,0-.73,1.64,4.77,4.77,0,0,0,2.2-1.18,2.77,2.77,0,0,0,.95-2.17c0-.12,0-.24,0-.37a2.42,2.42,0,0,0-2.06-1.93,4,4,0,0,0-3.16.75,3.61,3.61,0,0,0-1.33,3.15c0,.17,0,.34,0,.52q-1.75,0-2-1.41a3,3,0,0,1,0-.43,3.59,3.59,0,0,1,1.26-2.45C276.31,365.32,277.74,364.85,279.77,364.76Z" transform="translate(-177.95 -343.06)" fill="#1d1d1b"/><path d="M290.33,370a2,2,0,0,1,2,1.81c.25-.53.46-1,.63-1.3l.25-.51a2.08,2.08,0,0,1,1.08.32,1.41,1.41,0,0,1,.67.91c-.31.67-.62,1.44-1,2.29a17.52,17.52,0,0,0-.73,2.26,2.35,2.35,0,0,0-.07.54c0,.29.1.44.3.44s.71-.35,1.23-1.07a17.61,17.61,0,0,0,1.45-2.39h.85l-.43.85c-.29.57-.67,1.21-1.14,1.94a11.31,11.31,0,0,1-1.58,1.95,2.52,2.52,0,0,1-1.74.85,1.27,1.27,0,0,1-1.46-1.42,1.21,1.21,0,0,1,0-.19,3.54,3.54,0,0,1-2.72,1.61c-1.34,0-2-.74-2.05-2.22v-.16a8.78,8.78,0,0,1,1.23-4.33A3.61,3.61,0,0,1,290.33,370Zm.58,2c-.48.06-1,.53-1.53,1.4a5.35,5.35,0,0,0-.72,2.29v.11c0,.62.22.93.67.93a1.24,1.24,0,0,0,.88-.58,6.46,6.46,0,0,0,.82-1.34,5.76,5.76,0,0,0,.46-1.41c0-.2,0-.37,0-.52,0-.59-.17-.88-.5-.88Z" transform="translate(-177.95 -343.06)" fill="#1d1d1b"/><path d="M297.65,370a2.49,2.49,0,0,1,1.16.31,1.3,1.3,0,0,1,.75.89,3,3,0,0,1,2.23-1.2,1.33,1.33,0,0,1,1.4.8,2,2,0,0,1,.12.68,2.87,2.87,0,0,1-.33,1.19,2.35,2.35,0,0,1-1.38,1.11,1.72,1.72,0,0,1-.51.09.89.89,0,0,1-.57-.19,1,1,0,0,1-.38-.81v-.27q0-.26.45-.6a2,2,0,0,0-1.5,1.08,7.67,7.67,0,0,0-1,2.5,7.28,7.28,0,0,0-.21,1.68,5.8,5.8,0,0,0,.09,1,1.89,1.89,0,0,1-1.36.58,1.45,1.45,0,0,1-1.45-1.62,10.55,10.55,0,0,1,.82-3.65,29.67,29.67,0,0,1,1.47-3.15Z" transform="translate(-177.95 -343.06)" fill="#1d1d1b"/><path d="M306.81,370a2.2,2.2,0,0,1,1.27.4,2.23,2.23,0,0,1,.77,1.41c.25-.53.46-1,.63-1.3l.25-.51a2,2,0,0,1,1.07.32,1.41,1.41,0,0,1,.67.91c-.3.67-.62,1.44-1,2.29a17.74,17.74,0,0,0-.74,2.26,2.35,2.35,0,0,0-.07.54c0,.29.1.44.31.44s.71-.35,1.23-1.07a18.68,18.68,0,0,0,1.45-2.39h.84l-.43.85a20.29,20.29,0,0,1-1.14,1.94A11.26,11.26,0,0,1,310.4,378a2.52,2.52,0,0,1-1.74.85c-1,0-1.47-.47-1.47-1.42,0-.06,0-.13,0-.19a3.53,3.53,0,0,1-2.71,1.61c-1.34,0-2-.74-2.06-2.22v-.16a8.8,8.8,0,0,1,1.24-4.33A3.61,3.61,0,0,1,306.81,370Zm.58,2c-.47.06-1,.53-1.52,1.4a5.08,5.08,0,0,0-.72,2.29v.11q0,.93.66.93a1.22,1.22,0,0,0,.88-.58,6.06,6.06,0,0,0,.82-1.34,5.36,5.36,0,0,0,.46-1.41c0-.2,0-.37,0-.52,0-.59-.16-.88-.49-.88Z" transform="translate(-177.95 -343.06)" fill="#1d1d1b"/><path d="M249.6,364.15a2.51,2.51,0,0,1,.9.24,2.16,2.16,0,0,1,.93.8,1.87,1.87,0,0,1,.27,1,4.12,4.12,0,0,1,0,.48,4.2,4.2,0,0,0-.86-.1,5.05,5.05,0,0,0-3.76,2.16,32.93,32.93,0,0,0-3.56,5.32,43.57,43.57,0,0,1-2.75,4.32,3.71,3.71,0,0,1-2.82,1.85c-1.22,0-1.88-.82-2-2.45,0-.32,0-.66,0-1a25.3,25.3,0,0,1,.54-4.8c.36-1.82.73-3.45,1.11-4.87,0-.14.07-.28.1-.41a2,2,0,0,0,0-.4c0-.43-.18-.68-.54-.74l-.24,0a1.85,1.85,0,0,0-1.17.52,2.19,2.19,0,0,0-.75,1.3,1.15,1.15,0,0,0,0,.18,1.19,1.19,0,0,0,.32.85.94.94,0,0,0,.74.37c0,.05,0,.1,0,.15a1.06,1.06,0,0,1-.53.9,2.38,2.38,0,0,1-1.35.39h-.42a1.41,1.41,0,0,1-.93-.57,1.63,1.63,0,0,1-.38-1.15,4.48,4.48,0,0,1,.07-.69,3.94,3.94,0,0,1,1.11-2.09,5.31,5.31,0,0,1,1.76-1.09,7.52,7.52,0,0,1,1.64-.41l.7-.06a3.28,3.28,0,0,1,2.15.68,1.67,1.67,0,0,1,.61,1.38,3.86,3.86,0,0,1-.08.72c-.16.63-.35,1.35-.58,2.17-.35,1.26-.69,2.54-1,3.86a26.45,26.45,0,0,0-.63,3.36c0,.17,0,.32,0,.46,0,.61.15.92.47.92.5,0,1-.46,1.55-1.38s1.12-2,1.74-3.36a43.65,43.65,0,0,1,3.27-6Q247.05,364.16,249.6,364.15Z" transform="translate(-177.95 -343.06)" fill="#1d1d1b"/><path d="M247,369.37a2,2,0,0,1,1.06.31,1.29,1.29,0,0,1,.65.88c0,.11-.08.22-.13.33-.29.69-.59,1.43-.9,2.23a14.68,14.68,0,0,0-.66,2.09,2.15,2.15,0,0,0-.06.46c0,.29.1.43.3.43s.71-.35,1.23-1.05a18.54,18.54,0,0,0,1.45-2.38h.85l-.43.85c-.29.57-.67,1.21-1.14,1.94a10.79,10.79,0,0,1-1.58,1.92,2.72,2.72,0,0,1-1.74.86,1.46,1.46,0,0,1-1.45-1.63,10.14,10.14,0,0,1,1-4A30.94,30.94,0,0,1,247,369.37Zm1.69-2.62a1,1,0,0,1,.77.32,1.06,1.06,0,0,1,.32.78,1,1,0,0,1-.32.75,1.06,1.06,0,0,1-.77.32,1,1,0,0,1-.76-.32,1,1,0,0,1-.31-.75,1.06,1.06,0,0,1,.31-.78A1,1,0,0,1,248.73,366.75Z" transform="translate(-177.95 -343.06)" fill="#1d1d1b"/><path d="M253.53,369.37a2.2,2.2,0,0,1,1.27.4,2.23,2.23,0,0,1,.77,1.41c.25-.53.46-1,.63-1.3l.25-.51a2,2,0,0,1,1.07.32,1.41,1.41,0,0,1,.67.91c-.3.67-.62,1.44-.95,2.29a17.74,17.74,0,0,0-.74,2.26,3.07,3.07,0,0,0-.07.54c0,.29.1.44.31.44s.71-.35,1.23-1.07a18.68,18.68,0,0,0,1.45-2.39h.84l-.43.85a20.29,20.29,0,0,1-1.14,1.94,11.26,11.26,0,0,1-1.57,2,2.52,2.52,0,0,1-1.74.85c-1,0-1.47-.47-1.47-1.42,0-.06,0-.13,0-.19a3.53,3.53,0,0,1-2.71,1.61c-1.34,0-2-.74-2.06-2.22v-.16a8.8,8.8,0,0,1,1.24-4.33A3.61,3.61,0,0,1,253.53,369.37Zm.58,2c-.47.06-1,.53-1.52,1.4a5.08,5.08,0,0,0-.72,2.29v.11q0,.93.66.93a1.22,1.22,0,0,0,.88-.58,6.06,6.06,0,0,0,.82-1.34,5.36,5.36,0,0,0,.46-1.41c0-.2,0-.37,0-.52,0-.59-.17-.88-.5-.88Z" transform="translate(-177.95 -343.06)" fill="#1d1d1b"/><path d="M260.24,369.37a1.77,1.77,0,0,1,1.85,1.2l-.12.51a49.63,49.63,0,0,1-2.19,7.5c-1,2.6-2.43,3.89-4.35,3.89a1.4,1.4,0,0,1-1.51-.89,1.75,1.75,0,0,1-.11-.58,1.49,1.49,0,0,1,.42-1,3.11,3.11,0,0,0,.67.07,3.41,3.41,0,0,0,3-2.14,16.73,16.73,0,0,0,1.7-4.91h0c-.16,0-.24-.05-.24-.14a.45.45,0,0,1,.06-.19,8.21,8.21,0,0,0,.66-1.76A6.68,6.68,0,0,0,260.24,369.37Zm1.56-2.61a1.08,1.08,0,0,1,1.09,1.09,1,1,0,0,1-.32.75,1.06,1.06,0,0,1-.77.32,1.09,1.09,0,0,1-.77-.32,1,1,0,0,1-.33-.75,1.05,1.05,0,0,1,.33-.78A1.08,1.08,0,0,1,261.8,366.76Z" transform="translate(-177.95 -343.06)" fill="#1d1d1b"/><path d="M266.54,369.37a2.2,2.2,0,0,1,1.27.4,2.23,2.23,0,0,1,.77,1.41c.25-.53.46-1,.63-1.3l.25-.51a2.07,2.07,0,0,1,1.07.32,1.41,1.41,0,0,1,.67.91c-.3.67-.62,1.44-.95,2.29a17.74,17.74,0,0,0-.74,2.26,2.35,2.35,0,0,0-.07.54c0,.29.1.44.3.44s.72-.35,1.23-1.07a18.71,18.71,0,0,0,1.46-2.39h.84l-.43.85c-.29.57-.67,1.21-1.14,1.94a11.26,11.26,0,0,1-1.57,2,2.52,2.52,0,0,1-1.74.85c-1,0-1.47-.47-1.47-1.42a1.21,1.21,0,0,1,0-.19,3.53,3.53,0,0,1-2.71,1.61c-1.35,0-2-.74-2.06-2.22v-.16a8.7,8.7,0,0,1,1.24-4.33A3.61,3.61,0,0,1,266.54,369.37Zm.58,2c-.47.06-1,.53-1.52,1.4a5.08,5.08,0,0,0-.72,2.29v.11q0,.93.66.93a1.22,1.22,0,0,0,.88-.58,6.06,6.06,0,0,0,.82-1.34,5.36,5.36,0,0,0,.46-1.41c0-.2,0-.37,0-.52,0-.59-.16-.88-.49-.88Z" transform="translate(-177.95 -343.06)" fill="#1d1d1b"/><path d="M280.77,364.16l.21,0,.2,0h.2a5.5,5.5,0,0,1,3.68,1.47,3,3,0,0,1,1,2.18,3.51,3.51,0,0,1-1.2,2.67,6,6,0,0,1-1.49,1A7.14,7.14,0,0,1,282,372l-.56.14a6.68,6.68,0,0,1,3.17,1,3.49,3.49,0,0,1,1.81,3.21A4.37,4.37,0,0,1,285.2,379a3.78,3.78,0,0,1-2.94,1.25,3.12,3.12,0,0,1-2.54-.92,2.84,2.84,0,0,1-.71-1.85c0-.06,0-.28,0-.67a2,2,0,0,1,.78-1.25,1.83,1.83,0,0,0,.95,1.84,2.2,2.2,0,0,0,1,.22,2.87,2.87,0,0,0,1.18-.35c.48-.24.76-.81.86-1.71v0a2.06,2.06,0,0,0-.68-1.71,3,3,0,0,0-1.6-.64c-.24,0-.47,0-.69,0a4,4,0,0,0-.88.09,20.59,20.59,0,0,1-2.4,4.91,4.2,4.2,0,0,1-3.51,2.11c-1.27,0-2-.46-2.28-1.39a2.35,2.35,0,0,1-.09-.64,2.45,2.45,0,0,1,.94-1.85,2.42,2.42,0,0,0,1.54.68,3.14,3.14,0,0,0,2-1.22,10.94,10.94,0,0,0,2.06-3.83c.2-.55.4-1.11.59-1.69s.33-1,.51-1.51a2.23,2.23,0,0,1,1.63-1.51l.21,0c.56,0,1,.37,1.23,1.1a2.53,2.53,0,0,0-1,1.05,11.15,11.15,0,0,0-.73,1.64,4.77,4.77,0,0,0,2.2-1.18,2.77,2.77,0,0,0,.95-2.17c0-.12,0-.24,0-.37a2.42,2.42,0,0,0-2.06-1.93,4,4,0,0,0-3.16.75,3.61,3.61,0,0,0-1.33,3.15c0,.17,0,.34,0,.52q-1.75,0-2-1.41a3,3,0,0,1,0-.43,3.59,3.59,0,0,1,1.26-2.45C277.31,364.72,278.74,364.25,280.77,364.16Z" transform="translate(-177.95 -343.06)" fill="#1d1d1b"/><path d="M291.33,369.37a2,2,0,0,1,2,1.81c.25-.53.46-1,.63-1.3l.25-.51a2.08,2.08,0,0,1,1.08.32,1.41,1.41,0,0,1,.67.91c-.31.67-.62,1.44-1,2.29a17.52,17.52,0,0,0-.73,2.26,2.35,2.35,0,0,0-.07.54c0,.29.1.44.3.44s.71-.35,1.23-1.07a17.61,17.61,0,0,0,1.45-2.39h.85l-.43.85c-.29.57-.67,1.21-1.14,1.94a11.31,11.31,0,0,1-1.58,2,2.52,2.52,0,0,1-1.74.85,1.27,1.27,0,0,1-1.46-1.42,1.21,1.21,0,0,1,0-.19,3.54,3.54,0,0,1-2.72,1.61c-1.34,0-2-.74-2.05-2.22v-.16a8.78,8.78,0,0,1,1.23-4.33A3.61,3.61,0,0,1,291.33,369.37Zm.58,2c-.48.06-1,.53-1.53,1.4a5.35,5.35,0,0,0-.72,2.29v.11c0,.62.22.93.67.93a1.24,1.24,0,0,0,.88-.58,6.46,6.46,0,0,0,.82-1.34,5.76,5.76,0,0,0,.46-1.41c0-.2,0-.37,0-.52,0-.59-.17-.88-.5-.88Z" transform="translate(-177.95 -343.06)" fill="#1d1d1b"/><path d="M298.65,369.37a2.49,2.49,0,0,1,1.16.31,1.3,1.3,0,0,1,.75.89,3,3,0,0,1,2.23-1.2,1.33,1.33,0,0,1,1.4.8,2,2,0,0,1,.12.68A2.87,2.87,0,0,1,304,372a2.35,2.35,0,0,1-1.38,1.11,1.72,1.72,0,0,1-.51.09.89.89,0,0,1-.57-.19,1,1,0,0,1-.38-.81V372q0-.25.45-.6a2,2,0,0,0-1.5,1.08,7.67,7.67,0,0,0-1,2.5,7.28,7.28,0,0,0-.21,1.68,5.8,5.8,0,0,0,.09,1,1.89,1.89,0,0,1-1.36.58,1.45,1.45,0,0,1-1.45-1.62A10.55,10.55,0,0,1,297,373a29.67,29.67,0,0,1,1.47-3.15Z" transform="translate(-177.95 -343.06)" fill="#1d1d1b"/><path d="M307.81,369.37a2.2,2.2,0,0,1,1.27.4,2.23,2.23,0,0,1,.77,1.41c.25-.53.46-1,.63-1.3l.25-.51a2,2,0,0,1,1.07.32,1.41,1.41,0,0,1,.67.91c-.3.67-.62,1.44-1,2.29a17.74,17.74,0,0,0-.74,2.26,2.35,2.35,0,0,0-.07.54c0,.29.1.44.31.44s.71-.35,1.23-1.07a18.68,18.68,0,0,0,1.45-2.39h.84l-.43.85a20.29,20.29,0,0,1-1.14,1.94,11.26,11.26,0,0,1-1.57,2,2.52,2.52,0,0,1-1.74.85c-1,0-1.47-.47-1.47-1.42,0-.06,0-.13,0-.19a3.53,3.53,0,0,1-2.71,1.61c-1.34,0-2-.74-2.06-2.22v-.16a8.8,8.8,0,0,1,1.24-4.33A3.61,3.61,0,0,1,307.81,369.37Zm.58,2c-.47.06-1,.53-1.52,1.4a5.08,5.08,0,0,0-.72,2.29v.11q0,.93.66.93a1.22,1.22,0,0,0,.88-.58,6.06,6.06,0,0,0,.82-1.34,5.36,5.36,0,0,0,.46-1.41c0-.2,0-.37,0-.52,0-.59-.16-.88-.49-.88Z" transform="translate(-177.95 -343.06)" fill="#1d1d1b"/><path d="M250.6,363.55a2.51,2.51,0,0,1,.9.24,2.16,2.16,0,0,1,.93.8,1.87,1.87,0,0,1,.27,1,4.12,4.12,0,0,1,0,.48,4.2,4.2,0,0,0-.86-.1,5.05,5.05,0,0,0-3.76,2.16,32.93,32.93,0,0,0-3.56,5.32,43.57,43.57,0,0,1-2.75,4.32,3.71,3.71,0,0,1-2.82,1.85c-1.22,0-1.88-.82-2-2.45,0-.32,0-.66,0-1a25.3,25.3,0,0,1,.54-4.8c.36-1.82.73-3.45,1.11-4.87,0-.14.07-.28.1-.41a2,2,0,0,0,0-.4c0-.43-.18-.68-.54-.74l-.24,0a1.85,1.85,0,0,0-1.17.52,2.19,2.19,0,0,0-.75,1.3,1.15,1.15,0,0,0,0,.18,1.19,1.19,0,0,0,.32.85.94.94,0,0,0,.74.37c0,.05,0,.1,0,.15a1.06,1.06,0,0,1-.53.9,2.38,2.38,0,0,1-1.35.39h-.42a1.41,1.41,0,0,1-.93-.57,1.63,1.63,0,0,1-.38-1.15,4.48,4.48,0,0,1,.07-.69,3.94,3.94,0,0,1,1.11-2.09,5.31,5.31,0,0,1,1.76-1.09,7.52,7.52,0,0,1,1.64-.41l.7-.06a3.28,3.28,0,0,1,2.15.68,1.67,1.67,0,0,1,.61,1.38,3.86,3.86,0,0,1-.08.72c-.16.63-.35,1.35-.58,2.17-.35,1.26-.69,2.54-1,3.86a26.45,26.45,0,0,0-.63,3.36c0,.17,0,.32,0,.46,0,.61.15.92.47.92.5,0,1-.46,1.55-1.38s1.12-2,1.74-3.36a43.65,43.65,0,0,1,3.27-6Q248.05,363.56,250.6,363.55Z" transform="translate(-177.95 -343.06)" fill="#1d1d1b"/><path d="M248,368.77a2,2,0,0,1,1.06.31,1.29,1.29,0,0,1,.65.88c0,.11-.08.22-.13.33-.29.69-.59,1.43-.9,2.23a14.68,14.68,0,0,0-.66,2.09,2.15,2.15,0,0,0-.06.46c0,.29.1.43.3.43s.71-.35,1.23-1.05a18.54,18.54,0,0,0,1.45-2.38h.85l-.43.85c-.29.57-.67,1.21-1.14,1.94a10.79,10.79,0,0,1-1.58,1.92,2.72,2.72,0,0,1-1.74.86,1.46,1.46,0,0,1-1.45-1.63,10.14,10.14,0,0,1,1-4A30.94,30.94,0,0,1,248,368.77Zm1.69-2.62a1,1,0,0,1,.77.32,1.06,1.06,0,0,1,.32.78,1,1,0,0,1-.32.75,1.06,1.06,0,0,1-.77.32A1,1,0,0,1,249,368a1,1,0,0,1-.31-.75,1.06,1.06,0,0,1,.31-.78A1,1,0,0,1,249.73,366.15Z" transform="translate(-177.95 -343.06)" fill="#1d1d1b"/><path d="M254.53,368.77a2.2,2.2,0,0,1,1.27.4,2.23,2.23,0,0,1,.77,1.41c.25-.53.46-1,.63-1.3l.25-.51a2,2,0,0,1,1.07.32,1.41,1.41,0,0,1,.67.91c-.3.67-.62,1.44-.95,2.29a17.74,17.74,0,0,0-.74,2.26,3.07,3.07,0,0,0-.07.54c0,.29.1.44.31.44s.71-.35,1.23-1.07a18.68,18.68,0,0,0,1.45-2.39h.84l-.43.85a20.29,20.29,0,0,1-1.14,1.94,11.26,11.26,0,0,1-1.57,1.95,2.52,2.52,0,0,1-1.74.85c-1,0-1.47-.47-1.47-1.42,0-.06,0-.13,0-.19a3.53,3.53,0,0,1-2.71,1.61c-1.34,0-2-.74-2.06-2.22v-.16a8.8,8.8,0,0,1,1.24-4.33A3.61,3.61,0,0,1,254.53,368.77Zm.58,2c-.47.06-1,.53-1.52,1.4a5.08,5.08,0,0,0-.72,2.29v.11q0,.93.66.93a1.22,1.22,0,0,0,.88-.58,6.06,6.06,0,0,0,.82-1.34,5.36,5.36,0,0,0,.46-1.41c0-.2,0-.37,0-.52,0-.59-.17-.88-.5-.88Z" transform="translate(-177.95 -343.06)" fill="#1d1d1b"/><path d="M261.24,368.77a1.77,1.77,0,0,1,1.85,1.2l-.12.51a49.63,49.63,0,0,1-2.19,7.5c-1,2.6-2.43,3.89-4.35,3.89a1.4,1.4,0,0,1-1.51-.89,1.75,1.75,0,0,1-.11-.58,1.49,1.49,0,0,1,.42-1,3.11,3.11,0,0,0,.67.07,3.41,3.41,0,0,0,3-2.14,16.73,16.73,0,0,0,1.7-4.91h0c-.16,0-.24,0-.24-.14a.45.45,0,0,1,.06-.19,8.21,8.21,0,0,0,.66-1.76A6.68,6.68,0,0,0,261.24,368.77Zm1.56-2.61a1.08,1.08,0,0,1,1.09,1.09,1,1,0,0,1-.32.75,1.06,1.06,0,0,1-.77.32A1.09,1.09,0,0,1,262,368a1,1,0,0,1-.33-.75,1.05,1.05,0,0,1,.33-.78A1.08,1.08,0,0,1,262.8,366.16Z" transform="translate(-177.95 -343.06)" fill="#1d1d1b"/><path d="M267.54,368.77a2.2,2.2,0,0,1,1.27.4,2.23,2.23,0,0,1,.77,1.41c.25-.53.46-1,.63-1.3l.25-.51a2.07,2.07,0,0,1,1.07.32,1.41,1.41,0,0,1,.67.91c-.3.67-.62,1.44-.95,2.29a17.74,17.74,0,0,0-.74,2.26,2.35,2.35,0,0,0-.07.54c0,.29.1.44.3.44s.72-.35,1.23-1.07a18.71,18.71,0,0,0,1.46-2.39h.84l-.43.85c-.29.57-.67,1.21-1.14,1.94a11.26,11.26,0,0,1-1.57,1.95,2.52,2.52,0,0,1-1.74.85c-1,0-1.47-.47-1.47-1.42a1.21,1.21,0,0,1,0-.19,3.53,3.53,0,0,1-2.71,1.61c-1.35,0-2-.74-2.06-2.22v-.16A8.7,8.7,0,0,1,264.4,371,3.61,3.61,0,0,1,267.54,368.77Zm.58,2c-.47.06-1,.53-1.52,1.4a5.08,5.08,0,0,0-.72,2.29v.11q0,.93.66.93a1.22,1.22,0,0,0,.88-.58,6.06,6.06,0,0,0,.82-1.34,5.36,5.36,0,0,0,.46-1.41c0-.2,0-.37,0-.52,0-.59-.16-.88-.49-.88Z" transform="translate(-177.95 -343.06)" fill="#1d1d1b"/><path d="M281.77,363.56l.21,0,.2,0h.2a5.5,5.5,0,0,1,3.68,1.47,3,3,0,0,1,1,2.18,3.51,3.51,0,0,1-1.2,2.67,6,6,0,0,1-1.49,1,7.14,7.14,0,0,1-1.32.49l-.56.14a6.68,6.68,0,0,1,3.17,1,3.49,3.49,0,0,1,1.81,3.21,4.37,4.37,0,0,1-1.23,2.73,3.78,3.78,0,0,1-2.94,1.25,3.12,3.12,0,0,1-2.54-.92,2.84,2.84,0,0,1-.71-1.85c0-.06,0-.28,0-.67a2,2,0,0,1,.78-1.25,1.83,1.83,0,0,0,.95,1.84,2.2,2.2,0,0,0,1,.22,2.87,2.87,0,0,0,1.18-.35c.48-.24.76-.81.86-1.71v0a2.06,2.06,0,0,0-.68-1.71,3,3,0,0,0-1.6-.64c-.24,0-.47,0-.69,0a4,4,0,0,0-.88.09,20.59,20.59,0,0,1-2.4,4.91,4.2,4.2,0,0,1-3.51,2.11c-1.27,0-2-.46-2.28-1.39a2.35,2.35,0,0,1-.09-.64,2.45,2.45,0,0,1,.94-1.85,2.42,2.42,0,0,0,1.54.68,3.14,3.14,0,0,0,2-1.22,10.94,10.94,0,0,0,2.06-3.83c.2-.55.4-1.11.59-1.69s.33-1,.51-1.51a2.23,2.23,0,0,1,1.63-1.51l.21,0c.56,0,1,.37,1.23,1.1a2.53,2.53,0,0,0-1,1,11.15,11.15,0,0,0-.73,1.64,4.77,4.77,0,0,0,2.2-1.18,2.77,2.77,0,0,0,.95-2.17c0-.12,0-.24,0-.37a2.42,2.42,0,0,0-2.06-1.93,4,4,0,0,0-3.16.75,3.61,3.61,0,0,0-1.33,3.15c0,.17,0,.34,0,.52q-1.75,0-2-1.41a3,3,0,0,1,0-.43,3.59,3.59,0,0,1,1.26-2.45C278.31,364.12,279.74,363.65,281.77,363.56Z" transform="translate(-177.95 -343.06)" fill="#1d1d1b"/><path d="M292.33,368.77a2,2,0,0,1,2,1.81c.25-.53.46-1,.63-1.3l.25-.51a2.08,2.08,0,0,1,1.08.32,1.41,1.41,0,0,1,.67.91c-.31.67-.62,1.44-1,2.29a17.52,17.52,0,0,0-.73,2.26,2.35,2.35,0,0,0-.07.54c0,.29.1.44.3.44s.71-.35,1.23-1.07a17.61,17.61,0,0,0,1.45-2.39h.85l-.43.85c-.29.57-.67,1.21-1.14,1.94a11.31,11.31,0,0,1-1.58,1.95,2.52,2.52,0,0,1-1.74.85,1.27,1.27,0,0,1-1.46-1.42,1.21,1.21,0,0,1,0-.19,3.54,3.54,0,0,1-2.72,1.61c-1.34,0-2-.74-2.05-2.22v-.16a8.78,8.78,0,0,1,1.23-4.33A3.61,3.61,0,0,1,292.33,368.77Zm.58,2c-.48.06-1,.53-1.53,1.4a5.35,5.35,0,0,0-.72,2.29v.11c0,.62.22.93.67.93a1.24,1.24,0,0,0,.88-.58,6.46,6.46,0,0,0,.82-1.34,5.76,5.76,0,0,0,.46-1.41c0-.2,0-.37,0-.52,0-.59-.17-.88-.5-.88Z" transform="translate(-177.95 -343.06)" fill="#1d1d1b"/><path d="M299.65,368.77a2.49,2.49,0,0,1,1.16.31,1.3,1.3,0,0,1,.75.89,3,3,0,0,1,2.23-1.2,1.33,1.33,0,0,1,1.4.8,2,2,0,0,1,.12.68,2.87,2.87,0,0,1-.33,1.19,2.35,2.35,0,0,1-1.38,1.11,1.72,1.72,0,0,1-.51.09.89.89,0,0,1-.57-.19,1,1,0,0,1-.38-.81v-.27q0-.25.45-.6a2,2,0,0,0-1.5,1.08,7.67,7.67,0,0,0-1,2.5,7.28,7.28,0,0,0-.21,1.68,5.8,5.8,0,0,0,.09,1,1.89,1.89,0,0,1-1.36.58,1.45,1.45,0,0,1-1.45-1.62,10.55,10.55,0,0,1,.82-3.65,29.67,29.67,0,0,1,1.47-3.15Z" transform="translate(-177.95 -343.06)" fill="#1d1d1b"/><path d="M308.81,368.77a2.2,2.2,0,0,1,1.27.4,2.23,2.23,0,0,1,.77,1.41c.25-.53.46-1,.63-1.3l.25-.51a2,2,0,0,1,1.07.32,1.41,1.41,0,0,1,.67.91c-.3.67-.62,1.44-1,2.29a17.74,17.74,0,0,0-.74,2.26,2.35,2.35,0,0,0-.07.54c0,.29.1.44.31.44s.71-.35,1.23-1.07a18.68,18.68,0,0,0,1.45-2.39h.84l-.43.85a20.29,20.29,0,0,1-1.14,1.94,11.26,11.26,0,0,1-1.57,1.95,2.52,2.52,0,0,1-1.74.85c-1,0-1.47-.47-1.47-1.42,0-.06,0-.13,0-.19a3.53,3.53,0,0,1-2.71,1.61c-1.34,0-2-.74-2.06-2.22v-.16a8.8,8.8,0,0,1,1.24-4.33A3.61,3.61,0,0,1,308.81,368.77Zm.58,2c-.47.06-1,.53-1.52,1.4a5.08,5.08,0,0,0-.72,2.29v.11q0,.93.66.93a1.22,1.22,0,0,0,.88-.58,6.06,6.06,0,0,0,.82-1.34,5.36,5.36,0,0,0,.46-1.41c0-.2,0-.37,0-.52,0-.59-.16-.88-.49-.88Z" transform="translate(-177.95 -343.06)" fill="#1d1d1b"/><path d="M238.92,380.46c-1,0-2.61-.42-2.77-3.2,0-.33,0-.69,0-1.05a26,26,0,0,1,.56-4.95c.09-.46.18-.91.27-1.34a3.23,3.23,0,0,1-1.76.5h-.43a2.14,2.14,0,0,1-1.51-.82,2.44,2.44,0,0,1-.59-1.7,5,5,0,0,1,.08-.83,4.81,4.81,0,0,1,1.36-2.54,6,6,0,0,1,2-1.25,7.94,7.94,0,0,1,1.83-.45l.72-.07a4.18,4.18,0,0,1,2.71.85,2.49,2.49,0,0,1,.91,2,4.11,4.11,0,0,1-.1.89c-.17.66-.36,1.39-.59,2.21-.35,1.25-.69,2.53-1,3.84a23.19,23.19,0,0,0-.61,3.25,2.46,2.46,0,0,0,0,.26,3.48,3.48,0,0,0,.53-.74c.52-.89,1.1-2,1.71-3.3a44.1,44.1,0,0,1,3.32-6.07c1.39-2.12,3.1-3.2,5.08-3.2a3.22,3.22,0,0,1,1.21.3,2.89,2.89,0,0,1,1.28,1.1,2.65,2.65,0,0,1,.41,1.48,3.86,3.86,0,0,1,0,.58l-.11.86-.85-.18a3.25,3.25,0,0,0-.69-.08,4.33,4.33,0,0,0-3.15,1.88,32,32,0,0,0-3.47,5.19,43.35,43.35,0,0,1-2.81,4.4A4.43,4.43,0,0,1,238.92,380.46Zm-1-14.7a1.08,1.08,0,0,0-.62.33,1.41,1.41,0,0,0-.49.76V367a.45.45,0,0,0,.11.32c.09.1.12.1.15.1h.47l.27-1.05.1-.39S237.9,365.83,237.9,365.76Z" transform="translate(-177.95 -343.06)" fill="#1d1d1b"/><path d="M246.94,378.44a2.07,2.07,0,0,1-2.26-2.24,2.18,2.18,0,0,1,0-.25,11,11,0,0,1,1-4.24,29.94,29.94,0,0,1,1.62-3.35l.23-.39H248a1.95,1.95,0,0,1,.4-2.07,1.84,1.84,0,0,1,1.33-.55,1.88,1.88,0,0,1,1.89,1.9,1.81,1.81,0,0,1-.56,1.32,1.78,1.78,0,0,1-.84.48,2.12,2.12,0,0,1,.31.74l.05.23-.08.22a3.59,3.59,0,0,1-.15.37c-.28.67-.58,1.41-.89,2.2-.09.24-.18.48-.25.7a17.25,17.25,0,0,0,1.06-1.81l.23-.43h2.63l-1,2a19.73,19.73,0,0,1-1.18,2,12,12,0,0,1-1.69,2.06,3.52,3.52,0,0,1-2.27,1.08h0Z" transform="translate(-177.95 -343.06)" fill="#1d1d1b"/><path d="M256.38,378.46a2.17,2.17,0,0,1-1.88-.84,3.66,3.66,0,0,1-2.29.84c-1.78,0-2.82-1.09-2.86-3v-.18a9.52,9.52,0,0,1,1.34-4.72,4.37,4.37,0,0,1,3.84-2.59,2.94,2.94,0,0,1,1.73.55,3.61,3.61,0,0,1,.3.25l.39-.8h.5a2.83,2.83,0,0,1,1.49.44,2.26,2.26,0,0,1,1,1.39l.07.27-.12.25c-.3.67-.61,1.43-.94,2.26-.13.34-.25.66-.35,1a17.83,17.83,0,0,0,1.08-1.84l.22-.43h2.63l-1,2c-.3.59-.7,1.27-1.18,2a12.89,12.89,0,0,1-1.69,2.08A3.29,3.29,0,0,1,256.38,378.46Zm-1.46-6.71a4.12,4.12,0,0,0-.65.84,4.43,4.43,0,0,0-.6,1.89v.08s.08-.08.12-.14a5.88,5.88,0,0,0,.72-1.18,5,5,0,0,0,.39-1.21A2.3,2.3,0,0,0,254.92,371.75Z" transform="translate(-177.95 -343.06)" fill="#1d1d1b"/><path d="M256.43,382.67a2.16,2.16,0,0,1-2.26-1.42,2.33,2.33,0,0,1-.16-.85,2.28,2.28,0,0,1,.62-1.55l.3-.34.45.09a3.15,3.15,0,0,0,.52,0c.89,0,1.63-.57,2.26-1.73a15.55,15.55,0,0,0,1.5-4.12.9.9,0,0,1-.18-.54,1.15,1.15,0,0,1,.16-.57,7,7,0,0,0,.58-1.58,5.61,5.61,0,0,0,.22-1.34V368h.61a1.75,1.75,0,0,1-.15-.72,1.91,1.91,0,0,1,1.9-1.89,1.88,1.88,0,0,1,1.89,1.89,1.84,1.84,0,0,1-.55,1.32,1.92,1.92,0,0,1-.67.43,2.59,2.59,0,0,1,.37.7l.08.22s-.13.58-.18.76a50.12,50.12,0,0,1-2.21,7.59C260.43,381.19,258.71,382.67,256.43,382.67Z" transform="translate(-177.95 -343.06)" fill="#1d1d1b"/><path d="M269.39,378.46a2.17,2.17,0,0,1-1.88-.84,3.68,3.68,0,0,1-2.29.84c-1.78,0-2.82-1.09-2.86-3v-.18a9.52,9.52,0,0,1,1.34-4.72,4.36,4.36,0,0,1,3.84-2.59,2.94,2.94,0,0,1,1.73.55,2.37,2.37,0,0,1,.29.25l.4-.8h.5a2.86,2.86,0,0,1,1.49.44,2.26,2.26,0,0,1,1,1.39l.07.27-.12.25c-.3.67-.61,1.43-.94,2.26-.13.34-.25.66-.35,1a16.16,16.16,0,0,0,1.07-1.84l.23-.43h2.63l-1,2a19.73,19.73,0,0,1-1.18,2,12.84,12.84,0,0,1-1.68,2.08A3.31,3.31,0,0,1,269.39,378.46Zm-1.46-6.71a3.5,3.5,0,0,0-.65.84,4.17,4.17,0,0,0-.6,1.89v.08l.12-.14a5.43,5.43,0,0,0,.71-1.18,4.61,4.61,0,0,0,.4-1.21A2.3,2.3,0,0,0,267.93,371.75Z" transform="translate(-177.95 -343.06)" fill="#1d1d1b"/><path d="M283.26,380.47a3.87,3.87,0,0,1-3.16-1.22,3.62,3.62,0,0,1-.77-1.46l-.15.22a5,5,0,0,1-4.17,2.46c-2.18,0-2.85-1.24-3.05-2a3.06,3.06,0,0,1-.12-.85,3.26,3.26,0,0,1,1.21-2.45l.52-.46.53.46a1.68,1.68,0,0,0,1,.48c.15,0,.59-.09,1.42-1a10.12,10.12,0,0,0,1.88-3.54q.21-.56.39-1.11h-.54a2.47,2.47,0,0,1-2.79-2.07,2.62,2.62,0,0,1-.06-.57,4.33,4.33,0,0,1,1.49-3c1-1,2.57-1.54,4.82-1.64l.25,0,.26,0h.14a6.35,6.35,0,0,1,4.25,1.7,3.8,3.8,0,0,1,1.19,2.75,4.84,4.84,0,0,1-.17,1.22,4.7,4.7,0,0,1-1.3,2,7,7,0,0,1-1.19.89c.28.12.56.26.84.41a4.34,4.34,0,0,1,2.23,3.89,5.16,5.16,0,0,1-1.44,3.3A4.61,4.61,0,0,1,283.26,380.47ZM281.63,375c0,.88.35,1,.49,1.11a1.44,1.44,0,0,0,.61.15,2,2,0,0,0,.83-.27c.2-.1.35-.5.42-1.08a1.18,1.18,0,0,0-.39-1,2.25,2.25,0,0,0-1.18-.46,4.45,4.45,0,0,0-.61,0h-.17Zm.35-9.42a3.25,3.25,0,0,0-1.92.67,2.87,2.87,0,0,0-1,2.5c0,.15,0,.31,0,.47v.06c.14-.44.29-.87.44-1.31a3,3,0,0,1,2.28-2,1.66,1.66,0,0,1,.32,0,2,2,0,0,1,1.9,1.41v-.17a1.93,1.93,0,0,0,0-.24,1.6,1.6,0,0,0-1.41-1.27A3.18,3.18,0,0,0,282,365.56Z" transform="translate(-177.95 -343.06)" fill="#1d1d1b"/><path d="M294.17,378.46a2.18,2.18,0,0,1-1.88-.84,3.64,3.64,0,0,1-2.29.84c-1.78,0-2.82-1.09-2.85-3v-.18a9.52,9.52,0,0,1,1.34-4.72,4.36,4.36,0,0,1,3.84-2.59,3,3,0,0,1,1.73.55,3.47,3.47,0,0,1,.29.25l.39-.8h.5a2.81,2.81,0,0,1,1.49.44,2.23,2.23,0,0,1,1,1.39l.07.27-.11.25c-.3.67-.61,1.43-.94,2.26-.13.34-.25.66-.35,1a19.82,19.82,0,0,0,1.07-1.84l.22-.43h2.64l-1,2c-.3.59-.7,1.27-1.18,2a12.37,12.37,0,0,1-1.69,2.08A3.27,3.27,0,0,1,294.17,378.46Zm-1.45-6.71a3.74,3.74,0,0,0-.66.84,4.43,4.43,0,0,0-.6,1.89v.08l.13-.14a5.86,5.86,0,0,0,.71-1.18,5,5,0,0,0,.4-1.21C292.71,372,292.71,371.85,292.72,371.75Z" transform="translate(-177.95 -343.06)" fill="#1d1d1b"/><path d="M298.58,378.44a2.07,2.07,0,0,1-2.26-2.23,2.35,2.35,0,0,1,0-.26,11.46,11.46,0,0,1,.88-3.89,32,32,0,0,1,1.51-3.22c.07-.15.15-.29.22-.43l.22-.44h.49a3.37,3.37,0,0,1,1.52.39,2.44,2.44,0,0,1,.54.37,3.4,3.4,0,0,1,2.08-.76,2.07,2.07,0,0,1,2.15,1.33,2.8,2.8,0,0,1,.17.95,3.74,3.74,0,0,1-.4,1.54,3.16,3.16,0,0,1-1.82,1.51,2.64,2.64,0,0,1-.8.14,1.64,1.64,0,0,1-1.08-.38,1.62,1.62,0,0,1-.42-.49,7.15,7.15,0,0,0-.75,2,6.15,6.15,0,0,0-.19,1.49,5.05,5.05,0,0,0,.08.88l.07.42-.29.29A2.66,2.66,0,0,1,298.58,378.44Z" transform="translate(-177.95 -343.06)" fill="#1d1d1b"/><path d="M310.66,378.46a2.17,2.17,0,0,1-1.88-.84,3.68,3.68,0,0,1-2.29.84c-1.78,0-2.82-1.09-2.86-3v-.18a9.52,9.52,0,0,1,1.34-4.72,4.36,4.36,0,0,1,3.84-2.59,2.94,2.94,0,0,1,1.73.55,2.37,2.37,0,0,1,.29.25l.4-.8h.5a2.83,2.83,0,0,1,1.49.44,2.26,2.26,0,0,1,1,1.39l.07.27-.12.25c-.3.67-.61,1.43-.94,2.26-.13.34-.25.66-.35,1A17.83,17.83,0,0,0,314,371.7l.22-.43h2.63l-1,2c-.3.59-.7,1.27-1.18,2a12.89,12.89,0,0,1-1.69,2.08A3.29,3.29,0,0,1,310.66,378.46Zm-1.46-6.71a3.79,3.79,0,0,0-.65.84,4.43,4.43,0,0,0-.6,1.89v.08l.12-.14a5.43,5.43,0,0,0,.71-1.18,4.61,4.61,0,0,0,.4-1.21A2.3,2.3,0,0,0,309.2,371.75Zm0-.39Z" transform="translate(-177.95 -343.06)" fill="#1d1d1b"/><path d="M250.6,363.55a2.51,2.51,0,0,1,.9.24,2.16,2.16,0,0,1,.93.8,1.87,1.87,0,0,1,.27,1,4.12,4.12,0,0,1,0,.48,4.2,4.2,0,0,0-.86-.1,5.05,5.05,0,0,0-3.76,2.16,32.93,32.93,0,0,0-3.56,5.32,43.57,43.57,0,0,1-2.75,4.32,3.71,3.71,0,0,1-2.82,1.85c-1.22,0-1.88-.82-2-2.45,0-.32,0-.66,0-1a25.3,25.3,0,0,1,.54-4.8c.36-1.82.73-3.45,1.11-4.87,0-.14.07-.28.1-.41a2,2,0,0,0,0-.4c0-.43-.18-.68-.54-.74l-.24,0a1.85,1.85,0,0,0-1.17.52,2.19,2.19,0,0,0-.75,1.3,1.15,1.15,0,0,0,0,.18,1.19,1.19,0,0,0,.32.85.94.94,0,0,0,.74.37c0,.05,0,.1,0,.15a1.06,1.06,0,0,1-.53.9,2.38,2.38,0,0,1-1.35.39h-.42a1.41,1.41,0,0,1-.93-.57,1.63,1.63,0,0,1-.38-1.15,4.48,4.48,0,0,1,.07-.69,3.94,3.94,0,0,1,1.11-2.09,5.31,5.31,0,0,1,1.76-1.09,7.52,7.52,0,0,1,1.64-.41l.7-.06a3.28,3.28,0,0,1,2.15.68,1.67,1.67,0,0,1,.61,1.38,3.86,3.86,0,0,1-.08.72c-.16.63-.35,1.35-.58,2.17-.35,1.26-.69,2.54-1,3.86a26.45,26.45,0,0,0-.63,3.36c0,.17,0,.32,0,.46,0,.61.15.92.47.92.5,0,1-.46,1.55-1.38s1.12-2,1.74-3.36a43.65,43.65,0,0,1,3.27-6Q248.05,363.56,250.6,363.55Z" transform="translate(-177.95 -343.06)" fill="#fff"/><path d="M248,368.77a2,2,0,0,1,1.06.31,1.29,1.29,0,0,1,.65.88c0,.11-.08.22-.13.33-.29.69-.59,1.43-.9,2.23a14.68,14.68,0,0,0-.66,2.09,2.15,2.15,0,0,0-.06.46c0,.29.1.43.3.43s.71-.35,1.23-1.05a18.54,18.54,0,0,0,1.45-2.38h.85l-.43.85c-.29.57-.67,1.21-1.14,1.94a10.79,10.79,0,0,1-1.58,1.92,2.72,2.72,0,0,1-1.74.86,1.46,1.46,0,0,1-1.45-1.63,10.14,10.14,0,0,1,1-4A30.94,30.94,0,0,1,248,368.77Zm1.69-2.62a1,1,0,0,1,.77.32,1.06,1.06,0,0,1,.32.78,1,1,0,0,1-.32.75,1.06,1.06,0,0,1-.77.32A1,1,0,0,1,249,368a1,1,0,0,1-.31-.75,1.06,1.06,0,0,1,.31-.78A1,1,0,0,1,249.73,366.15Z" transform="translate(-177.95 -343.06)" fill="#fff"/><path d="M254.53,368.77a2.2,2.2,0,0,1,1.27.4,2.23,2.23,0,0,1,.77,1.41c.25-.53.46-1,.63-1.3l.25-.51a2,2,0,0,1,1.07.32,1.41,1.41,0,0,1,.67.91c-.3.67-.62,1.44-.95,2.29a17.74,17.74,0,0,0-.74,2.26,3.07,3.07,0,0,0-.07.54c0,.29.1.44.31.44s.71-.35,1.23-1.07a18.68,18.68,0,0,0,1.45-2.39h.84l-.43.85a20.29,20.29,0,0,1-1.14,1.94,11.26,11.26,0,0,1-1.57,1.95,2.52,2.52,0,0,1-1.74.85c-1,0-1.47-.47-1.47-1.42,0-.06,0-.13,0-.19a3.53,3.53,0,0,1-2.71,1.61c-1.34,0-2-.74-2.06-2.22v-.16a8.8,8.8,0,0,1,1.24-4.33A3.61,3.61,0,0,1,254.53,368.77Zm.58,2c-.47.06-1,.53-1.52,1.4a5.08,5.08,0,0,0-.72,2.29v.11q0,.93.66.93a1.22,1.22,0,0,0,.88-.58,6.06,6.06,0,0,0,.82-1.34,5.36,5.36,0,0,0,.46-1.41c0-.2,0-.37,0-.52,0-.59-.17-.88-.5-.88Z" transform="translate(-177.95 -343.06)" fill="#fff"/><path d="M261.24,368.77a1.77,1.77,0,0,1,1.85,1.2l-.12.51a49.63,49.63,0,0,1-2.19,7.5c-1,2.6-2.43,3.89-4.35,3.89a1.4,1.4,0,0,1-1.51-.89,1.75,1.75,0,0,1-.11-.58,1.49,1.49,0,0,1,.42-1,3.11,3.11,0,0,0,.67.07,3.41,3.41,0,0,0,3-2.14,16.73,16.73,0,0,0,1.7-4.91h0c-.16,0-.24,0-.24-.14a.45.45,0,0,1,.06-.19,8.21,8.21,0,0,0,.66-1.76A6.68,6.68,0,0,0,261.24,368.77Zm1.56-2.61a1.08,1.08,0,0,1,1.09,1.09,1,1,0,0,1-.32.75,1.06,1.06,0,0,1-.77.32A1.09,1.09,0,0,1,262,368a1,1,0,0,1-.33-.75,1.05,1.05,0,0,1,.33-.78A1.08,1.08,0,0,1,262.8,366.16Z" transform="translate(-177.95 -343.06)" fill="#fff"/><path d="M267.54,368.77a2.2,2.2,0,0,1,1.27.4,2.23,2.23,0,0,1,.77,1.41c.25-.53.46-1,.63-1.3l.25-.51a2.07,2.07,0,0,1,1.07.32,1.41,1.41,0,0,1,.67.91c-.3.67-.62,1.44-.95,2.29a17.74,17.74,0,0,0-.74,2.26,2.35,2.35,0,0,0-.07.54c0,.29.1.44.3.44s.72-.35,1.23-1.07a18.71,18.71,0,0,0,1.46-2.39h.84l-.43.85c-.29.57-.67,1.21-1.14,1.94a11.26,11.26,0,0,1-1.57,1.95,2.52,2.52,0,0,1-1.74.85c-1,0-1.47-.47-1.47-1.42a1.21,1.21,0,0,1,0-.19,3.53,3.53,0,0,1-2.71,1.61c-1.35,0-2-.74-2.06-2.22v-.16A8.7,8.7,0,0,1,264.4,371,3.61,3.61,0,0,1,267.54,368.77Zm.58,2c-.47.06-1,.53-1.52,1.4a5.08,5.08,0,0,0-.72,2.29v.11q0,.93.66.93a1.22,1.22,0,0,0,.88-.58,6.06,6.06,0,0,0,.82-1.34,5.36,5.36,0,0,0,.46-1.41c0-.2,0-.37,0-.52,0-.59-.16-.88-.49-.88Z" transform="translate(-177.95 -343.06)" fill="#fff"/><path d="M281.77,363.56l.21,0,.2,0h.2a5.5,5.5,0,0,1,3.68,1.47,3,3,0,0,1,1,2.18,3.51,3.51,0,0,1-1.2,2.67,6,6,0,0,1-1.49,1,7.14,7.14,0,0,1-1.32.49l-.56.14a6.68,6.68,0,0,1,3.17,1,3.49,3.49,0,0,1,1.81,3.21,4.37,4.37,0,0,1-1.23,2.73,3.78,3.78,0,0,1-2.94,1.25,3.12,3.12,0,0,1-2.54-.92,2.84,2.84,0,0,1-.71-1.85c0-.06,0-.28,0-.67a2,2,0,0,1,.78-1.25,1.83,1.83,0,0,0,.95,1.84,2.2,2.2,0,0,0,1,.22,2.87,2.87,0,0,0,1.18-.35c.48-.24.76-.81.86-1.71v0a2.06,2.06,0,0,0-.68-1.71,3,3,0,0,0-1.6-.64c-.24,0-.47,0-.69,0a4,4,0,0,0-.88.09,20.59,20.59,0,0,1-2.4,4.91,4.2,4.2,0,0,1-3.51,2.11c-1.27,0-2-.46-2.28-1.39a2.35,2.35,0,0,1-.09-.64,2.45,2.45,0,0,1,.94-1.85,2.42,2.42,0,0,0,1.54.68,3.14,3.14,0,0,0,2-1.22,10.94,10.94,0,0,0,2.06-3.83c.2-.55.4-1.11.59-1.69s.33-1,.51-1.51a2.23,2.23,0,0,1,1.63-1.51l.21,0c.56,0,1,.37,1.23,1.1a2.53,2.53,0,0,0-1,1,11.15,11.15,0,0,0-.73,1.64,4.77,4.77,0,0,0,2.2-1.18,2.77,2.77,0,0,0,.95-2.17c0-.12,0-.24,0-.37a2.42,2.42,0,0,0-2.06-1.93,4,4,0,0,0-3.16.75,3.61,3.61,0,0,0-1.33,3.15c0,.17,0,.34,0,.52q-1.75,0-2-1.41a3,3,0,0,1,0-.43,3.59,3.59,0,0,1,1.26-2.45C278.31,364.12,279.74,363.65,281.77,363.56Z" transform="translate(-177.95 -343.06)" fill="#fff"/><path d="M292.33,368.77a2,2,0,0,1,2,1.81c.25-.53.46-1,.63-1.3l.25-.51a2.08,2.08,0,0,1,1.08.32,1.41,1.41,0,0,1,.67.91c-.31.67-.62,1.44-1,2.29a17.52,17.52,0,0,0-.73,2.26,2.35,2.35,0,0,0-.07.54c0,.29.1.44.3.44s.71-.35,1.23-1.07a17.61,17.61,0,0,0,1.45-2.39h.85l-.43.85c-.29.57-.67,1.21-1.14,1.94a11.31,11.31,0,0,1-1.58,1.95,2.52,2.52,0,0,1-1.74.85,1.27,1.27,0,0,1-1.46-1.42,1.21,1.21,0,0,1,0-.19,3.54,3.54,0,0,1-2.72,1.61c-1.34,0-2-.74-2.05-2.22v-.16a8.78,8.78,0,0,1,1.23-4.33A3.61,3.61,0,0,1,292.33,368.77Zm.58,2c-.48.06-1,.53-1.53,1.4a5.35,5.35,0,0,0-.72,2.29v.11c0,.62.22.93.67.93a1.24,1.24,0,0,0,.88-.58,6.46,6.46,0,0,0,.82-1.34,5.76,5.76,0,0,0,.46-1.41c0-.2,0-.37,0-.52,0-.59-.17-.88-.5-.88Z" transform="translate(-177.95 -343.06)" fill="#fff"/><path d="M299.65,368.77a2.49,2.49,0,0,1,1.16.31,1.3,1.3,0,0,1,.75.89,3,3,0,0,1,2.23-1.2,1.33,1.33,0,0,1,1.4.8,2,2,0,0,1,.12.68,2.87,2.87,0,0,1-.33,1.19,2.35,2.35,0,0,1-1.38,1.11,1.72,1.72,0,0,1-.51.09.89.89,0,0,1-.57-.19,1,1,0,0,1-.38-.81v-.27q0-.25.45-.6a2,2,0,0,0-1.5,1.08,7.67,7.67,0,0,0-1,2.5,7.28,7.28,0,0,0-.21,1.68,5.8,5.8,0,0,0,.09,1,1.89,1.89,0,0,1-1.36.58,1.45,1.45,0,0,1-1.45-1.62,10.55,10.55,0,0,1,.82-3.65,29.67,29.67,0,0,1,1.47-3.15Z" transform="translate(-177.95 -343.06)" fill="#fff"/><path d="M308.81,368.77a2.2,2.2,0,0,1,1.27.4,2.23,2.23,0,0,1,.77,1.41c.25-.53.46-1,.63-1.3l.25-.51a2,2,0,0,1,1.07.32,1.41,1.41,0,0,1,.67.91c-.3.67-.62,1.44-1,2.29a17.74,17.74,0,0,0-.74,2.26,2.35,2.35,0,0,0-.07.54c0,.29.1.44.31.44s.71-.35,1.23-1.07a18.68,18.68,0,0,0,1.45-2.39h.84l-.43.85a20.29,20.29,0,0,1-1.14,1.94,11.26,11.26,0,0,1-1.57,1.95,2.52,2.52,0,0,1-1.74.85c-1,0-1.47-.47-1.47-1.42,0-.06,0-.13,0-.19a3.53,3.53,0,0,1-2.71,1.61c-1.34,0-2-.74-2.06-2.22v-.16a8.8,8.8,0,0,1,1.24-4.33A3.61,3.61,0,0,1,308.81,368.77Zm.58,2c-.47.06-1,.53-1.52,1.4a5.08,5.08,0,0,0-.72,2.29v.11q0,.93.66.93a1.22,1.22,0,0,0,.88-.58,6.06,6.06,0,0,0,.82-1.34,5.36,5.36,0,0,0,.46-1.41c0-.2,0-.37,0-.52,0-.59-.16-.88-.49-.88Z" transform="translate(-177.95 -343.06)" fill="#fff"/></g></svg>