<?xml version="1.0" encoding="UTF-8" standalone="no"?>
<!-- Created with Inkscape (http://www.inkscape.org/) -->

<svg
   xmlns:dc="http://purl.org/dc/elements/1.1/"
   xmlns:cc="http://creativecommons.org/ns#"
   xmlns:rdf="http://www.w3.org/1999/02/22-rdf-syntax-ns#"
   xmlns:svg="http://www.w3.org/2000/svg"
   xmlns="http://www.w3.org/2000/svg"
   xmlns:inkscape="http://www.inkscape.org/namespaces/inkscape"
   version="1.1"
   width="510"
   height="195"
   id="svg2"
   xml:space="preserve"><metadata
     id="metadata8"><rdf:RDF><cc:Work
         rdf:about=""><dc:format>image/svg+xml</dc:format><dc:type
           rdf:resource="http://purl.org/dc/dcmitype/StillImage" /></cc:Work></rdf:RDF></metadata><defs
     id="defs6" /><g
     transform="matrix(1.25,0,0,-1.25,0,195)"
     id="g10"><g
       transform="scale(0.1,0.1)"
       id="g12"><path
         d="m 1380.12,130.762 c -79.85,7.578 -123.6,51.289 -131.17,131.129 7.57,79.808 51.32,123.558 131.17,131.14 79.88,-7.582 123.55,-51.332 131.21,-131.14 -7.66,-79.84 -51.33,-123.551 -131.21,-131.129 m 251.87,131.129 c -1.87,71.57 -26.6,130.82 -74.1,177.781 -46.87,47.539 -106.13,72.18 -177.77,74.098 -71.6,-1.918 -130.86,-26.559 -177.74,-74.098 -47.5,-46.961 -72.22,-106.211 -74.18,-177.781 1.96,-71.602 26.68,-131.129 74.18,-178.6722 46.88,-46.9102 106.14,-71.2891 177.74,-73.1993 71.64,1.9102 131.21,26.5586 178.71,74.1016 46.87,46.9099 71.29,106.1679 73.16,177.7699"
         inkscape:connector-curvature="0"
         id="path14"
         style="fill:#020205;fill-opacity:1;fill-rule:evenodd;stroke:none" /><path
         d="m 3525.43,130.762 c -79.81,7.578 -123.55,51.289 -131.13,131.129 7.58,79.808 51.32,123.558 131.13,131.14 79.84,-7.582 123.59,-51.332 131.13,-131.14 -7.54,-79.84 -51.29,-123.551 -131.13,-131.129 m 251.91,131.129 c -1.95,71.57 -26.29,130.82 -73.24,177.781 -47.54,47.539 -107.07,72.18 -178.67,74.098 -71.56,-1.918 -130.82,-26.559 -177.77,-74.098 -47.5,-46.961 -72.19,-106.211 -74.11,-177.781 1.92,-71.602 26.61,-131.129 74.11,-178.6722 46.95,-46.9102 106.21,-71.2891 177.77,-73.1993 71.6,1.9102 131.13,26.5586 178.67,74.1016 46.95,46.9099 71.29,106.1679 73.24,177.7699"
         inkscape:connector-curvature="0"
         id="path16"
         style="fill:#020205;fill-opacity:1;fill-rule:evenodd;stroke:none" /><path
         d="m 3962.66,758.961 c -95.04,75.469 -194.18,133.75 -297.46,174.961 -102.7,41.137 -158.48,62.066 -167.31,62.699 l -345.08,335.549 c -126.68,115.35 -234.45,182.18 -323.16,200.58 -88.09,18.36 -134.34,24.38 -138.75,18.05 l -1734.65,0 C 896.602,1444.31 848.48,1336.62 811.719,1227.63 l 1632.971,0 24.72,219.58 739.54,-473.401 -847.9,-474.297 11.45,99.797 14.26,119.769 -2283.17,0 L 0,599.309 l 684.379,0 C 675.469,437.711 672.93,353.141 676.719,345.488 L 892.5,242.871 l 155.9,0 c -0.63,6.328 -0.98,12.34 -0.98,18.051 2.62,94.449 35.2,173.039 97.93,235.777 62.11,62.653 140.35,95.352 234.77,97.852 94.45,-2.5 173,-35.199 235.74,-97.852 62.77,-62.738 95.35,-141.328 97.89,-235.777 -0.59,-5.711 -0.98,-11.723 -0.98,-18.051 l 1465.75,0 c -0.67,6.328 -0.98,12.34 -0.98,18.051 2.54,97.566 36.17,178.75 100.78,243.359 64.61,64.598 145.39,98.239 242.38,100.739 97.58,-2.5 178.64,-36.141 243.32,-100.739 64.61,-64.609 98.17,-145.793 100.78,-243.359 0,-5.711 -0.39,-11.723 -0.97,-18.051 l 189.14,0 c 30.47,152.77 25.04,276.328 -16.17,370.699 -40.55,94.379 -65.28,142.891 -74.14,145.391"
         inkscape:connector-curvature="0"
         id="path18"
         style="fill:#fd1400;fill-opacity:1;fill-rule:evenodd;stroke:none" /><path
         d="m 2866.76,1105.02 -338.4,215.74 -14.26,-157.81 -2029.33,0 -147.348,-185.348 2731.758,0 -202.42,127.418"
         inkscape:connector-curvature="0"
         id="path20"
         style="fill:#17d4dc;fill-opacity:1;fill-rule:evenodd;stroke:none" /><path
         d="m 899.531,869.199 -4.371,259.531 c -17.82,-6.56 -31.801,-16.95 -41.879,-31.1 -10,-14.17 -15.082,-31.83 -15.16,-52.96 -0.109,-4.81 0.078,-8.71 0.629,-11.72 0.629,-3.05 1.25,-5.47 1.871,-7.35 0.629,-1.79 1.18,-3.2 1.719,-4.22 0.512,-0.93 0.781,-1.79 0.781,-2.5 -6.562,0.08 -12.422,0.79 -17.5,2.04 -5,1.32 -9.211,3.47 -12.652,6.4 -3.36,2.89 -5.899,6.72 -7.66,11.41 -1.789,4.69 -2.649,10.47 -2.649,17.34 0.07,8.44 1.949,16.72 5.621,24.85 3.75,8.12 8.828,15.82 15.309,23.12 6.449,7.27 13.988,13.95 22.66,20 8.629,6.13 17.852,11.41 27.66,15.78 9.879,4.46 20.149,7.97 30.781,10.47 10.7,2.5 21.399,3.67 32.028,3.59 2.812,0 5.39,-0.07 7.812,-0.15 2.5,-0.12 4.918,-0.39 7.348,-0.78 l 1.871,-233.751 81.56,232.181 26.41,-0.15 -107.341,-282.5 -54.848,0.469 z m 231.759,238.861 c -0.12,-4.18 -1.02,-8.08 -2.66,-11.71 -1.56,-3.68 -3.75,-6.84 -6.56,-9.54 -2.81,-2.61 -6.05,-4.68 -9.69,-6.25 -3.67,-1.48 -7.61,-2.18 -11.87,-2.18 -4.18,0 -8.09,0.78 -11.72,2.34 -3.67,1.64 -6.84,3.79 -9.53,6.41 -2.74,2.69 -4.85,5.86 -6.41,9.53 -1.48,3.75 -2.15,7.69 -2.03,11.87 0,4.14 0.7,8.01 2.19,11.57 1.56,3.63 3.75,6.87 6.56,9.68 2.81,2.82 6.02,5 9.69,6.57 3.63,1.56 7.54,2.34 11.72,2.34 4.25,0 8.2,-0.86 11.87,-2.5 3.63,-1.68 6.8,-3.91 9.53,-6.72 2.7,-2.81 4.85,-6.05 6.41,-9.69 1.64,-3.67 2.5,-7.57 2.5,-11.72 z m 22.34,-172.501 c -3.75,-10.309 -7.89,-19.207 -12.34,-26.707 -4.38,-7.5 -8.99,-13.872 -13.75,-19.071 -4.69,-5.109 -9.61,-9.293 -14.69,-12.5 -5.12,-3.121 -10,-5.543 -14.69,-7.179 -4.68,-1.68 -9.18,-2.821 -13.43,-3.442 -4.3,-0.629 -8.09,-0.941 -11.41,-0.941 -5.74,0.121 -11.09,1.019 -16.09,2.66 -4.93,1.75 -9.18,4.531 -12.82,8.281 -3.55,3.75 -6.36,8.469 -8.43,14.219 -2.07,5.699 -3.05,12.582 -2.97,20.621 0,3.441 0.27,7.23 0.78,11.41 0.55,4.141 1.33,8.629 2.34,13.442 l 26.57,121.708 54.68,-0.46 -27.97,-128.748 c -0.62,-2.192 -1.09,-4.34 -1.4,-6.411 -0.24,-1.992 -0.31,-3.98 -0.31,-5.941 0,-5.309 1.25,-9.02 3.75,-11.09 2.5,-2.109 6.4,-3.129 11.71,-3.129 3.75,0 7.35,0.778 10.79,2.348 3.51,1.641 6.75,3.941 9.68,6.871 3.01,3.012 5.71,6.602 8.13,10.781 2.38,4.141 4.37,8.641 5.94,13.438 l 15.93,-0.16 z m 200.78,-1.321 c -3.67,-10.316 -7.61,-19.297 -11.87,-26.879 -4.3,-7.5 -8.71,-13.828 -13.28,-18.898 -4.49,-5.121 -9.14,-9.301 -13.91,-12.5 -4.69,-3.133 -9.3,-5.59 -13.75,-7.352 -4.49,-1.64 -8.75,-2.73 -12.81,-3.281 -4.06,-0.617 -7.77,-0.937 -11.09,-0.937 -10.75,0.121 -19.3,3.089 -25.63,8.91 -6.37,5.937 -10.23,14.687 -11.56,26.25 -3.05,-4.379 -6.41,-8.672 -10.16,-12.813 -3.75,-4.066 -7.93,-7.738 -12.5,-10.937 -4.61,-3.242 -9.76,-5.86 -15.47,-7.813 -5.62,-1.957 -11.83,-2.968 -18.59,-2.968 -6.56,0 -12.89,1.05 -18.91,3.121 -6.05,2.187 -11.4,5.711 -16.09,10.629 -4.61,4.878 -8.28,11.171 -11.09,18.902 -2.82,7.816 -4.15,17.348 -4.07,28.598 0,8.75 0.9,18.039 2.66,27.968 1.8,9.883 4.45,19.762 8.12,29.684 3.75,9.887 8.32,19.298 13.75,28.288 5.39,9.06 11.76,17.03 19.07,23.9 7.26,6.95 15.5,12.5 24.68,16.56 9.14,4.14 19.26,6.18 30.32,6.1 10.7,-0.12 18.51,-2.03 23.43,-5.78 4.89,-3.68 7.35,-8.25 7.35,-13.75 l -0.16,-2.66 4.22,20 54.69,-0.31 -27.97,-128.911 c -0.63,-2.187 -1.09,-4.328 -1.41,-6.398 -0.31,-2 -0.47,-3.992 -0.47,-5.941 -0.11,-10.86 5.04,-16.25 15.47,-16.25 3.64,-0.122 7.07,0.781 10.32,2.652 3.2,1.879 6.13,4.418 8.75,7.656 2.57,3.203 4.88,7.031 6.87,11.41 2.07,4.371 3.79,8.942 5.16,13.75 l 15.93,0 z m -95.15,86.252 c 0,1.13 -0.28,2.54 -0.78,4.22 -0.43,1.64 -1.25,3.28 -2.5,4.84 -1.18,1.56 -2.74,2.85 -4.69,3.91 -1.99,1.01 -4.49,1.56 -7.5,1.56 -5.31,0.08 -10.39,-1.56 -15.16,-5 -4.8,-3.44 -9.22,-8.05 -13.28,-13.75 -3.98,-5.74 -7.5,-12.27 -10.62,-19.532 -3.13,-7.308 -5.86,-14.808 -8.13,-22.5 -2.19,-7.617 -3.87,-15.16 -5,-22.66 -1.17,-7.5 -1.72,-14.219 -1.72,-20.156 -0.11,-7.301 0.51,-12.934 1.88,-16.871 1.33,-3.992 2.97,-6.949 4.84,-8.91 1.95,-1.993 4.06,-3.2 6.25,-3.59 2.19,-0.313 4.14,-0.473 5.94,-0.473 2.81,0 5.78,0.66 8.91,2.031 3.2,1.332 6.28,3.442 9.21,6.25 2.89,2.813 5.55,6.289 7.97,10.469 2.5,4.141 4.38,9.063 5.63,14.692 l 18.75,85.47 z m 114.26,-184.959 c -2.93,-13.519 -7,-24.543 -12.19,-32.972 -5.12,-8.438 -10.86,-14.93 -17.19,-19.528 -6.25,-4.691 -12.81,-7.82 -19.69,-9.383 -6.87,-1.558 -13.47,-2.339 -19.84,-2.339 -5.7,0.113 -11.13,1.011 -16.25,2.652 -5.2,1.57 -9.73,3.867 -13.59,6.879 -3.95,3.039 -7.04,6.871 -9.22,11.558 -2.27,4.614 -3.44,9.961 -3.44,16.09 0.12,7.934 2.11,14.934 5.94,20.942 3.86,5.941 8.83,11.211 14.84,15.781 5.94,4.5 12.66,8.359 20.16,11.57 7.42,3.117 14.68,5.778 21.87,7.957 l 41.88,191.252 54.84,-0.46 -38.75,-175.94 c 5.82,1.949 11.09,4.289 15.78,7.031 4.69,2.688 8.99,6.168 12.97,10.469 3.95,4.262 7.5,9.289 10.63,15.148 3.12,5.942 6.09,13.051 8.9,21.41 l 15.94,-0.16 c -3.87,-12.5 -8.44,-22.957 -13.75,-31.398 -5.31,-8.442 -11.06,-15.309 -17.19,-20.629 -6.05,-5.313 -12.26,-9.371 -18.59,-12.18 -6.25,-2.82 -12.35,-4.929 -18.28,-6.41 l -5.78,-27.34 z m 58.43,270.779 c -0.11,-4.18 -1.01,-8.09 -2.65,-11.72 -1.57,-3.67 -3.75,-6.8 -6.57,-9.38 -2.73,-2.61 -5.89,-4.68 -9.53,-6.25 -3.67,-1.56 -7.61,-2.34 -11.87,-2.34 -4.18,0.08 -8.09,0.94 -11.72,2.5 -3.67,1.56 -6.84,3.63 -9.53,6.25 -2.74,2.69 -4.85,5.86 -6.41,9.53 -1.48,3.75 -2.15,7.7 -2.03,11.88 0,4.25 0.7,8.2 2.19,11.87 1.56,3.63 3.75,6.8 6.56,9.53 2.81,2.7 6.02,4.85 9.69,6.41 3.63,1.64 7.54,2.42 11.72,2.34 4.25,0 8.2,-0.86 11.87,-2.5 3.63,-1.56 6.76,-3.75 9.38,-6.56 2.69,-2.74 4.84,-5.94 6.4,-9.69 1.64,-3.67 2.5,-7.62 2.5,-11.87 z M 1320.7,845.68 c -4.88,-1.871 -9.57,-3.828 -14.06,-5.942 -4.57,-2.066 -8.59,-4.41 -12.03,-7.027 -3.44,-2.582 -6.13,-5.473 -8.13,-8.59 -2.07,-3.199 -3.12,-6.723 -3.12,-10.473 0,-1.437 0.23,-2.886 0.62,-4.367 0.43,-1.453 1.22,-2.82 2.35,-4.07 1.05,-1.25 2.42,-2.223 4.06,-2.973 1.56,-0.699 3.52,-1.09 5.78,-1.09 3.99,0 8.05,2.774 12.19,8.282 4.06,5.429 7.42,13.871 10,25.308 l 2.34,10.942 z m 267.15,79.691 c -0.62,-2.191 -1.09,-4.34 -1.4,-6.41 -0.32,-1.992 -0.47,-3.981 -0.47,-5.93 0,-5.32 1.25,-9.031 3.75,-11.101 2.57,-1.989 6.56,-2.969 11.87,-2.969 1.64,-0.109 3.17,-0.082 4.53,0.16 1.45,0.309 2.7,0.777 3.75,1.41 -2.73,-6.57 -5.27,-12.269 -7.65,-17.043 -2.31,-4.797 -4.93,-8.816 -7.82,-12.027 -2.81,-3.121 -6.05,-5.43 -9.68,-6.871 -3.68,-1.449 -7.97,-2.192 -12.97,-2.192 -10.55,0.122 -18.99,3.161 -25.31,9.223 -6.37,6.129 -10.32,14.879 -11.88,26.25 -2.81,-4.301 -6.09,-8.562 -9.84,-12.812 -3.75,-4.18 -7.97,-7.93 -12.66,-11.25 -4.69,-3.25 -9.92,-5.86 -15.62,-7.821 -5.75,-1.949 -11.96,-2.957 -18.6,-2.957 -6.56,0 -12.89,1.047 -18.9,3.117 -6.06,2.192 -11.41,5.704 -16.1,10.633 -4.61,4.879 -8.28,11.168 -11.09,18.899 -2.81,7.808 -4.14,17.351 -4.06,28.601 0,8.75 0.89,18.039 2.65,27.957 1.8,9.891 4.45,19.774 8.13,29.692 3.75,9.879 8.32,19.3 13.75,28.28 5.39,9.07 11.75,17.03 19.06,23.91 7.26,6.95 15.51,12.5 24.69,16.56 9.14,4.14 19.25,6.17 30.31,6.1 10.7,-0.12 18.51,-2.04 23.44,-5.79 4.88,-3.67 7.34,-8.24 7.34,-13.75 l -0.16,-2.65 4.22,20 54.69,-0.31 -27.97,-128.909 z m -34.53,93.119 c 0,1.14 -0.27,2.54 -0.78,4.22 -0.43,1.64 -1.25,3.28 -2.5,4.85 -1.17,1.56 -2.74,2.85 -4.69,3.9 -1.99,1.02 -4.49,1.57 -7.5,1.57 -5.31,0.07 -10.39,-1.57 -15.15,-5 -4.81,-3.44 -9.22,-8.05 -13.29,-13.75 -3.98,-5.75 -7.5,-12.27 -10.62,-19.542 -3.13,-7.297 -5.86,-14.797 -8.13,-22.5 -2.18,-7.609 -3.86,-15.148 -5,-22.648 -1.17,-7.5 -1.71,-14.219 -1.71,-20.16 -0.12,-7.301 0.5,-12.93 1.87,-16.871 1.33,-3.989 2.97,-6.957 4.84,-8.911 1.96,-1.988 4.07,-3.199 6.25,-3.589 2.19,-0.321 4.14,-0.469 5.94,-0.469 2.81,0 5.78,0.66 8.91,2.031 3.2,1.328 6.29,3.438 9.22,6.25 2.89,2.809 5.54,6.289 7.97,10.469 2.5,4.14 4.37,9.058 5.62,14.691 l 18.75,85.459 z m 95.74,-154.529 53.44,241.409 56.09,7.19 -18.43,-84.22 2.34,0 c 7.5,0 14.57,1.79 21.25,5.47 6.64,3.63 12.42,8.36 17.34,14.22 5,5.93 8.95,12.53 11.88,19.84 3.01,7.26 4.57,14.53 4.69,21.72 0,5.31 -0.94,10.39 -2.82,15.31 -1.79,4.88 -4.64,9.26 -8.59,13.13 -3.98,3.82 -9.14,6.91 -15.47,9.21 -6.25,2.39 -13.9,3.6 -22.97,3.6 -7.42,0.08 -14.96,-0.71 -22.65,-2.35 -7.62,-1.56 -14.93,-4.06 -21.88,-7.5 -6.99,-3.36 -13.59,-7.5 -19.84,-12.5 -6.25,-5 -11.68,-10.93 -16.25,-17.81 -4.61,-6.8 -8.24,-14.49 -10.94,-23.12 -2.73,-8.56 -4.06,-18.05 -4.06,-28.44 -0.12,-4.81 0.08,-8.71 0.62,-11.72 0.63,-3.05 1.25,-5.47 1.88,-7.34 0.7,-1.8 1.33,-3.21 1.87,-4.22 0.63,-0.94 0.94,-1.8 0.94,-2.5 -12.93,0.08 -22.93,2.73 -30,7.97 -7.11,5.31 -10.59,14.37 -10.47,27.18 0.08,8.83 1.88,17.39 5.31,25.63 3.52,8.32 8.44,16.25 14.69,23.75 6.33,7.5 13.83,14.26 22.5,20.31 8.63,6.13 18.05,11.45 28.28,15.94 10.2,4.57 21.02,8.12 32.5,10.62 11.45,2.5 23.17,3.68 35.16,3.6 13.94,-0.12 25.98,-1.88 36.09,-5.31 10.2,-3.44 18.6,-7.97 25.16,-13.6 6.56,-5.62 11.4,-12.15 14.53,-19.53 3.2,-7.3 4.84,-14.84 4.84,-22.66 -0.11,-5.74 -1.01,-11.48 -2.65,-17.18 -1.56,-5.63 -4.03,-11.06 -7.35,-16.25 -3.24,-5.12 -7.26,-10 -12.03,-14.69 -4.8,-4.61 -10.31,-8.56 -16.56,-11.88 8.2,-1.56 15.16,-4.33 20.78,-8.28 5.7,-3.86 10.35,-8.59 13.91,-14.22 3.51,-5.541 6.09,-11.638 7.65,-18.279 1.57,-6.68 2.35,-13.59 2.35,-20.781 -0.12,-6.051 -0.78,-12.969 -2.03,-20.782 -1.25,-7.808 -3.25,-15.777 -5.94,-23.91 -2.62,-8.039 -6.06,-15.929 -10.31,-23.75 -4.18,-7.726 -9.38,-14.609 -15.63,-20.617 -6.25,-5.941 -13.51,-10.742 -21.72,-14.383 -8.24,-3.75 -17.65,-5.539 -28.28,-5.457 -4.06,0 -8.36,0.43 -12.81,1.25 -4.49,0.739 -8.56,2.18 -12.19,4.367 -3.67,2.071 -6.68,4.922 -9.06,8.59 -2.31,3.641 -3.44,8.364 -3.44,14.223 0,3.211 0.35,6.598 1.1,10.16 0.82,3.629 2.1,7.578 3.9,11.867 4.77,-5.226 9.1,-8.859 12.97,-10.929 3.95,-2 8.05,-2.969 12.34,-2.969 6.96,-0.121 12.86,2.031 17.66,6.398 4.77,4.461 8.67,10.043 11.72,16.723 3.01,6.641 5.19,13.988 6.56,22.027 1.33,8.133 2.03,15.711 2.03,22.821 0.08,6.562 -0.43,12.73 -1.56,18.589 -1.05,5.942 -2.97,11.09 -5.78,15.473 -2.81,4.449 -6.52,8.009 -11.1,10.619 -4.6,2.58 -10.31,3.95 -17.18,4.07 -1.68,0 -4.14,-0.08 -7.35,-0.16 -3.12,-0.12 -6.52,-0.43 -10.15,-0.94 l -32.03,-145.312 -54.85,0.313 z m 423.71,65.348 c -3.67,-10.309 -7.61,-19.289 -11.87,-26.868 -4.3,-7.5 -8.71,-13.832 -13.28,-18.91 -4.5,-5.109 -9.14,-9.293 -13.91,-12.5 -4.69,-3.121 -9.3,-5.582 -13.75,-7.34 -4.49,-1.64 -8.75,-2.73 -12.81,-3.281 -4.06,-0.629 -7.77,-0.941 -11.1,-0.941 -10.74,0.121 -19.29,3.09 -25.62,8.91 -6.37,5.93 -10.23,14.68 -11.56,26.25 -3.05,-4.379 -6.41,-8.668 -10.16,-12.82 -3.75,-4.059 -7.93,-7.731 -12.5,-10.93 -4.61,-3.25 -9.76,-5.859 -15.47,-7.82 -5.62,-1.95 -11.83,-2.957 -18.59,-2.957 -6.56,0 -12.89,1.046 -18.91,3.117 -6.05,2.191 -11.4,5.703 -16.09,10.633 -4.61,4.878 -8.28,11.168 -11.1,18.898 -2.81,7.809 -4.14,17.352 -4.06,28.602 0,8.75 0.9,18.039 2.66,27.957 1.8,9.89 4.45,19.769 8.12,29.691 3.75,9.879 8.32,19.301 13.75,28.28 5.39,9.07 11.76,17.03 19.07,23.91 7.26,6.95 15.5,12.5 24.68,16.56 9.14,4.14 19.26,6.17 30.32,6.1 10.7,-0.12 18.51,-2.04 23.43,-5.79 4.89,-3.67 7.35,-8.24 7.35,-13.75 l -0.16,-2.65 4.22,20 54.69,-0.31 -27.97,-128.909 c -0.63,-2.191 -1.1,-4.339 -1.41,-6.41 -0.31,-1.992 -0.47,-3.98 -0.47,-5.929 -0.11,-10.864 5.04,-16.25 15.47,-16.25 3.64,-0.122 7.07,0.777 10.31,2.648 3.21,1.879 6.14,4.422 8.75,7.66 2.58,3.199 4.89,7.031 6.88,11.399 2.07,4.382 3.79,8.953 5.16,13.75 l 15.93,0 z m -95.15,86.251 c 0,1.14 -0.28,2.54 -0.78,4.22 -0.43,1.64 -1.25,3.28 -2.5,4.85 -1.18,1.56 -2.74,2.85 -4.69,3.9 -1.99,1.02 -4.49,1.57 -7.5,1.57 -5.31,0.07 -10.39,-1.57 -15.16,-5 -4.8,-3.44 -9.22,-8.05 -13.28,-13.75 -3.98,-5.75 -7.5,-12.272 -10.62,-19.541 -3.13,-7.297 -5.86,-14.797 -8.13,-22.5 -2.19,-7.61 -3.87,-15.149 -5,-22.649 -1.17,-7.5 -1.72,-14.219 -1.72,-20.16 -0.12,-7.301 0.51,-12.93 1.88,-16.871 1.33,-3.988 2.97,-6.957 4.84,-8.91 1.95,-1.989 4.06,-3.199 6.25,-3.59 2.19,-0.32 4.14,-0.469 5.94,-0.469 2.81,0 5.78,0.66 8.9,2.031 3.21,1.329 6.29,3.438 9.22,6.25 2.89,2.809 5.55,6.289 7.97,10.469 2.5,4.141 4.38,9.059 5.63,14.692 l 18.75,85.458 z m 65.66,-154.181 41.56,189.691 54.69,-0.47 -4.84,-23.43 c 3.32,2.89 6.72,5.78 10.15,8.59 3.52,2.81 7.19,5.31 10.94,7.5 3.83,2.19 7.81,3.91 11.88,5.16 4.06,1.32 8.36,2.03 12.96,2.03 4.26,-0.12 8.01,-1.02 11.26,-2.66 3.32,-1.56 6.09,-3.67 8.28,-6.25 2.26,-2.62 3.94,-5.62 5,-9.06 1.01,-3.44 1.56,-7.03 1.56,-10.78 0,-3.36 -0.59,-6.68 -1.72,-10 -1.17,-3.24 -2.89,-6.17 -5.16,-8.75 -2.3,-2.62 -5.15,-4.77 -8.59,-6.411 -3.44,-1.68 -7.46,-2.461 -12.03,-2.34 -3.67,0 -6.49,0.621 -8.44,1.871 -1.87,1.25 -3.36,2.809 -4.37,4.69 -0.94,1.87 -1.64,3.83 -2.03,5.94 -0.32,2.18 -0.75,4.22 -1.26,6.09 -0.42,1.88 -1.05,3.44 -1.87,4.69 -0.86,1.33 -2.19,2.03 -4.06,2.03 -5.74,0 -10.59,-1.37 -14.53,-4.06 -3.99,-2.62 -8.4,-6.06 -13.28,-10.32 l -31.26,-144.208 -54.84,0.457 z m 314.57,58.723 c -0.62,-2.192 -1.09,-4.34 -1.4,-6.411 -0.32,-1.992 -0.47,-3.98 -0.47,-5.941 0,-5.309 1.25,-9.02 3.75,-11.09 2.57,-1.988 6.56,-2.969 11.87,-2.969 1.64,-0.121 3.17,-0.082 4.53,0.161 1.45,0.308 2.7,0.777 3.75,1.398 -2.73,-6.559 -5.27,-12.262 -7.65,-17.031 -2.31,-4.797 -4.93,-8.828 -7.82,-12.028 -2.81,-3.132 -6.05,-5.429 -9.68,-6.882 -3.68,-1.438 -7.97,-2.18 -12.97,-2.18 -10.55,0.109 -18.99,3.16 -25.31,9.223 -6.37,6.128 -10.32,14.878 -11.88,26.25 -2.81,-4.301 -6.09,-8.563 -9.84,-12.821 -3.75,-4.179 -7.97,-7.929 -12.66,-11.25 -4.69,-3.242 -9.92,-5.859 -15.62,-7.812 -5.75,-1.949 -11.96,-2.969 -18.6,-2.969 -6.56,0 -12.89,1.059 -18.9,3.129 -6.06,2.18 -11.41,5.699 -16.1,10.621 -4.61,4.879 -8.28,11.172 -11.09,18.91 -2.81,7.809 -4.14,17.34 -4.06,28.59 0,8.75 0.89,18.051 2.65,27.969 1.8,9.883 4.45,19.769 8.13,29.691 3.75,9.879 8.32,19.301 13.75,28.28 5.39,9.06 11.75,17.03 19.06,23.91 7.26,6.95 15.51,12.5 24.69,16.56 9.14,4.14 19.25,6.17 30.31,6.09 10.7,-0.12 18.51,-2.03 23.44,-5.78 4.88,-3.67 7.34,-8.24 7.34,-13.75 l -0.16,-2.66 4.22,20 54.69,-0.31 -27.97,-128.898 z m -34.53,93.118 c 0,1.13 -0.27,2.54 -0.78,4.22 -0.43,1.64 -1.25,3.28 -2.5,4.84 -1.17,1.57 -2.74,2.85 -4.69,3.91 -1.99,1.02 -4.49,1.56 -7.5,1.56 -5.31,0.08 -10.39,-1.56 -15.15,-5 -4.81,-3.44 -9.22,-8.04 -13.29,-13.75 -3.98,-5.74 -7.5,-12.262 -10.62,-19.531 -3.13,-7.297 -5.86,-14.797 -8.13,-22.5 -2.18,-7.617 -3.86,-15.16 -5,-22.66 -1.17,-7.5 -1.71,-14.207 -1.71,-20.149 -0.12,-7.308 0.5,-12.93 1.87,-16.879 1.33,-3.98 2.97,-6.953 4.84,-8.902 1.96,-2 4.07,-3.207 6.25,-3.598 2.19,-0.312 4.14,-0.472 5.94,-0.472 2.81,0 5.78,0.671 8.91,2.043 3.2,1.32 6.29,3.429 9.22,6.25 2.89,2.808 5.54,6.277 7.97,10.457 2.5,4.152 4.37,9.07 5.62,14.691"
         inkscape:connector-curvature="0"
         id="path22"
         style="fill:#090909;fill-opacity:1;fill-rule:nonzero;stroke:none" /></g></g></svg>